M48
; DRILL file {KiCad 9.0.5} date 2025-11-13T17:06:45-0500
; FORMAT={-:-/ absolute / inch / decimal}
; #@! TF.CreationDate,2025-11-13T17:06:45-05:00
; #@! TF.GenerationSoftware,Kicad,Pcbnew,9.0.5
; #@! TF.FileFunction,Plated,1,2,PTH
FMAT,2
INCH
; #@! TA.AperFunction,Plated,PTH,ViaDrill
T1C0.0118
; #@! TA.AperFunction,Plated,PTH,ViaDrill
T2C0.0197
; #@! TA.AperFunction,Plated,PTH,ComponentDrill
T3C0.0394
; #@! TA.AperFunction,Plated,PTH,ComponentDrill
T4C0.0402
; #@! TA.AperFunction,Plated,PTH,ComponentDrill
T5C0.0433
; #@! TA.AperFunction,Plated,PTH,ComponentDrill
T6C0.0492
; #@! TA.AperFunction,Plated,PTH,ComponentDrill
T7C0.0500
; #@! TA.AperFunction,Plated,PTH,ComponentDrill
T8C0.0512
; #@! TA.AperFunction,Plated,PTH,ComponentDrill
T9C0.0579
; #@! TA.AperFunction,Plated,PTH,ComponentDrill
T10C0.0591
; #@! TA.AperFunction,Plated,PTH,ComponentDrill
T11C0.1260
; #@! TA.AperFunction,Plated,PTH,ComponentDrill
T12C0.1575
%
G90
G05
T1
X4.4754Y-3.2037
X4.5049Y-5.6673
X4.5925Y-4.4173
X4.6309Y-2.6604
X4.6427Y-5.0453
X4.6752Y-4.9724
X4.7677Y-6.0709
X4.7707Y-4.3907
X4.9045Y-5.8002
X4.9616Y-4.0305
X4.9621Y-3.6353
X5.0866Y-5.5906
X5.1358Y-3.7114
X5.1358Y-4.1555
X5.1358Y-4.3642
X5.186Y-2.9596
X5.187Y-4.1043
X5.3091Y-3.561
X5.3091Y-4.4518
X5.3199Y-6.002
X5.372Y-5.9705
X5.3848Y-3.6614
X5.4488Y-5.6919
X5.4547Y-4.5276
X5.4921Y-4.562
X5.5118Y-5.9341
X5.5354Y-4.5974
X5.5492Y-5.9705
X5.561Y-4.4882
X5.5748Y-5.6919
X5.6142Y-5.7165
X5.622Y-5.5906
X5.626Y-4.3907
X5.6457Y-5.9291
X5.7264Y-5.9724
X5.7372Y-4.9715
X5.7402Y-5.0472
X5.7549Y-5.3533
X5.7579Y-5.124
X5.7795Y-5.9291
X5.8406Y-4.686
X5.8543Y-5.314
X5.878Y-2.7106
X5.878Y-2.811
X5.9213Y-5.1486
X5.9232Y-5.9724
X5.9291Y-5.7165
X5.937Y-5.5512
X5.937Y-5.6457
X5.9764Y-5.5906
X5.9764Y-5.685
X5.9892Y-4.8041
X6.0394Y-5.9272
X6.0551Y-5.3858
X6.0719Y-2.561
X6.0719Y-4.5276
X6.1004Y-5.9685
X6.1033Y-2.8602
X6.1033Y-4.562
X6.1358Y-2.6604
X6.1358Y-4.5974
X6.1545Y-5.314
X6.1575Y-5.5906
X6.1732Y-5.7323
X6.1732Y-5.8425
X6.1732Y-5.9213
X6.1841Y-4.4173
X6.249Y-4.9695
X6.2579Y-4.1102
X6.2717Y-4.9941
X6.2776Y-5.9724
X6.2825Y-4.2136
X6.2913Y-5.7323
X6.3071Y-5.9055
X6.31Y-5.0207
X6.314Y-4.312
X6.3425Y-4.4124
X6.3555Y-5.3533
X6.4528Y-5.3848
X6.4567Y-5.5906
X6.4587Y-5.9685
X6.4961Y-3.3622
X6.497Y-5.5413
X6.5039Y-5.9134
X6.5394Y-5.784
X6.5453Y-3.4606
X6.5699Y-3.561
X6.5748Y-6.5276
X6.6378Y-3.061
X6.6713Y-3.1614
X6.6841Y-5.5906
X6.7677Y-5.5906
X6.8307Y-2.4606
X6.8307Y-4.3415
X6.8731Y-4.686
X6.8976Y-2.4262
X6.9291Y-2.3957
X7.0551Y-6.0
T2
X4.0108Y-4.9183
X4.4724Y-4.7372
X5.1181Y-5.5315
X5.1339Y-6.0433
X5.2224Y-4.2943
X5.2224Y-4.7372
X5.2234Y-3.8819
X5.6112Y-4.7382
X5.7402Y-4.8189
X6.497Y-5.8425
X6.5Y-5.6909
X6.7717Y-4.9803
X6.7717Y-5.0394
X6.7717Y-5.0984
X6.998Y-4.7382
X7.0335Y-2.249
X7.0335Y-4.6348
X7.4094Y-4.7037
X7.8199Y-4.4961
T3
X4.5128Y-5.0344
X5.6053Y-6.3386
X5.6053Y-6.437
X5.6053Y-6.5354
X6.1762Y-6.3386
X6.1762Y-6.5354
T4
X5.5598Y-2.0606
X5.5598Y-2.1606
X5.5598Y-2.2606
X5.5598Y-2.3606
X5.5598Y-2.4606
X5.5598Y-2.5606
X5.5598Y-2.6606
X5.5598Y-2.7606
X5.5598Y-2.8606
X5.5598Y-2.9606
X5.5598Y-3.0606
X5.5598Y-3.1606
X5.5598Y-3.2606
X5.5598Y-3.3606
X5.5598Y-3.4606
X5.5598Y-3.5606
X5.5598Y-3.6606
X5.5598Y-3.7606
X5.5598Y-3.8606
X5.5598Y-3.9606
X5.8098Y-3.9516
X5.9098Y-3.9516
X6.0098Y-3.9516
X6.2598Y-2.0606
X6.2598Y-2.1606
X6.2598Y-2.2606
X6.2598Y-2.3606
X6.2598Y-2.4606
X6.2598Y-2.5606
X6.2598Y-2.6606
X6.2598Y-2.7606
X6.2598Y-2.8606
X6.2598Y-2.9606
X6.2598Y-3.0606
X6.2598Y-3.1606
X6.2598Y-3.2606
X6.2598Y-3.3606
X6.2598Y-3.4606
X6.2598Y-3.5606
X6.2598Y-3.6606
X6.2598Y-3.7606
X6.2598Y-3.8606
X6.2598Y-3.9606
T5
X5.2555Y-5.4724
X5.3555Y-5.4724
X5.4555Y-5.4724
X5.5555Y-5.4724
X5.6555Y-5.4724
X5.7555Y-2.2835
X5.7555Y-5.4724
X5.8555Y-2.2835
X5.8555Y-5.4724
X5.9555Y-2.2835
X5.9555Y-5.4724
X6.0555Y-2.2835
X6.0555Y-5.4724
X6.1555Y-5.4724
X6.2555Y-5.4724
X6.3555Y-5.4724
X6.4555Y-5.4724
X6.5555Y-5.4724
T6
X4.19Y-5.03
X4.19Y-5.23
X4.1929Y-2.6559
X4.1929Y-2.8559
X4.1929Y-3.0874
X4.1929Y-3.2874
X4.1929Y-3.5205
X4.1929Y-3.7205
X4.1929Y-3.952
X4.1929Y-4.152
X7.6181Y-2.6559
X7.6181Y-2.8559
X7.6181Y-3.089
X7.6181Y-3.289
X7.6181Y-3.522
X7.6181Y-3.722
X7.6181Y-4.6047
X7.6181Y-4.8047
T7
X7.0441Y-5.2797
X7.0441Y-5.8797
X7.1441Y-5.2797
X7.1441Y-5.8797
X7.2441Y-5.2797
X7.2441Y-5.8797
X7.3441Y-5.2797
X7.3441Y-5.8797
X7.4441Y-5.2797
X7.4441Y-5.8797
X7.5441Y-5.2797
X7.5441Y-5.8797
X7.6441Y-5.2797
X7.6441Y-5.8797
X7.7441Y-5.2797
X7.7441Y-5.8797
T8
X4.1142Y-4.3461
X4.1142Y-4.4461
X4.1142Y-4.5461
X4.1142Y-4.6469
X4.1142Y-4.7469
X4.1142Y-4.8469
X7.6969Y-3.9102
X7.6969Y-4.0102
X7.6969Y-4.1102
X7.6969Y-4.211
X7.6969Y-4.311
X7.6969Y-4.411
T9
X4.7663Y-6.3567
X5.0163Y-6.2567
X6.7348Y-6.3567
X6.9848Y-6.2567
T11
X5.0394Y-2.2835
X5.0394Y-5.2787
X6.7717Y-2.2835
X6.7717Y-5.2787
T12
X4.1339Y-2.1654
X4.1339Y-6.6929
X7.6772Y-2.1654
X7.6772Y-6.6929
T10
G00X5.875Y-6.2165
M15
G01X5.9262Y-6.2165
M16
G05
G00X5.875Y-6.6575
M15
G01X5.9262Y-6.6575
M16
G05
M30
