%TF.GenerationSoftware,KiCad,Pcbnew,9.0.5*%
%TF.CreationDate,2025-11-13T17:06:43-05:00*%
%TF.ProjectId,Solder-Oven-PCB-V1,536f6c64-6572-42d4-9f76-656e2d504342,rev?*%
%TF.SameCoordinates,Original*%
%TF.FileFunction,Soldermask,Bot*%
%TF.FilePolarity,Negative*%
%FSLAX46Y46*%
G04 Gerber Fmt 4.6, Leading zero omitted, Abs format (unit mm)*
G04 Created by KiCad (PCBNEW 9.0.5) date 2025-11-13 17:06:43*
%MOMM*%
%LPD*%
G01*
G04 APERTURE LIST*
G04 Aperture macros list*
%AMRoundRect*
0 Rectangle with rounded corners*
0 $1 Rounding radius*
0 $2 $3 $4 $5 $6 $7 $8 $9 X,Y pos of 4 corners*
0 Add a 4 corners polygon primitive as box body*
4,1,4,$2,$3,$4,$5,$6,$7,$8,$9,$2,$3,0*
0 Add four circle primitives for the rounded corners*
1,1,$1+$1,$2,$3*
1,1,$1+$1,$4,$5*
1,1,$1+$1,$6,$7*
1,1,$1+$1,$8,$9*
0 Add four rect primitives between the rounded corners*
20,1,$1+$1,$2,$3,$4,$5,0*
20,1,$1+$1,$4,$5,$6,$7,0*
20,1,$1+$1,$6,$7,$8,$9,0*
20,1,$1+$1,$8,$9,$2,$3,0*%
G04 Aperture macros list end*
%ADD10C,1.750000*%
%ADD11C,2.250000*%
%ADD12C,3.987800*%
%ADD13C,4.500000*%
%ADD14C,2.000000*%
%ADD15R,2.000000X2.000000*%
%ADD16C,8.000000*%
%ADD17C,2.500000*%
%ADD18R,3.200000X2.000000*%
%ADD19R,1.700000X1.700000*%
%ADD20RoundRect,0.237500X-0.250000X-0.237500X0.250000X-0.237500X0.250000X0.237500X-0.250000X0.237500X0*%
%ADD21RoundRect,0.237500X-0.300000X-0.237500X0.300000X-0.237500X0.300000X0.237500X-0.300000X0.237500X0*%
%ADD22RoundRect,0.237500X0.250000X0.237500X-0.250000X0.237500X-0.250000X-0.237500X0.250000X-0.237500X0*%
%ADD23RoundRect,0.237500X0.237500X-0.250000X0.237500X0.250000X-0.237500X0.250000X-0.237500X-0.250000X0*%
%ADD24RoundRect,0.150000X0.512500X0.150000X-0.512500X0.150000X-0.512500X-0.150000X0.512500X-0.150000X0*%
%ADD25RoundRect,0.350000X0.800000X-0.350000X0.800000X0.350000X-0.800000X0.350000X-0.800000X-0.350000X0*%
%ADD26RoundRect,0.237500X-0.237500X0.300000X-0.237500X-0.300000X0.237500X-0.300000X0.237500X0.300000X0*%
%ADD27RoundRect,0.100000X-0.637500X-0.100000X0.637500X-0.100000X0.637500X0.100000X-0.637500X0.100000X0*%
%ADD28O,1.800000X1.800000*%
%ADD29O,1.500000X1.500000*%
%ADD30O,1.700000X1.700000*%
%ADD31R,3.500000X1.700000*%
%ADD32R,1.700000X3.500000*%
%ADD33RoundRect,0.150000X0.850000X0.150000X-0.850000X0.150000X-0.850000X-0.150000X0.850000X-0.150000X0*%
%ADD34RoundRect,0.237500X0.300000X0.237500X-0.300000X0.237500X-0.300000X-0.237500X0.300000X-0.237500X0*%
%ADD35RoundRect,0.237500X0.237500X-0.300000X0.237500X0.300000X-0.237500X0.300000X-0.237500X-0.300000X0*%
%ADD36C,2.109000*%
%ADD37RoundRect,0.237500X-0.237500X0.250000X-0.237500X-0.250000X0.237500X-0.250000X0.237500X0.250000X0*%
%TA.AperFunction,Profile*%
%ADD38C,0.050000*%
%TD*%
G04 APERTURE END LIST*
D10*
%TO.C,SW3*%
X179955000Y-164000000D03*
X169795000Y-164000000D03*
D11*
X171065000Y-161460000D03*
D12*
X174875000Y-164000000D03*
D11*
X177415000Y-158920000D03*
%TD*%
D13*
%TO.C,U4*%
X128000000Y-58000000D03*
X128000000Y-134080000D03*
X172000000Y-58000000D03*
X172000000Y-134080000D03*
D14*
X166510000Y-139000000D03*
X163970000Y-139000000D03*
X161430000Y-139000000D03*
X158890000Y-139000000D03*
X156350000Y-139000000D03*
X153810000Y-139000000D03*
X151270000Y-139000000D03*
X148730000Y-139000000D03*
X146190000Y-139000000D03*
X143650000Y-139000000D03*
X141110000Y-139000000D03*
X138570000Y-139000000D03*
X136030000Y-139000000D03*
D15*
X133490000Y-139000000D03*
D14*
X153810000Y-58000000D03*
X151270000Y-58000000D03*
X148730000Y-58000000D03*
D15*
X146190000Y-58000000D03*
%TD*%
D16*
%TO.C,H3*%
X105000000Y-170000000D03*
%TD*%
D17*
%TO.C,J2*%
X106500000Y-94500000D03*
X106500000Y-89420000D03*
%TD*%
D16*
%TO.C,H1*%
X105000000Y-55000000D03*
%TD*%
D17*
%TO.C,J4*%
X193500000Y-67460000D03*
X193500000Y-72540000D03*
%TD*%
D16*
%TO.C,H4*%
X195000000Y-170000000D03*
%TD*%
D15*
%TO.C,SW1*%
X142375000Y-161000000D03*
D14*
X142375000Y-166000000D03*
X142375000Y-163500000D03*
D18*
X149875000Y-157900000D03*
X149875000Y-169100000D03*
D14*
X156875000Y-166000000D03*
X156875000Y-161000000D03*
%TD*%
%TO.C,J7*%
X195500000Y-99320000D03*
X195500000Y-101860000D03*
X195500000Y-104400000D03*
X195500000Y-106960000D03*
X195500000Y-109500000D03*
X195500000Y-112040000D03*
%TD*%
D19*
%TO.C,J11*%
X114625000Y-127875000D03*
%TD*%
D17*
%TO.C,J6*%
X106500000Y-72540000D03*
X106500000Y-67460000D03*
%TD*%
%TO.C,J3*%
X106500000Y-83500000D03*
X106500000Y-78420000D03*
%TD*%
%TO.C,J12*%
X193500000Y-116960000D03*
X193500000Y-122040000D03*
%TD*%
D10*
%TO.C,SW2*%
X129955000Y-164000000D03*
X119795000Y-164000000D03*
D11*
X121065000Y-161460000D03*
D12*
X124875000Y-164000000D03*
D11*
X127415000Y-158920000D03*
%TD*%
D14*
%TO.C,J5*%
X104500000Y-123110000D03*
X104500000Y-120570000D03*
X104500000Y-118030000D03*
X104500000Y-115470000D03*
X104500000Y-112930000D03*
X104500000Y-110390000D03*
%TD*%
D17*
%TO.C,J8*%
X193500000Y-78460000D03*
X193500000Y-83540000D03*
%TD*%
%TO.C,J10*%
X106426000Y-132842000D03*
X106426000Y-127762000D03*
%TD*%
D16*
%TO.C,H2*%
X195000000Y-55000000D03*
%TD*%
D17*
%TO.C,J1*%
X106500000Y-105460000D03*
X106500000Y-100380000D03*
%TD*%
%TO.C,J9*%
X193500000Y-89460000D03*
X193500000Y-94540000D03*
%TD*%
D20*
%TO.C,R29*%
X129587500Y-146000000D03*
X131412500Y-146000000D03*
%TD*%
D21*
%TO.C,C17*%
X186412500Y-123700000D03*
X188137500Y-123700000D03*
%TD*%
D20*
%TO.C,R32*%
X129087500Y-155500000D03*
X130912500Y-155500000D03*
%TD*%
%TO.C,R41*%
X147487500Y-142600000D03*
X149312500Y-142600000D03*
%TD*%
%TO.C,R30*%
X133175000Y-144500000D03*
X135000000Y-144500000D03*
%TD*%
D22*
%TO.C,R38*%
X149312500Y-144200000D03*
X147487500Y-144200000D03*
%TD*%
D23*
%TO.C,R21*%
X167275000Y-143487500D03*
X167275000Y-141662500D03*
%TD*%
D22*
%TO.C,R42*%
X145800000Y-142600000D03*
X143975000Y-142600000D03*
%TD*%
D24*
%TO.C,Q4*%
X148675000Y-151650000D03*
X148675000Y-153550000D03*
X146400000Y-152600000D03*
%TD*%
D22*
%TO.C,R28*%
X134987500Y-147425000D03*
X133162500Y-147425000D03*
%TD*%
D24*
%TO.C,U8*%
X186375000Y-127100000D03*
X186375000Y-128050000D03*
X186375000Y-129000000D03*
X184100000Y-129000000D03*
X184100000Y-128050000D03*
X184100000Y-127100000D03*
%TD*%
D22*
%TO.C,R25*%
X131500000Y-151000000D03*
X129675000Y-151000000D03*
%TD*%
D24*
%TO.C,Q5*%
X153537500Y-151650000D03*
X153537500Y-153550000D03*
X151262500Y-152600000D03*
%TD*%
D22*
%TO.C,R26*%
X135087500Y-151000000D03*
X133262500Y-151000000D03*
%TD*%
D23*
%TO.C,R15*%
X167275000Y-146912500D03*
X167275000Y-145087500D03*
%TD*%
D22*
%TO.C,R35*%
X155400000Y-142800000D03*
X153575000Y-142800000D03*
%TD*%
%TO.C,R27*%
X131487500Y-148925000D03*
X129662500Y-148925000D03*
%TD*%
D20*
%TO.C,R37*%
X143975000Y-144200000D03*
X145800000Y-144200000D03*
%TD*%
D23*
%TO.C,R19*%
X171050000Y-168712500D03*
X171050000Y-166887500D03*
%TD*%
D25*
%TO.C,L2*%
X179000000Y-128025000D03*
X179000000Y-124475000D03*
%TD*%
D26*
%TO.C,C15*%
X182100000Y-126262500D03*
X182100000Y-127987500D03*
%TD*%
D24*
%TO.C,Q7*%
X162737500Y-151650000D03*
X162737500Y-153550000D03*
X160462500Y-152600000D03*
%TD*%
D27*
%TO.C,U7*%
X147575000Y-130750000D03*
X147575000Y-130100000D03*
X147575000Y-129450000D03*
X147575000Y-128800000D03*
X147575000Y-128150000D03*
X147575000Y-127500000D03*
X147575000Y-126850000D03*
X147575000Y-126200000D03*
X147575000Y-125550000D03*
X147575000Y-124900000D03*
X147575000Y-124250000D03*
X147575000Y-123600000D03*
X153300000Y-123600000D03*
X153300000Y-124250000D03*
X153300000Y-124900000D03*
X153300000Y-125550000D03*
X153300000Y-126200000D03*
X153300000Y-126850000D03*
X153300000Y-127500000D03*
X153300000Y-128150000D03*
X153300000Y-128800000D03*
X153300000Y-129450000D03*
X153300000Y-130100000D03*
X153300000Y-130750000D03*
%TD*%
D24*
%TO.C,Q8*%
X167337500Y-151650000D03*
X167337500Y-153550000D03*
X165062500Y-152600000D03*
%TD*%
D21*
%TO.C,C16*%
X186412500Y-125275000D03*
X188137500Y-125275000D03*
%TD*%
D20*
%TO.C,R12*%
X153575000Y-144400000D03*
X155400000Y-144400000D03*
%TD*%
D24*
%TO.C,Q6*%
X158275000Y-151650000D03*
X158275000Y-153550000D03*
X156000000Y-152600000D03*
%TD*%
D20*
%TO.C,R31*%
X129587500Y-143500000D03*
X131412500Y-143500000D03*
%TD*%
D28*
%TO.C,U10*%
X152835000Y-52470000D03*
D29*
X152535000Y-55500000D03*
X147685000Y-55500000D03*
D28*
X147385000Y-52470000D03*
D30*
X159000000Y-52340000D03*
D31*
X159900000Y-52340000D03*
D30*
X159000000Y-54880000D03*
D31*
X159900000Y-54880000D03*
D19*
X159000000Y-57420000D03*
D31*
X159900000Y-57420000D03*
D30*
X159000000Y-59960000D03*
D31*
X159900000Y-59960000D03*
D30*
X159000000Y-62500000D03*
D31*
X159900000Y-62500000D03*
D30*
X159000000Y-65040000D03*
D31*
X159900000Y-65040000D03*
D30*
X159000000Y-67580000D03*
D31*
X159900000Y-67580000D03*
D19*
X159000000Y-70120000D03*
D31*
X159900000Y-70120000D03*
D30*
X159000000Y-72660000D03*
D31*
X159900000Y-72660000D03*
D30*
X159000000Y-75200000D03*
D31*
X159900000Y-75200000D03*
D30*
X159000000Y-77740000D03*
D31*
X159900000Y-77740000D03*
D30*
X159000000Y-80280000D03*
D31*
X159900000Y-80280000D03*
D19*
X159000000Y-82820000D03*
D31*
X159900000Y-82820000D03*
D30*
X159000000Y-85360000D03*
D31*
X159900000Y-85360000D03*
D30*
X159000000Y-87900000D03*
D31*
X159900000Y-87900000D03*
D30*
X159000000Y-90440000D03*
D31*
X159900000Y-90440000D03*
D30*
X159000000Y-92980000D03*
D31*
X159900000Y-92980000D03*
D19*
X159000000Y-95520000D03*
D31*
X159900000Y-95520000D03*
D30*
X159000000Y-98060000D03*
D31*
X159900000Y-98060000D03*
D30*
X159000000Y-100600000D03*
D31*
X159900000Y-100600000D03*
D30*
X141220000Y-100600000D03*
D31*
X140320000Y-100600000D03*
D30*
X141220000Y-98060000D03*
D31*
X140320000Y-98060000D03*
D19*
X141220000Y-95520000D03*
D31*
X140320000Y-95520000D03*
D30*
X141220000Y-92980000D03*
D31*
X140320000Y-92980000D03*
D30*
X141220000Y-90440000D03*
D31*
X140320000Y-90440000D03*
D30*
X141220000Y-87900000D03*
D31*
X140320000Y-87900000D03*
D30*
X141220000Y-85360000D03*
D31*
X140320000Y-85360000D03*
D19*
X141220000Y-82820000D03*
D31*
X140320000Y-82820000D03*
D30*
X141220000Y-80280000D03*
D31*
X140320000Y-80280000D03*
D30*
X141220000Y-77740000D03*
D31*
X140320000Y-77740000D03*
D30*
X141220000Y-75200000D03*
D31*
X140320000Y-75200000D03*
D30*
X141220000Y-72660000D03*
D31*
X140320000Y-72660000D03*
D19*
X141220000Y-70120000D03*
D31*
X140320000Y-70120000D03*
D30*
X141220000Y-67580000D03*
D31*
X140320000Y-67580000D03*
D30*
X141220000Y-65040000D03*
D31*
X140320000Y-65040000D03*
D30*
X141220000Y-62500000D03*
D31*
X140320000Y-62500000D03*
D30*
X141220000Y-59960000D03*
D31*
X140320000Y-59960000D03*
D19*
X141220000Y-57420000D03*
D31*
X140320000Y-57420000D03*
D30*
X141220000Y-54880000D03*
D31*
X140320000Y-54880000D03*
D30*
X141220000Y-52340000D03*
D31*
X140320000Y-52340000D03*
D30*
X152650000Y-100370000D03*
D32*
X152650000Y-101270000D03*
D19*
X150110000Y-100370000D03*
D32*
X150110000Y-101270000D03*
D30*
X147570000Y-100370000D03*
D32*
X147570000Y-101270000D03*
%TD*%
D33*
%TO.C,U6*%
X127500000Y-143500000D03*
X127500000Y-144770000D03*
X127500000Y-146040000D03*
X127500000Y-147310000D03*
X127500000Y-148580000D03*
X127500000Y-149850000D03*
X127500000Y-151120000D03*
X127500000Y-152390000D03*
X122500000Y-152390000D03*
X122500000Y-151120000D03*
X122500000Y-149850000D03*
X122500000Y-148580000D03*
X122500000Y-147310000D03*
X122500000Y-146040000D03*
X122500000Y-144770000D03*
X122500000Y-143500000D03*
%TD*%
D23*
%TO.C,R24*%
X161050000Y-168212500D03*
X161050000Y-166387500D03*
%TD*%
D34*
%TO.C,C14*%
X186112500Y-130625000D03*
X184387500Y-130625000D03*
%TD*%
D20*
%TO.C,R14*%
X160887500Y-146000000D03*
X162712500Y-146000000D03*
%TD*%
D22*
%TO.C,R9*%
X141712500Y-143600000D03*
X139887500Y-143600000D03*
%TD*%
D24*
%TO.C,Q3*%
X144075000Y-151650000D03*
X144075000Y-153550000D03*
X141800000Y-152600000D03*
%TD*%
%TO.C,Q2*%
X139675000Y-151650000D03*
X139675000Y-153550000D03*
X137400000Y-152600000D03*
%TD*%
D20*
%TO.C,R39*%
X160887500Y-144400000D03*
X162712500Y-144400000D03*
%TD*%
D22*
%TO.C,R40*%
X162712500Y-142800000D03*
X160887500Y-142800000D03*
%TD*%
%TO.C,R20*%
X159112500Y-142800000D03*
X157287500Y-142800000D03*
%TD*%
D35*
%TO.C,C19*%
X155862500Y-130787500D03*
X155862500Y-129062500D03*
%TD*%
D23*
%TO.C,R22*%
X144862500Y-131412500D03*
X144862500Y-129587500D03*
%TD*%
D22*
%TO.C,R16*%
X141712500Y-142000000D03*
X139887500Y-142000000D03*
%TD*%
D23*
%TO.C,R8*%
X138200000Y-143512500D03*
X138200000Y-141687500D03*
%TD*%
D20*
%TO.C,R36*%
X134487500Y-141600000D03*
X136312500Y-141600000D03*
%TD*%
D24*
%TO.C,Q1*%
X135137500Y-153550000D03*
X135137500Y-155450000D03*
X132862500Y-154500000D03*
%TD*%
D20*
%TO.C,R10*%
X143975000Y-145800000D03*
X145800000Y-145800000D03*
%TD*%
%TO.C,R13*%
X157287500Y-144400000D03*
X159112500Y-144400000D03*
%TD*%
D36*
%TO.C,U3*%
X196700000Y-134105000D03*
X194160000Y-134105000D03*
X191620000Y-134105000D03*
X189080000Y-134105000D03*
X186540000Y-134105000D03*
X184000000Y-134105000D03*
X181460000Y-134105000D03*
X178920000Y-134105000D03*
X178920000Y-149345000D03*
X181460000Y-149345000D03*
X184000000Y-149345000D03*
X186540000Y-149345000D03*
X189080000Y-149345000D03*
X191620000Y-149345000D03*
X194160000Y-149345000D03*
X196700000Y-149345000D03*
%TD*%
D22*
%TO.C,R11*%
X149312500Y-145800000D03*
X147487500Y-145800000D03*
%TD*%
D37*
%TO.C,R23*%
X121100000Y-155837500D03*
X121100000Y-157662500D03*
%TD*%
D20*
%TO.C,R43*%
X130887500Y-141600000D03*
X132712500Y-141600000D03*
%TD*%
D38*
X100000000Y-50000000D02*
X200000000Y-50000000D01*
X200000000Y-175000000D01*
X100000000Y-175000000D01*
X100000000Y-50000000D01*
M02*
