%TF.GenerationSoftware,KiCad,Pcbnew,9.0.5*%
%TF.CreationDate,2025-11-13T17:06:43-05:00*%
%TF.ProjectId,Solder-Oven-PCB-V1,536f6c64-6572-42d4-9f76-656e2d504342,rev?*%
%TF.SameCoordinates,Original*%
%TF.FileFunction,Legend,Top*%
%TF.FilePolarity,Positive*%
%FSLAX46Y46*%
G04 Gerber Fmt 4.6, Leading zero omitted, Abs format (unit mm)*
G04 Created by KiCad (PCBNEW 9.0.5) date 2025-11-13 17:06:43*
%MOMM*%
%LPD*%
G01*
G04 APERTURE LIST*
%ADD10C,0.160000*%
%ADD11C,0.120000*%
%TA.AperFunction,Profile*%
%ADD12C,0.050000*%
%TD*%
G04 APERTURE END LIST*
D10*
X118429060Y-96166666D02*
X118476680Y-96214285D01*
X118476680Y-96214285D02*
X118524299Y-96357142D01*
X118524299Y-96357142D02*
X118524299Y-96452380D01*
X118524299Y-96452380D02*
X118476680Y-96595237D01*
X118476680Y-96595237D02*
X118381441Y-96690475D01*
X118381441Y-96690475D02*
X118286203Y-96738094D01*
X118286203Y-96738094D02*
X118095727Y-96785713D01*
X118095727Y-96785713D02*
X117952870Y-96785713D01*
X117952870Y-96785713D02*
X117762394Y-96738094D01*
X117762394Y-96738094D02*
X117667156Y-96690475D01*
X117667156Y-96690475D02*
X117571918Y-96595237D01*
X117571918Y-96595237D02*
X117524299Y-96452380D01*
X117524299Y-96452380D02*
X117524299Y-96357142D01*
X117524299Y-96357142D02*
X117571918Y-96214285D01*
X117571918Y-96214285D02*
X117619537Y-96166666D01*
X117524299Y-95261904D02*
X117524299Y-95738094D01*
X117524299Y-95738094D02*
X118000489Y-95785713D01*
X118000489Y-95785713D02*
X117952870Y-95738094D01*
X117952870Y-95738094D02*
X117905251Y-95642856D01*
X117905251Y-95642856D02*
X117905251Y-95404761D01*
X117905251Y-95404761D02*
X117952870Y-95309523D01*
X117952870Y-95309523D02*
X118000489Y-95261904D01*
X118000489Y-95261904D02*
X118095727Y-95214285D01*
X118095727Y-95214285D02*
X118333822Y-95214285D01*
X118333822Y-95214285D02*
X118429060Y-95261904D01*
X118429060Y-95261904D02*
X118476680Y-95309523D01*
X118476680Y-95309523D02*
X118524299Y-95404761D01*
X118524299Y-95404761D02*
X118524299Y-95642856D01*
X118524299Y-95642856D02*
X118476680Y-95738094D01*
X118476680Y-95738094D02*
X118429060Y-95785713D01*
X114454299Y-63942857D02*
X113978108Y-64276190D01*
X114454299Y-64514285D02*
X113454299Y-64514285D01*
X113454299Y-64514285D02*
X113454299Y-64133333D01*
X113454299Y-64133333D02*
X113501918Y-64038095D01*
X113501918Y-64038095D02*
X113549537Y-63990476D01*
X113549537Y-63990476D02*
X113644775Y-63942857D01*
X113644775Y-63942857D02*
X113787632Y-63942857D01*
X113787632Y-63942857D02*
X113882870Y-63990476D01*
X113882870Y-63990476D02*
X113930489Y-64038095D01*
X113930489Y-64038095D02*
X113978108Y-64133333D01*
X113978108Y-64133333D02*
X113978108Y-64514285D01*
X114454299Y-62990476D02*
X114454299Y-63561904D01*
X114454299Y-63276190D02*
X113454299Y-63276190D01*
X113454299Y-63276190D02*
X113597156Y-63371428D01*
X113597156Y-63371428D02*
X113692394Y-63466666D01*
X113692394Y-63466666D02*
X113740013Y-63561904D01*
X113882870Y-62419047D02*
X113835251Y-62514285D01*
X113835251Y-62514285D02*
X113787632Y-62561904D01*
X113787632Y-62561904D02*
X113692394Y-62609523D01*
X113692394Y-62609523D02*
X113644775Y-62609523D01*
X113644775Y-62609523D02*
X113549537Y-62561904D01*
X113549537Y-62561904D02*
X113501918Y-62514285D01*
X113501918Y-62514285D02*
X113454299Y-62419047D01*
X113454299Y-62419047D02*
X113454299Y-62228571D01*
X113454299Y-62228571D02*
X113501918Y-62133333D01*
X113501918Y-62133333D02*
X113549537Y-62085714D01*
X113549537Y-62085714D02*
X113644775Y-62038095D01*
X113644775Y-62038095D02*
X113692394Y-62038095D01*
X113692394Y-62038095D02*
X113787632Y-62085714D01*
X113787632Y-62085714D02*
X113835251Y-62133333D01*
X113835251Y-62133333D02*
X113882870Y-62228571D01*
X113882870Y-62228571D02*
X113882870Y-62419047D01*
X113882870Y-62419047D02*
X113930489Y-62514285D01*
X113930489Y-62514285D02*
X113978108Y-62561904D01*
X113978108Y-62561904D02*
X114073346Y-62609523D01*
X114073346Y-62609523D02*
X114263822Y-62609523D01*
X114263822Y-62609523D02*
X114359060Y-62561904D01*
X114359060Y-62561904D02*
X114406680Y-62514285D01*
X114406680Y-62514285D02*
X114454299Y-62419047D01*
X114454299Y-62419047D02*
X114454299Y-62228571D01*
X114454299Y-62228571D02*
X114406680Y-62133333D01*
X114406680Y-62133333D02*
X114359060Y-62085714D01*
X114359060Y-62085714D02*
X114263822Y-62038095D01*
X114263822Y-62038095D02*
X114073346Y-62038095D01*
X114073346Y-62038095D02*
X113978108Y-62085714D01*
X113978108Y-62085714D02*
X113930489Y-62133333D01*
X113930489Y-62133333D02*
X113882870Y-62228571D01*
X123695833Y-99424060D02*
X123648214Y-99471680D01*
X123648214Y-99471680D02*
X123505357Y-99519299D01*
X123505357Y-99519299D02*
X123410119Y-99519299D01*
X123410119Y-99519299D02*
X123267262Y-99471680D01*
X123267262Y-99471680D02*
X123172024Y-99376441D01*
X123172024Y-99376441D02*
X123124405Y-99281203D01*
X123124405Y-99281203D02*
X123076786Y-99090727D01*
X123076786Y-99090727D02*
X123076786Y-98947870D01*
X123076786Y-98947870D02*
X123124405Y-98757394D01*
X123124405Y-98757394D02*
X123172024Y-98662156D01*
X123172024Y-98662156D02*
X123267262Y-98566918D01*
X123267262Y-98566918D02*
X123410119Y-98519299D01*
X123410119Y-98519299D02*
X123505357Y-98519299D01*
X123505357Y-98519299D02*
X123648214Y-98566918D01*
X123648214Y-98566918D02*
X123695833Y-98614537D01*
X124267262Y-98947870D02*
X124172024Y-98900251D01*
X124172024Y-98900251D02*
X124124405Y-98852632D01*
X124124405Y-98852632D02*
X124076786Y-98757394D01*
X124076786Y-98757394D02*
X124076786Y-98709775D01*
X124076786Y-98709775D02*
X124124405Y-98614537D01*
X124124405Y-98614537D02*
X124172024Y-98566918D01*
X124172024Y-98566918D02*
X124267262Y-98519299D01*
X124267262Y-98519299D02*
X124457738Y-98519299D01*
X124457738Y-98519299D02*
X124552976Y-98566918D01*
X124552976Y-98566918D02*
X124600595Y-98614537D01*
X124600595Y-98614537D02*
X124648214Y-98709775D01*
X124648214Y-98709775D02*
X124648214Y-98757394D01*
X124648214Y-98757394D02*
X124600595Y-98852632D01*
X124600595Y-98852632D02*
X124552976Y-98900251D01*
X124552976Y-98900251D02*
X124457738Y-98947870D01*
X124457738Y-98947870D02*
X124267262Y-98947870D01*
X124267262Y-98947870D02*
X124172024Y-98995489D01*
X124172024Y-98995489D02*
X124124405Y-99043108D01*
X124124405Y-99043108D02*
X124076786Y-99138346D01*
X124076786Y-99138346D02*
X124076786Y-99328822D01*
X124076786Y-99328822D02*
X124124405Y-99424060D01*
X124124405Y-99424060D02*
X124172024Y-99471680D01*
X124172024Y-99471680D02*
X124267262Y-99519299D01*
X124267262Y-99519299D02*
X124457738Y-99519299D01*
X124457738Y-99519299D02*
X124552976Y-99471680D01*
X124552976Y-99471680D02*
X124600595Y-99424060D01*
X124600595Y-99424060D02*
X124648214Y-99328822D01*
X124648214Y-99328822D02*
X124648214Y-99138346D01*
X124648214Y-99138346D02*
X124600595Y-99043108D01*
X124600595Y-99043108D02*
X124552976Y-98995489D01*
X124552976Y-98995489D02*
X124457738Y-98947870D01*
X155654299Y-152688094D02*
X154654299Y-152688094D01*
X154654299Y-152688094D02*
X154654299Y-152449999D01*
X154654299Y-152449999D02*
X154701918Y-152307142D01*
X154701918Y-152307142D02*
X154797156Y-152211904D01*
X154797156Y-152211904D02*
X154892394Y-152164285D01*
X154892394Y-152164285D02*
X155082870Y-152116666D01*
X155082870Y-152116666D02*
X155225727Y-152116666D01*
X155225727Y-152116666D02*
X155416203Y-152164285D01*
X155416203Y-152164285D02*
X155511441Y-152211904D01*
X155511441Y-152211904D02*
X155606680Y-152307142D01*
X155606680Y-152307142D02*
X155654299Y-152449999D01*
X155654299Y-152449999D02*
X155654299Y-152688094D01*
X154654299Y-151259523D02*
X154654299Y-151449999D01*
X154654299Y-151449999D02*
X154701918Y-151545237D01*
X154701918Y-151545237D02*
X154749537Y-151592856D01*
X154749537Y-151592856D02*
X154892394Y-151688094D01*
X154892394Y-151688094D02*
X155082870Y-151735713D01*
X155082870Y-151735713D02*
X155463822Y-151735713D01*
X155463822Y-151735713D02*
X155559060Y-151688094D01*
X155559060Y-151688094D02*
X155606680Y-151640475D01*
X155606680Y-151640475D02*
X155654299Y-151545237D01*
X155654299Y-151545237D02*
X155654299Y-151354761D01*
X155654299Y-151354761D02*
X155606680Y-151259523D01*
X155606680Y-151259523D02*
X155559060Y-151211904D01*
X155559060Y-151211904D02*
X155463822Y-151164285D01*
X155463822Y-151164285D02*
X155225727Y-151164285D01*
X155225727Y-151164285D02*
X155130489Y-151211904D01*
X155130489Y-151211904D02*
X155082870Y-151259523D01*
X155082870Y-151259523D02*
X155035251Y-151354761D01*
X155035251Y-151354761D02*
X155035251Y-151545237D01*
X155035251Y-151545237D02*
X155082870Y-151640475D01*
X155082870Y-151640475D02*
X155130489Y-151688094D01*
X155130489Y-151688094D02*
X155225727Y-151735713D01*
X149238095Y-101454299D02*
X149238095Y-102263822D01*
X149238095Y-102263822D02*
X149285714Y-102359060D01*
X149285714Y-102359060D02*
X149333333Y-102406680D01*
X149333333Y-102406680D02*
X149428571Y-102454299D01*
X149428571Y-102454299D02*
X149619047Y-102454299D01*
X149619047Y-102454299D02*
X149714285Y-102406680D01*
X149714285Y-102406680D02*
X149761904Y-102359060D01*
X149761904Y-102359060D02*
X149809523Y-102263822D01*
X149809523Y-102263822D02*
X149809523Y-101454299D01*
X150714285Y-101787632D02*
X150714285Y-102454299D01*
X150476190Y-101406680D02*
X150238095Y-102120965D01*
X150238095Y-102120965D02*
X150857142Y-102120965D01*
X104238095Y-165454299D02*
X104238095Y-164454299D01*
X104238095Y-164930489D02*
X104809523Y-164930489D01*
X104809523Y-165454299D02*
X104809523Y-164454299D01*
X105190476Y-164454299D02*
X105809523Y-164454299D01*
X105809523Y-164454299D02*
X105476190Y-164835251D01*
X105476190Y-164835251D02*
X105619047Y-164835251D01*
X105619047Y-164835251D02*
X105714285Y-164882870D01*
X105714285Y-164882870D02*
X105761904Y-164930489D01*
X105761904Y-164930489D02*
X105809523Y-165025727D01*
X105809523Y-165025727D02*
X105809523Y-165263822D01*
X105809523Y-165263822D02*
X105761904Y-165359060D01*
X105761904Y-165359060D02*
X105714285Y-165406680D01*
X105714285Y-165406680D02*
X105619047Y-165454299D01*
X105619047Y-165454299D02*
X105333333Y-165454299D01*
X105333333Y-165454299D02*
X105238095Y-165406680D01*
X105238095Y-165406680D02*
X105190476Y-165359060D01*
X183028571Y-119549537D02*
X182933333Y-119501918D01*
X182933333Y-119501918D02*
X182838095Y-119406680D01*
X182838095Y-119406680D02*
X182695238Y-119263822D01*
X182695238Y-119263822D02*
X182600000Y-119216203D01*
X182600000Y-119216203D02*
X182504762Y-119216203D01*
X182552381Y-119454299D02*
X182457143Y-119406680D01*
X182457143Y-119406680D02*
X182361905Y-119311441D01*
X182361905Y-119311441D02*
X182314286Y-119120965D01*
X182314286Y-119120965D02*
X182314286Y-118787632D01*
X182314286Y-118787632D02*
X182361905Y-118597156D01*
X182361905Y-118597156D02*
X182457143Y-118501918D01*
X182457143Y-118501918D02*
X182552381Y-118454299D01*
X182552381Y-118454299D02*
X182742857Y-118454299D01*
X182742857Y-118454299D02*
X182838095Y-118501918D01*
X182838095Y-118501918D02*
X182933333Y-118597156D01*
X182933333Y-118597156D02*
X182980952Y-118787632D01*
X182980952Y-118787632D02*
X182980952Y-119120965D01*
X182980952Y-119120965D02*
X182933333Y-119311441D01*
X182933333Y-119311441D02*
X182838095Y-119406680D01*
X182838095Y-119406680D02*
X182742857Y-119454299D01*
X182742857Y-119454299D02*
X182552381Y-119454299D01*
X183933333Y-119454299D02*
X183361905Y-119454299D01*
X183647619Y-119454299D02*
X183647619Y-118454299D01*
X183647619Y-118454299D02*
X183552381Y-118597156D01*
X183552381Y-118597156D02*
X183457143Y-118692394D01*
X183457143Y-118692394D02*
X183361905Y-118740013D01*
X184885714Y-119454299D02*
X184314286Y-119454299D01*
X184600000Y-119454299D02*
X184600000Y-118454299D01*
X184600000Y-118454299D02*
X184504762Y-118597156D01*
X184504762Y-118597156D02*
X184409524Y-118692394D01*
X184409524Y-118692394D02*
X184314286Y-118740013D01*
X162454299Y-152738094D02*
X161454299Y-152738094D01*
X161454299Y-152738094D02*
X161454299Y-152499999D01*
X161454299Y-152499999D02*
X161501918Y-152357142D01*
X161501918Y-152357142D02*
X161597156Y-152261904D01*
X161597156Y-152261904D02*
X161692394Y-152214285D01*
X161692394Y-152214285D02*
X161882870Y-152166666D01*
X161882870Y-152166666D02*
X162025727Y-152166666D01*
X162025727Y-152166666D02*
X162216203Y-152214285D01*
X162216203Y-152214285D02*
X162311441Y-152261904D01*
X162311441Y-152261904D02*
X162406680Y-152357142D01*
X162406680Y-152357142D02*
X162454299Y-152499999D01*
X162454299Y-152499999D02*
X162454299Y-152738094D01*
X161882870Y-151595237D02*
X161835251Y-151690475D01*
X161835251Y-151690475D02*
X161787632Y-151738094D01*
X161787632Y-151738094D02*
X161692394Y-151785713D01*
X161692394Y-151785713D02*
X161644775Y-151785713D01*
X161644775Y-151785713D02*
X161549537Y-151738094D01*
X161549537Y-151738094D02*
X161501918Y-151690475D01*
X161501918Y-151690475D02*
X161454299Y-151595237D01*
X161454299Y-151595237D02*
X161454299Y-151404761D01*
X161454299Y-151404761D02*
X161501918Y-151309523D01*
X161501918Y-151309523D02*
X161549537Y-151261904D01*
X161549537Y-151261904D02*
X161644775Y-151214285D01*
X161644775Y-151214285D02*
X161692394Y-151214285D01*
X161692394Y-151214285D02*
X161787632Y-151261904D01*
X161787632Y-151261904D02*
X161835251Y-151309523D01*
X161835251Y-151309523D02*
X161882870Y-151404761D01*
X161882870Y-151404761D02*
X161882870Y-151595237D01*
X161882870Y-151595237D02*
X161930489Y-151690475D01*
X161930489Y-151690475D02*
X161978108Y-151738094D01*
X161978108Y-151738094D02*
X162073346Y-151785713D01*
X162073346Y-151785713D02*
X162263822Y-151785713D01*
X162263822Y-151785713D02*
X162359060Y-151738094D01*
X162359060Y-151738094D02*
X162406680Y-151690475D01*
X162406680Y-151690475D02*
X162454299Y-151595237D01*
X162454299Y-151595237D02*
X162454299Y-151404761D01*
X162454299Y-151404761D02*
X162406680Y-151309523D01*
X162406680Y-151309523D02*
X162359060Y-151261904D01*
X162359060Y-151261904D02*
X162263822Y-151214285D01*
X162263822Y-151214285D02*
X162073346Y-151214285D01*
X162073346Y-151214285D02*
X161978108Y-151261904D01*
X161978108Y-151261904D02*
X161930489Y-151309523D01*
X161930489Y-151309523D02*
X161882870Y-151404761D01*
X109454299Y-92293333D02*
X110168584Y-92293333D01*
X110168584Y-92293333D02*
X110311441Y-92340952D01*
X110311441Y-92340952D02*
X110406680Y-92436190D01*
X110406680Y-92436190D02*
X110454299Y-92579047D01*
X110454299Y-92579047D02*
X110454299Y-92674285D01*
X109549537Y-91864761D02*
X109501918Y-91817142D01*
X109501918Y-91817142D02*
X109454299Y-91721904D01*
X109454299Y-91721904D02*
X109454299Y-91483809D01*
X109454299Y-91483809D02*
X109501918Y-91388571D01*
X109501918Y-91388571D02*
X109549537Y-91340952D01*
X109549537Y-91340952D02*
X109644775Y-91293333D01*
X109644775Y-91293333D02*
X109740013Y-91293333D01*
X109740013Y-91293333D02*
X109882870Y-91340952D01*
X109882870Y-91340952D02*
X110454299Y-91912380D01*
X110454299Y-91912380D02*
X110454299Y-91293333D01*
X159254299Y-152688094D02*
X158254299Y-152688094D01*
X158254299Y-152688094D02*
X158254299Y-152449999D01*
X158254299Y-152449999D02*
X158301918Y-152307142D01*
X158301918Y-152307142D02*
X158397156Y-152211904D01*
X158397156Y-152211904D02*
X158492394Y-152164285D01*
X158492394Y-152164285D02*
X158682870Y-152116666D01*
X158682870Y-152116666D02*
X158825727Y-152116666D01*
X158825727Y-152116666D02*
X159016203Y-152164285D01*
X159016203Y-152164285D02*
X159111441Y-152211904D01*
X159111441Y-152211904D02*
X159206680Y-152307142D01*
X159206680Y-152307142D02*
X159254299Y-152449999D01*
X159254299Y-152449999D02*
X159254299Y-152688094D01*
X158254299Y-151783332D02*
X158254299Y-151116666D01*
X158254299Y-151116666D02*
X159254299Y-151545237D01*
X104238095Y-60904299D02*
X104238095Y-59904299D01*
X104238095Y-60380489D02*
X104809523Y-60380489D01*
X104809523Y-60904299D02*
X104809523Y-59904299D01*
X105809523Y-60904299D02*
X105238095Y-60904299D01*
X105523809Y-60904299D02*
X105523809Y-59904299D01*
X105523809Y-59904299D02*
X105428571Y-60047156D01*
X105428571Y-60047156D02*
X105333333Y-60142394D01*
X105333333Y-60142394D02*
X105238095Y-60190013D01*
X118404060Y-107936666D02*
X118451680Y-107984285D01*
X118451680Y-107984285D02*
X118499299Y-108127142D01*
X118499299Y-108127142D02*
X118499299Y-108222380D01*
X118499299Y-108222380D02*
X118451680Y-108365237D01*
X118451680Y-108365237D02*
X118356441Y-108460475D01*
X118356441Y-108460475D02*
X118261203Y-108508094D01*
X118261203Y-108508094D02*
X118070727Y-108555713D01*
X118070727Y-108555713D02*
X117927870Y-108555713D01*
X117927870Y-108555713D02*
X117737394Y-108508094D01*
X117737394Y-108508094D02*
X117642156Y-108460475D01*
X117642156Y-108460475D02*
X117546918Y-108365237D01*
X117546918Y-108365237D02*
X117499299Y-108222380D01*
X117499299Y-108222380D02*
X117499299Y-108127142D01*
X117499299Y-108127142D02*
X117546918Y-107984285D01*
X117546918Y-107984285D02*
X117594537Y-107936666D01*
X117832632Y-107079523D02*
X118499299Y-107079523D01*
X117451680Y-107317618D02*
X118165965Y-107555713D01*
X118165965Y-107555713D02*
X118165965Y-106936666D01*
X184324666Y-75224489D02*
X183991333Y-75224489D01*
X183991333Y-75748299D02*
X183991333Y-74748299D01*
X183991333Y-74748299D02*
X184467523Y-74748299D01*
X185372285Y-75748299D02*
X184800857Y-75748299D01*
X185086571Y-75748299D02*
X185086571Y-74748299D01*
X185086571Y-74748299D02*
X184991333Y-74891156D01*
X184991333Y-74891156D02*
X184896095Y-74986394D01*
X184896095Y-74986394D02*
X184800857Y-75034013D01*
X190545700Y-69666666D02*
X189831415Y-69666666D01*
X189831415Y-69666666D02*
X189688558Y-69619047D01*
X189688558Y-69619047D02*
X189593320Y-69523809D01*
X189593320Y-69523809D02*
X189545700Y-69380952D01*
X189545700Y-69380952D02*
X189545700Y-69285714D01*
X190212367Y-70571428D02*
X189545700Y-70571428D01*
X190593320Y-70333333D02*
X189879034Y-70095238D01*
X189879034Y-70095238D02*
X189879034Y-70714285D01*
X118404060Y-100074166D02*
X118451680Y-100121785D01*
X118451680Y-100121785D02*
X118499299Y-100264642D01*
X118499299Y-100264642D02*
X118499299Y-100359880D01*
X118499299Y-100359880D02*
X118451680Y-100502737D01*
X118451680Y-100502737D02*
X118356441Y-100597975D01*
X118356441Y-100597975D02*
X118261203Y-100645594D01*
X118261203Y-100645594D02*
X118070727Y-100693213D01*
X118070727Y-100693213D02*
X117927870Y-100693213D01*
X117927870Y-100693213D02*
X117737394Y-100645594D01*
X117737394Y-100645594D02*
X117642156Y-100597975D01*
X117642156Y-100597975D02*
X117546918Y-100502737D01*
X117546918Y-100502737D02*
X117499299Y-100359880D01*
X117499299Y-100359880D02*
X117499299Y-100264642D01*
X117499299Y-100264642D02*
X117546918Y-100121785D01*
X117546918Y-100121785D02*
X117594537Y-100074166D01*
X117499299Y-99740832D02*
X117499299Y-99121785D01*
X117499299Y-99121785D02*
X117880251Y-99455118D01*
X117880251Y-99455118D02*
X117880251Y-99312261D01*
X117880251Y-99312261D02*
X117927870Y-99217023D01*
X117927870Y-99217023D02*
X117975489Y-99169404D01*
X117975489Y-99169404D02*
X118070727Y-99121785D01*
X118070727Y-99121785D02*
X118308822Y-99121785D01*
X118308822Y-99121785D02*
X118404060Y-99169404D01*
X118404060Y-99169404D02*
X118451680Y-99217023D01*
X118451680Y-99217023D02*
X118499299Y-99312261D01*
X118499299Y-99312261D02*
X118499299Y-99597975D01*
X118499299Y-99597975D02*
X118451680Y-99693213D01*
X118451680Y-99693213D02*
X118404060Y-99740832D01*
X125038095Y-99604299D02*
X125038095Y-100413822D01*
X125038095Y-100413822D02*
X125085714Y-100509060D01*
X125085714Y-100509060D02*
X125133333Y-100556680D01*
X125133333Y-100556680D02*
X125228571Y-100604299D01*
X125228571Y-100604299D02*
X125419047Y-100604299D01*
X125419047Y-100604299D02*
X125514285Y-100556680D01*
X125514285Y-100556680D02*
X125561904Y-100509060D01*
X125561904Y-100509060D02*
X125609523Y-100413822D01*
X125609523Y-100413822D02*
X125609523Y-99604299D01*
X126609523Y-100604299D02*
X126038095Y-100604299D01*
X126323809Y-100604299D02*
X126323809Y-99604299D01*
X126323809Y-99604299D02*
X126228571Y-99747156D01*
X126228571Y-99747156D02*
X126133333Y-99842394D01*
X126133333Y-99842394D02*
X126038095Y-99890013D01*
X194238095Y-165454299D02*
X194238095Y-164454299D01*
X194238095Y-164930489D02*
X194809523Y-164930489D01*
X194809523Y-165454299D02*
X194809523Y-164454299D01*
X195714285Y-164787632D02*
X195714285Y-165454299D01*
X195476190Y-164406680D02*
X195238095Y-165120965D01*
X195238095Y-165120965D02*
X195857142Y-165120965D01*
X118404060Y-103936666D02*
X118451680Y-103984285D01*
X118451680Y-103984285D02*
X118499299Y-104127142D01*
X118499299Y-104127142D02*
X118499299Y-104222380D01*
X118499299Y-104222380D02*
X118451680Y-104365237D01*
X118451680Y-104365237D02*
X118356441Y-104460475D01*
X118356441Y-104460475D02*
X118261203Y-104508094D01*
X118261203Y-104508094D02*
X118070727Y-104555713D01*
X118070727Y-104555713D02*
X117927870Y-104555713D01*
X117927870Y-104555713D02*
X117737394Y-104508094D01*
X117737394Y-104508094D02*
X117642156Y-104460475D01*
X117642156Y-104460475D02*
X117546918Y-104365237D01*
X117546918Y-104365237D02*
X117499299Y-104222380D01*
X117499299Y-104222380D02*
X117499299Y-104127142D01*
X117499299Y-104127142D02*
X117546918Y-103984285D01*
X117546918Y-103984285D02*
X117594537Y-103936666D01*
X118499299Y-102984285D02*
X118499299Y-103555713D01*
X118499299Y-103269999D02*
X117499299Y-103269999D01*
X117499299Y-103269999D02*
X117642156Y-103365237D01*
X117642156Y-103365237D02*
X117737394Y-103460475D01*
X117737394Y-103460475D02*
X117785013Y-103555713D01*
X112936799Y-99579166D02*
X112460608Y-99912499D01*
X112936799Y-100150594D02*
X111936799Y-100150594D01*
X111936799Y-100150594D02*
X111936799Y-99769642D01*
X111936799Y-99769642D02*
X111984418Y-99674404D01*
X111984418Y-99674404D02*
X112032037Y-99626785D01*
X112032037Y-99626785D02*
X112127275Y-99579166D01*
X112127275Y-99579166D02*
X112270132Y-99579166D01*
X112270132Y-99579166D02*
X112365370Y-99626785D01*
X112365370Y-99626785D02*
X112412989Y-99674404D01*
X112412989Y-99674404D02*
X112460608Y-99769642D01*
X112460608Y-99769642D02*
X112460608Y-100150594D01*
X112936799Y-98626785D02*
X112936799Y-99198213D01*
X112936799Y-98912499D02*
X111936799Y-98912499D01*
X111936799Y-98912499D02*
X112079656Y-99007737D01*
X112079656Y-99007737D02*
X112174894Y-99102975D01*
X112174894Y-99102975D02*
X112222513Y-99198213D01*
X177407142Y-61059060D02*
X177359523Y-61106680D01*
X177359523Y-61106680D02*
X177216666Y-61154299D01*
X177216666Y-61154299D02*
X177121428Y-61154299D01*
X177121428Y-61154299D02*
X176978571Y-61106680D01*
X176978571Y-61106680D02*
X176883333Y-61011441D01*
X176883333Y-61011441D02*
X176835714Y-60916203D01*
X176835714Y-60916203D02*
X176788095Y-60725727D01*
X176788095Y-60725727D02*
X176788095Y-60582870D01*
X176788095Y-60582870D02*
X176835714Y-60392394D01*
X176835714Y-60392394D02*
X176883333Y-60297156D01*
X176883333Y-60297156D02*
X176978571Y-60201918D01*
X176978571Y-60201918D02*
X177121428Y-60154299D01*
X177121428Y-60154299D02*
X177216666Y-60154299D01*
X177216666Y-60154299D02*
X177359523Y-60201918D01*
X177359523Y-60201918D02*
X177407142Y-60249537D01*
X178359523Y-61154299D02*
X177788095Y-61154299D01*
X178073809Y-61154299D02*
X178073809Y-60154299D01*
X178073809Y-60154299D02*
X177978571Y-60297156D01*
X177978571Y-60297156D02*
X177883333Y-60392394D01*
X177883333Y-60392394D02*
X177788095Y-60440013D01*
X178740476Y-60249537D02*
X178788095Y-60201918D01*
X178788095Y-60201918D02*
X178883333Y-60154299D01*
X178883333Y-60154299D02*
X179121428Y-60154299D01*
X179121428Y-60154299D02*
X179216666Y-60201918D01*
X179216666Y-60201918D02*
X179264285Y-60249537D01*
X179264285Y-60249537D02*
X179311904Y-60344775D01*
X179311904Y-60344775D02*
X179311904Y-60440013D01*
X179311904Y-60440013D02*
X179264285Y-60582870D01*
X179264285Y-60582870D02*
X178692857Y-61154299D01*
X178692857Y-61154299D02*
X179311904Y-61154299D01*
X115833333Y-90524299D02*
X115500000Y-90048108D01*
X115261905Y-90524299D02*
X115261905Y-89524299D01*
X115261905Y-89524299D02*
X115642857Y-89524299D01*
X115642857Y-89524299D02*
X115738095Y-89571918D01*
X115738095Y-89571918D02*
X115785714Y-89619537D01*
X115785714Y-89619537D02*
X115833333Y-89714775D01*
X115833333Y-89714775D02*
X115833333Y-89857632D01*
X115833333Y-89857632D02*
X115785714Y-89952870D01*
X115785714Y-89952870D02*
X115738095Y-90000489D01*
X115738095Y-90000489D02*
X115642857Y-90048108D01*
X115642857Y-90048108D02*
X115261905Y-90048108D01*
X116690476Y-89524299D02*
X116500000Y-89524299D01*
X116500000Y-89524299D02*
X116404762Y-89571918D01*
X116404762Y-89571918D02*
X116357143Y-89619537D01*
X116357143Y-89619537D02*
X116261905Y-89762394D01*
X116261905Y-89762394D02*
X116214286Y-89952870D01*
X116214286Y-89952870D02*
X116214286Y-90333822D01*
X116214286Y-90333822D02*
X116261905Y-90429060D01*
X116261905Y-90429060D02*
X116309524Y-90476680D01*
X116309524Y-90476680D02*
X116404762Y-90524299D01*
X116404762Y-90524299D02*
X116595238Y-90524299D01*
X116595238Y-90524299D02*
X116690476Y-90476680D01*
X116690476Y-90476680D02*
X116738095Y-90429060D01*
X116738095Y-90429060D02*
X116785714Y-90333822D01*
X116785714Y-90333822D02*
X116785714Y-90095727D01*
X116785714Y-90095727D02*
X116738095Y-90000489D01*
X116738095Y-90000489D02*
X116690476Y-89952870D01*
X116690476Y-89952870D02*
X116595238Y-89905251D01*
X116595238Y-89905251D02*
X116404762Y-89905251D01*
X116404762Y-89905251D02*
X116309524Y-89952870D01*
X116309524Y-89952870D02*
X116261905Y-90000489D01*
X116261905Y-90000489D02*
X116214286Y-90095727D01*
X143841667Y-156706680D02*
X143984524Y-156754299D01*
X143984524Y-156754299D02*
X144222619Y-156754299D01*
X144222619Y-156754299D02*
X144317857Y-156706680D01*
X144317857Y-156706680D02*
X144365476Y-156659060D01*
X144365476Y-156659060D02*
X144413095Y-156563822D01*
X144413095Y-156563822D02*
X144413095Y-156468584D01*
X144413095Y-156468584D02*
X144365476Y-156373346D01*
X144365476Y-156373346D02*
X144317857Y-156325727D01*
X144317857Y-156325727D02*
X144222619Y-156278108D01*
X144222619Y-156278108D02*
X144032143Y-156230489D01*
X144032143Y-156230489D02*
X143936905Y-156182870D01*
X143936905Y-156182870D02*
X143889286Y-156135251D01*
X143889286Y-156135251D02*
X143841667Y-156040013D01*
X143841667Y-156040013D02*
X143841667Y-155944775D01*
X143841667Y-155944775D02*
X143889286Y-155849537D01*
X143889286Y-155849537D02*
X143936905Y-155801918D01*
X143936905Y-155801918D02*
X144032143Y-155754299D01*
X144032143Y-155754299D02*
X144270238Y-155754299D01*
X144270238Y-155754299D02*
X144413095Y-155801918D01*
X144746429Y-155754299D02*
X144984524Y-156754299D01*
X144984524Y-156754299D02*
X145175000Y-156040013D01*
X145175000Y-156040013D02*
X145365476Y-156754299D01*
X145365476Y-156754299D02*
X145603572Y-155754299D01*
X146508333Y-156754299D02*
X145936905Y-156754299D01*
X146222619Y-156754299D02*
X146222619Y-155754299D01*
X146222619Y-155754299D02*
X146127381Y-155897156D01*
X146127381Y-155897156D02*
X146032143Y-155992394D01*
X146032143Y-155992394D02*
X145936905Y-156040013D01*
X193845700Y-105346666D02*
X193131415Y-105346666D01*
X193131415Y-105346666D02*
X192988558Y-105299047D01*
X192988558Y-105299047D02*
X192893320Y-105203809D01*
X192893320Y-105203809D02*
X192845700Y-105060952D01*
X192845700Y-105060952D02*
X192845700Y-104965714D01*
X193845700Y-105727619D02*
X193845700Y-106394285D01*
X193845700Y-106394285D02*
X192845700Y-105965714D01*
X114833333Y-106589299D02*
X114500000Y-106113108D01*
X114261905Y-106589299D02*
X114261905Y-105589299D01*
X114261905Y-105589299D02*
X114642857Y-105589299D01*
X114642857Y-105589299D02*
X114738095Y-105636918D01*
X114738095Y-105636918D02*
X114785714Y-105684537D01*
X114785714Y-105684537D02*
X114833333Y-105779775D01*
X114833333Y-105779775D02*
X114833333Y-105922632D01*
X114833333Y-105922632D02*
X114785714Y-106017870D01*
X114785714Y-106017870D02*
X114738095Y-106065489D01*
X114738095Y-106065489D02*
X114642857Y-106113108D01*
X114642857Y-106113108D02*
X114261905Y-106113108D01*
X115166667Y-105589299D02*
X115785714Y-105589299D01*
X115785714Y-105589299D02*
X115452381Y-105970251D01*
X115452381Y-105970251D02*
X115595238Y-105970251D01*
X115595238Y-105970251D02*
X115690476Y-106017870D01*
X115690476Y-106017870D02*
X115738095Y-106065489D01*
X115738095Y-106065489D02*
X115785714Y-106160727D01*
X115785714Y-106160727D02*
X115785714Y-106398822D01*
X115785714Y-106398822D02*
X115738095Y-106494060D01*
X115738095Y-106494060D02*
X115690476Y-106541680D01*
X115690476Y-106541680D02*
X115595238Y-106589299D01*
X115595238Y-106589299D02*
X115309524Y-106589299D01*
X115309524Y-106589299D02*
X115214286Y-106541680D01*
X115214286Y-106541680D02*
X115166667Y-106494060D01*
X118429060Y-92166666D02*
X118476680Y-92214285D01*
X118476680Y-92214285D02*
X118524299Y-92357142D01*
X118524299Y-92357142D02*
X118524299Y-92452380D01*
X118524299Y-92452380D02*
X118476680Y-92595237D01*
X118476680Y-92595237D02*
X118381441Y-92690475D01*
X118381441Y-92690475D02*
X118286203Y-92738094D01*
X118286203Y-92738094D02*
X118095727Y-92785713D01*
X118095727Y-92785713D02*
X117952870Y-92785713D01*
X117952870Y-92785713D02*
X117762394Y-92738094D01*
X117762394Y-92738094D02*
X117667156Y-92690475D01*
X117667156Y-92690475D02*
X117571918Y-92595237D01*
X117571918Y-92595237D02*
X117524299Y-92452380D01*
X117524299Y-92452380D02*
X117524299Y-92357142D01*
X117524299Y-92357142D02*
X117571918Y-92214285D01*
X117571918Y-92214285D02*
X117619537Y-92166666D01*
X117524299Y-91309523D02*
X117524299Y-91499999D01*
X117524299Y-91499999D02*
X117571918Y-91595237D01*
X117571918Y-91595237D02*
X117619537Y-91642856D01*
X117619537Y-91642856D02*
X117762394Y-91738094D01*
X117762394Y-91738094D02*
X117952870Y-91785713D01*
X117952870Y-91785713D02*
X118333822Y-91785713D01*
X118333822Y-91785713D02*
X118429060Y-91738094D01*
X118429060Y-91738094D02*
X118476680Y-91690475D01*
X118476680Y-91690475D02*
X118524299Y-91595237D01*
X118524299Y-91595237D02*
X118524299Y-91404761D01*
X118524299Y-91404761D02*
X118476680Y-91309523D01*
X118476680Y-91309523D02*
X118429060Y-91261904D01*
X118429060Y-91261904D02*
X118333822Y-91214285D01*
X118333822Y-91214285D02*
X118095727Y-91214285D01*
X118095727Y-91214285D02*
X118000489Y-91261904D01*
X118000489Y-91261904D02*
X117952870Y-91309523D01*
X117952870Y-91309523D02*
X117905251Y-91404761D01*
X117905251Y-91404761D02*
X117905251Y-91595237D01*
X117905251Y-91595237D02*
X117952870Y-91690475D01*
X117952870Y-91690475D02*
X118000489Y-91738094D01*
X118000489Y-91738094D02*
X118095727Y-91785713D01*
X116785714Y-61254299D02*
X116785714Y-60254299D01*
X116785714Y-60254299D02*
X117023809Y-60254299D01*
X117023809Y-60254299D02*
X117166666Y-60301918D01*
X117166666Y-60301918D02*
X117261904Y-60397156D01*
X117261904Y-60397156D02*
X117309523Y-60492394D01*
X117309523Y-60492394D02*
X117357142Y-60682870D01*
X117357142Y-60682870D02*
X117357142Y-60825727D01*
X117357142Y-60825727D02*
X117309523Y-61016203D01*
X117309523Y-61016203D02*
X117261904Y-61111441D01*
X117261904Y-61111441D02*
X117166666Y-61206680D01*
X117166666Y-61206680D02*
X117023809Y-61254299D01*
X117023809Y-61254299D02*
X116785714Y-61254299D01*
X118309523Y-61254299D02*
X117738095Y-61254299D01*
X118023809Y-61254299D02*
X118023809Y-60254299D01*
X118023809Y-60254299D02*
X117928571Y-60397156D01*
X117928571Y-60397156D02*
X117833333Y-60492394D01*
X117833333Y-60492394D02*
X117738095Y-60540013D01*
X118928571Y-60254299D02*
X119023809Y-60254299D01*
X119023809Y-60254299D02*
X119119047Y-60301918D01*
X119119047Y-60301918D02*
X119166666Y-60349537D01*
X119166666Y-60349537D02*
X119214285Y-60444775D01*
X119214285Y-60444775D02*
X119261904Y-60635251D01*
X119261904Y-60635251D02*
X119261904Y-60873346D01*
X119261904Y-60873346D02*
X119214285Y-61063822D01*
X119214285Y-61063822D02*
X119166666Y-61159060D01*
X119166666Y-61159060D02*
X119119047Y-61206680D01*
X119119047Y-61206680D02*
X119023809Y-61254299D01*
X119023809Y-61254299D02*
X118928571Y-61254299D01*
X118928571Y-61254299D02*
X118833333Y-61206680D01*
X118833333Y-61206680D02*
X118785714Y-61159060D01*
X118785714Y-61159060D02*
X118738095Y-61063822D01*
X118738095Y-61063822D02*
X118690476Y-60873346D01*
X118690476Y-60873346D02*
X118690476Y-60635251D01*
X118690476Y-60635251D02*
X118738095Y-60444775D01*
X118738095Y-60444775D02*
X118785714Y-60349537D01*
X118785714Y-60349537D02*
X118833333Y-60301918D01*
X118833333Y-60301918D02*
X118928571Y-60254299D01*
X186659060Y-66342857D02*
X186706680Y-66390476D01*
X186706680Y-66390476D02*
X186754299Y-66533333D01*
X186754299Y-66533333D02*
X186754299Y-66628571D01*
X186754299Y-66628571D02*
X186706680Y-66771428D01*
X186706680Y-66771428D02*
X186611441Y-66866666D01*
X186611441Y-66866666D02*
X186516203Y-66914285D01*
X186516203Y-66914285D02*
X186325727Y-66961904D01*
X186325727Y-66961904D02*
X186182870Y-66961904D01*
X186182870Y-66961904D02*
X185992394Y-66914285D01*
X185992394Y-66914285D02*
X185897156Y-66866666D01*
X185897156Y-66866666D02*
X185801918Y-66771428D01*
X185801918Y-66771428D02*
X185754299Y-66628571D01*
X185754299Y-66628571D02*
X185754299Y-66533333D01*
X185754299Y-66533333D02*
X185801918Y-66390476D01*
X185801918Y-66390476D02*
X185849537Y-66342857D01*
X186754299Y-65390476D02*
X186754299Y-65961904D01*
X186754299Y-65676190D02*
X185754299Y-65676190D01*
X185754299Y-65676190D02*
X185897156Y-65771428D01*
X185897156Y-65771428D02*
X185992394Y-65866666D01*
X185992394Y-65866666D02*
X186040013Y-65961904D01*
X186754299Y-64438095D02*
X186754299Y-65009523D01*
X186754299Y-64723809D02*
X185754299Y-64723809D01*
X185754299Y-64723809D02*
X185897156Y-64819047D01*
X185897156Y-64819047D02*
X185992394Y-64914285D01*
X185992394Y-64914285D02*
X186040013Y-65009523D01*
X114420833Y-82524299D02*
X114087500Y-82048108D01*
X113849405Y-82524299D02*
X113849405Y-81524299D01*
X113849405Y-81524299D02*
X114230357Y-81524299D01*
X114230357Y-81524299D02*
X114325595Y-81571918D01*
X114325595Y-81571918D02*
X114373214Y-81619537D01*
X114373214Y-81619537D02*
X114420833Y-81714775D01*
X114420833Y-81714775D02*
X114420833Y-81857632D01*
X114420833Y-81857632D02*
X114373214Y-81952870D01*
X114373214Y-81952870D02*
X114325595Y-82000489D01*
X114325595Y-82000489D02*
X114230357Y-82048108D01*
X114230357Y-82048108D02*
X113849405Y-82048108D01*
X114754167Y-81524299D02*
X115420833Y-81524299D01*
X115420833Y-81524299D02*
X114992262Y-82524299D01*
X113815476Y-124559299D02*
X113815476Y-125273584D01*
X113815476Y-125273584D02*
X113767857Y-125416441D01*
X113767857Y-125416441D02*
X113672619Y-125511680D01*
X113672619Y-125511680D02*
X113529762Y-125559299D01*
X113529762Y-125559299D02*
X113434524Y-125559299D01*
X114815476Y-125559299D02*
X114244048Y-125559299D01*
X114529762Y-125559299D02*
X114529762Y-124559299D01*
X114529762Y-124559299D02*
X114434524Y-124702156D01*
X114434524Y-124702156D02*
X114339286Y-124797394D01*
X114339286Y-124797394D02*
X114244048Y-124845013D01*
X115767857Y-125559299D02*
X115196429Y-125559299D01*
X115482143Y-125559299D02*
X115482143Y-124559299D01*
X115482143Y-124559299D02*
X115386905Y-124702156D01*
X115386905Y-124702156D02*
X115291667Y-124797394D01*
X115291667Y-124797394D02*
X115196429Y-124845013D01*
X114704761Y-70549537D02*
X114609523Y-70501918D01*
X114609523Y-70501918D02*
X114514285Y-70406680D01*
X114514285Y-70406680D02*
X114371428Y-70263822D01*
X114371428Y-70263822D02*
X114276190Y-70216203D01*
X114276190Y-70216203D02*
X114180952Y-70216203D01*
X114228571Y-70454299D02*
X114133333Y-70406680D01*
X114133333Y-70406680D02*
X114038095Y-70311441D01*
X114038095Y-70311441D02*
X113990476Y-70120965D01*
X113990476Y-70120965D02*
X113990476Y-69787632D01*
X113990476Y-69787632D02*
X114038095Y-69597156D01*
X114038095Y-69597156D02*
X114133333Y-69501918D01*
X114133333Y-69501918D02*
X114228571Y-69454299D01*
X114228571Y-69454299D02*
X114419047Y-69454299D01*
X114419047Y-69454299D02*
X114514285Y-69501918D01*
X114514285Y-69501918D02*
X114609523Y-69597156D01*
X114609523Y-69597156D02*
X114657142Y-69787632D01*
X114657142Y-69787632D02*
X114657142Y-70120965D01*
X114657142Y-70120965D02*
X114609523Y-70311441D01*
X114609523Y-70311441D02*
X114514285Y-70406680D01*
X114514285Y-70406680D02*
X114419047Y-70454299D01*
X114419047Y-70454299D02*
X114228571Y-70454299D01*
X115133333Y-70454299D02*
X115323809Y-70454299D01*
X115323809Y-70454299D02*
X115419047Y-70406680D01*
X115419047Y-70406680D02*
X115466666Y-70359060D01*
X115466666Y-70359060D02*
X115561904Y-70216203D01*
X115561904Y-70216203D02*
X115609523Y-70025727D01*
X115609523Y-70025727D02*
X115609523Y-69644775D01*
X115609523Y-69644775D02*
X115561904Y-69549537D01*
X115561904Y-69549537D02*
X115514285Y-69501918D01*
X115514285Y-69501918D02*
X115419047Y-69454299D01*
X115419047Y-69454299D02*
X115228571Y-69454299D01*
X115228571Y-69454299D02*
X115133333Y-69501918D01*
X115133333Y-69501918D02*
X115085714Y-69549537D01*
X115085714Y-69549537D02*
X115038095Y-69644775D01*
X115038095Y-69644775D02*
X115038095Y-69882870D01*
X115038095Y-69882870D02*
X115085714Y-69978108D01*
X115085714Y-69978108D02*
X115133333Y-70025727D01*
X115133333Y-70025727D02*
X115228571Y-70073346D01*
X115228571Y-70073346D02*
X115419047Y-70073346D01*
X115419047Y-70073346D02*
X115514285Y-70025727D01*
X115514285Y-70025727D02*
X115561904Y-69978108D01*
X115561904Y-69978108D02*
X115609523Y-69882870D01*
X115744299Y-77242857D02*
X115268108Y-77576190D01*
X115744299Y-77814285D02*
X114744299Y-77814285D01*
X114744299Y-77814285D02*
X114744299Y-77433333D01*
X114744299Y-77433333D02*
X114791918Y-77338095D01*
X114791918Y-77338095D02*
X114839537Y-77290476D01*
X114839537Y-77290476D02*
X114934775Y-77242857D01*
X114934775Y-77242857D02*
X115077632Y-77242857D01*
X115077632Y-77242857D02*
X115172870Y-77290476D01*
X115172870Y-77290476D02*
X115220489Y-77338095D01*
X115220489Y-77338095D02*
X115268108Y-77433333D01*
X115268108Y-77433333D02*
X115268108Y-77814285D01*
X114744299Y-76909523D02*
X114744299Y-76290476D01*
X114744299Y-76290476D02*
X115125251Y-76623809D01*
X115125251Y-76623809D02*
X115125251Y-76480952D01*
X115125251Y-76480952D02*
X115172870Y-76385714D01*
X115172870Y-76385714D02*
X115220489Y-76338095D01*
X115220489Y-76338095D02*
X115315727Y-76290476D01*
X115315727Y-76290476D02*
X115553822Y-76290476D01*
X115553822Y-76290476D02*
X115649060Y-76338095D01*
X115649060Y-76338095D02*
X115696680Y-76385714D01*
X115696680Y-76385714D02*
X115744299Y-76480952D01*
X115744299Y-76480952D02*
X115744299Y-76766666D01*
X115744299Y-76766666D02*
X115696680Y-76861904D01*
X115696680Y-76861904D02*
X115649060Y-76909523D01*
X114744299Y-75957142D02*
X114744299Y-75338095D01*
X114744299Y-75338095D02*
X115125251Y-75671428D01*
X115125251Y-75671428D02*
X115125251Y-75528571D01*
X115125251Y-75528571D02*
X115172870Y-75433333D01*
X115172870Y-75433333D02*
X115220489Y-75385714D01*
X115220489Y-75385714D02*
X115315727Y-75338095D01*
X115315727Y-75338095D02*
X115553822Y-75338095D01*
X115553822Y-75338095D02*
X115649060Y-75385714D01*
X115649060Y-75385714D02*
X115696680Y-75433333D01*
X115696680Y-75433333D02*
X115744299Y-75528571D01*
X115744299Y-75528571D02*
X115744299Y-75814285D01*
X115744299Y-75814285D02*
X115696680Y-75909523D01*
X115696680Y-75909523D02*
X115649060Y-75957142D01*
X109454299Y-70333333D02*
X110168584Y-70333333D01*
X110168584Y-70333333D02*
X110311441Y-70380952D01*
X110311441Y-70380952D02*
X110406680Y-70476190D01*
X110406680Y-70476190D02*
X110454299Y-70619047D01*
X110454299Y-70619047D02*
X110454299Y-70714285D01*
X109454299Y-69428571D02*
X109454299Y-69619047D01*
X109454299Y-69619047D02*
X109501918Y-69714285D01*
X109501918Y-69714285D02*
X109549537Y-69761904D01*
X109549537Y-69761904D02*
X109692394Y-69857142D01*
X109692394Y-69857142D02*
X109882870Y-69904761D01*
X109882870Y-69904761D02*
X110263822Y-69904761D01*
X110263822Y-69904761D02*
X110359060Y-69857142D01*
X110359060Y-69857142D02*
X110406680Y-69809523D01*
X110406680Y-69809523D02*
X110454299Y-69714285D01*
X110454299Y-69714285D02*
X110454299Y-69523809D01*
X110454299Y-69523809D02*
X110406680Y-69428571D01*
X110406680Y-69428571D02*
X110359060Y-69380952D01*
X110359060Y-69380952D02*
X110263822Y-69333333D01*
X110263822Y-69333333D02*
X110025727Y-69333333D01*
X110025727Y-69333333D02*
X109930489Y-69380952D01*
X109930489Y-69380952D02*
X109882870Y-69428571D01*
X109882870Y-69428571D02*
X109835251Y-69523809D01*
X109835251Y-69523809D02*
X109835251Y-69714285D01*
X109835251Y-69714285D02*
X109882870Y-69809523D01*
X109882870Y-69809523D02*
X109930489Y-69857142D01*
X109930489Y-69857142D02*
X110025727Y-69904761D01*
X179157142Y-124854299D02*
X178823809Y-124378108D01*
X178585714Y-124854299D02*
X178585714Y-123854299D01*
X178585714Y-123854299D02*
X178966666Y-123854299D01*
X178966666Y-123854299D02*
X179061904Y-123901918D01*
X179061904Y-123901918D02*
X179109523Y-123949537D01*
X179109523Y-123949537D02*
X179157142Y-124044775D01*
X179157142Y-124044775D02*
X179157142Y-124187632D01*
X179157142Y-124187632D02*
X179109523Y-124282870D01*
X179109523Y-124282870D02*
X179061904Y-124330489D01*
X179061904Y-124330489D02*
X178966666Y-124378108D01*
X178966666Y-124378108D02*
X178585714Y-124378108D01*
X179490476Y-123854299D02*
X180109523Y-123854299D01*
X180109523Y-123854299D02*
X179776190Y-124235251D01*
X179776190Y-124235251D02*
X179919047Y-124235251D01*
X179919047Y-124235251D02*
X180014285Y-124282870D01*
X180014285Y-124282870D02*
X180061904Y-124330489D01*
X180061904Y-124330489D02*
X180109523Y-124425727D01*
X180109523Y-124425727D02*
X180109523Y-124663822D01*
X180109523Y-124663822D02*
X180061904Y-124759060D01*
X180061904Y-124759060D02*
X180014285Y-124806680D01*
X180014285Y-124806680D02*
X179919047Y-124854299D01*
X179919047Y-124854299D02*
X179633333Y-124854299D01*
X179633333Y-124854299D02*
X179538095Y-124806680D01*
X179538095Y-124806680D02*
X179490476Y-124759060D01*
X180966666Y-124187632D02*
X180966666Y-124854299D01*
X180728571Y-123806680D02*
X180490476Y-124520965D01*
X180490476Y-124520965D02*
X181109523Y-124520965D01*
X109454299Y-81293333D02*
X110168584Y-81293333D01*
X110168584Y-81293333D02*
X110311441Y-81340952D01*
X110311441Y-81340952D02*
X110406680Y-81436190D01*
X110406680Y-81436190D02*
X110454299Y-81579047D01*
X110454299Y-81579047D02*
X110454299Y-81674285D01*
X109454299Y-80912380D02*
X109454299Y-80293333D01*
X109454299Y-80293333D02*
X109835251Y-80626666D01*
X109835251Y-80626666D02*
X109835251Y-80483809D01*
X109835251Y-80483809D02*
X109882870Y-80388571D01*
X109882870Y-80388571D02*
X109930489Y-80340952D01*
X109930489Y-80340952D02*
X110025727Y-80293333D01*
X110025727Y-80293333D02*
X110263822Y-80293333D01*
X110263822Y-80293333D02*
X110359060Y-80340952D01*
X110359060Y-80340952D02*
X110406680Y-80388571D01*
X110406680Y-80388571D02*
X110454299Y-80483809D01*
X110454299Y-80483809D02*
X110454299Y-80769523D01*
X110454299Y-80769523D02*
X110406680Y-80864761D01*
X110406680Y-80864761D02*
X110359060Y-80912380D01*
X190545700Y-118690476D02*
X189831415Y-118690476D01*
X189831415Y-118690476D02*
X189688558Y-118642857D01*
X189688558Y-118642857D02*
X189593320Y-118547619D01*
X189593320Y-118547619D02*
X189545700Y-118404762D01*
X189545700Y-118404762D02*
X189545700Y-118309524D01*
X189545700Y-119690476D02*
X189545700Y-119119048D01*
X189545700Y-119404762D02*
X190545700Y-119404762D01*
X190545700Y-119404762D02*
X190402843Y-119309524D01*
X190402843Y-119309524D02*
X190307605Y-119214286D01*
X190307605Y-119214286D02*
X190259986Y-119119048D01*
X190450462Y-120071429D02*
X190498081Y-120119048D01*
X190498081Y-120119048D02*
X190545700Y-120214286D01*
X190545700Y-120214286D02*
X190545700Y-120452381D01*
X190545700Y-120452381D02*
X190498081Y-120547619D01*
X190498081Y-120547619D02*
X190450462Y-120595238D01*
X190450462Y-120595238D02*
X190355224Y-120642857D01*
X190355224Y-120642857D02*
X190259986Y-120642857D01*
X190259986Y-120642857D02*
X190117129Y-120595238D01*
X190117129Y-120595238D02*
X189545700Y-120023810D01*
X189545700Y-120023810D02*
X189545700Y-120642857D01*
X152254299Y-152688094D02*
X151254299Y-152688094D01*
X151254299Y-152688094D02*
X151254299Y-152449999D01*
X151254299Y-152449999D02*
X151301918Y-152307142D01*
X151301918Y-152307142D02*
X151397156Y-152211904D01*
X151397156Y-152211904D02*
X151492394Y-152164285D01*
X151492394Y-152164285D02*
X151682870Y-152116666D01*
X151682870Y-152116666D02*
X151825727Y-152116666D01*
X151825727Y-152116666D02*
X152016203Y-152164285D01*
X152016203Y-152164285D02*
X152111441Y-152211904D01*
X152111441Y-152211904D02*
X152206680Y-152307142D01*
X152206680Y-152307142D02*
X152254299Y-152449999D01*
X152254299Y-152449999D02*
X152254299Y-152688094D01*
X151254299Y-151211904D02*
X151254299Y-151688094D01*
X151254299Y-151688094D02*
X151730489Y-151735713D01*
X151730489Y-151735713D02*
X151682870Y-151688094D01*
X151682870Y-151688094D02*
X151635251Y-151592856D01*
X151635251Y-151592856D02*
X151635251Y-151354761D01*
X151635251Y-151354761D02*
X151682870Y-151259523D01*
X151682870Y-151259523D02*
X151730489Y-151211904D01*
X151730489Y-151211904D02*
X151825727Y-151164285D01*
X151825727Y-151164285D02*
X152063822Y-151164285D01*
X152063822Y-151164285D02*
X152159060Y-151211904D01*
X152159060Y-151211904D02*
X152206680Y-151259523D01*
X152206680Y-151259523D02*
X152254299Y-151354761D01*
X152254299Y-151354761D02*
X152254299Y-151592856D01*
X152254299Y-151592856D02*
X152206680Y-151688094D01*
X152206680Y-151688094D02*
X152159060Y-151735713D01*
X106154299Y-117083333D02*
X106868584Y-117083333D01*
X106868584Y-117083333D02*
X107011441Y-117130952D01*
X107011441Y-117130952D02*
X107106680Y-117226190D01*
X107106680Y-117226190D02*
X107154299Y-117369047D01*
X107154299Y-117369047D02*
X107154299Y-117464285D01*
X106154299Y-116130952D02*
X106154299Y-116607142D01*
X106154299Y-116607142D02*
X106630489Y-116654761D01*
X106630489Y-116654761D02*
X106582870Y-116607142D01*
X106582870Y-116607142D02*
X106535251Y-116511904D01*
X106535251Y-116511904D02*
X106535251Y-116273809D01*
X106535251Y-116273809D02*
X106582870Y-116178571D01*
X106582870Y-116178571D02*
X106630489Y-116130952D01*
X106630489Y-116130952D02*
X106725727Y-116083333D01*
X106725727Y-116083333D02*
X106963822Y-116083333D01*
X106963822Y-116083333D02*
X107059060Y-116130952D01*
X107059060Y-116130952D02*
X107106680Y-116178571D01*
X107106680Y-116178571D02*
X107154299Y-116273809D01*
X107154299Y-116273809D02*
X107154299Y-116511904D01*
X107154299Y-116511904D02*
X107106680Y-116607142D01*
X107106680Y-116607142D02*
X107059060Y-116654761D01*
X113024299Y-88666666D02*
X112548108Y-88999999D01*
X113024299Y-89238094D02*
X112024299Y-89238094D01*
X112024299Y-89238094D02*
X112024299Y-88857142D01*
X112024299Y-88857142D02*
X112071918Y-88761904D01*
X112071918Y-88761904D02*
X112119537Y-88714285D01*
X112119537Y-88714285D02*
X112214775Y-88666666D01*
X112214775Y-88666666D02*
X112357632Y-88666666D01*
X112357632Y-88666666D02*
X112452870Y-88714285D01*
X112452870Y-88714285D02*
X112500489Y-88761904D01*
X112500489Y-88761904D02*
X112548108Y-88857142D01*
X112548108Y-88857142D02*
X112548108Y-89238094D01*
X112357632Y-87809523D02*
X113024299Y-87809523D01*
X111976680Y-88047618D02*
X112690965Y-88285713D01*
X112690965Y-88285713D02*
X112690965Y-87666666D01*
X115833333Y-101454299D02*
X115500000Y-100978108D01*
X115261905Y-101454299D02*
X115261905Y-100454299D01*
X115261905Y-100454299D02*
X115642857Y-100454299D01*
X115642857Y-100454299D02*
X115738095Y-100501918D01*
X115738095Y-100501918D02*
X115785714Y-100549537D01*
X115785714Y-100549537D02*
X115833333Y-100644775D01*
X115833333Y-100644775D02*
X115833333Y-100787632D01*
X115833333Y-100787632D02*
X115785714Y-100882870D01*
X115785714Y-100882870D02*
X115738095Y-100930489D01*
X115738095Y-100930489D02*
X115642857Y-100978108D01*
X115642857Y-100978108D02*
X115261905Y-100978108D01*
X116214286Y-100549537D02*
X116261905Y-100501918D01*
X116261905Y-100501918D02*
X116357143Y-100454299D01*
X116357143Y-100454299D02*
X116595238Y-100454299D01*
X116595238Y-100454299D02*
X116690476Y-100501918D01*
X116690476Y-100501918D02*
X116738095Y-100549537D01*
X116738095Y-100549537D02*
X116785714Y-100644775D01*
X116785714Y-100644775D02*
X116785714Y-100740013D01*
X116785714Y-100740013D02*
X116738095Y-100882870D01*
X116738095Y-100882870D02*
X116166667Y-101454299D01*
X116166667Y-101454299D02*
X116785714Y-101454299D01*
X190545700Y-80666666D02*
X189831415Y-80666666D01*
X189831415Y-80666666D02*
X189688558Y-80619047D01*
X189688558Y-80619047D02*
X189593320Y-80523809D01*
X189593320Y-80523809D02*
X189545700Y-80380952D01*
X189545700Y-80380952D02*
X189545700Y-80285714D01*
X190117129Y-81285714D02*
X190164748Y-81190476D01*
X190164748Y-81190476D02*
X190212367Y-81142857D01*
X190212367Y-81142857D02*
X190307605Y-81095238D01*
X190307605Y-81095238D02*
X190355224Y-81095238D01*
X190355224Y-81095238D02*
X190450462Y-81142857D01*
X190450462Y-81142857D02*
X190498081Y-81190476D01*
X190498081Y-81190476D02*
X190545700Y-81285714D01*
X190545700Y-81285714D02*
X190545700Y-81476190D01*
X190545700Y-81476190D02*
X190498081Y-81571428D01*
X190498081Y-81571428D02*
X190450462Y-81619047D01*
X190450462Y-81619047D02*
X190355224Y-81666666D01*
X190355224Y-81666666D02*
X190307605Y-81666666D01*
X190307605Y-81666666D02*
X190212367Y-81619047D01*
X190212367Y-81619047D02*
X190164748Y-81571428D01*
X190164748Y-81571428D02*
X190117129Y-81476190D01*
X190117129Y-81476190D02*
X190117129Y-81285714D01*
X190117129Y-81285714D02*
X190069510Y-81190476D01*
X190069510Y-81190476D02*
X190021891Y-81142857D01*
X190021891Y-81142857D02*
X189926653Y-81095238D01*
X189926653Y-81095238D02*
X189736177Y-81095238D01*
X189736177Y-81095238D02*
X189640939Y-81142857D01*
X189640939Y-81142857D02*
X189593320Y-81190476D01*
X189593320Y-81190476D02*
X189545700Y-81285714D01*
X189545700Y-81285714D02*
X189545700Y-81476190D01*
X189545700Y-81476190D02*
X189593320Y-81571428D01*
X189593320Y-81571428D02*
X189640939Y-81619047D01*
X189640939Y-81619047D02*
X189736177Y-81666666D01*
X189736177Y-81666666D02*
X189926653Y-81666666D01*
X189926653Y-81666666D02*
X190021891Y-81619047D01*
X190021891Y-81619047D02*
X190069510Y-81571428D01*
X190069510Y-81571428D02*
X190117129Y-81476190D01*
X109380299Y-131111523D02*
X110094584Y-131111523D01*
X110094584Y-131111523D02*
X110237441Y-131159142D01*
X110237441Y-131159142D02*
X110332680Y-131254380D01*
X110332680Y-131254380D02*
X110380299Y-131397237D01*
X110380299Y-131397237D02*
X110380299Y-131492475D01*
X110380299Y-130111523D02*
X110380299Y-130682951D01*
X110380299Y-130397237D02*
X109380299Y-130397237D01*
X109380299Y-130397237D02*
X109523156Y-130492475D01*
X109523156Y-130492475D02*
X109618394Y-130587713D01*
X109618394Y-130587713D02*
X109666013Y-130682951D01*
X109380299Y-129492475D02*
X109380299Y-129397237D01*
X109380299Y-129397237D02*
X109427918Y-129301999D01*
X109427918Y-129301999D02*
X109475537Y-129254380D01*
X109475537Y-129254380D02*
X109570775Y-129206761D01*
X109570775Y-129206761D02*
X109761251Y-129159142D01*
X109761251Y-129159142D02*
X109999346Y-129159142D01*
X109999346Y-129159142D02*
X110189822Y-129206761D01*
X110189822Y-129206761D02*
X110285060Y-129254380D01*
X110285060Y-129254380D02*
X110332680Y-129301999D01*
X110332680Y-129301999D02*
X110380299Y-129397237D01*
X110380299Y-129397237D02*
X110380299Y-129492475D01*
X110380299Y-129492475D02*
X110332680Y-129587713D01*
X110332680Y-129587713D02*
X110285060Y-129635332D01*
X110285060Y-129635332D02*
X110189822Y-129682951D01*
X110189822Y-129682951D02*
X109999346Y-129730570D01*
X109999346Y-129730570D02*
X109761251Y-129730570D01*
X109761251Y-129730570D02*
X109570775Y-129682951D01*
X109570775Y-129682951D02*
X109475537Y-129635332D01*
X109475537Y-129635332D02*
X109427918Y-129587713D01*
X109427918Y-129587713D02*
X109380299Y-129492475D01*
X111704299Y-147433333D02*
X112418584Y-147433333D01*
X112418584Y-147433333D02*
X112561441Y-147480952D01*
X112561441Y-147480952D02*
X112656680Y-147576190D01*
X112656680Y-147576190D02*
X112704299Y-147719047D01*
X112704299Y-147719047D02*
X112704299Y-147814285D01*
X112704299Y-146957142D02*
X111704299Y-146957142D01*
X111704299Y-146957142D02*
X111704299Y-146576190D01*
X111704299Y-146576190D02*
X111751918Y-146480952D01*
X111751918Y-146480952D02*
X111799537Y-146433333D01*
X111799537Y-146433333D02*
X111894775Y-146385714D01*
X111894775Y-146385714D02*
X112037632Y-146385714D01*
X112037632Y-146385714D02*
X112132870Y-146433333D01*
X112132870Y-146433333D02*
X112180489Y-146480952D01*
X112180489Y-146480952D02*
X112228108Y-146576190D01*
X112228108Y-146576190D02*
X112228108Y-146957142D01*
X112704299Y-145433333D02*
X112704299Y-146004761D01*
X112704299Y-145719047D02*
X111704299Y-145719047D01*
X111704299Y-145719047D02*
X111847156Y-145814285D01*
X111847156Y-145814285D02*
X111942394Y-145909523D01*
X111942394Y-145909523D02*
X111990013Y-146004761D01*
X177357142Y-59509060D02*
X177309523Y-59556680D01*
X177309523Y-59556680D02*
X177166666Y-59604299D01*
X177166666Y-59604299D02*
X177071428Y-59604299D01*
X177071428Y-59604299D02*
X176928571Y-59556680D01*
X176928571Y-59556680D02*
X176833333Y-59461441D01*
X176833333Y-59461441D02*
X176785714Y-59366203D01*
X176785714Y-59366203D02*
X176738095Y-59175727D01*
X176738095Y-59175727D02*
X176738095Y-59032870D01*
X176738095Y-59032870D02*
X176785714Y-58842394D01*
X176785714Y-58842394D02*
X176833333Y-58747156D01*
X176833333Y-58747156D02*
X176928571Y-58651918D01*
X176928571Y-58651918D02*
X177071428Y-58604299D01*
X177071428Y-58604299D02*
X177166666Y-58604299D01*
X177166666Y-58604299D02*
X177309523Y-58651918D01*
X177309523Y-58651918D02*
X177357142Y-58699537D01*
X178309523Y-59604299D02*
X177738095Y-59604299D01*
X178023809Y-59604299D02*
X178023809Y-58604299D01*
X178023809Y-58604299D02*
X177928571Y-58747156D01*
X177928571Y-58747156D02*
X177833333Y-58842394D01*
X177833333Y-58842394D02*
X177738095Y-58890013D01*
X178642857Y-58604299D02*
X179261904Y-58604299D01*
X179261904Y-58604299D02*
X178928571Y-58985251D01*
X178928571Y-58985251D02*
X179071428Y-58985251D01*
X179071428Y-58985251D02*
X179166666Y-59032870D01*
X179166666Y-59032870D02*
X179214285Y-59080489D01*
X179214285Y-59080489D02*
X179261904Y-59175727D01*
X179261904Y-59175727D02*
X179261904Y-59413822D01*
X179261904Y-59413822D02*
X179214285Y-59509060D01*
X179214285Y-59509060D02*
X179166666Y-59556680D01*
X179166666Y-59556680D02*
X179071428Y-59604299D01*
X179071428Y-59604299D02*
X178785714Y-59604299D01*
X178785714Y-59604299D02*
X178690476Y-59556680D01*
X178690476Y-59556680D02*
X178642857Y-59509060D01*
X116454299Y-63642857D02*
X115978108Y-63976190D01*
X116454299Y-64214285D02*
X115454299Y-64214285D01*
X115454299Y-64214285D02*
X115454299Y-63833333D01*
X115454299Y-63833333D02*
X115501918Y-63738095D01*
X115501918Y-63738095D02*
X115549537Y-63690476D01*
X115549537Y-63690476D02*
X115644775Y-63642857D01*
X115644775Y-63642857D02*
X115787632Y-63642857D01*
X115787632Y-63642857D02*
X115882870Y-63690476D01*
X115882870Y-63690476D02*
X115930489Y-63738095D01*
X115930489Y-63738095D02*
X115978108Y-63833333D01*
X115978108Y-63833333D02*
X115978108Y-64214285D01*
X116454299Y-62690476D02*
X116454299Y-63261904D01*
X116454299Y-62976190D02*
X115454299Y-62976190D01*
X115454299Y-62976190D02*
X115597156Y-63071428D01*
X115597156Y-63071428D02*
X115692394Y-63166666D01*
X115692394Y-63166666D02*
X115740013Y-63261904D01*
X115454299Y-62357142D02*
X115454299Y-61690476D01*
X115454299Y-61690476D02*
X116454299Y-62119047D01*
X187661905Y-129654299D02*
X187661905Y-128654299D01*
X187661905Y-128654299D02*
X187900000Y-128654299D01*
X187900000Y-128654299D02*
X188042857Y-128701918D01*
X188042857Y-128701918D02*
X188138095Y-128797156D01*
X188138095Y-128797156D02*
X188185714Y-128892394D01*
X188185714Y-128892394D02*
X188233333Y-129082870D01*
X188233333Y-129082870D02*
X188233333Y-129225727D01*
X188233333Y-129225727D02*
X188185714Y-129416203D01*
X188185714Y-129416203D02*
X188138095Y-129511441D01*
X188138095Y-129511441D02*
X188042857Y-129606680D01*
X188042857Y-129606680D02*
X187900000Y-129654299D01*
X187900000Y-129654299D02*
X187661905Y-129654299D01*
X188709524Y-129654299D02*
X188900000Y-129654299D01*
X188900000Y-129654299D02*
X188995238Y-129606680D01*
X188995238Y-129606680D02*
X189042857Y-129559060D01*
X189042857Y-129559060D02*
X189138095Y-129416203D01*
X189138095Y-129416203D02*
X189185714Y-129225727D01*
X189185714Y-129225727D02*
X189185714Y-128844775D01*
X189185714Y-128844775D02*
X189138095Y-128749537D01*
X189138095Y-128749537D02*
X189090476Y-128701918D01*
X189090476Y-128701918D02*
X188995238Y-128654299D01*
X188995238Y-128654299D02*
X188804762Y-128654299D01*
X188804762Y-128654299D02*
X188709524Y-128701918D01*
X188709524Y-128701918D02*
X188661905Y-128749537D01*
X188661905Y-128749537D02*
X188614286Y-128844775D01*
X188614286Y-128844775D02*
X188614286Y-129082870D01*
X188614286Y-129082870D02*
X188661905Y-129178108D01*
X188661905Y-129178108D02*
X188709524Y-129225727D01*
X188709524Y-129225727D02*
X188804762Y-129273346D01*
X188804762Y-129273346D02*
X188995238Y-129273346D01*
X188995238Y-129273346D02*
X189090476Y-129225727D01*
X189090476Y-129225727D02*
X189138095Y-129178108D01*
X189138095Y-129178108D02*
X189185714Y-129082870D01*
X124763095Y-88419299D02*
X124763095Y-89228822D01*
X124763095Y-89228822D02*
X124810714Y-89324060D01*
X124810714Y-89324060D02*
X124858333Y-89371680D01*
X124858333Y-89371680D02*
X124953571Y-89419299D01*
X124953571Y-89419299D02*
X125144047Y-89419299D01*
X125144047Y-89419299D02*
X125239285Y-89371680D01*
X125239285Y-89371680D02*
X125286904Y-89324060D01*
X125286904Y-89324060D02*
X125334523Y-89228822D01*
X125334523Y-89228822D02*
X125334523Y-88419299D01*
X125763095Y-88514537D02*
X125810714Y-88466918D01*
X125810714Y-88466918D02*
X125905952Y-88419299D01*
X125905952Y-88419299D02*
X126144047Y-88419299D01*
X126144047Y-88419299D02*
X126239285Y-88466918D01*
X126239285Y-88466918D02*
X126286904Y-88514537D01*
X126286904Y-88514537D02*
X126334523Y-88609775D01*
X126334523Y-88609775D02*
X126334523Y-88705013D01*
X126334523Y-88705013D02*
X126286904Y-88847870D01*
X126286904Y-88847870D02*
X125715476Y-89419299D01*
X125715476Y-89419299D02*
X126334523Y-89419299D01*
X194238095Y-60704299D02*
X194238095Y-59704299D01*
X194238095Y-60180489D02*
X194809523Y-60180489D01*
X194809523Y-60704299D02*
X194809523Y-59704299D01*
X195238095Y-59799537D02*
X195285714Y-59751918D01*
X195285714Y-59751918D02*
X195380952Y-59704299D01*
X195380952Y-59704299D02*
X195619047Y-59704299D01*
X195619047Y-59704299D02*
X195714285Y-59751918D01*
X195714285Y-59751918D02*
X195761904Y-59799537D01*
X195761904Y-59799537D02*
X195809523Y-59894775D01*
X195809523Y-59894775D02*
X195809523Y-59990013D01*
X195809523Y-59990013D02*
X195761904Y-60132870D01*
X195761904Y-60132870D02*
X195190476Y-60704299D01*
X195190476Y-60704299D02*
X195809523Y-60704299D01*
X123670833Y-109789060D02*
X123623214Y-109836680D01*
X123623214Y-109836680D02*
X123480357Y-109884299D01*
X123480357Y-109884299D02*
X123385119Y-109884299D01*
X123385119Y-109884299D02*
X123242262Y-109836680D01*
X123242262Y-109836680D02*
X123147024Y-109741441D01*
X123147024Y-109741441D02*
X123099405Y-109646203D01*
X123099405Y-109646203D02*
X123051786Y-109455727D01*
X123051786Y-109455727D02*
X123051786Y-109312870D01*
X123051786Y-109312870D02*
X123099405Y-109122394D01*
X123099405Y-109122394D02*
X123147024Y-109027156D01*
X123147024Y-109027156D02*
X123242262Y-108931918D01*
X123242262Y-108931918D02*
X123385119Y-108884299D01*
X123385119Y-108884299D02*
X123480357Y-108884299D01*
X123480357Y-108884299D02*
X123623214Y-108931918D01*
X123623214Y-108931918D02*
X123670833Y-108979537D01*
X124051786Y-108979537D02*
X124099405Y-108931918D01*
X124099405Y-108931918D02*
X124194643Y-108884299D01*
X124194643Y-108884299D02*
X124432738Y-108884299D01*
X124432738Y-108884299D02*
X124527976Y-108931918D01*
X124527976Y-108931918D02*
X124575595Y-108979537D01*
X124575595Y-108979537D02*
X124623214Y-109074775D01*
X124623214Y-109074775D02*
X124623214Y-109170013D01*
X124623214Y-109170013D02*
X124575595Y-109312870D01*
X124575595Y-109312870D02*
X124004167Y-109884299D01*
X124004167Y-109884299D02*
X124623214Y-109884299D01*
X109454299Y-103253333D02*
X110168584Y-103253333D01*
X110168584Y-103253333D02*
X110311441Y-103300952D01*
X110311441Y-103300952D02*
X110406680Y-103396190D01*
X110406680Y-103396190D02*
X110454299Y-103539047D01*
X110454299Y-103539047D02*
X110454299Y-103634285D01*
X110454299Y-102253333D02*
X110454299Y-102824761D01*
X110454299Y-102539047D02*
X109454299Y-102539047D01*
X109454299Y-102539047D02*
X109597156Y-102634285D01*
X109597156Y-102634285D02*
X109692394Y-102729523D01*
X109692394Y-102729523D02*
X109740013Y-102824761D01*
X138654299Y-152688094D02*
X137654299Y-152688094D01*
X137654299Y-152688094D02*
X137654299Y-152449999D01*
X137654299Y-152449999D02*
X137701918Y-152307142D01*
X137701918Y-152307142D02*
X137797156Y-152211904D01*
X137797156Y-152211904D02*
X137892394Y-152164285D01*
X137892394Y-152164285D02*
X138082870Y-152116666D01*
X138082870Y-152116666D02*
X138225727Y-152116666D01*
X138225727Y-152116666D02*
X138416203Y-152164285D01*
X138416203Y-152164285D02*
X138511441Y-152211904D01*
X138511441Y-152211904D02*
X138606680Y-152307142D01*
X138606680Y-152307142D02*
X138654299Y-152449999D01*
X138654299Y-152449999D02*
X138654299Y-152688094D01*
X138654299Y-151164285D02*
X138654299Y-151735713D01*
X138654299Y-151449999D02*
X137654299Y-151449999D01*
X137654299Y-151449999D02*
X137797156Y-151545237D01*
X137797156Y-151545237D02*
X137892394Y-151640475D01*
X137892394Y-151640475D02*
X137940013Y-151735713D01*
X192704299Y-61816666D02*
X192704299Y-62292856D01*
X192704299Y-62292856D02*
X191704299Y-62292856D01*
X192704299Y-60959523D02*
X192704299Y-61530951D01*
X192704299Y-61245237D02*
X191704299Y-61245237D01*
X191704299Y-61245237D02*
X191847156Y-61340475D01*
X191847156Y-61340475D02*
X191942394Y-61435713D01*
X191942394Y-61435713D02*
X191990013Y-61530951D01*
X142054299Y-152688094D02*
X141054299Y-152688094D01*
X141054299Y-152688094D02*
X141054299Y-152449999D01*
X141054299Y-152449999D02*
X141101918Y-152307142D01*
X141101918Y-152307142D02*
X141197156Y-152211904D01*
X141197156Y-152211904D02*
X141292394Y-152164285D01*
X141292394Y-152164285D02*
X141482870Y-152116666D01*
X141482870Y-152116666D02*
X141625727Y-152116666D01*
X141625727Y-152116666D02*
X141816203Y-152164285D01*
X141816203Y-152164285D02*
X141911441Y-152211904D01*
X141911441Y-152211904D02*
X142006680Y-152307142D01*
X142006680Y-152307142D02*
X142054299Y-152449999D01*
X142054299Y-152449999D02*
X142054299Y-152688094D01*
X141149537Y-151735713D02*
X141101918Y-151688094D01*
X141101918Y-151688094D02*
X141054299Y-151592856D01*
X141054299Y-151592856D02*
X141054299Y-151354761D01*
X141054299Y-151354761D02*
X141101918Y-151259523D01*
X141101918Y-151259523D02*
X141149537Y-151211904D01*
X141149537Y-151211904D02*
X141244775Y-151164285D01*
X141244775Y-151164285D02*
X141340013Y-151164285D01*
X141340013Y-151164285D02*
X141482870Y-151211904D01*
X141482870Y-151211904D02*
X142054299Y-151783332D01*
X142054299Y-151783332D02*
X142054299Y-151164285D01*
X118429060Y-88166666D02*
X118476680Y-88214285D01*
X118476680Y-88214285D02*
X118524299Y-88357142D01*
X118524299Y-88357142D02*
X118524299Y-88452380D01*
X118524299Y-88452380D02*
X118476680Y-88595237D01*
X118476680Y-88595237D02*
X118381441Y-88690475D01*
X118381441Y-88690475D02*
X118286203Y-88738094D01*
X118286203Y-88738094D02*
X118095727Y-88785713D01*
X118095727Y-88785713D02*
X117952870Y-88785713D01*
X117952870Y-88785713D02*
X117762394Y-88738094D01*
X117762394Y-88738094D02*
X117667156Y-88690475D01*
X117667156Y-88690475D02*
X117571918Y-88595237D01*
X117571918Y-88595237D02*
X117524299Y-88452380D01*
X117524299Y-88452380D02*
X117524299Y-88357142D01*
X117524299Y-88357142D02*
X117571918Y-88214285D01*
X117571918Y-88214285D02*
X117619537Y-88166666D01*
X117524299Y-87833332D02*
X117524299Y-87166666D01*
X117524299Y-87166666D02*
X118524299Y-87595237D01*
X179457142Y-66609060D02*
X179409523Y-66656680D01*
X179409523Y-66656680D02*
X179266666Y-66704299D01*
X179266666Y-66704299D02*
X179171428Y-66704299D01*
X179171428Y-66704299D02*
X179028571Y-66656680D01*
X179028571Y-66656680D02*
X178933333Y-66561441D01*
X178933333Y-66561441D02*
X178885714Y-66466203D01*
X178885714Y-66466203D02*
X178838095Y-66275727D01*
X178838095Y-66275727D02*
X178838095Y-66132870D01*
X178838095Y-66132870D02*
X178885714Y-65942394D01*
X178885714Y-65942394D02*
X178933333Y-65847156D01*
X178933333Y-65847156D02*
X179028571Y-65751918D01*
X179028571Y-65751918D02*
X179171428Y-65704299D01*
X179171428Y-65704299D02*
X179266666Y-65704299D01*
X179266666Y-65704299D02*
X179409523Y-65751918D01*
X179409523Y-65751918D02*
X179457142Y-65799537D01*
X180409523Y-66704299D02*
X179838095Y-66704299D01*
X180123809Y-66704299D02*
X180123809Y-65704299D01*
X180123809Y-65704299D02*
X180028571Y-65847156D01*
X180028571Y-65847156D02*
X179933333Y-65942394D01*
X179933333Y-65942394D02*
X179838095Y-65990013D01*
X181028571Y-65704299D02*
X181123809Y-65704299D01*
X181123809Y-65704299D02*
X181219047Y-65751918D01*
X181219047Y-65751918D02*
X181266666Y-65799537D01*
X181266666Y-65799537D02*
X181314285Y-65894775D01*
X181314285Y-65894775D02*
X181361904Y-66085251D01*
X181361904Y-66085251D02*
X181361904Y-66323346D01*
X181361904Y-66323346D02*
X181314285Y-66513822D01*
X181314285Y-66513822D02*
X181266666Y-66609060D01*
X181266666Y-66609060D02*
X181219047Y-66656680D01*
X181219047Y-66656680D02*
X181123809Y-66704299D01*
X181123809Y-66704299D02*
X181028571Y-66704299D01*
X181028571Y-66704299D02*
X180933333Y-66656680D01*
X180933333Y-66656680D02*
X180885714Y-66609060D01*
X180885714Y-66609060D02*
X180838095Y-66513822D01*
X180838095Y-66513822D02*
X180790476Y-66323346D01*
X180790476Y-66323346D02*
X180790476Y-66085251D01*
X180790476Y-66085251D02*
X180838095Y-65894775D01*
X180838095Y-65894775D02*
X180885714Y-65799537D01*
X180885714Y-65799537D02*
X180933333Y-65751918D01*
X180933333Y-65751918D02*
X181028571Y-65704299D01*
X179288095Y-62954299D02*
X179288095Y-63763822D01*
X179288095Y-63763822D02*
X179335714Y-63859060D01*
X179335714Y-63859060D02*
X179383333Y-63906680D01*
X179383333Y-63906680D02*
X179478571Y-63954299D01*
X179478571Y-63954299D02*
X179669047Y-63954299D01*
X179669047Y-63954299D02*
X179764285Y-63906680D01*
X179764285Y-63906680D02*
X179811904Y-63859060D01*
X179811904Y-63859060D02*
X179859523Y-63763822D01*
X179859523Y-63763822D02*
X179859523Y-62954299D01*
X180383333Y-63954299D02*
X180573809Y-63954299D01*
X180573809Y-63954299D02*
X180669047Y-63906680D01*
X180669047Y-63906680D02*
X180716666Y-63859060D01*
X180716666Y-63859060D02*
X180811904Y-63716203D01*
X180811904Y-63716203D02*
X180859523Y-63525727D01*
X180859523Y-63525727D02*
X180859523Y-63144775D01*
X180859523Y-63144775D02*
X180811904Y-63049537D01*
X180811904Y-63049537D02*
X180764285Y-63001918D01*
X180764285Y-63001918D02*
X180669047Y-62954299D01*
X180669047Y-62954299D02*
X180478571Y-62954299D01*
X180478571Y-62954299D02*
X180383333Y-63001918D01*
X180383333Y-63001918D02*
X180335714Y-63049537D01*
X180335714Y-63049537D02*
X180288095Y-63144775D01*
X180288095Y-63144775D02*
X180288095Y-63382870D01*
X180288095Y-63382870D02*
X180335714Y-63478108D01*
X180335714Y-63478108D02*
X180383333Y-63525727D01*
X180383333Y-63525727D02*
X180478571Y-63573346D01*
X180478571Y-63573346D02*
X180669047Y-63573346D01*
X180669047Y-63573346D02*
X180764285Y-63525727D01*
X180764285Y-63525727D02*
X180811904Y-63478108D01*
X180811904Y-63478108D02*
X180859523Y-63382870D01*
X190545700Y-91666666D02*
X189831415Y-91666666D01*
X189831415Y-91666666D02*
X189688558Y-91619047D01*
X189688558Y-91619047D02*
X189593320Y-91523809D01*
X189593320Y-91523809D02*
X189545700Y-91380952D01*
X189545700Y-91380952D02*
X189545700Y-91285714D01*
X189545700Y-92190476D02*
X189545700Y-92380952D01*
X189545700Y-92380952D02*
X189593320Y-92476190D01*
X189593320Y-92476190D02*
X189640939Y-92523809D01*
X189640939Y-92523809D02*
X189783796Y-92619047D01*
X189783796Y-92619047D02*
X189974272Y-92666666D01*
X189974272Y-92666666D02*
X190355224Y-92666666D01*
X190355224Y-92666666D02*
X190450462Y-92619047D01*
X190450462Y-92619047D02*
X190498081Y-92571428D01*
X190498081Y-92571428D02*
X190545700Y-92476190D01*
X190545700Y-92476190D02*
X190545700Y-92285714D01*
X190545700Y-92285714D02*
X190498081Y-92190476D01*
X190498081Y-92190476D02*
X190450462Y-92142857D01*
X190450462Y-92142857D02*
X190355224Y-92095238D01*
X190355224Y-92095238D02*
X190117129Y-92095238D01*
X190117129Y-92095238D02*
X190021891Y-92142857D01*
X190021891Y-92142857D02*
X189974272Y-92190476D01*
X189974272Y-92190476D02*
X189926653Y-92285714D01*
X189926653Y-92285714D02*
X189926653Y-92476190D01*
X189926653Y-92476190D02*
X189974272Y-92571428D01*
X189974272Y-92571428D02*
X190021891Y-92619047D01*
X190021891Y-92619047D02*
X190117129Y-92666666D01*
X179357142Y-69659060D02*
X179309523Y-69706680D01*
X179309523Y-69706680D02*
X179166666Y-69754299D01*
X179166666Y-69754299D02*
X179071428Y-69754299D01*
X179071428Y-69754299D02*
X178928571Y-69706680D01*
X178928571Y-69706680D02*
X178833333Y-69611441D01*
X178833333Y-69611441D02*
X178785714Y-69516203D01*
X178785714Y-69516203D02*
X178738095Y-69325727D01*
X178738095Y-69325727D02*
X178738095Y-69182870D01*
X178738095Y-69182870D02*
X178785714Y-68992394D01*
X178785714Y-68992394D02*
X178833333Y-68897156D01*
X178833333Y-68897156D02*
X178928571Y-68801918D01*
X178928571Y-68801918D02*
X179071428Y-68754299D01*
X179071428Y-68754299D02*
X179166666Y-68754299D01*
X179166666Y-68754299D02*
X179309523Y-68801918D01*
X179309523Y-68801918D02*
X179357142Y-68849537D01*
X180309523Y-69754299D02*
X179738095Y-69754299D01*
X180023809Y-69754299D02*
X180023809Y-68754299D01*
X180023809Y-68754299D02*
X179928571Y-68897156D01*
X179928571Y-68897156D02*
X179833333Y-68992394D01*
X179833333Y-68992394D02*
X179738095Y-69040013D01*
X180880952Y-69182870D02*
X180785714Y-69135251D01*
X180785714Y-69135251D02*
X180738095Y-69087632D01*
X180738095Y-69087632D02*
X180690476Y-68992394D01*
X180690476Y-68992394D02*
X180690476Y-68944775D01*
X180690476Y-68944775D02*
X180738095Y-68849537D01*
X180738095Y-68849537D02*
X180785714Y-68801918D01*
X180785714Y-68801918D02*
X180880952Y-68754299D01*
X180880952Y-68754299D02*
X181071428Y-68754299D01*
X181071428Y-68754299D02*
X181166666Y-68801918D01*
X181166666Y-68801918D02*
X181214285Y-68849537D01*
X181214285Y-68849537D02*
X181261904Y-68944775D01*
X181261904Y-68944775D02*
X181261904Y-68992394D01*
X181261904Y-68992394D02*
X181214285Y-69087632D01*
X181214285Y-69087632D02*
X181166666Y-69135251D01*
X181166666Y-69135251D02*
X181071428Y-69182870D01*
X181071428Y-69182870D02*
X180880952Y-69182870D01*
X180880952Y-69182870D02*
X180785714Y-69230489D01*
X180785714Y-69230489D02*
X180738095Y-69278108D01*
X180738095Y-69278108D02*
X180690476Y-69373346D01*
X180690476Y-69373346D02*
X180690476Y-69563822D01*
X180690476Y-69563822D02*
X180738095Y-69659060D01*
X180738095Y-69659060D02*
X180785714Y-69706680D01*
X180785714Y-69706680D02*
X180880952Y-69754299D01*
X180880952Y-69754299D02*
X181071428Y-69754299D01*
X181071428Y-69754299D02*
X181166666Y-69706680D01*
X181166666Y-69706680D02*
X181214285Y-69659060D01*
X181214285Y-69659060D02*
X181261904Y-69563822D01*
X181261904Y-69563822D02*
X181261904Y-69373346D01*
X181261904Y-69373346D02*
X181214285Y-69278108D01*
X181214285Y-69278108D02*
X181166666Y-69230489D01*
X181166666Y-69230489D02*
X181071428Y-69182870D01*
X114833333Y-95454299D02*
X114500000Y-94978108D01*
X114261905Y-95454299D02*
X114261905Y-94454299D01*
X114261905Y-94454299D02*
X114642857Y-94454299D01*
X114642857Y-94454299D02*
X114738095Y-94501918D01*
X114738095Y-94501918D02*
X114785714Y-94549537D01*
X114785714Y-94549537D02*
X114833333Y-94644775D01*
X114833333Y-94644775D02*
X114833333Y-94787632D01*
X114833333Y-94787632D02*
X114785714Y-94882870D01*
X114785714Y-94882870D02*
X114738095Y-94930489D01*
X114738095Y-94930489D02*
X114642857Y-94978108D01*
X114642857Y-94978108D02*
X114261905Y-94978108D01*
X115738095Y-94454299D02*
X115261905Y-94454299D01*
X115261905Y-94454299D02*
X115214286Y-94930489D01*
X115214286Y-94930489D02*
X115261905Y-94882870D01*
X115261905Y-94882870D02*
X115357143Y-94835251D01*
X115357143Y-94835251D02*
X115595238Y-94835251D01*
X115595238Y-94835251D02*
X115690476Y-94882870D01*
X115690476Y-94882870D02*
X115738095Y-94930489D01*
X115738095Y-94930489D02*
X115785714Y-95025727D01*
X115785714Y-95025727D02*
X115785714Y-95263822D01*
X115785714Y-95263822D02*
X115738095Y-95359060D01*
X115738095Y-95359060D02*
X115690476Y-95406680D01*
X115690476Y-95406680D02*
X115595238Y-95454299D01*
X115595238Y-95454299D02*
X115357143Y-95454299D01*
X115357143Y-95454299D02*
X115261905Y-95406680D01*
X115261905Y-95406680D02*
X115214286Y-95359060D01*
X145454299Y-152688094D02*
X144454299Y-152688094D01*
X144454299Y-152688094D02*
X144454299Y-152449999D01*
X144454299Y-152449999D02*
X144501918Y-152307142D01*
X144501918Y-152307142D02*
X144597156Y-152211904D01*
X144597156Y-152211904D02*
X144692394Y-152164285D01*
X144692394Y-152164285D02*
X144882870Y-152116666D01*
X144882870Y-152116666D02*
X145025727Y-152116666D01*
X145025727Y-152116666D02*
X145216203Y-152164285D01*
X145216203Y-152164285D02*
X145311441Y-152211904D01*
X145311441Y-152211904D02*
X145406680Y-152307142D01*
X145406680Y-152307142D02*
X145454299Y-152449999D01*
X145454299Y-152449999D02*
X145454299Y-152688094D01*
X144454299Y-151783332D02*
X144454299Y-151164285D01*
X144454299Y-151164285D02*
X144835251Y-151497618D01*
X144835251Y-151497618D02*
X144835251Y-151354761D01*
X144835251Y-151354761D02*
X144882870Y-151259523D01*
X144882870Y-151259523D02*
X144930489Y-151211904D01*
X144930489Y-151211904D02*
X145025727Y-151164285D01*
X145025727Y-151164285D02*
X145263822Y-151164285D01*
X145263822Y-151164285D02*
X145359060Y-151211904D01*
X145359060Y-151211904D02*
X145406680Y-151259523D01*
X145406680Y-151259523D02*
X145454299Y-151354761D01*
X145454299Y-151354761D02*
X145454299Y-151640475D01*
X145454299Y-151640475D02*
X145406680Y-151735713D01*
X145406680Y-151735713D02*
X145359060Y-151783332D01*
X148954299Y-152688094D02*
X147954299Y-152688094D01*
X147954299Y-152688094D02*
X147954299Y-152449999D01*
X147954299Y-152449999D02*
X148001918Y-152307142D01*
X148001918Y-152307142D02*
X148097156Y-152211904D01*
X148097156Y-152211904D02*
X148192394Y-152164285D01*
X148192394Y-152164285D02*
X148382870Y-152116666D01*
X148382870Y-152116666D02*
X148525727Y-152116666D01*
X148525727Y-152116666D02*
X148716203Y-152164285D01*
X148716203Y-152164285D02*
X148811441Y-152211904D01*
X148811441Y-152211904D02*
X148906680Y-152307142D01*
X148906680Y-152307142D02*
X148954299Y-152449999D01*
X148954299Y-152449999D02*
X148954299Y-152688094D01*
X148287632Y-151259523D02*
X148954299Y-151259523D01*
X147906680Y-151497618D02*
X148620965Y-151735713D01*
X148620965Y-151735713D02*
X148620965Y-151116666D01*
D11*
%TO.C,C5*%
X118990000Y-96146267D02*
X118990000Y-95853733D01*
X120010000Y-96146267D02*
X120010000Y-95853733D01*
%TO.C,R18*%
X113477500Y-66754724D02*
X113477500Y-66245276D01*
X114522500Y-66754724D02*
X114522500Y-66245276D01*
%TO.C,C8*%
X124008767Y-97010000D02*
X123716233Y-97010000D01*
X124008767Y-95990000D02*
X123716233Y-95990000D01*
%TO.C,D6*%
X154035000Y-150660000D02*
X156305000Y-150660000D01*
X156305000Y-150660000D02*
X156305000Y-146600000D01*
X154035000Y-146600000D02*
X154035000Y-150660000D01*
%TO.C,Q11*%
X182952500Y-120440000D02*
X184772500Y-120440000D01*
X182952500Y-120490000D02*
X182952500Y-120440000D01*
X182952500Y-122390000D02*
X182952500Y-121610000D01*
X182952500Y-123560000D02*
X182952500Y-123510000D01*
X184772500Y-120440000D02*
X184772500Y-121440000D01*
X184772500Y-122560000D02*
X184772500Y-123560000D01*
X184772500Y-123560000D02*
X182952500Y-123560000D01*
X182652500Y-121950000D02*
X182172500Y-121950000D01*
X182412500Y-121620000D01*
X182652500Y-121950000D01*
G36*
X182652500Y-121950000D02*
G01*
X182172500Y-121950000D01*
X182412500Y-121620000D01*
X182652500Y-121950000D01*
G37*
%TO.C,D8*%
X160815000Y-150660000D02*
X163085000Y-150660000D01*
X163085000Y-150660000D02*
X163085000Y-146600000D01*
X160815000Y-146600000D02*
X160815000Y-150660000D01*
%TO.C,D7*%
X157425000Y-150660000D02*
X159695000Y-150660000D01*
X159695000Y-150660000D02*
X159695000Y-146600000D01*
X157425000Y-146600000D02*
X157425000Y-150660000D01*
%TO.C,C4*%
X118965000Y-107916267D02*
X118965000Y-107623733D01*
X119985000Y-107916267D02*
X119985000Y-107623733D01*
%TO.C,F1*%
X186044252Y-74354000D02*
X183271748Y-74354000D01*
X186044252Y-70934000D02*
X183271748Y-70934000D01*
%TO.C,C3*%
X118965000Y-100053767D02*
X118965000Y-99761233D01*
X119985000Y-100053767D02*
X119985000Y-99761233D01*
%TO.C,U1*%
X123440000Y-101075000D02*
X127560000Y-101075000D01*
X123440000Y-101170000D02*
X123440000Y-101075000D01*
X123440000Y-106195000D02*
X123440000Y-106100000D01*
X127560000Y-101075000D02*
X127560000Y-101170000D01*
X127560000Y-106100000D02*
X127560000Y-106195000D01*
X127560000Y-106195000D02*
X123440000Y-106195000D01*
X122900000Y-101165000D02*
X122660000Y-100835000D01*
X123140000Y-100835000D01*
X122900000Y-101165000D01*
G36*
X122900000Y-101165000D02*
G01*
X122660000Y-100835000D01*
X123140000Y-100835000D01*
X122900000Y-101165000D01*
G37*
%TO.C,C1*%
X118965000Y-103916267D02*
X118965000Y-103623733D01*
X119985000Y-103916267D02*
X119985000Y-103623733D01*
%TO.C,R1*%
X113390000Y-99667224D02*
X113390000Y-99157776D01*
X114435000Y-99667224D02*
X114435000Y-99157776D01*
%TO.C,C12*%
X181296267Y-61222500D02*
X181003733Y-61222500D01*
X181296267Y-60202500D02*
X181003733Y-60202500D01*
%TO.C,R6*%
X114745276Y-90977500D02*
X115254724Y-90977500D01*
X114745276Y-92022500D02*
X115254724Y-92022500D01*
%TO.C,SW1*%
X142075000Y-159400000D02*
X142675000Y-159400000D01*
X142375000Y-159700000D02*
X142075000Y-159400000D01*
X142675000Y-159400000D02*
X142375000Y-159700000D01*
X143775000Y-157600000D02*
X143775000Y-169400000D01*
X147875000Y-157600000D02*
X143775000Y-157600000D01*
X147875000Y-169400000D02*
X143775000Y-169400000D01*
X149375000Y-163500000D02*
X150375000Y-163500000D01*
X149875000Y-163000000D02*
X149875000Y-164000000D01*
X151875000Y-157600000D02*
X155975000Y-157600000D01*
X155975000Y-157600000D02*
X155975000Y-160000000D01*
X155975000Y-162200000D02*
X155975000Y-164800000D01*
X155975000Y-167000000D02*
X155975000Y-169400000D01*
X155975000Y-169400000D02*
X151875000Y-169400000D01*
X152875000Y-163500000D02*
G75*
G02*
X146875000Y-163500000I-3000000J0D01*
G01*
X146875000Y-163500000D02*
G75*
G02*
X152875000Y-163500000I3000000J0D01*
G01*
%TO.C,R3*%
X114745276Y-104112500D02*
X115254724Y-104112500D01*
X114745276Y-105157500D02*
X115254724Y-105157500D01*
%TO.C,C6*%
X118990000Y-92146267D02*
X118990000Y-91853733D01*
X120010000Y-92146267D02*
X120010000Y-91853733D01*
%TO.C,D10*%
X122510000Y-59650000D02*
X122510000Y-56350000D01*
X122510000Y-59650000D02*
X115500000Y-59650000D01*
X122510000Y-56350000D02*
X115500000Y-56350000D01*
%TO.C,C11*%
X186810000Y-62441233D02*
X186810000Y-62733767D01*
X185790000Y-62441233D02*
X185790000Y-62733767D01*
%TO.C,R7*%
X114332776Y-82977500D02*
X114842224Y-82977500D01*
X114332776Y-84022500D02*
X114842224Y-84022500D01*
%TO.C,J11*%
X113295000Y-129085000D02*
X113295000Y-129205000D01*
X113295000Y-129205000D02*
X115955000Y-129205000D01*
X114625000Y-126545000D02*
X115955000Y-126545000D01*
X115955000Y-126545000D02*
X115955000Y-127875000D01*
X115955000Y-129085000D02*
X115955000Y-129205000D01*
%TO.C,Q9*%
X113890000Y-71040000D02*
X115710000Y-71040000D01*
X113890000Y-71090000D02*
X113890000Y-71040000D01*
X113890000Y-72990000D02*
X113890000Y-72210000D01*
X113890000Y-74160000D02*
X113890000Y-74110000D01*
X115710000Y-71040000D02*
X115710000Y-72040000D01*
X115710000Y-73160000D02*
X115710000Y-74160000D01*
X115710000Y-74160000D02*
X113890000Y-74160000D01*
X113590000Y-72550000D02*
X113110000Y-72550000D01*
X113350000Y-72220000D01*
X113590000Y-72550000D01*
G36*
X113590000Y-72550000D02*
G01*
X113110000Y-72550000D01*
X113350000Y-72220000D01*
X113590000Y-72550000D01*
G37*
%TO.C,R33*%
X114122500Y-76432776D02*
X114122500Y-76942224D01*
X113077500Y-76432776D02*
X113077500Y-76942224D01*
%TO.C,R34*%
X180054724Y-123322500D02*
X179545276Y-123322500D01*
X180054724Y-122277500D02*
X179545276Y-122277500D01*
%TO.C,D5*%
X150645000Y-150660000D02*
X152915000Y-150660000D01*
X152915000Y-150660000D02*
X152915000Y-146600000D01*
X150645000Y-146600000D02*
X150645000Y-150660000D01*
%TO.C,R4*%
X113477500Y-88754724D02*
X113477500Y-88245276D01*
X114522500Y-88754724D02*
X114522500Y-88245276D01*
%TO.C,R2*%
X114745276Y-102112500D02*
X115254724Y-102112500D01*
X114745276Y-103157500D02*
X115254724Y-103157500D01*
%TO.C,JP1*%
X115400000Y-145200000D02*
X115400000Y-148000000D01*
X113400000Y-145200000D02*
X115400000Y-145200000D01*
X115400000Y-148000000D02*
X113400000Y-148000000D01*
X113400000Y-148000000D02*
X113400000Y-145200000D01*
%TO.C,C13*%
X181296267Y-59647500D02*
X181003733Y-59647500D01*
X181296267Y-58627500D02*
X181003733Y-58627500D01*
%TO.C,R17*%
X114977500Y-66754724D02*
X114977500Y-66245276D01*
X116022500Y-66754724D02*
X116022500Y-66245276D01*
%TO.C,D9*%
X198510000Y-131250000D02*
X198510000Y-127950000D01*
X198510000Y-131250000D02*
X191500000Y-131250000D01*
X198510000Y-127950000D02*
X191500000Y-127950000D01*
%TO.C,U2*%
X123465000Y-89805000D02*
X127585000Y-89805000D01*
X123465000Y-89900000D02*
X123465000Y-89805000D01*
X123465000Y-94925000D02*
X123465000Y-94830000D01*
X127585000Y-89805000D02*
X127585000Y-89900000D01*
X127585000Y-94830000D02*
X127585000Y-94925000D01*
X127585000Y-94925000D02*
X123465000Y-94925000D01*
X122925000Y-89895000D02*
X122685000Y-89565000D01*
X123165000Y-89565000D01*
X122925000Y-89895000D01*
G36*
X122925000Y-89895000D02*
G01*
X122685000Y-89565000D01*
X123165000Y-89565000D01*
X122925000Y-89895000D01*
G37*
%TO.C,C2*%
X123983767Y-108510000D02*
X123691233Y-108510000D01*
X123983767Y-107490000D02*
X123691233Y-107490000D01*
%TO.C,D1*%
X137085000Y-150660000D02*
X139355000Y-150660000D01*
X139355000Y-150660000D02*
X139355000Y-146600000D01*
X137085000Y-146600000D02*
X137085000Y-150660000D01*
%TO.C,D2*%
X140475000Y-150660000D02*
X142745000Y-150660000D01*
X142745000Y-150660000D02*
X142745000Y-146600000D01*
X140475000Y-146600000D02*
X140475000Y-150660000D01*
%TO.C,C7*%
X118990000Y-88146267D02*
X118990000Y-87853733D01*
X120010000Y-88146267D02*
X120010000Y-87853733D01*
%TO.C,C10*%
X183078733Y-65702500D02*
X183371267Y-65702500D01*
X183078733Y-66722500D02*
X183371267Y-66722500D01*
%TO.C,U9*%
X182244000Y-61970500D02*
X184064000Y-61970500D01*
X182244000Y-62020500D02*
X182244000Y-61970500D01*
X182244000Y-65090500D02*
X182244000Y-65040500D01*
X184064000Y-61970500D02*
X184064000Y-62020500D01*
X184064000Y-65040500D02*
X184064000Y-65090500D01*
X184064000Y-65090500D02*
X182244000Y-65090500D01*
X181704000Y-62020500D02*
X181464000Y-61690500D01*
X181944000Y-61690500D01*
X181704000Y-62020500D01*
G36*
X181704000Y-62020500D02*
G01*
X181464000Y-61690500D01*
X181944000Y-61690500D01*
X181704000Y-62020500D01*
G37*
%TO.C,C18*%
X183103733Y-68790000D02*
X183396267Y-68790000D01*
X183103733Y-69810000D02*
X183396267Y-69810000D01*
%TO.C,R5*%
X114745276Y-92977500D02*
X115254724Y-92977500D01*
X114745276Y-94022500D02*
X115254724Y-94022500D01*
%TO.C,D3*%
X143865000Y-150660000D02*
X146135000Y-150660000D01*
X146135000Y-150660000D02*
X146135000Y-146600000D01*
X143865000Y-146600000D02*
X143865000Y-150660000D01*
%TO.C,D4*%
X147255000Y-150660000D02*
X149525000Y-150660000D01*
X149525000Y-150660000D02*
X149525000Y-146600000D01*
X147255000Y-146600000D02*
X147255000Y-150660000D01*
%TD*%
D12*
X100000000Y-50000000D02*
X200000000Y-50000000D01*
X200000000Y-175000000D01*
X100000000Y-175000000D01*
X100000000Y-50000000D01*
M02*
