%TF.GenerationSoftware,KiCad,Pcbnew,9.0.5*%
%TF.CreationDate,2025-11-13T17:06:43-05:00*%
%TF.ProjectId,Solder-Oven-PCB-V1,536f6c64-6572-42d4-9f76-656e2d504342,rev?*%
%TF.SameCoordinates,Original*%
%TF.FileFunction,Soldermask,Top*%
%TF.FilePolarity,Negative*%
%FSLAX46Y46*%
G04 Gerber Fmt 4.6, Leading zero omitted, Abs format (unit mm)*
G04 Created by KiCad (PCBNEW 9.0.5) date 2025-11-13 17:06:43*
%MOMM*%
%LPD*%
G01*
G04 APERTURE LIST*
G04 Aperture macros list*
%AMRoundRect*
0 Rectangle with rounded corners*
0 $1 Rounding radius*
0 $2 $3 $4 $5 $6 $7 $8 $9 X,Y pos of 4 corners*
0 Add a 4 corners polygon primitive as box body*
4,1,4,$2,$3,$4,$5,$6,$7,$8,$9,$2,$3,0*
0 Add four circle primitives for the rounded corners*
1,1,$1+$1,$2,$3*
1,1,$1+$1,$4,$5*
1,1,$1+$1,$6,$7*
1,1,$1+$1,$8,$9*
0 Add four rect primitives between the rounded corners*
20,1,$1+$1,$2,$3,$4,$5,0*
20,1,$1+$1,$4,$5,$6,$7,0*
20,1,$1+$1,$6,$7,$8,$9,0*
20,1,$1+$1,$8,$9,$2,$3,0*%
%AMFreePoly0*
4,1,6,1.000000,0.000000,0.500000,-0.750000,-0.500000,-0.750000,-0.500000,0.750000,0.500000,0.750000,1.000000,0.000000,1.000000,0.000000,$1*%
%AMFreePoly1*
4,1,6,0.500000,-0.750000,-0.650000,-0.750000,-0.150000,0.000000,-0.650000,0.750000,0.500000,0.750000,0.500000,-0.750000,0.500000,-0.750000,$1*%
G04 Aperture macros list end*
%ADD10RoundRect,0.237500X0.237500X-0.300000X0.237500X0.300000X-0.237500X0.300000X-0.237500X-0.300000X0*%
%ADD11RoundRect,0.237500X0.237500X-0.250000X0.237500X0.250000X-0.237500X0.250000X-0.237500X-0.250000X0*%
%ADD12RoundRect,0.237500X0.300000X0.237500X-0.300000X0.237500X-0.300000X-0.237500X0.300000X-0.237500X0*%
%ADD13C,1.750000*%
%ADD14C,3.987800*%
%ADD15RoundRect,0.250001X0.624999X-0.462499X0.624999X0.462499X-0.624999X0.462499X-0.624999X-0.462499X0*%
%ADD16C,4.500000*%
%ADD17C,2.000000*%
%ADD18R,2.000000X2.000000*%
%ADD19C,8.000000*%
%ADD20RoundRect,0.150000X-0.512500X-0.150000X0.512500X-0.150000X0.512500X0.150000X-0.512500X0.150000X0*%
%ADD21C,2.500000*%
%ADD22RoundRect,0.250000X0.400000X1.450000X-0.400000X1.450000X-0.400000X-1.450000X0.400000X-1.450000X0*%
%ADD23RoundRect,0.150000X-0.825000X-0.150000X0.825000X-0.150000X0.825000X0.150000X-0.825000X0.150000X0*%
%ADD24RoundRect,0.237500X-0.250000X-0.237500X0.250000X-0.237500X0.250000X0.237500X-0.250000X0.237500X0*%
%ADD25R,3.200000X2.000000*%
%ADD26RoundRect,0.250000X1.500000X0.650000X-1.500000X0.650000X-1.500000X-0.650000X1.500000X-0.650000X0*%
%ADD27RoundRect,0.237500X-0.237500X0.300000X-0.237500X-0.300000X0.237500X-0.300000X0.237500X0.300000X0*%
%ADD28R,1.700000X1.700000*%
%ADD29RoundRect,0.237500X-0.237500X0.250000X-0.237500X-0.250000X0.237500X-0.250000X0.237500X0.250000X0*%
%ADD30RoundRect,0.237500X0.250000X0.237500X-0.250000X0.237500X-0.250000X-0.237500X0.250000X-0.237500X0*%
%ADD31FreePoly0,270.000000*%
%ADD32FreePoly1,270.000000*%
%ADD33RoundRect,0.350000X0.800000X-0.350000X0.800000X0.350000X-0.800000X0.350000X-0.800000X-0.350000X0*%
%ADD34RoundRect,0.237500X-0.300000X-0.237500X0.300000X-0.237500X0.300000X0.237500X-0.300000X0.237500X0*%
%ADD35O,1.800000X1.800000*%
%ADD36O,1.500000X1.500000*%
%ADD37O,1.700000X1.700000*%
%ADD38C,2.109000*%
%TA.AperFunction,Profile*%
%ADD39C,0.050000*%
%TD*%
G04 APERTURE END LIST*
%TO.C,JP1*%
G36*
X115150000Y-145375000D02*
G01*
X113650000Y-145375000D01*
X113650000Y-147825000D01*
X115150000Y-147825000D01*
X115150000Y-145375000D01*
G37*
%TD*%
D10*
%TO.C,C5*%
X119500000Y-96862500D03*
X119500000Y-95137500D03*
%TD*%
D11*
%TO.C,R18*%
X114000000Y-67412500D03*
X114000000Y-65587500D03*
%TD*%
D12*
%TO.C,C8*%
X124725000Y-96500000D03*
X123000000Y-96500000D03*
%TD*%
D13*
%TO.C,SW3*%
X179955000Y-164000000D03*
X169795000Y-164000000D03*
D14*
X174875000Y-164000000D03*
%TD*%
D15*
%TO.C,D6*%
X155170000Y-149687500D03*
X155170000Y-146712500D03*
%TD*%
D16*
%TO.C,U4*%
X128000000Y-58000000D03*
X128000000Y-134080000D03*
X172000000Y-58000000D03*
X172000000Y-134080000D03*
D17*
X166510000Y-139000000D03*
X163970000Y-139000000D03*
X161430000Y-139000000D03*
X158890000Y-139000000D03*
X156350000Y-139000000D03*
X153810000Y-139000000D03*
X151270000Y-139000000D03*
X148730000Y-139000000D03*
X146190000Y-139000000D03*
X143650000Y-139000000D03*
X141110000Y-139000000D03*
X138570000Y-139000000D03*
X136030000Y-139000000D03*
D18*
X133490000Y-139000000D03*
D17*
X153810000Y-58000000D03*
X151270000Y-58000000D03*
X148730000Y-58000000D03*
D18*
X146190000Y-58000000D03*
%TD*%
D19*
%TO.C,H3*%
X105000000Y-170000000D03*
%TD*%
D20*
%TO.C,Q11*%
X182725000Y-121050000D03*
X182725000Y-122950000D03*
X185000000Y-122000000D03*
%TD*%
D15*
%TO.C,D8*%
X161950000Y-149687500D03*
X161950000Y-146712500D03*
%TD*%
D21*
%TO.C,J2*%
X106500000Y-94500000D03*
X106500000Y-89420000D03*
%TD*%
D15*
%TO.C,D7*%
X158560000Y-149687500D03*
X158560000Y-146712500D03*
%TD*%
D19*
%TO.C,H1*%
X105000000Y-55000000D03*
%TD*%
D10*
%TO.C,C4*%
X119475000Y-108632500D03*
X119475000Y-106907500D03*
%TD*%
D22*
%TO.C,F1*%
X186883000Y-72644000D03*
X182433000Y-72644000D03*
%TD*%
D21*
%TO.C,J4*%
X193500000Y-67460000D03*
X193500000Y-72540000D03*
%TD*%
D10*
%TO.C,C3*%
X119475000Y-100770000D03*
X119475000Y-99045000D03*
%TD*%
D23*
%TO.C,U1*%
X123025000Y-101730000D03*
X123025000Y-103000000D03*
X123025000Y-104270000D03*
X123025000Y-105540000D03*
X127975000Y-105540000D03*
X127975000Y-104270000D03*
X127975000Y-103000000D03*
X127975000Y-101730000D03*
%TD*%
D19*
%TO.C,H4*%
X195000000Y-170000000D03*
%TD*%
D10*
%TO.C,C1*%
X119475000Y-104632500D03*
X119475000Y-102907500D03*
%TD*%
D11*
%TO.C,R1*%
X113912500Y-100325000D03*
X113912500Y-98500000D03*
%TD*%
D12*
%TO.C,C12*%
X182012500Y-60712500D03*
X180287500Y-60712500D03*
%TD*%
D24*
%TO.C,R6*%
X114087500Y-91500000D03*
X115912500Y-91500000D03*
%TD*%
D18*
%TO.C,SW1*%
X142375000Y-161000000D03*
D17*
X142375000Y-166000000D03*
X142375000Y-163500000D03*
D25*
X149875000Y-157900000D03*
X149875000Y-169100000D03*
D17*
X156875000Y-166000000D03*
X156875000Y-161000000D03*
%TD*%
%TO.C,J7*%
X195500000Y-99320000D03*
X195500000Y-101860000D03*
X195500000Y-104400000D03*
X195500000Y-106960000D03*
X195500000Y-109500000D03*
X195500000Y-112040000D03*
%TD*%
D24*
%TO.C,R3*%
X114087500Y-104635000D03*
X115912500Y-104635000D03*
%TD*%
D10*
%TO.C,C6*%
X119500000Y-92862500D03*
X119500000Y-91137500D03*
%TD*%
D26*
%TO.C,D10*%
X120500000Y-58000000D03*
X115500000Y-58000000D03*
%TD*%
D27*
%TO.C,C11*%
X186300000Y-61725000D03*
X186300000Y-63450000D03*
%TD*%
D24*
%TO.C,R7*%
X113675000Y-83500000D03*
X115500000Y-83500000D03*
%TD*%
D28*
%TO.C,J11*%
X114625000Y-127875000D03*
%TD*%
D20*
%TO.C,Q9*%
X113662500Y-71650000D03*
X113662500Y-73550000D03*
X115937500Y-72600000D03*
%TD*%
D29*
%TO.C,R33*%
X113600000Y-75775000D03*
X113600000Y-77600000D03*
%TD*%
D21*
%TO.C,J6*%
X106500000Y-72540000D03*
X106500000Y-67460000D03*
%TD*%
D30*
%TO.C,R34*%
X180712500Y-122800000D03*
X178887500Y-122800000D03*
%TD*%
D21*
%TO.C,J3*%
X106500000Y-83500000D03*
X106500000Y-78420000D03*
%TD*%
%TO.C,J12*%
X193500000Y-116960000D03*
X193500000Y-122040000D03*
%TD*%
D15*
%TO.C,D5*%
X151780000Y-149687500D03*
X151780000Y-146712500D03*
%TD*%
D13*
%TO.C,SW2*%
X129955000Y-164000000D03*
X119795000Y-164000000D03*
D14*
X124875000Y-164000000D03*
%TD*%
D17*
%TO.C,J5*%
X104500000Y-123110000D03*
X104500000Y-120570000D03*
X104500000Y-118030000D03*
X104500000Y-115470000D03*
X104500000Y-112930000D03*
X104500000Y-110390000D03*
%TD*%
D11*
%TO.C,R4*%
X114000000Y-89412500D03*
X114000000Y-87587500D03*
%TD*%
D24*
%TO.C,R2*%
X114087500Y-102635000D03*
X115912500Y-102635000D03*
%TD*%
D21*
%TO.C,J8*%
X193500000Y-78460000D03*
X193500000Y-83540000D03*
%TD*%
%TO.C,J10*%
X106426000Y-132842000D03*
X106426000Y-127762000D03*
%TD*%
D31*
%TO.C,JP1*%
X114400000Y-145875000D03*
D32*
X114400000Y-147325000D03*
%TD*%
D12*
%TO.C,C13*%
X182012500Y-59137500D03*
X180287500Y-59137500D03*
%TD*%
D11*
%TO.C,R17*%
X115500000Y-67412500D03*
X115500000Y-65587500D03*
%TD*%
D26*
%TO.C,D9*%
X196500000Y-129600000D03*
X191500000Y-129600000D03*
%TD*%
D23*
%TO.C,U2*%
X123050000Y-90460000D03*
X123050000Y-91730000D03*
X123050000Y-93000000D03*
X123050000Y-94270000D03*
X128000000Y-94270000D03*
X128000000Y-93000000D03*
X128000000Y-91730000D03*
X128000000Y-90460000D03*
%TD*%
D19*
%TO.C,H2*%
X195000000Y-55000000D03*
%TD*%
D12*
%TO.C,C2*%
X124700000Y-108000000D03*
X122975000Y-108000000D03*
%TD*%
D21*
%TO.C,J1*%
X106500000Y-105460000D03*
X106500000Y-100380000D03*
%TD*%
D15*
%TO.C,D1*%
X138220000Y-149687500D03*
X138220000Y-146712500D03*
%TD*%
D33*
%TO.C,L1*%
X189300000Y-63412500D03*
X189300000Y-59862500D03*
%TD*%
D15*
%TO.C,D2*%
X141610000Y-149687500D03*
X141610000Y-146712500D03*
%TD*%
D10*
%TO.C,C7*%
X119500000Y-88862500D03*
X119500000Y-87137500D03*
%TD*%
D34*
%TO.C,C10*%
X182362500Y-66212500D03*
X184087500Y-66212500D03*
%TD*%
D20*
%TO.C,U9*%
X182016500Y-62580500D03*
X182016500Y-63530500D03*
X182016500Y-64480500D03*
X184291500Y-64480500D03*
X184291500Y-63530500D03*
X184291500Y-62580500D03*
%TD*%
D21*
%TO.C,J9*%
X193500000Y-89460000D03*
X193500000Y-94540000D03*
%TD*%
D34*
%TO.C,C18*%
X182387500Y-69300000D03*
X184112500Y-69300000D03*
%TD*%
D24*
%TO.C,R5*%
X114087500Y-93500000D03*
X115912500Y-93500000D03*
%TD*%
D15*
%TO.C,D3*%
X145000000Y-149687500D03*
X145000000Y-146712500D03*
%TD*%
%TO.C,D4*%
X148390000Y-149687500D03*
X148390000Y-146712500D03*
%TD*%
D35*
%TO.C,U10*%
X152835000Y-52470000D03*
D36*
X152535000Y-55500000D03*
X147685000Y-55500000D03*
D35*
X147385000Y-52470000D03*
D37*
X159000000Y-52340000D03*
X159000000Y-54880000D03*
D28*
X159000000Y-57420000D03*
D37*
X159000000Y-59960000D03*
X159000000Y-62500000D03*
X159000000Y-65040000D03*
X159000000Y-67580000D03*
D28*
X159000000Y-70120000D03*
D37*
X159000000Y-72660000D03*
X159000000Y-75200000D03*
X159000000Y-77740000D03*
X159000000Y-80280000D03*
D28*
X159000000Y-82820000D03*
D37*
X159000000Y-85360000D03*
X159000000Y-87900000D03*
X159000000Y-90440000D03*
X159000000Y-92980000D03*
D28*
X159000000Y-95520000D03*
D37*
X159000000Y-98060000D03*
X159000000Y-100600000D03*
X141220000Y-100600000D03*
X141220000Y-98060000D03*
D28*
X141220000Y-95520000D03*
D37*
X141220000Y-92980000D03*
X141220000Y-90440000D03*
X141220000Y-87900000D03*
X141220000Y-85360000D03*
D28*
X141220000Y-82820000D03*
D37*
X141220000Y-80280000D03*
X141220000Y-77740000D03*
X141220000Y-75200000D03*
X141220000Y-72660000D03*
D28*
X141220000Y-70120000D03*
D37*
X141220000Y-67580000D03*
X141220000Y-65040000D03*
X141220000Y-62500000D03*
X141220000Y-59960000D03*
D28*
X141220000Y-57420000D03*
D37*
X141220000Y-54880000D03*
X141220000Y-52340000D03*
X152650000Y-100370000D03*
D28*
X150110000Y-100370000D03*
D37*
X147570000Y-100370000D03*
%TD*%
D38*
%TO.C,U3*%
X196700000Y-134105000D03*
X194160000Y-134105000D03*
X191620000Y-134105000D03*
X189080000Y-134105000D03*
X186540000Y-134105000D03*
X184000000Y-134105000D03*
X181460000Y-134105000D03*
X178920000Y-134105000D03*
X178920000Y-149345000D03*
X181460000Y-149345000D03*
X184000000Y-149345000D03*
X186540000Y-149345000D03*
X189080000Y-149345000D03*
X191620000Y-149345000D03*
X194160000Y-149345000D03*
X196700000Y-149345000D03*
%TD*%
D39*
X100000000Y-50000000D02*
X200000000Y-50000000D01*
X200000000Y-175000000D01*
X100000000Y-175000000D01*
X100000000Y-50000000D01*
M02*
