%TF.GenerationSoftware,KiCad,Pcbnew,9.0.5*%
%TF.CreationDate,2025-11-13T17:06:43-05:00*%
%TF.ProjectId,Solder-Oven-PCB-V1,536f6c64-6572-42d4-9f76-656e2d504342,rev?*%
%TF.SameCoordinates,Original*%
%TF.FileFunction,Legend,Bot*%
%TF.FilePolarity,Positive*%
%FSLAX46Y46*%
G04 Gerber Fmt 4.6, Leading zero omitted, Abs format (unit mm)*
G04 Created by KiCad (PCBNEW 9.0.5) date 2025-11-13 17:06:43*
%MOMM*%
%LPD*%
G01*
G04 APERTURE LIST*
%ADD10C,0.160000*%
%ADD11C,0.120000*%
%ADD12C,0.127000*%
%TA.AperFunction,Profile*%
%ADD13C,0.050000*%
%TD*%
G04 APERTURE END LIST*
G36*
X103450000Y-154000000D02*
G01*
X111450000Y-154000000D01*
X111450000Y-162000000D01*
X103450000Y-162000000D01*
X103450000Y-154000000D01*
G37*
D10*
X134467857Y-146454299D02*
X134801190Y-145978108D01*
X135039285Y-146454299D02*
X135039285Y-145454299D01*
X135039285Y-145454299D02*
X134658333Y-145454299D01*
X134658333Y-145454299D02*
X134563095Y-145501918D01*
X134563095Y-145501918D02*
X134515476Y-145549537D01*
X134515476Y-145549537D02*
X134467857Y-145644775D01*
X134467857Y-145644775D02*
X134467857Y-145787632D01*
X134467857Y-145787632D02*
X134515476Y-145882870D01*
X134515476Y-145882870D02*
X134563095Y-145930489D01*
X134563095Y-145930489D02*
X134658333Y-145978108D01*
X134658333Y-145978108D02*
X135039285Y-145978108D01*
X134086904Y-145549537D02*
X134039285Y-145501918D01*
X134039285Y-145501918D02*
X133944047Y-145454299D01*
X133944047Y-145454299D02*
X133705952Y-145454299D01*
X133705952Y-145454299D02*
X133610714Y-145501918D01*
X133610714Y-145501918D02*
X133563095Y-145549537D01*
X133563095Y-145549537D02*
X133515476Y-145644775D01*
X133515476Y-145644775D02*
X133515476Y-145740013D01*
X133515476Y-145740013D02*
X133563095Y-145882870D01*
X133563095Y-145882870D02*
X134134523Y-146454299D01*
X134134523Y-146454299D02*
X133515476Y-146454299D01*
X133039285Y-146454299D02*
X132848809Y-146454299D01*
X132848809Y-146454299D02*
X132753571Y-146406680D01*
X132753571Y-146406680D02*
X132705952Y-146359060D01*
X132705952Y-146359060D02*
X132610714Y-146216203D01*
X132610714Y-146216203D02*
X132563095Y-146025727D01*
X132563095Y-146025727D02*
X132563095Y-145644775D01*
X132563095Y-145644775D02*
X132610714Y-145549537D01*
X132610714Y-145549537D02*
X132658333Y-145501918D01*
X132658333Y-145501918D02*
X132753571Y-145454299D01*
X132753571Y-145454299D02*
X132944047Y-145454299D01*
X132944047Y-145454299D02*
X133039285Y-145501918D01*
X133039285Y-145501918D02*
X133086904Y-145549537D01*
X133086904Y-145549537D02*
X133134523Y-145644775D01*
X133134523Y-145644775D02*
X133134523Y-145882870D01*
X133134523Y-145882870D02*
X133086904Y-145978108D01*
X133086904Y-145978108D02*
X133039285Y-146025727D01*
X133039285Y-146025727D02*
X132944047Y-146073346D01*
X132944047Y-146073346D02*
X132753571Y-146073346D01*
X132753571Y-146073346D02*
X132658333Y-146025727D01*
X132658333Y-146025727D02*
X132610714Y-145978108D01*
X132610714Y-145978108D02*
X132563095Y-145882870D01*
X191192857Y-124109060D02*
X191240476Y-124156680D01*
X191240476Y-124156680D02*
X191383333Y-124204299D01*
X191383333Y-124204299D02*
X191478571Y-124204299D01*
X191478571Y-124204299D02*
X191621428Y-124156680D01*
X191621428Y-124156680D02*
X191716666Y-124061441D01*
X191716666Y-124061441D02*
X191764285Y-123966203D01*
X191764285Y-123966203D02*
X191811904Y-123775727D01*
X191811904Y-123775727D02*
X191811904Y-123632870D01*
X191811904Y-123632870D02*
X191764285Y-123442394D01*
X191764285Y-123442394D02*
X191716666Y-123347156D01*
X191716666Y-123347156D02*
X191621428Y-123251918D01*
X191621428Y-123251918D02*
X191478571Y-123204299D01*
X191478571Y-123204299D02*
X191383333Y-123204299D01*
X191383333Y-123204299D02*
X191240476Y-123251918D01*
X191240476Y-123251918D02*
X191192857Y-123299537D01*
X190240476Y-124204299D02*
X190811904Y-124204299D01*
X190526190Y-124204299D02*
X190526190Y-123204299D01*
X190526190Y-123204299D02*
X190621428Y-123347156D01*
X190621428Y-123347156D02*
X190716666Y-123442394D01*
X190716666Y-123442394D02*
X190811904Y-123490013D01*
X189907142Y-123204299D02*
X189240476Y-123204299D01*
X189240476Y-123204299D02*
X189669047Y-124204299D01*
X130642857Y-157384299D02*
X130976190Y-156908108D01*
X131214285Y-157384299D02*
X131214285Y-156384299D01*
X131214285Y-156384299D02*
X130833333Y-156384299D01*
X130833333Y-156384299D02*
X130738095Y-156431918D01*
X130738095Y-156431918D02*
X130690476Y-156479537D01*
X130690476Y-156479537D02*
X130642857Y-156574775D01*
X130642857Y-156574775D02*
X130642857Y-156717632D01*
X130642857Y-156717632D02*
X130690476Y-156812870D01*
X130690476Y-156812870D02*
X130738095Y-156860489D01*
X130738095Y-156860489D02*
X130833333Y-156908108D01*
X130833333Y-156908108D02*
X131214285Y-156908108D01*
X130309523Y-156384299D02*
X129690476Y-156384299D01*
X129690476Y-156384299D02*
X130023809Y-156765251D01*
X130023809Y-156765251D02*
X129880952Y-156765251D01*
X129880952Y-156765251D02*
X129785714Y-156812870D01*
X129785714Y-156812870D02*
X129738095Y-156860489D01*
X129738095Y-156860489D02*
X129690476Y-156955727D01*
X129690476Y-156955727D02*
X129690476Y-157193822D01*
X129690476Y-157193822D02*
X129738095Y-157289060D01*
X129738095Y-157289060D02*
X129785714Y-157336680D01*
X129785714Y-157336680D02*
X129880952Y-157384299D01*
X129880952Y-157384299D02*
X130166666Y-157384299D01*
X130166666Y-157384299D02*
X130261904Y-157336680D01*
X130261904Y-157336680D02*
X130309523Y-157289060D01*
X129309523Y-156479537D02*
X129261904Y-156431918D01*
X129261904Y-156431918D02*
X129166666Y-156384299D01*
X129166666Y-156384299D02*
X128928571Y-156384299D01*
X128928571Y-156384299D02*
X128833333Y-156431918D01*
X128833333Y-156431918D02*
X128785714Y-156479537D01*
X128785714Y-156479537D02*
X128738095Y-156574775D01*
X128738095Y-156574775D02*
X128738095Y-156670013D01*
X128738095Y-156670013D02*
X128785714Y-156812870D01*
X128785714Y-156812870D02*
X129357142Y-157384299D01*
X129357142Y-157384299D02*
X128738095Y-157384299D01*
X149042857Y-141704299D02*
X149376190Y-141228108D01*
X149614285Y-141704299D02*
X149614285Y-140704299D01*
X149614285Y-140704299D02*
X149233333Y-140704299D01*
X149233333Y-140704299D02*
X149138095Y-140751918D01*
X149138095Y-140751918D02*
X149090476Y-140799537D01*
X149090476Y-140799537D02*
X149042857Y-140894775D01*
X149042857Y-140894775D02*
X149042857Y-141037632D01*
X149042857Y-141037632D02*
X149090476Y-141132870D01*
X149090476Y-141132870D02*
X149138095Y-141180489D01*
X149138095Y-141180489D02*
X149233333Y-141228108D01*
X149233333Y-141228108D02*
X149614285Y-141228108D01*
X148185714Y-141037632D02*
X148185714Y-141704299D01*
X148423809Y-140656680D02*
X148661904Y-141370965D01*
X148661904Y-141370965D02*
X148042857Y-141370965D01*
X147138095Y-141704299D02*
X147709523Y-141704299D01*
X147423809Y-141704299D02*
X147423809Y-140704299D01*
X147423809Y-140704299D02*
X147519047Y-140847156D01*
X147519047Y-140847156D02*
X147614285Y-140942394D01*
X147614285Y-140942394D02*
X147709523Y-140990013D01*
X137717857Y-146029299D02*
X138051190Y-145553108D01*
X138289285Y-146029299D02*
X138289285Y-145029299D01*
X138289285Y-145029299D02*
X137908333Y-145029299D01*
X137908333Y-145029299D02*
X137813095Y-145076918D01*
X137813095Y-145076918D02*
X137765476Y-145124537D01*
X137765476Y-145124537D02*
X137717857Y-145219775D01*
X137717857Y-145219775D02*
X137717857Y-145362632D01*
X137717857Y-145362632D02*
X137765476Y-145457870D01*
X137765476Y-145457870D02*
X137813095Y-145505489D01*
X137813095Y-145505489D02*
X137908333Y-145553108D01*
X137908333Y-145553108D02*
X138289285Y-145553108D01*
X137384523Y-145029299D02*
X136765476Y-145029299D01*
X136765476Y-145029299D02*
X137098809Y-145410251D01*
X137098809Y-145410251D02*
X136955952Y-145410251D01*
X136955952Y-145410251D02*
X136860714Y-145457870D01*
X136860714Y-145457870D02*
X136813095Y-145505489D01*
X136813095Y-145505489D02*
X136765476Y-145600727D01*
X136765476Y-145600727D02*
X136765476Y-145838822D01*
X136765476Y-145838822D02*
X136813095Y-145934060D01*
X136813095Y-145934060D02*
X136860714Y-145981680D01*
X136860714Y-145981680D02*
X136955952Y-146029299D01*
X136955952Y-146029299D02*
X137241666Y-146029299D01*
X137241666Y-146029299D02*
X137336904Y-145981680D01*
X137336904Y-145981680D02*
X137384523Y-145934060D01*
X136146428Y-145029299D02*
X136051190Y-145029299D01*
X136051190Y-145029299D02*
X135955952Y-145076918D01*
X135955952Y-145076918D02*
X135908333Y-145124537D01*
X135908333Y-145124537D02*
X135860714Y-145219775D01*
X135860714Y-145219775D02*
X135813095Y-145410251D01*
X135813095Y-145410251D02*
X135813095Y-145648346D01*
X135813095Y-145648346D02*
X135860714Y-145838822D01*
X135860714Y-145838822D02*
X135908333Y-145934060D01*
X135908333Y-145934060D02*
X135955952Y-145981680D01*
X135955952Y-145981680D02*
X136051190Y-146029299D01*
X136051190Y-146029299D02*
X136146428Y-146029299D01*
X136146428Y-146029299D02*
X136241666Y-145981680D01*
X136241666Y-145981680D02*
X136289285Y-145934060D01*
X136289285Y-145934060D02*
X136336904Y-145838822D01*
X136336904Y-145838822D02*
X136384523Y-145648346D01*
X136384523Y-145648346D02*
X136384523Y-145410251D01*
X136384523Y-145410251D02*
X136336904Y-145219775D01*
X136336904Y-145219775D02*
X136289285Y-145124537D01*
X136289285Y-145124537D02*
X136241666Y-145076918D01*
X136241666Y-145076918D02*
X136146428Y-145029299D01*
X152092857Y-144729299D02*
X152426190Y-144253108D01*
X152664285Y-144729299D02*
X152664285Y-143729299D01*
X152664285Y-143729299D02*
X152283333Y-143729299D01*
X152283333Y-143729299D02*
X152188095Y-143776918D01*
X152188095Y-143776918D02*
X152140476Y-143824537D01*
X152140476Y-143824537D02*
X152092857Y-143919775D01*
X152092857Y-143919775D02*
X152092857Y-144062632D01*
X152092857Y-144062632D02*
X152140476Y-144157870D01*
X152140476Y-144157870D02*
X152188095Y-144205489D01*
X152188095Y-144205489D02*
X152283333Y-144253108D01*
X152283333Y-144253108D02*
X152664285Y-144253108D01*
X151759523Y-143729299D02*
X151140476Y-143729299D01*
X151140476Y-143729299D02*
X151473809Y-144110251D01*
X151473809Y-144110251D02*
X151330952Y-144110251D01*
X151330952Y-144110251D02*
X151235714Y-144157870D01*
X151235714Y-144157870D02*
X151188095Y-144205489D01*
X151188095Y-144205489D02*
X151140476Y-144300727D01*
X151140476Y-144300727D02*
X151140476Y-144538822D01*
X151140476Y-144538822D02*
X151188095Y-144634060D01*
X151188095Y-144634060D02*
X151235714Y-144681680D01*
X151235714Y-144681680D02*
X151330952Y-144729299D01*
X151330952Y-144729299D02*
X151616666Y-144729299D01*
X151616666Y-144729299D02*
X151711904Y-144681680D01*
X151711904Y-144681680D02*
X151759523Y-144634060D01*
X150569047Y-144157870D02*
X150664285Y-144110251D01*
X150664285Y-144110251D02*
X150711904Y-144062632D01*
X150711904Y-144062632D02*
X150759523Y-143967394D01*
X150759523Y-143967394D02*
X150759523Y-143919775D01*
X150759523Y-143919775D02*
X150711904Y-143824537D01*
X150711904Y-143824537D02*
X150664285Y-143776918D01*
X150664285Y-143776918D02*
X150569047Y-143729299D01*
X150569047Y-143729299D02*
X150378571Y-143729299D01*
X150378571Y-143729299D02*
X150283333Y-143776918D01*
X150283333Y-143776918D02*
X150235714Y-143824537D01*
X150235714Y-143824537D02*
X150188095Y-143919775D01*
X150188095Y-143919775D02*
X150188095Y-143967394D01*
X150188095Y-143967394D02*
X150235714Y-144062632D01*
X150235714Y-144062632D02*
X150283333Y-144110251D01*
X150283333Y-144110251D02*
X150378571Y-144157870D01*
X150378571Y-144157870D02*
X150569047Y-144157870D01*
X150569047Y-144157870D02*
X150664285Y-144205489D01*
X150664285Y-144205489D02*
X150711904Y-144253108D01*
X150711904Y-144253108D02*
X150759523Y-144348346D01*
X150759523Y-144348346D02*
X150759523Y-144538822D01*
X150759523Y-144538822D02*
X150711904Y-144634060D01*
X150711904Y-144634060D02*
X150664285Y-144681680D01*
X150664285Y-144681680D02*
X150569047Y-144729299D01*
X150569047Y-144729299D02*
X150378571Y-144729299D01*
X150378571Y-144729299D02*
X150283333Y-144681680D01*
X150283333Y-144681680D02*
X150235714Y-144634060D01*
X150235714Y-144634060D02*
X150188095Y-144538822D01*
X150188095Y-144538822D02*
X150188095Y-144348346D01*
X150188095Y-144348346D02*
X150235714Y-144253108D01*
X150235714Y-144253108D02*
X150283333Y-144205489D01*
X150283333Y-144205489D02*
X150378571Y-144157870D01*
X170117857Y-144004299D02*
X170451190Y-143528108D01*
X170689285Y-144004299D02*
X170689285Y-143004299D01*
X170689285Y-143004299D02*
X170308333Y-143004299D01*
X170308333Y-143004299D02*
X170213095Y-143051918D01*
X170213095Y-143051918D02*
X170165476Y-143099537D01*
X170165476Y-143099537D02*
X170117857Y-143194775D01*
X170117857Y-143194775D02*
X170117857Y-143337632D01*
X170117857Y-143337632D02*
X170165476Y-143432870D01*
X170165476Y-143432870D02*
X170213095Y-143480489D01*
X170213095Y-143480489D02*
X170308333Y-143528108D01*
X170308333Y-143528108D02*
X170689285Y-143528108D01*
X169736904Y-143099537D02*
X169689285Y-143051918D01*
X169689285Y-143051918D02*
X169594047Y-143004299D01*
X169594047Y-143004299D02*
X169355952Y-143004299D01*
X169355952Y-143004299D02*
X169260714Y-143051918D01*
X169260714Y-143051918D02*
X169213095Y-143099537D01*
X169213095Y-143099537D02*
X169165476Y-143194775D01*
X169165476Y-143194775D02*
X169165476Y-143290013D01*
X169165476Y-143290013D02*
X169213095Y-143432870D01*
X169213095Y-143432870D02*
X169784523Y-144004299D01*
X169784523Y-144004299D02*
X169165476Y-144004299D01*
X168213095Y-144004299D02*
X168784523Y-144004299D01*
X168498809Y-144004299D02*
X168498809Y-143004299D01*
X168498809Y-143004299D02*
X168594047Y-143147156D01*
X168594047Y-143147156D02*
X168689285Y-143242394D01*
X168689285Y-143242394D02*
X168784523Y-143290013D01*
X145467857Y-141654299D02*
X145801190Y-141178108D01*
X146039285Y-141654299D02*
X146039285Y-140654299D01*
X146039285Y-140654299D02*
X145658333Y-140654299D01*
X145658333Y-140654299D02*
X145563095Y-140701918D01*
X145563095Y-140701918D02*
X145515476Y-140749537D01*
X145515476Y-140749537D02*
X145467857Y-140844775D01*
X145467857Y-140844775D02*
X145467857Y-140987632D01*
X145467857Y-140987632D02*
X145515476Y-141082870D01*
X145515476Y-141082870D02*
X145563095Y-141130489D01*
X145563095Y-141130489D02*
X145658333Y-141178108D01*
X145658333Y-141178108D02*
X146039285Y-141178108D01*
X144610714Y-140987632D02*
X144610714Y-141654299D01*
X144848809Y-140606680D02*
X145086904Y-141320965D01*
X145086904Y-141320965D02*
X144467857Y-141320965D01*
X144134523Y-140749537D02*
X144086904Y-140701918D01*
X144086904Y-140701918D02*
X143991666Y-140654299D01*
X143991666Y-140654299D02*
X143753571Y-140654299D01*
X143753571Y-140654299D02*
X143658333Y-140701918D01*
X143658333Y-140701918D02*
X143610714Y-140749537D01*
X143610714Y-140749537D02*
X143563095Y-140844775D01*
X143563095Y-140844775D02*
X143563095Y-140940013D01*
X143563095Y-140940013D02*
X143610714Y-141082870D01*
X143610714Y-141082870D02*
X144182142Y-141654299D01*
X144182142Y-141654299D02*
X143563095Y-141654299D01*
X147632738Y-150549537D02*
X147727976Y-150501918D01*
X147727976Y-150501918D02*
X147823214Y-150406680D01*
X147823214Y-150406680D02*
X147966071Y-150263822D01*
X147966071Y-150263822D02*
X148061309Y-150216203D01*
X148061309Y-150216203D02*
X148156547Y-150216203D01*
X148108928Y-150454299D02*
X148204166Y-150406680D01*
X148204166Y-150406680D02*
X148299404Y-150311441D01*
X148299404Y-150311441D02*
X148347023Y-150120965D01*
X148347023Y-150120965D02*
X148347023Y-149787632D01*
X148347023Y-149787632D02*
X148299404Y-149597156D01*
X148299404Y-149597156D02*
X148204166Y-149501918D01*
X148204166Y-149501918D02*
X148108928Y-149454299D01*
X148108928Y-149454299D02*
X147918452Y-149454299D01*
X147918452Y-149454299D02*
X147823214Y-149501918D01*
X147823214Y-149501918D02*
X147727976Y-149597156D01*
X147727976Y-149597156D02*
X147680357Y-149787632D01*
X147680357Y-149787632D02*
X147680357Y-150120965D01*
X147680357Y-150120965D02*
X147727976Y-150311441D01*
X147727976Y-150311441D02*
X147823214Y-150406680D01*
X147823214Y-150406680D02*
X147918452Y-150454299D01*
X147918452Y-150454299D02*
X148108928Y-150454299D01*
X146823214Y-149787632D02*
X146823214Y-150454299D01*
X147061309Y-149406680D02*
X147299404Y-150120965D01*
X147299404Y-150120965D02*
X146680357Y-150120965D01*
X137817857Y-147904299D02*
X138151190Y-147428108D01*
X138389285Y-147904299D02*
X138389285Y-146904299D01*
X138389285Y-146904299D02*
X138008333Y-146904299D01*
X138008333Y-146904299D02*
X137913095Y-146951918D01*
X137913095Y-146951918D02*
X137865476Y-146999537D01*
X137865476Y-146999537D02*
X137817857Y-147094775D01*
X137817857Y-147094775D02*
X137817857Y-147237632D01*
X137817857Y-147237632D02*
X137865476Y-147332870D01*
X137865476Y-147332870D02*
X137913095Y-147380489D01*
X137913095Y-147380489D02*
X138008333Y-147428108D01*
X138008333Y-147428108D02*
X138389285Y-147428108D01*
X137436904Y-146999537D02*
X137389285Y-146951918D01*
X137389285Y-146951918D02*
X137294047Y-146904299D01*
X137294047Y-146904299D02*
X137055952Y-146904299D01*
X137055952Y-146904299D02*
X136960714Y-146951918D01*
X136960714Y-146951918D02*
X136913095Y-146999537D01*
X136913095Y-146999537D02*
X136865476Y-147094775D01*
X136865476Y-147094775D02*
X136865476Y-147190013D01*
X136865476Y-147190013D02*
X136913095Y-147332870D01*
X136913095Y-147332870D02*
X137484523Y-147904299D01*
X137484523Y-147904299D02*
X136865476Y-147904299D01*
X136294047Y-147332870D02*
X136389285Y-147285251D01*
X136389285Y-147285251D02*
X136436904Y-147237632D01*
X136436904Y-147237632D02*
X136484523Y-147142394D01*
X136484523Y-147142394D02*
X136484523Y-147094775D01*
X136484523Y-147094775D02*
X136436904Y-146999537D01*
X136436904Y-146999537D02*
X136389285Y-146951918D01*
X136389285Y-146951918D02*
X136294047Y-146904299D01*
X136294047Y-146904299D02*
X136103571Y-146904299D01*
X136103571Y-146904299D02*
X136008333Y-146951918D01*
X136008333Y-146951918D02*
X135960714Y-146999537D01*
X135960714Y-146999537D02*
X135913095Y-147094775D01*
X135913095Y-147094775D02*
X135913095Y-147142394D01*
X135913095Y-147142394D02*
X135960714Y-147237632D01*
X135960714Y-147237632D02*
X136008333Y-147285251D01*
X136008333Y-147285251D02*
X136103571Y-147332870D01*
X136103571Y-147332870D02*
X136294047Y-147332870D01*
X136294047Y-147332870D02*
X136389285Y-147380489D01*
X136389285Y-147380489D02*
X136436904Y-147428108D01*
X136436904Y-147428108D02*
X136484523Y-147523346D01*
X136484523Y-147523346D02*
X136484523Y-147713822D01*
X136484523Y-147713822D02*
X136436904Y-147809060D01*
X136436904Y-147809060D02*
X136389285Y-147856680D01*
X136389285Y-147856680D02*
X136294047Y-147904299D01*
X136294047Y-147904299D02*
X136103571Y-147904299D01*
X136103571Y-147904299D02*
X136008333Y-147856680D01*
X136008333Y-147856680D02*
X135960714Y-147809060D01*
X135960714Y-147809060D02*
X135913095Y-147713822D01*
X135913095Y-147713822D02*
X135913095Y-147523346D01*
X135913095Y-147523346D02*
X135960714Y-147428108D01*
X135960714Y-147428108D02*
X136008333Y-147380489D01*
X136008333Y-147380489D02*
X136103571Y-147332870D01*
X185011904Y-125004299D02*
X185011904Y-125813822D01*
X185011904Y-125813822D02*
X184964285Y-125909060D01*
X184964285Y-125909060D02*
X184916666Y-125956680D01*
X184916666Y-125956680D02*
X184821428Y-126004299D01*
X184821428Y-126004299D02*
X184630952Y-126004299D01*
X184630952Y-126004299D02*
X184535714Y-125956680D01*
X184535714Y-125956680D02*
X184488095Y-125909060D01*
X184488095Y-125909060D02*
X184440476Y-125813822D01*
X184440476Y-125813822D02*
X184440476Y-125004299D01*
X183821428Y-125432870D02*
X183916666Y-125385251D01*
X183916666Y-125385251D02*
X183964285Y-125337632D01*
X183964285Y-125337632D02*
X184011904Y-125242394D01*
X184011904Y-125242394D02*
X184011904Y-125194775D01*
X184011904Y-125194775D02*
X183964285Y-125099537D01*
X183964285Y-125099537D02*
X183916666Y-125051918D01*
X183916666Y-125051918D02*
X183821428Y-125004299D01*
X183821428Y-125004299D02*
X183630952Y-125004299D01*
X183630952Y-125004299D02*
X183535714Y-125051918D01*
X183535714Y-125051918D02*
X183488095Y-125099537D01*
X183488095Y-125099537D02*
X183440476Y-125194775D01*
X183440476Y-125194775D02*
X183440476Y-125242394D01*
X183440476Y-125242394D02*
X183488095Y-125337632D01*
X183488095Y-125337632D02*
X183535714Y-125385251D01*
X183535714Y-125385251D02*
X183630952Y-125432870D01*
X183630952Y-125432870D02*
X183821428Y-125432870D01*
X183821428Y-125432870D02*
X183916666Y-125480489D01*
X183916666Y-125480489D02*
X183964285Y-125528108D01*
X183964285Y-125528108D02*
X184011904Y-125623346D01*
X184011904Y-125623346D02*
X184011904Y-125813822D01*
X184011904Y-125813822D02*
X183964285Y-125909060D01*
X183964285Y-125909060D02*
X183916666Y-125956680D01*
X183916666Y-125956680D02*
X183821428Y-126004299D01*
X183821428Y-126004299D02*
X183630952Y-126004299D01*
X183630952Y-126004299D02*
X183535714Y-125956680D01*
X183535714Y-125956680D02*
X183488095Y-125909060D01*
X183488095Y-125909060D02*
X183440476Y-125813822D01*
X183440476Y-125813822D02*
X183440476Y-125623346D01*
X183440476Y-125623346D02*
X183488095Y-125528108D01*
X183488095Y-125528108D02*
X183535714Y-125480489D01*
X183535714Y-125480489D02*
X183630952Y-125432870D01*
X131192857Y-152929299D02*
X131526190Y-152453108D01*
X131764285Y-152929299D02*
X131764285Y-151929299D01*
X131764285Y-151929299D02*
X131383333Y-151929299D01*
X131383333Y-151929299D02*
X131288095Y-151976918D01*
X131288095Y-151976918D02*
X131240476Y-152024537D01*
X131240476Y-152024537D02*
X131192857Y-152119775D01*
X131192857Y-152119775D02*
X131192857Y-152262632D01*
X131192857Y-152262632D02*
X131240476Y-152357870D01*
X131240476Y-152357870D02*
X131288095Y-152405489D01*
X131288095Y-152405489D02*
X131383333Y-152453108D01*
X131383333Y-152453108D02*
X131764285Y-152453108D01*
X130811904Y-152024537D02*
X130764285Y-151976918D01*
X130764285Y-151976918D02*
X130669047Y-151929299D01*
X130669047Y-151929299D02*
X130430952Y-151929299D01*
X130430952Y-151929299D02*
X130335714Y-151976918D01*
X130335714Y-151976918D02*
X130288095Y-152024537D01*
X130288095Y-152024537D02*
X130240476Y-152119775D01*
X130240476Y-152119775D02*
X130240476Y-152215013D01*
X130240476Y-152215013D02*
X130288095Y-152357870D01*
X130288095Y-152357870D02*
X130859523Y-152929299D01*
X130859523Y-152929299D02*
X130240476Y-152929299D01*
X129335714Y-151929299D02*
X129811904Y-151929299D01*
X129811904Y-151929299D02*
X129859523Y-152405489D01*
X129859523Y-152405489D02*
X129811904Y-152357870D01*
X129811904Y-152357870D02*
X129716666Y-152310251D01*
X129716666Y-152310251D02*
X129478571Y-152310251D01*
X129478571Y-152310251D02*
X129383333Y-152357870D01*
X129383333Y-152357870D02*
X129335714Y-152405489D01*
X129335714Y-152405489D02*
X129288095Y-152500727D01*
X129288095Y-152500727D02*
X129288095Y-152738822D01*
X129288095Y-152738822D02*
X129335714Y-152834060D01*
X129335714Y-152834060D02*
X129383333Y-152881680D01*
X129383333Y-152881680D02*
X129478571Y-152929299D01*
X129478571Y-152929299D02*
X129716666Y-152929299D01*
X129716666Y-152929299D02*
X129811904Y-152881680D01*
X129811904Y-152881680D02*
X129859523Y-152834060D01*
X152495238Y-150549537D02*
X152590476Y-150501918D01*
X152590476Y-150501918D02*
X152685714Y-150406680D01*
X152685714Y-150406680D02*
X152828571Y-150263822D01*
X152828571Y-150263822D02*
X152923809Y-150216203D01*
X152923809Y-150216203D02*
X153019047Y-150216203D01*
X152971428Y-150454299D02*
X153066666Y-150406680D01*
X153066666Y-150406680D02*
X153161904Y-150311441D01*
X153161904Y-150311441D02*
X153209523Y-150120965D01*
X153209523Y-150120965D02*
X153209523Y-149787632D01*
X153209523Y-149787632D02*
X153161904Y-149597156D01*
X153161904Y-149597156D02*
X153066666Y-149501918D01*
X153066666Y-149501918D02*
X152971428Y-149454299D01*
X152971428Y-149454299D02*
X152780952Y-149454299D01*
X152780952Y-149454299D02*
X152685714Y-149501918D01*
X152685714Y-149501918D02*
X152590476Y-149597156D01*
X152590476Y-149597156D02*
X152542857Y-149787632D01*
X152542857Y-149787632D02*
X152542857Y-150120965D01*
X152542857Y-150120965D02*
X152590476Y-150311441D01*
X152590476Y-150311441D02*
X152685714Y-150406680D01*
X152685714Y-150406680D02*
X152780952Y-150454299D01*
X152780952Y-150454299D02*
X152971428Y-150454299D01*
X151638095Y-149454299D02*
X152114285Y-149454299D01*
X152114285Y-149454299D02*
X152161904Y-149930489D01*
X152161904Y-149930489D02*
X152114285Y-149882870D01*
X152114285Y-149882870D02*
X152019047Y-149835251D01*
X152019047Y-149835251D02*
X151780952Y-149835251D01*
X151780952Y-149835251D02*
X151685714Y-149882870D01*
X151685714Y-149882870D02*
X151638095Y-149930489D01*
X151638095Y-149930489D02*
X151590476Y-150025727D01*
X151590476Y-150025727D02*
X151590476Y-150263822D01*
X151590476Y-150263822D02*
X151638095Y-150359060D01*
X151638095Y-150359060D02*
X151685714Y-150406680D01*
X151685714Y-150406680D02*
X151780952Y-150454299D01*
X151780952Y-150454299D02*
X152019047Y-150454299D01*
X152019047Y-150454299D02*
X152114285Y-150406680D01*
X152114285Y-150406680D02*
X152161904Y-150359060D01*
X137179299Y-149907142D02*
X136703108Y-149573809D01*
X137179299Y-149335714D02*
X136179299Y-149335714D01*
X136179299Y-149335714D02*
X136179299Y-149716666D01*
X136179299Y-149716666D02*
X136226918Y-149811904D01*
X136226918Y-149811904D02*
X136274537Y-149859523D01*
X136274537Y-149859523D02*
X136369775Y-149907142D01*
X136369775Y-149907142D02*
X136512632Y-149907142D01*
X136512632Y-149907142D02*
X136607870Y-149859523D01*
X136607870Y-149859523D02*
X136655489Y-149811904D01*
X136655489Y-149811904D02*
X136703108Y-149716666D01*
X136703108Y-149716666D02*
X136703108Y-149335714D01*
X136274537Y-150288095D02*
X136226918Y-150335714D01*
X136226918Y-150335714D02*
X136179299Y-150430952D01*
X136179299Y-150430952D02*
X136179299Y-150669047D01*
X136179299Y-150669047D02*
X136226918Y-150764285D01*
X136226918Y-150764285D02*
X136274537Y-150811904D01*
X136274537Y-150811904D02*
X136369775Y-150859523D01*
X136369775Y-150859523D02*
X136465013Y-150859523D01*
X136465013Y-150859523D02*
X136607870Y-150811904D01*
X136607870Y-150811904D02*
X137179299Y-150240476D01*
X137179299Y-150240476D02*
X137179299Y-150859523D01*
X136179299Y-151716666D02*
X136179299Y-151526190D01*
X136179299Y-151526190D02*
X136226918Y-151430952D01*
X136226918Y-151430952D02*
X136274537Y-151383333D01*
X136274537Y-151383333D02*
X136417394Y-151288095D01*
X136417394Y-151288095D02*
X136607870Y-151240476D01*
X136607870Y-151240476D02*
X136988822Y-151240476D01*
X136988822Y-151240476D02*
X137084060Y-151288095D01*
X137084060Y-151288095D02*
X137131680Y-151335714D01*
X137131680Y-151335714D02*
X137179299Y-151430952D01*
X137179299Y-151430952D02*
X137179299Y-151621428D01*
X137179299Y-151621428D02*
X137131680Y-151716666D01*
X137131680Y-151716666D02*
X137084060Y-151764285D01*
X137084060Y-151764285D02*
X136988822Y-151811904D01*
X136988822Y-151811904D02*
X136750727Y-151811904D01*
X136750727Y-151811904D02*
X136655489Y-151764285D01*
X136655489Y-151764285D02*
X136607870Y-151716666D01*
X136607870Y-151716666D02*
X136560251Y-151621428D01*
X136560251Y-151621428D02*
X136560251Y-151430952D01*
X136560251Y-151430952D02*
X136607870Y-151335714D01*
X136607870Y-151335714D02*
X136655489Y-151288095D01*
X136655489Y-151288095D02*
X136750727Y-151240476D01*
X170242857Y-146404299D02*
X170576190Y-145928108D01*
X170814285Y-146404299D02*
X170814285Y-145404299D01*
X170814285Y-145404299D02*
X170433333Y-145404299D01*
X170433333Y-145404299D02*
X170338095Y-145451918D01*
X170338095Y-145451918D02*
X170290476Y-145499537D01*
X170290476Y-145499537D02*
X170242857Y-145594775D01*
X170242857Y-145594775D02*
X170242857Y-145737632D01*
X170242857Y-145737632D02*
X170290476Y-145832870D01*
X170290476Y-145832870D02*
X170338095Y-145880489D01*
X170338095Y-145880489D02*
X170433333Y-145928108D01*
X170433333Y-145928108D02*
X170814285Y-145928108D01*
X169290476Y-146404299D02*
X169861904Y-146404299D01*
X169576190Y-146404299D02*
X169576190Y-145404299D01*
X169576190Y-145404299D02*
X169671428Y-145547156D01*
X169671428Y-145547156D02*
X169766666Y-145642394D01*
X169766666Y-145642394D02*
X169861904Y-145690013D01*
X168385714Y-145404299D02*
X168861904Y-145404299D01*
X168861904Y-145404299D02*
X168909523Y-145880489D01*
X168909523Y-145880489D02*
X168861904Y-145832870D01*
X168861904Y-145832870D02*
X168766666Y-145785251D01*
X168766666Y-145785251D02*
X168528571Y-145785251D01*
X168528571Y-145785251D02*
X168433333Y-145832870D01*
X168433333Y-145832870D02*
X168385714Y-145880489D01*
X168385714Y-145880489D02*
X168338095Y-145975727D01*
X168338095Y-145975727D02*
X168338095Y-146213822D01*
X168338095Y-146213822D02*
X168385714Y-146309060D01*
X168385714Y-146309060D02*
X168433333Y-146356680D01*
X168433333Y-146356680D02*
X168528571Y-146404299D01*
X168528571Y-146404299D02*
X168766666Y-146404299D01*
X168766666Y-146404299D02*
X168861904Y-146356680D01*
X168861904Y-146356680D02*
X168909523Y-146309060D01*
X155130357Y-141824299D02*
X155463690Y-141348108D01*
X155701785Y-141824299D02*
X155701785Y-140824299D01*
X155701785Y-140824299D02*
X155320833Y-140824299D01*
X155320833Y-140824299D02*
X155225595Y-140871918D01*
X155225595Y-140871918D02*
X155177976Y-140919537D01*
X155177976Y-140919537D02*
X155130357Y-141014775D01*
X155130357Y-141014775D02*
X155130357Y-141157632D01*
X155130357Y-141157632D02*
X155177976Y-141252870D01*
X155177976Y-141252870D02*
X155225595Y-141300489D01*
X155225595Y-141300489D02*
X155320833Y-141348108D01*
X155320833Y-141348108D02*
X155701785Y-141348108D01*
X154797023Y-140824299D02*
X154177976Y-140824299D01*
X154177976Y-140824299D02*
X154511309Y-141205251D01*
X154511309Y-141205251D02*
X154368452Y-141205251D01*
X154368452Y-141205251D02*
X154273214Y-141252870D01*
X154273214Y-141252870D02*
X154225595Y-141300489D01*
X154225595Y-141300489D02*
X154177976Y-141395727D01*
X154177976Y-141395727D02*
X154177976Y-141633822D01*
X154177976Y-141633822D02*
X154225595Y-141729060D01*
X154225595Y-141729060D02*
X154273214Y-141776680D01*
X154273214Y-141776680D02*
X154368452Y-141824299D01*
X154368452Y-141824299D02*
X154654166Y-141824299D01*
X154654166Y-141824299D02*
X154749404Y-141776680D01*
X154749404Y-141776680D02*
X154797023Y-141729060D01*
X153273214Y-140824299D02*
X153749404Y-140824299D01*
X153749404Y-140824299D02*
X153797023Y-141300489D01*
X153797023Y-141300489D02*
X153749404Y-141252870D01*
X153749404Y-141252870D02*
X153654166Y-141205251D01*
X153654166Y-141205251D02*
X153416071Y-141205251D01*
X153416071Y-141205251D02*
X153320833Y-141252870D01*
X153320833Y-141252870D02*
X153273214Y-141300489D01*
X153273214Y-141300489D02*
X153225595Y-141395727D01*
X153225595Y-141395727D02*
X153225595Y-141633822D01*
X153225595Y-141633822D02*
X153273214Y-141729060D01*
X153273214Y-141729060D02*
X153320833Y-141776680D01*
X153320833Y-141776680D02*
X153416071Y-141824299D01*
X153416071Y-141824299D02*
X153654166Y-141824299D01*
X153654166Y-141824299D02*
X153749404Y-141776680D01*
X153749404Y-141776680D02*
X153797023Y-141729060D01*
X134380357Y-149429299D02*
X134713690Y-148953108D01*
X134951785Y-149429299D02*
X134951785Y-148429299D01*
X134951785Y-148429299D02*
X134570833Y-148429299D01*
X134570833Y-148429299D02*
X134475595Y-148476918D01*
X134475595Y-148476918D02*
X134427976Y-148524537D01*
X134427976Y-148524537D02*
X134380357Y-148619775D01*
X134380357Y-148619775D02*
X134380357Y-148762632D01*
X134380357Y-148762632D02*
X134427976Y-148857870D01*
X134427976Y-148857870D02*
X134475595Y-148905489D01*
X134475595Y-148905489D02*
X134570833Y-148953108D01*
X134570833Y-148953108D02*
X134951785Y-148953108D01*
X133999404Y-148524537D02*
X133951785Y-148476918D01*
X133951785Y-148476918D02*
X133856547Y-148429299D01*
X133856547Y-148429299D02*
X133618452Y-148429299D01*
X133618452Y-148429299D02*
X133523214Y-148476918D01*
X133523214Y-148476918D02*
X133475595Y-148524537D01*
X133475595Y-148524537D02*
X133427976Y-148619775D01*
X133427976Y-148619775D02*
X133427976Y-148715013D01*
X133427976Y-148715013D02*
X133475595Y-148857870D01*
X133475595Y-148857870D02*
X134047023Y-149429299D01*
X134047023Y-149429299D02*
X133427976Y-149429299D01*
X133094642Y-148429299D02*
X132427976Y-148429299D01*
X132427976Y-148429299D02*
X132856547Y-149429299D01*
X143029299Y-144932142D02*
X142553108Y-144598809D01*
X143029299Y-144360714D02*
X142029299Y-144360714D01*
X142029299Y-144360714D02*
X142029299Y-144741666D01*
X142029299Y-144741666D02*
X142076918Y-144836904D01*
X142076918Y-144836904D02*
X142124537Y-144884523D01*
X142124537Y-144884523D02*
X142219775Y-144932142D01*
X142219775Y-144932142D02*
X142362632Y-144932142D01*
X142362632Y-144932142D02*
X142457870Y-144884523D01*
X142457870Y-144884523D02*
X142505489Y-144836904D01*
X142505489Y-144836904D02*
X142553108Y-144741666D01*
X142553108Y-144741666D02*
X142553108Y-144360714D01*
X142029299Y-145265476D02*
X142029299Y-145884523D01*
X142029299Y-145884523D02*
X142410251Y-145551190D01*
X142410251Y-145551190D02*
X142410251Y-145694047D01*
X142410251Y-145694047D02*
X142457870Y-145789285D01*
X142457870Y-145789285D02*
X142505489Y-145836904D01*
X142505489Y-145836904D02*
X142600727Y-145884523D01*
X142600727Y-145884523D02*
X142838822Y-145884523D01*
X142838822Y-145884523D02*
X142934060Y-145836904D01*
X142934060Y-145836904D02*
X142981680Y-145789285D01*
X142981680Y-145789285D02*
X143029299Y-145694047D01*
X143029299Y-145694047D02*
X143029299Y-145408333D01*
X143029299Y-145408333D02*
X142981680Y-145313095D01*
X142981680Y-145313095D02*
X142934060Y-145265476D01*
X142029299Y-146217857D02*
X142029299Y-146884523D01*
X142029299Y-146884523D02*
X143029299Y-146455952D01*
X172934299Y-167157142D02*
X172458108Y-166823809D01*
X172934299Y-166585714D02*
X171934299Y-166585714D01*
X171934299Y-166585714D02*
X171934299Y-166966666D01*
X171934299Y-166966666D02*
X171981918Y-167061904D01*
X171981918Y-167061904D02*
X172029537Y-167109523D01*
X172029537Y-167109523D02*
X172124775Y-167157142D01*
X172124775Y-167157142D02*
X172267632Y-167157142D01*
X172267632Y-167157142D02*
X172362870Y-167109523D01*
X172362870Y-167109523D02*
X172410489Y-167061904D01*
X172410489Y-167061904D02*
X172458108Y-166966666D01*
X172458108Y-166966666D02*
X172458108Y-166585714D01*
X172934299Y-168109523D02*
X172934299Y-167538095D01*
X172934299Y-167823809D02*
X171934299Y-167823809D01*
X171934299Y-167823809D02*
X172077156Y-167728571D01*
X172077156Y-167728571D02*
X172172394Y-167633333D01*
X172172394Y-167633333D02*
X172220013Y-167538095D01*
X172934299Y-168585714D02*
X172934299Y-168776190D01*
X172934299Y-168776190D02*
X172886680Y-168871428D01*
X172886680Y-168871428D02*
X172839060Y-168919047D01*
X172839060Y-168919047D02*
X172696203Y-169014285D01*
X172696203Y-169014285D02*
X172505727Y-169061904D01*
X172505727Y-169061904D02*
X172124775Y-169061904D01*
X172124775Y-169061904D02*
X172029537Y-169014285D01*
X172029537Y-169014285D02*
X171981918Y-168966666D01*
X171981918Y-168966666D02*
X171934299Y-168871428D01*
X171934299Y-168871428D02*
X171934299Y-168680952D01*
X171934299Y-168680952D02*
X171981918Y-168585714D01*
X171981918Y-168585714D02*
X172029537Y-168538095D01*
X172029537Y-168538095D02*
X172124775Y-168490476D01*
X172124775Y-168490476D02*
X172362870Y-168490476D01*
X172362870Y-168490476D02*
X172458108Y-168538095D01*
X172458108Y-168538095D02*
X172505727Y-168585714D01*
X172505727Y-168585714D02*
X172553346Y-168680952D01*
X172553346Y-168680952D02*
X172553346Y-168871428D01*
X172553346Y-168871428D02*
X172505727Y-168966666D01*
X172505727Y-168966666D02*
X172458108Y-169014285D01*
X172458108Y-169014285D02*
X172362870Y-169061904D01*
X175545700Y-126416666D02*
X175545700Y-126892856D01*
X175545700Y-126892856D02*
X176545700Y-126892856D01*
X176450462Y-126130951D02*
X176498081Y-126083332D01*
X176498081Y-126083332D02*
X176545700Y-125988094D01*
X176545700Y-125988094D02*
X176545700Y-125749999D01*
X176545700Y-125749999D02*
X176498081Y-125654761D01*
X176498081Y-125654761D02*
X176450462Y-125607142D01*
X176450462Y-125607142D02*
X176355224Y-125559523D01*
X176355224Y-125559523D02*
X176259986Y-125559523D01*
X176259986Y-125559523D02*
X176117129Y-125607142D01*
X176117129Y-125607142D02*
X175545700Y-126178570D01*
X175545700Y-126178570D02*
X175545700Y-125559523D01*
X182509060Y-129607142D02*
X182556680Y-129559523D01*
X182556680Y-129559523D02*
X182604299Y-129416666D01*
X182604299Y-129416666D02*
X182604299Y-129321428D01*
X182604299Y-129321428D02*
X182556680Y-129178571D01*
X182556680Y-129178571D02*
X182461441Y-129083333D01*
X182461441Y-129083333D02*
X182366203Y-129035714D01*
X182366203Y-129035714D02*
X182175727Y-128988095D01*
X182175727Y-128988095D02*
X182032870Y-128988095D01*
X182032870Y-128988095D02*
X181842394Y-129035714D01*
X181842394Y-129035714D02*
X181747156Y-129083333D01*
X181747156Y-129083333D02*
X181651918Y-129178571D01*
X181651918Y-129178571D02*
X181604299Y-129321428D01*
X181604299Y-129321428D02*
X181604299Y-129416666D01*
X181604299Y-129416666D02*
X181651918Y-129559523D01*
X181651918Y-129559523D02*
X181699537Y-129607142D01*
X182604299Y-130559523D02*
X182604299Y-129988095D01*
X182604299Y-130273809D02*
X181604299Y-130273809D01*
X181604299Y-130273809D02*
X181747156Y-130178571D01*
X181747156Y-130178571D02*
X181842394Y-130083333D01*
X181842394Y-130083333D02*
X181890013Y-129988095D01*
X181604299Y-131464285D02*
X181604299Y-130988095D01*
X181604299Y-130988095D02*
X182080489Y-130940476D01*
X182080489Y-130940476D02*
X182032870Y-130988095D01*
X182032870Y-130988095D02*
X181985251Y-131083333D01*
X181985251Y-131083333D02*
X181985251Y-131321428D01*
X181985251Y-131321428D02*
X182032870Y-131416666D01*
X182032870Y-131416666D02*
X182080489Y-131464285D01*
X182080489Y-131464285D02*
X182175727Y-131511904D01*
X182175727Y-131511904D02*
X182413822Y-131511904D01*
X182413822Y-131511904D02*
X182509060Y-131464285D01*
X182509060Y-131464285D02*
X182556680Y-131416666D01*
X182556680Y-131416666D02*
X182604299Y-131321428D01*
X182604299Y-131321428D02*
X182604299Y-131083333D01*
X182604299Y-131083333D02*
X182556680Y-130988095D01*
X182556680Y-130988095D02*
X182509060Y-130940476D01*
X161695238Y-150549537D02*
X161790476Y-150501918D01*
X161790476Y-150501918D02*
X161885714Y-150406680D01*
X161885714Y-150406680D02*
X162028571Y-150263822D01*
X162028571Y-150263822D02*
X162123809Y-150216203D01*
X162123809Y-150216203D02*
X162219047Y-150216203D01*
X162171428Y-150454299D02*
X162266666Y-150406680D01*
X162266666Y-150406680D02*
X162361904Y-150311441D01*
X162361904Y-150311441D02*
X162409523Y-150120965D01*
X162409523Y-150120965D02*
X162409523Y-149787632D01*
X162409523Y-149787632D02*
X162361904Y-149597156D01*
X162361904Y-149597156D02*
X162266666Y-149501918D01*
X162266666Y-149501918D02*
X162171428Y-149454299D01*
X162171428Y-149454299D02*
X161980952Y-149454299D01*
X161980952Y-149454299D02*
X161885714Y-149501918D01*
X161885714Y-149501918D02*
X161790476Y-149597156D01*
X161790476Y-149597156D02*
X161742857Y-149787632D01*
X161742857Y-149787632D02*
X161742857Y-150120965D01*
X161742857Y-150120965D02*
X161790476Y-150311441D01*
X161790476Y-150311441D02*
X161885714Y-150406680D01*
X161885714Y-150406680D02*
X161980952Y-150454299D01*
X161980952Y-150454299D02*
X162171428Y-150454299D01*
X161409523Y-149454299D02*
X160742857Y-149454299D01*
X160742857Y-149454299D02*
X161171428Y-150454299D01*
X151199404Y-132604299D02*
X151199404Y-133413822D01*
X151199404Y-133413822D02*
X151151785Y-133509060D01*
X151151785Y-133509060D02*
X151104166Y-133556680D01*
X151104166Y-133556680D02*
X151008928Y-133604299D01*
X151008928Y-133604299D02*
X150818452Y-133604299D01*
X150818452Y-133604299D02*
X150723214Y-133556680D01*
X150723214Y-133556680D02*
X150675595Y-133509060D01*
X150675595Y-133509060D02*
X150627976Y-133413822D01*
X150627976Y-133413822D02*
X150627976Y-132604299D01*
X150247023Y-132604299D02*
X149580357Y-132604299D01*
X149580357Y-132604299D02*
X150008928Y-133604299D01*
X166295238Y-150549537D02*
X166390476Y-150501918D01*
X166390476Y-150501918D02*
X166485714Y-150406680D01*
X166485714Y-150406680D02*
X166628571Y-150263822D01*
X166628571Y-150263822D02*
X166723809Y-150216203D01*
X166723809Y-150216203D02*
X166819047Y-150216203D01*
X166771428Y-150454299D02*
X166866666Y-150406680D01*
X166866666Y-150406680D02*
X166961904Y-150311441D01*
X166961904Y-150311441D02*
X167009523Y-150120965D01*
X167009523Y-150120965D02*
X167009523Y-149787632D01*
X167009523Y-149787632D02*
X166961904Y-149597156D01*
X166961904Y-149597156D02*
X166866666Y-149501918D01*
X166866666Y-149501918D02*
X166771428Y-149454299D01*
X166771428Y-149454299D02*
X166580952Y-149454299D01*
X166580952Y-149454299D02*
X166485714Y-149501918D01*
X166485714Y-149501918D02*
X166390476Y-149597156D01*
X166390476Y-149597156D02*
X166342857Y-149787632D01*
X166342857Y-149787632D02*
X166342857Y-150120965D01*
X166342857Y-150120965D02*
X166390476Y-150311441D01*
X166390476Y-150311441D02*
X166485714Y-150406680D01*
X166485714Y-150406680D02*
X166580952Y-150454299D01*
X166580952Y-150454299D02*
X166771428Y-150454299D01*
X165771428Y-149882870D02*
X165866666Y-149835251D01*
X165866666Y-149835251D02*
X165914285Y-149787632D01*
X165914285Y-149787632D02*
X165961904Y-149692394D01*
X165961904Y-149692394D02*
X165961904Y-149644775D01*
X165961904Y-149644775D02*
X165914285Y-149549537D01*
X165914285Y-149549537D02*
X165866666Y-149501918D01*
X165866666Y-149501918D02*
X165771428Y-149454299D01*
X165771428Y-149454299D02*
X165580952Y-149454299D01*
X165580952Y-149454299D02*
X165485714Y-149501918D01*
X165485714Y-149501918D02*
X165438095Y-149549537D01*
X165438095Y-149549537D02*
X165390476Y-149644775D01*
X165390476Y-149644775D02*
X165390476Y-149692394D01*
X165390476Y-149692394D02*
X165438095Y-149787632D01*
X165438095Y-149787632D02*
X165485714Y-149835251D01*
X165485714Y-149835251D02*
X165580952Y-149882870D01*
X165580952Y-149882870D02*
X165771428Y-149882870D01*
X165771428Y-149882870D02*
X165866666Y-149930489D01*
X165866666Y-149930489D02*
X165914285Y-149978108D01*
X165914285Y-149978108D02*
X165961904Y-150073346D01*
X165961904Y-150073346D02*
X165961904Y-150263822D01*
X165961904Y-150263822D02*
X165914285Y-150359060D01*
X165914285Y-150359060D02*
X165866666Y-150406680D01*
X165866666Y-150406680D02*
X165771428Y-150454299D01*
X165771428Y-150454299D02*
X165580952Y-150454299D01*
X165580952Y-150454299D02*
X165485714Y-150406680D01*
X165485714Y-150406680D02*
X165438095Y-150359060D01*
X165438095Y-150359060D02*
X165390476Y-150263822D01*
X165390476Y-150263822D02*
X165390476Y-150073346D01*
X165390476Y-150073346D02*
X165438095Y-149978108D01*
X165438095Y-149978108D02*
X165485714Y-149930489D01*
X165485714Y-149930489D02*
X165580952Y-149882870D01*
X191192857Y-125609060D02*
X191240476Y-125656680D01*
X191240476Y-125656680D02*
X191383333Y-125704299D01*
X191383333Y-125704299D02*
X191478571Y-125704299D01*
X191478571Y-125704299D02*
X191621428Y-125656680D01*
X191621428Y-125656680D02*
X191716666Y-125561441D01*
X191716666Y-125561441D02*
X191764285Y-125466203D01*
X191764285Y-125466203D02*
X191811904Y-125275727D01*
X191811904Y-125275727D02*
X191811904Y-125132870D01*
X191811904Y-125132870D02*
X191764285Y-124942394D01*
X191764285Y-124942394D02*
X191716666Y-124847156D01*
X191716666Y-124847156D02*
X191621428Y-124751918D01*
X191621428Y-124751918D02*
X191478571Y-124704299D01*
X191478571Y-124704299D02*
X191383333Y-124704299D01*
X191383333Y-124704299D02*
X191240476Y-124751918D01*
X191240476Y-124751918D02*
X191192857Y-124799537D01*
X190240476Y-125704299D02*
X190811904Y-125704299D01*
X190526190Y-125704299D02*
X190526190Y-124704299D01*
X190526190Y-124704299D02*
X190621428Y-124847156D01*
X190621428Y-124847156D02*
X190716666Y-124942394D01*
X190716666Y-124942394D02*
X190811904Y-124990013D01*
X189383333Y-124704299D02*
X189573809Y-124704299D01*
X189573809Y-124704299D02*
X189669047Y-124751918D01*
X189669047Y-124751918D02*
X189716666Y-124799537D01*
X189716666Y-124799537D02*
X189811904Y-124942394D01*
X189811904Y-124942394D02*
X189859523Y-125132870D01*
X189859523Y-125132870D02*
X189859523Y-125513822D01*
X189859523Y-125513822D02*
X189811904Y-125609060D01*
X189811904Y-125609060D02*
X189764285Y-125656680D01*
X189764285Y-125656680D02*
X189669047Y-125704299D01*
X189669047Y-125704299D02*
X189478571Y-125704299D01*
X189478571Y-125704299D02*
X189383333Y-125656680D01*
X189383333Y-125656680D02*
X189335714Y-125609060D01*
X189335714Y-125609060D02*
X189288095Y-125513822D01*
X189288095Y-125513822D02*
X189288095Y-125275727D01*
X189288095Y-125275727D02*
X189335714Y-125180489D01*
X189335714Y-125180489D02*
X189383333Y-125132870D01*
X189383333Y-125132870D02*
X189478571Y-125085251D01*
X189478571Y-125085251D02*
X189669047Y-125085251D01*
X189669047Y-125085251D02*
X189764285Y-125132870D01*
X189764285Y-125132870D02*
X189811904Y-125180489D01*
X189811904Y-125180489D02*
X189859523Y-125275727D01*
X155130357Y-146284299D02*
X155463690Y-145808108D01*
X155701785Y-146284299D02*
X155701785Y-145284299D01*
X155701785Y-145284299D02*
X155320833Y-145284299D01*
X155320833Y-145284299D02*
X155225595Y-145331918D01*
X155225595Y-145331918D02*
X155177976Y-145379537D01*
X155177976Y-145379537D02*
X155130357Y-145474775D01*
X155130357Y-145474775D02*
X155130357Y-145617632D01*
X155130357Y-145617632D02*
X155177976Y-145712870D01*
X155177976Y-145712870D02*
X155225595Y-145760489D01*
X155225595Y-145760489D02*
X155320833Y-145808108D01*
X155320833Y-145808108D02*
X155701785Y-145808108D01*
X154177976Y-146284299D02*
X154749404Y-146284299D01*
X154463690Y-146284299D02*
X154463690Y-145284299D01*
X154463690Y-145284299D02*
X154558928Y-145427156D01*
X154558928Y-145427156D02*
X154654166Y-145522394D01*
X154654166Y-145522394D02*
X154749404Y-145570013D01*
X153797023Y-145379537D02*
X153749404Y-145331918D01*
X153749404Y-145331918D02*
X153654166Y-145284299D01*
X153654166Y-145284299D02*
X153416071Y-145284299D01*
X153416071Y-145284299D02*
X153320833Y-145331918D01*
X153320833Y-145331918D02*
X153273214Y-145379537D01*
X153273214Y-145379537D02*
X153225595Y-145474775D01*
X153225595Y-145474775D02*
X153225595Y-145570013D01*
X153225595Y-145570013D02*
X153273214Y-145712870D01*
X153273214Y-145712870D02*
X153844642Y-146284299D01*
X153844642Y-146284299D02*
X153225595Y-146284299D01*
X157232738Y-150549537D02*
X157327976Y-150501918D01*
X157327976Y-150501918D02*
X157423214Y-150406680D01*
X157423214Y-150406680D02*
X157566071Y-150263822D01*
X157566071Y-150263822D02*
X157661309Y-150216203D01*
X157661309Y-150216203D02*
X157756547Y-150216203D01*
X157708928Y-150454299D02*
X157804166Y-150406680D01*
X157804166Y-150406680D02*
X157899404Y-150311441D01*
X157899404Y-150311441D02*
X157947023Y-150120965D01*
X157947023Y-150120965D02*
X157947023Y-149787632D01*
X157947023Y-149787632D02*
X157899404Y-149597156D01*
X157899404Y-149597156D02*
X157804166Y-149501918D01*
X157804166Y-149501918D02*
X157708928Y-149454299D01*
X157708928Y-149454299D02*
X157518452Y-149454299D01*
X157518452Y-149454299D02*
X157423214Y-149501918D01*
X157423214Y-149501918D02*
X157327976Y-149597156D01*
X157327976Y-149597156D02*
X157280357Y-149787632D01*
X157280357Y-149787632D02*
X157280357Y-150120965D01*
X157280357Y-150120965D02*
X157327976Y-150311441D01*
X157327976Y-150311441D02*
X157423214Y-150406680D01*
X157423214Y-150406680D02*
X157518452Y-150454299D01*
X157518452Y-150454299D02*
X157708928Y-150454299D01*
X156423214Y-149454299D02*
X156613690Y-149454299D01*
X156613690Y-149454299D02*
X156708928Y-149501918D01*
X156708928Y-149501918D02*
X156756547Y-149549537D01*
X156756547Y-149549537D02*
X156851785Y-149692394D01*
X156851785Y-149692394D02*
X156899404Y-149882870D01*
X156899404Y-149882870D02*
X156899404Y-150263822D01*
X156899404Y-150263822D02*
X156851785Y-150359060D01*
X156851785Y-150359060D02*
X156804166Y-150406680D01*
X156804166Y-150406680D02*
X156708928Y-150454299D01*
X156708928Y-150454299D02*
X156518452Y-150454299D01*
X156518452Y-150454299D02*
X156423214Y-150406680D01*
X156423214Y-150406680D02*
X156375595Y-150359060D01*
X156375595Y-150359060D02*
X156327976Y-150263822D01*
X156327976Y-150263822D02*
X156327976Y-150025727D01*
X156327976Y-150025727D02*
X156375595Y-149930489D01*
X156375595Y-149930489D02*
X156423214Y-149882870D01*
X156423214Y-149882870D02*
X156518452Y-149835251D01*
X156518452Y-149835251D02*
X156708928Y-149835251D01*
X156708928Y-149835251D02*
X156804166Y-149882870D01*
X156804166Y-149882870D02*
X156851785Y-149930489D01*
X156851785Y-149930489D02*
X156899404Y-150025727D01*
X128067857Y-142179299D02*
X128401190Y-141703108D01*
X128639285Y-142179299D02*
X128639285Y-141179299D01*
X128639285Y-141179299D02*
X128258333Y-141179299D01*
X128258333Y-141179299D02*
X128163095Y-141226918D01*
X128163095Y-141226918D02*
X128115476Y-141274537D01*
X128115476Y-141274537D02*
X128067857Y-141369775D01*
X128067857Y-141369775D02*
X128067857Y-141512632D01*
X128067857Y-141512632D02*
X128115476Y-141607870D01*
X128115476Y-141607870D02*
X128163095Y-141655489D01*
X128163095Y-141655489D02*
X128258333Y-141703108D01*
X128258333Y-141703108D02*
X128639285Y-141703108D01*
X127734523Y-141179299D02*
X127115476Y-141179299D01*
X127115476Y-141179299D02*
X127448809Y-141560251D01*
X127448809Y-141560251D02*
X127305952Y-141560251D01*
X127305952Y-141560251D02*
X127210714Y-141607870D01*
X127210714Y-141607870D02*
X127163095Y-141655489D01*
X127163095Y-141655489D02*
X127115476Y-141750727D01*
X127115476Y-141750727D02*
X127115476Y-141988822D01*
X127115476Y-141988822D02*
X127163095Y-142084060D01*
X127163095Y-142084060D02*
X127210714Y-142131680D01*
X127210714Y-142131680D02*
X127305952Y-142179299D01*
X127305952Y-142179299D02*
X127591666Y-142179299D01*
X127591666Y-142179299D02*
X127686904Y-142131680D01*
X127686904Y-142131680D02*
X127734523Y-142084060D01*
X126163095Y-142179299D02*
X126734523Y-142179299D01*
X126448809Y-142179299D02*
X126448809Y-141179299D01*
X126448809Y-141179299D02*
X126544047Y-141322156D01*
X126544047Y-141322156D02*
X126639285Y-141417394D01*
X126639285Y-141417394D02*
X126734523Y-141465013D01*
X151348094Y-75924299D02*
X151348094Y-76733822D01*
X151348094Y-76733822D02*
X151300475Y-76829060D01*
X151300475Y-76829060D02*
X151252856Y-76876680D01*
X151252856Y-76876680D02*
X151157618Y-76924299D01*
X151157618Y-76924299D02*
X150967142Y-76924299D01*
X150967142Y-76924299D02*
X150871904Y-76876680D01*
X150871904Y-76876680D02*
X150824285Y-76829060D01*
X150824285Y-76829060D02*
X150776666Y-76733822D01*
X150776666Y-76733822D02*
X150776666Y-75924299D01*
X149776666Y-76924299D02*
X150348094Y-76924299D01*
X150062380Y-76924299D02*
X150062380Y-75924299D01*
X150062380Y-75924299D02*
X150157618Y-76067156D01*
X150157618Y-76067156D02*
X150252856Y-76162394D01*
X150252856Y-76162394D02*
X150348094Y-76210013D01*
X149157618Y-75924299D02*
X149062380Y-75924299D01*
X149062380Y-75924299D02*
X148967142Y-75971918D01*
X148967142Y-75971918D02*
X148919523Y-76019537D01*
X148919523Y-76019537D02*
X148871904Y-76114775D01*
X148871904Y-76114775D02*
X148824285Y-76305251D01*
X148824285Y-76305251D02*
X148824285Y-76543346D01*
X148824285Y-76543346D02*
X148871904Y-76733822D01*
X148871904Y-76733822D02*
X148919523Y-76829060D01*
X148919523Y-76829060D02*
X148967142Y-76876680D01*
X148967142Y-76876680D02*
X149062380Y-76924299D01*
X149062380Y-76924299D02*
X149157618Y-76924299D01*
X149157618Y-76924299D02*
X149252856Y-76876680D01*
X149252856Y-76876680D02*
X149300475Y-76829060D01*
X149300475Y-76829060D02*
X149348094Y-76733822D01*
X149348094Y-76733822D02*
X149395713Y-76543346D01*
X149395713Y-76543346D02*
X149395713Y-76305251D01*
X149395713Y-76305251D02*
X149348094Y-76114775D01*
X149348094Y-76114775D02*
X149300475Y-76019537D01*
X149300475Y-76019537D02*
X149252856Y-75971918D01*
X149252856Y-75971918D02*
X149157618Y-75924299D01*
X164335632Y-88221238D02*
X164423178Y-88241441D01*
X164423178Y-88241441D02*
X164503991Y-88322253D01*
X164503991Y-88322253D02*
X164551131Y-88436737D01*
X164551131Y-88436737D02*
X164537662Y-88557955D01*
X164537662Y-88557955D02*
X164497256Y-88652236D01*
X164497256Y-88652236D02*
X164389507Y-88813860D01*
X164389507Y-88813860D02*
X164288491Y-88914876D01*
X164288491Y-88914876D02*
X164126867Y-89022625D01*
X164126867Y-89022625D02*
X164032586Y-89063031D01*
X164032586Y-89063031D02*
X163911368Y-89076500D01*
X163911368Y-89076500D02*
X163796884Y-89029360D01*
X163796884Y-89029360D02*
X163743009Y-88975485D01*
X163743009Y-88975485D02*
X163695869Y-88861001D01*
X163695869Y-88861001D02*
X163702603Y-88800392D01*
X163702603Y-88800392D02*
X163938305Y-88564689D01*
X163938305Y-88564689D02*
X164046055Y-88672439D01*
X163392823Y-88625299D02*
X164099930Y-87918192D01*
X164099930Y-87918192D02*
X163884430Y-87702693D01*
X163884430Y-87702693D02*
X163796884Y-87682490D01*
X163796884Y-87682490D02*
X163736275Y-87689224D01*
X163736275Y-87689224D02*
X163641994Y-87729630D01*
X163641994Y-87729630D02*
X163540978Y-87830645D01*
X163540978Y-87830645D02*
X163500572Y-87924926D01*
X163500572Y-87924926D02*
X163493838Y-87985535D01*
X163493838Y-87985535D02*
X163514041Y-88073082D01*
X163514041Y-88073082D02*
X163729540Y-88288581D01*
X162530826Y-87763302D02*
X162854075Y-88086551D01*
X162692450Y-87924926D02*
X163399557Y-87217819D01*
X163399557Y-87217819D02*
X163352417Y-87372709D01*
X163352417Y-87372709D02*
X163338948Y-87493928D01*
X163338948Y-87493928D02*
X163359151Y-87581474D01*
X161992078Y-87224554D02*
X162315327Y-87547802D01*
X162153702Y-87386178D02*
X162860809Y-86679071D01*
X162860809Y-86679071D02*
X162813668Y-86833961D01*
X162813668Y-86833961D02*
X162800200Y-86955180D01*
X162800200Y-86955180D02*
X162820403Y-87042726D01*
X137933475Y-71235890D02*
X137664101Y-70966516D01*
X137785320Y-71491796D02*
X138303865Y-70596127D01*
X138303865Y-70596127D02*
X137408196Y-71114672D01*
X137596758Y-69956364D02*
X137684305Y-69976567D01*
X137684305Y-69976567D02*
X137765117Y-70057379D01*
X137765117Y-70057379D02*
X137812257Y-70171863D01*
X137812257Y-70171863D02*
X137798789Y-70293081D01*
X137798789Y-70293081D02*
X137758382Y-70387362D01*
X137758382Y-70387362D02*
X137650633Y-70548987D01*
X137650633Y-70548987D02*
X137549618Y-70650002D01*
X137549618Y-70650002D02*
X137387993Y-70757752D01*
X137387993Y-70757752D02*
X137293712Y-70798158D01*
X137293712Y-70798158D02*
X137172494Y-70811626D01*
X137172494Y-70811626D02*
X137058010Y-70764486D01*
X137058010Y-70764486D02*
X137004135Y-70710611D01*
X137004135Y-70710611D02*
X136956995Y-70596127D01*
X136956995Y-70596127D02*
X136963729Y-70535518D01*
X136963729Y-70535518D02*
X137199431Y-70299816D01*
X137199431Y-70299816D02*
X137307181Y-70407565D01*
X136653949Y-70360425D02*
X137361056Y-69653318D01*
X137361056Y-69653318D02*
X136330700Y-70037176D01*
X136330700Y-70037176D02*
X137037807Y-69330069D01*
X136061326Y-69767802D02*
X136768433Y-69060695D01*
X136768433Y-69060695D02*
X136633746Y-68926008D01*
X136633746Y-68926008D02*
X136519262Y-68878868D01*
X136519262Y-68878868D02*
X136398044Y-68892337D01*
X136398044Y-68892337D02*
X136303763Y-68932743D01*
X136303763Y-68932743D02*
X136142139Y-69040492D01*
X136142139Y-69040492D02*
X136041123Y-69141508D01*
X136041123Y-69141508D02*
X135933374Y-69303132D01*
X135933374Y-69303132D02*
X135892968Y-69397413D01*
X135892968Y-69397413D02*
X135879499Y-69518631D01*
X135879499Y-69518631D02*
X135926639Y-69633115D01*
X135926639Y-69633115D02*
X136061326Y-69767802D01*
X138093195Y-95598800D02*
X138180741Y-95619003D01*
X138180741Y-95619003D02*
X138261553Y-95699816D01*
X138261553Y-95699816D02*
X138308694Y-95814300D01*
X138308694Y-95814300D02*
X138295225Y-95935518D01*
X138295225Y-95935518D02*
X138254819Y-96029799D01*
X138254819Y-96029799D02*
X138147069Y-96191423D01*
X138147069Y-96191423D02*
X138046054Y-96292438D01*
X138046054Y-96292438D02*
X137884430Y-96400188D01*
X137884430Y-96400188D02*
X137790149Y-96440594D01*
X137790149Y-96440594D02*
X137668931Y-96454063D01*
X137668931Y-96454063D02*
X137554447Y-96406922D01*
X137554447Y-96406922D02*
X137500572Y-96353048D01*
X137500572Y-96353048D02*
X137453431Y-96238564D01*
X137453431Y-96238564D02*
X137460166Y-96177955D01*
X137460166Y-96177955D02*
X137695868Y-95942252D01*
X137695868Y-95942252D02*
X137803618Y-96050002D01*
X137150386Y-96002861D02*
X137857492Y-95295755D01*
X137857492Y-95295755D02*
X136827137Y-95679613D01*
X136827137Y-95679613D02*
X137534243Y-94972506D01*
X136557763Y-95410239D02*
X137264870Y-94703132D01*
X137264870Y-94703132D02*
X137130183Y-94568445D01*
X137130183Y-94568445D02*
X137015699Y-94521305D01*
X137015699Y-94521305D02*
X136894480Y-94534773D01*
X136894480Y-94534773D02*
X136800199Y-94575179D01*
X136800199Y-94575179D02*
X136638575Y-94682929D01*
X136638575Y-94682929D02*
X136537560Y-94783944D01*
X136537560Y-94783944D02*
X136429810Y-94945569D01*
X136429810Y-94945569D02*
X136389404Y-95039849D01*
X136389404Y-95039849D02*
X136375935Y-95161068D01*
X136375935Y-95161068D02*
X136423076Y-95275552D01*
X136423076Y-95275552D02*
X136557763Y-95410239D01*
X138232958Y-52921221D02*
X137337290Y-53439765D01*
X137337290Y-53439765D02*
X137855835Y-52544097D01*
X137141994Y-52503691D02*
X137027510Y-52456551D01*
X137027510Y-52456551D02*
X136966901Y-52463285D01*
X136966901Y-52463285D02*
X136872620Y-52503691D01*
X136872620Y-52503691D02*
X136771604Y-52604706D01*
X136771604Y-52604706D02*
X136731198Y-52698987D01*
X136731198Y-52698987D02*
X136724464Y-52759596D01*
X136724464Y-52759596D02*
X136744667Y-52847143D01*
X136744667Y-52847143D02*
X136960166Y-53062642D01*
X136960166Y-53062642D02*
X137667273Y-52355535D01*
X137667273Y-52355535D02*
X137478711Y-52166973D01*
X137478711Y-52166973D02*
X137391165Y-52146770D01*
X137391165Y-52146770D02*
X137330555Y-52153505D01*
X137330555Y-52153505D02*
X137236275Y-52193911D01*
X137236275Y-52193911D02*
X137168931Y-52261254D01*
X137168931Y-52261254D02*
X137128525Y-52355535D01*
X137128525Y-52355535D02*
X137121791Y-52416144D01*
X137121791Y-52416144D02*
X137141994Y-52503691D01*
X137141994Y-52503691D02*
X137330555Y-52692253D01*
X137101588Y-51789850D02*
X136529168Y-52362270D01*
X136529168Y-52362270D02*
X136434887Y-52402676D01*
X136434887Y-52402676D02*
X136374278Y-52409410D01*
X136374278Y-52409410D02*
X136286731Y-52389207D01*
X136286731Y-52389207D02*
X136178982Y-52281457D01*
X136178982Y-52281457D02*
X136158778Y-52193911D01*
X136158778Y-52193911D02*
X136165513Y-52133302D01*
X136165513Y-52133302D02*
X136205919Y-52039021D01*
X136205919Y-52039021D02*
X136778339Y-51466601D01*
X135862467Y-51897600D02*
X135747983Y-51850459D01*
X135747983Y-51850459D02*
X135613296Y-51715772D01*
X135613296Y-51715772D02*
X135593093Y-51628226D01*
X135593093Y-51628226D02*
X135599828Y-51567616D01*
X135599828Y-51567616D02*
X135640234Y-51473336D01*
X135640234Y-51473336D02*
X135707577Y-51405992D01*
X135707577Y-51405992D02*
X135801858Y-51365586D01*
X135801858Y-51365586D02*
X135862467Y-51358852D01*
X135862467Y-51358852D02*
X135950014Y-51379055D01*
X135950014Y-51379055D02*
X136091435Y-51453133D01*
X136091435Y-51453133D02*
X136178982Y-51473336D01*
X136178982Y-51473336D02*
X136239591Y-51466601D01*
X136239591Y-51466601D02*
X136333872Y-51426195D01*
X136333872Y-51426195D02*
X136401215Y-51358852D01*
X136401215Y-51358852D02*
X136441621Y-51264571D01*
X136441621Y-51264571D02*
X136448356Y-51203962D01*
X136448356Y-51203962D02*
X136428153Y-51116415D01*
X136428153Y-51116415D02*
X136293466Y-50981728D01*
X136293466Y-50981728D02*
X136178982Y-50934588D01*
X138093195Y-57498800D02*
X138180741Y-57519003D01*
X138180741Y-57519003D02*
X138261553Y-57599816D01*
X138261553Y-57599816D02*
X138308694Y-57714300D01*
X138308694Y-57714300D02*
X138295225Y-57835518D01*
X138295225Y-57835518D02*
X138254819Y-57929799D01*
X138254819Y-57929799D02*
X138147069Y-58091423D01*
X138147069Y-58091423D02*
X138046054Y-58192438D01*
X138046054Y-58192438D02*
X137884430Y-58300188D01*
X137884430Y-58300188D02*
X137790149Y-58340594D01*
X137790149Y-58340594D02*
X137668931Y-58354063D01*
X137668931Y-58354063D02*
X137554447Y-58306922D01*
X137554447Y-58306922D02*
X137500572Y-58253048D01*
X137500572Y-58253048D02*
X137453431Y-58138564D01*
X137453431Y-58138564D02*
X137460166Y-58077955D01*
X137460166Y-58077955D02*
X137695868Y-57842252D01*
X137695868Y-57842252D02*
X137803618Y-57950002D01*
X137150386Y-57902861D02*
X137857492Y-57195755D01*
X137857492Y-57195755D02*
X136827137Y-57579613D01*
X136827137Y-57579613D02*
X137534243Y-56872506D01*
X136557763Y-57310239D02*
X137264870Y-56603132D01*
X137264870Y-56603132D02*
X137130183Y-56468445D01*
X137130183Y-56468445D02*
X137015699Y-56421305D01*
X137015699Y-56421305D02*
X136894480Y-56434773D01*
X136894480Y-56434773D02*
X136800199Y-56475179D01*
X136800199Y-56475179D02*
X136638575Y-56582929D01*
X136638575Y-56582929D02*
X136537560Y-56683944D01*
X136537560Y-56683944D02*
X136429810Y-56845569D01*
X136429810Y-56845569D02*
X136389404Y-56939849D01*
X136389404Y-56939849D02*
X136375935Y-57061068D01*
X136375935Y-57061068D02*
X136423076Y-57175552D01*
X136423076Y-57175552D02*
X136557763Y-57310239D01*
X164189632Y-93301238D02*
X164277178Y-93321441D01*
X164277178Y-93321441D02*
X164357991Y-93402253D01*
X164357991Y-93402253D02*
X164405131Y-93516737D01*
X164405131Y-93516737D02*
X164391662Y-93637955D01*
X164391662Y-93637955D02*
X164351256Y-93732236D01*
X164351256Y-93732236D02*
X164243507Y-93893860D01*
X164243507Y-93893860D02*
X164142491Y-93994876D01*
X164142491Y-93994876D02*
X163980867Y-94102625D01*
X163980867Y-94102625D02*
X163886586Y-94143031D01*
X163886586Y-94143031D02*
X163765368Y-94156500D01*
X163765368Y-94156500D02*
X163650884Y-94109360D01*
X163650884Y-94109360D02*
X163597009Y-94055485D01*
X163597009Y-94055485D02*
X163549869Y-93941001D01*
X163549869Y-93941001D02*
X163556603Y-93880392D01*
X163556603Y-93880392D02*
X163792305Y-93644689D01*
X163792305Y-93644689D02*
X163900055Y-93752439D01*
X163246823Y-93705299D02*
X163953930Y-92998192D01*
X163953930Y-92998192D02*
X163738430Y-92782693D01*
X163738430Y-92782693D02*
X163650884Y-92762490D01*
X163650884Y-92762490D02*
X163590275Y-92769224D01*
X163590275Y-92769224D02*
X163495994Y-92809630D01*
X163495994Y-92809630D02*
X163394978Y-92910645D01*
X163394978Y-92910645D02*
X163354572Y-93004926D01*
X163354572Y-93004926D02*
X163347838Y-93065535D01*
X163347838Y-93065535D02*
X163368041Y-93153082D01*
X163368041Y-93153082D02*
X163583540Y-93368581D01*
X162384826Y-92843302D02*
X162708075Y-93166551D01*
X162546450Y-93004926D02*
X163253557Y-92297819D01*
X163253557Y-92297819D02*
X163206417Y-92452709D01*
X163206417Y-92452709D02*
X163192948Y-92573928D01*
X163192948Y-92573928D02*
X163213151Y-92661474D01*
X162903371Y-91947633D02*
X162553184Y-91597447D01*
X162553184Y-91597447D02*
X162472372Y-92055383D01*
X162472372Y-92055383D02*
X162391560Y-91974570D01*
X162391560Y-91974570D02*
X162304014Y-91954367D01*
X162304014Y-91954367D02*
X162243404Y-91961102D01*
X162243404Y-91961102D02*
X162149123Y-92001508D01*
X162149123Y-92001508D02*
X161980765Y-92169867D01*
X161980765Y-92169867D02*
X161940359Y-92264147D01*
X161940359Y-92264147D02*
X161933624Y-92324757D01*
X161933624Y-92324757D02*
X161953827Y-92412303D01*
X161953827Y-92412303D02*
X162115452Y-92573928D01*
X162115452Y-92573928D02*
X162202998Y-92594131D01*
X162202998Y-92594131D02*
X162263607Y-92587396D01*
X137930285Y-66028700D02*
X137660911Y-65759326D01*
X137782129Y-66284605D02*
X138300674Y-65388936D01*
X138300674Y-65388936D02*
X137405006Y-65907481D01*
X137216444Y-65718920D02*
X137923551Y-65011813D01*
X137923551Y-65011813D02*
X137788864Y-64877126D01*
X137788864Y-64877126D02*
X137674380Y-64829986D01*
X137674380Y-64829986D02*
X137553161Y-64843454D01*
X137553161Y-64843454D02*
X137458881Y-64883860D01*
X137458881Y-64883860D02*
X137297256Y-64991610D01*
X137297256Y-64991610D02*
X137196241Y-65092625D01*
X137196241Y-65092625D02*
X137088491Y-65254250D01*
X137088491Y-65254250D02*
X137048085Y-65348531D01*
X137048085Y-65348531D02*
X137034617Y-65469749D01*
X137034617Y-65469749D02*
X137081757Y-65584233D01*
X137081757Y-65584233D02*
X137216444Y-65718920D01*
X136394853Y-64762642D02*
X136388119Y-64823251D01*
X136388119Y-64823251D02*
X136435259Y-64937735D01*
X136435259Y-64937735D02*
X136489134Y-64991610D01*
X136489134Y-64991610D02*
X136603618Y-65038750D01*
X136603618Y-65038750D02*
X136724836Y-65025282D01*
X136724836Y-65025282D02*
X136819117Y-64984876D01*
X136819117Y-64984876D02*
X136980742Y-64877126D01*
X136980742Y-64877126D02*
X137081757Y-64776111D01*
X137081757Y-64776111D02*
X137189507Y-64614486D01*
X137189507Y-64614486D02*
X137229913Y-64520205D01*
X137229913Y-64520205D02*
X137243381Y-64398987D01*
X137243381Y-64398987D02*
X137196241Y-64284503D01*
X137196241Y-64284503D02*
X137142366Y-64230628D01*
X137142366Y-64230628D02*
X137027882Y-64183488D01*
X137027882Y-64183488D02*
X136967273Y-64190222D01*
X136152417Y-64789579D02*
X135721418Y-64358581D01*
X136441994Y-63530256D02*
X135546325Y-64048801D01*
X135546325Y-64048801D02*
X136064870Y-63153132D01*
X134845953Y-63348429D02*
X135371232Y-63200273D01*
X135169202Y-63671677D02*
X135876308Y-62964571D01*
X135876308Y-62964571D02*
X135660809Y-62749071D01*
X135660809Y-62749071D02*
X135573263Y-62728868D01*
X135573263Y-62728868D02*
X135512653Y-62735603D01*
X135512653Y-62735603D02*
X135418372Y-62776009D01*
X135418372Y-62776009D02*
X135317357Y-62877024D01*
X135317357Y-62877024D02*
X135276951Y-62971305D01*
X135276951Y-62971305D02*
X135270217Y-63031914D01*
X135270217Y-63031914D02*
X135290420Y-63119461D01*
X135290420Y-63119461D02*
X135505919Y-63334960D01*
X134973905Y-62735603D02*
X134785344Y-62547041D01*
X134334142Y-62836618D02*
X134603516Y-63105992D01*
X134603516Y-63105992D02*
X135310623Y-62398885D01*
X135310623Y-62398885D02*
X135041249Y-62129511D01*
X134273533Y-62035230D02*
X134462094Y-62223792D01*
X134091705Y-62594181D02*
X134798812Y-61887074D01*
X134798812Y-61887074D02*
X134529438Y-61617700D01*
X163666257Y-65091863D02*
X163753804Y-65112066D01*
X163753804Y-65112066D02*
X163834616Y-65192878D01*
X163834616Y-65192878D02*
X163881757Y-65307362D01*
X163881757Y-65307362D02*
X163868288Y-65428581D01*
X163868288Y-65428581D02*
X163827882Y-65522862D01*
X163827882Y-65522862D02*
X163720132Y-65684486D01*
X163720132Y-65684486D02*
X163619117Y-65785501D01*
X163619117Y-65785501D02*
X163457492Y-65893251D01*
X163457492Y-65893251D02*
X163363212Y-65933657D01*
X163363212Y-65933657D02*
X163241993Y-65947126D01*
X163241993Y-65947126D02*
X163127509Y-65899985D01*
X163127509Y-65899985D02*
X163073635Y-65846110D01*
X163073635Y-65846110D02*
X163026494Y-65731626D01*
X163026494Y-65731626D02*
X163033228Y-65671017D01*
X163033228Y-65671017D02*
X163268931Y-65435315D01*
X163268931Y-65435315D02*
X163376680Y-65543065D01*
X162723448Y-65495924D02*
X163430555Y-64788817D01*
X163430555Y-64788817D02*
X163215056Y-64573318D01*
X163215056Y-64573318D02*
X163127509Y-64553115D01*
X163127509Y-64553115D02*
X163066900Y-64559849D01*
X163066900Y-64559849D02*
X162972619Y-64600256D01*
X162972619Y-64600256D02*
X162871604Y-64701271D01*
X162871604Y-64701271D02*
X162831198Y-64795552D01*
X162831198Y-64795552D02*
X162824464Y-64856161D01*
X162824464Y-64856161D02*
X162844667Y-64943707D01*
X162844667Y-64943707D02*
X163060166Y-65159207D01*
X162386731Y-64216398D02*
X161915326Y-64687802D01*
X162790792Y-64081711D02*
X162420403Y-64721474D01*
X162420403Y-64721474D02*
X162070216Y-64371288D01*
X163566257Y-75221863D02*
X163653804Y-75242066D01*
X163653804Y-75242066D02*
X163734616Y-75322878D01*
X163734616Y-75322878D02*
X163781757Y-75437362D01*
X163781757Y-75437362D02*
X163768288Y-75558581D01*
X163768288Y-75558581D02*
X163727882Y-75652862D01*
X163727882Y-75652862D02*
X163620132Y-75814486D01*
X163620132Y-75814486D02*
X163519117Y-75915501D01*
X163519117Y-75915501D02*
X163357492Y-76023251D01*
X163357492Y-76023251D02*
X163263212Y-76063657D01*
X163263212Y-76063657D02*
X163141993Y-76077126D01*
X163141993Y-76077126D02*
X163027509Y-76029985D01*
X163027509Y-76029985D02*
X162973635Y-75976110D01*
X162973635Y-75976110D02*
X162926494Y-75861626D01*
X162926494Y-75861626D02*
X162933228Y-75801017D01*
X162933228Y-75801017D02*
X163168931Y-75565315D01*
X163168931Y-75565315D02*
X163276680Y-75673065D01*
X162623448Y-75625924D02*
X163330555Y-74918817D01*
X163330555Y-74918817D02*
X163115056Y-74703318D01*
X163115056Y-74703318D02*
X163027509Y-74683115D01*
X163027509Y-74683115D02*
X162966900Y-74689849D01*
X162966900Y-74689849D02*
X162872619Y-74730256D01*
X162872619Y-74730256D02*
X162771604Y-74831271D01*
X162771604Y-74831271D02*
X162731198Y-74925552D01*
X162731198Y-74925552D02*
X162724464Y-74986161D01*
X162724464Y-74986161D02*
X162744667Y-75073707D01*
X162744667Y-75073707D02*
X162960166Y-75289207D01*
X162818744Y-74407007D02*
X162441621Y-74029883D01*
X162441621Y-74029883D02*
X161976951Y-74979427D01*
X164189632Y-100921238D02*
X164277178Y-100941441D01*
X164277178Y-100941441D02*
X164357991Y-101022253D01*
X164357991Y-101022253D02*
X164405131Y-101136737D01*
X164405131Y-101136737D02*
X164391662Y-101257955D01*
X164391662Y-101257955D02*
X164351256Y-101352236D01*
X164351256Y-101352236D02*
X164243507Y-101513860D01*
X164243507Y-101513860D02*
X164142491Y-101614876D01*
X164142491Y-101614876D02*
X163980867Y-101722625D01*
X163980867Y-101722625D02*
X163886586Y-101763031D01*
X163886586Y-101763031D02*
X163765368Y-101776500D01*
X163765368Y-101776500D02*
X163650884Y-101729360D01*
X163650884Y-101729360D02*
X163597009Y-101675485D01*
X163597009Y-101675485D02*
X163549869Y-101561001D01*
X163549869Y-101561001D02*
X163556603Y-101500392D01*
X163556603Y-101500392D02*
X163792305Y-101264689D01*
X163792305Y-101264689D02*
X163900055Y-101372439D01*
X163246823Y-101325299D02*
X163953930Y-100618192D01*
X163953930Y-100618192D02*
X163738430Y-100402693D01*
X163738430Y-100402693D02*
X163650884Y-100382490D01*
X163650884Y-100382490D02*
X163590275Y-100389224D01*
X163590275Y-100389224D02*
X163495994Y-100429630D01*
X163495994Y-100429630D02*
X163394978Y-100530645D01*
X163394978Y-100530645D02*
X163354572Y-100624926D01*
X163354572Y-100624926D02*
X163347838Y-100685535D01*
X163347838Y-100685535D02*
X163368041Y-100773082D01*
X163368041Y-100773082D02*
X163583540Y-100988581D01*
X162384826Y-100463302D02*
X162708075Y-100786551D01*
X162546450Y-100624926D02*
X163253557Y-99917819D01*
X163253557Y-99917819D02*
X163206417Y-100072709D01*
X163206417Y-100072709D02*
X163192948Y-100193928D01*
X163192948Y-100193928D02*
X163213151Y-100281474D01*
X162580122Y-99244384D02*
X162849496Y-99513758D01*
X162849496Y-99513758D02*
X162539716Y-99877413D01*
X162539716Y-99877413D02*
X162546450Y-99816804D01*
X162546450Y-99816804D02*
X162526247Y-99729257D01*
X162526247Y-99729257D02*
X162391560Y-99594570D01*
X162391560Y-99594570D02*
X162304014Y-99574367D01*
X162304014Y-99574367D02*
X162243404Y-99581102D01*
X162243404Y-99581102D02*
X162149123Y-99621508D01*
X162149123Y-99621508D02*
X161980765Y-99789867D01*
X161980765Y-99789867D02*
X161940359Y-99884147D01*
X161940359Y-99884147D02*
X161933624Y-99944757D01*
X161933624Y-99944757D02*
X161953827Y-100032303D01*
X161953827Y-100032303D02*
X162088514Y-100166990D01*
X162088514Y-100166990D02*
X162176061Y-100187193D01*
X162176061Y-100187193D02*
X162236670Y-100180459D01*
X138081632Y-98381238D02*
X138169178Y-98401441D01*
X138169178Y-98401441D02*
X138249991Y-98482253D01*
X138249991Y-98482253D02*
X138297131Y-98596737D01*
X138297131Y-98596737D02*
X138283662Y-98717955D01*
X138283662Y-98717955D02*
X138243256Y-98812236D01*
X138243256Y-98812236D02*
X138135507Y-98973860D01*
X138135507Y-98973860D02*
X138034491Y-99074876D01*
X138034491Y-99074876D02*
X137872867Y-99182625D01*
X137872867Y-99182625D02*
X137778586Y-99223031D01*
X137778586Y-99223031D02*
X137657368Y-99236500D01*
X137657368Y-99236500D02*
X137542884Y-99189360D01*
X137542884Y-99189360D02*
X137489009Y-99135485D01*
X137489009Y-99135485D02*
X137441869Y-99021001D01*
X137441869Y-99021001D02*
X137448603Y-98960392D01*
X137448603Y-98960392D02*
X137684305Y-98724689D01*
X137684305Y-98724689D02*
X137792055Y-98832439D01*
X137138823Y-98785299D02*
X137845930Y-98078192D01*
X137845930Y-98078192D02*
X137630430Y-97862693D01*
X137630430Y-97862693D02*
X137542884Y-97842490D01*
X137542884Y-97842490D02*
X137482275Y-97849224D01*
X137482275Y-97849224D02*
X137387994Y-97889630D01*
X137387994Y-97889630D02*
X137286978Y-97990645D01*
X137286978Y-97990645D02*
X137246572Y-98084926D01*
X137246572Y-98084926D02*
X137239838Y-98145535D01*
X137239838Y-98145535D02*
X137260041Y-98233082D01*
X137260041Y-98233082D02*
X137475540Y-98448581D01*
X136276826Y-97923302D02*
X136600075Y-98246551D01*
X136438450Y-98084926D02*
X137145557Y-97377819D01*
X137145557Y-97377819D02*
X137098417Y-97532709D01*
X137098417Y-97532709D02*
X137084948Y-97653928D01*
X137084948Y-97653928D02*
X137105151Y-97741474D01*
X136795371Y-97027633D02*
X136418247Y-96650509D01*
X136418247Y-96650509D02*
X135953577Y-97600053D01*
X138081632Y-75521238D02*
X138169178Y-75541441D01*
X138169178Y-75541441D02*
X138249991Y-75622253D01*
X138249991Y-75622253D02*
X138297131Y-75736737D01*
X138297131Y-75736737D02*
X138283662Y-75857955D01*
X138283662Y-75857955D02*
X138243256Y-75952236D01*
X138243256Y-75952236D02*
X138135507Y-76113860D01*
X138135507Y-76113860D02*
X138034491Y-76214876D01*
X138034491Y-76214876D02*
X137872867Y-76322625D01*
X137872867Y-76322625D02*
X137778586Y-76363031D01*
X137778586Y-76363031D02*
X137657368Y-76376500D01*
X137657368Y-76376500D02*
X137542884Y-76329360D01*
X137542884Y-76329360D02*
X137489009Y-76275485D01*
X137489009Y-76275485D02*
X137441869Y-76161001D01*
X137441869Y-76161001D02*
X137448603Y-76100392D01*
X137448603Y-76100392D02*
X137684305Y-75864689D01*
X137684305Y-75864689D02*
X137792055Y-75972439D01*
X137138823Y-75925299D02*
X137845930Y-75218192D01*
X137845930Y-75218192D02*
X137630430Y-75002693D01*
X137630430Y-75002693D02*
X137542884Y-74982490D01*
X137542884Y-74982490D02*
X137482275Y-74989224D01*
X137482275Y-74989224D02*
X137387994Y-75029630D01*
X137387994Y-75029630D02*
X137286978Y-75130645D01*
X137286978Y-75130645D02*
X137246572Y-75224926D01*
X137246572Y-75224926D02*
X137239838Y-75285535D01*
X137239838Y-75285535D02*
X137260041Y-75373082D01*
X137260041Y-75373082D02*
X137475540Y-75588581D01*
X137239838Y-74746787D02*
X137246572Y-74686178D01*
X137246572Y-74686178D02*
X137226369Y-74598632D01*
X137226369Y-74598632D02*
X137091682Y-74463945D01*
X137091682Y-74463945D02*
X137004136Y-74443742D01*
X137004136Y-74443742D02*
X136943527Y-74450476D01*
X136943527Y-74450476D02*
X136849246Y-74490882D01*
X136849246Y-74490882D02*
X136781902Y-74558226D01*
X136781902Y-74558226D02*
X136707824Y-74686178D01*
X136707824Y-74686178D02*
X136627012Y-75413488D01*
X136627012Y-75413488D02*
X136276826Y-75063302D01*
X136499059Y-73871322D02*
X136606809Y-73979071D01*
X136606809Y-73979071D02*
X136627012Y-74066618D01*
X136627012Y-74066618D02*
X136620278Y-74127227D01*
X136620278Y-74127227D02*
X136573137Y-74282117D01*
X136573137Y-74282117D02*
X136465388Y-74443741D01*
X136465388Y-74443741D02*
X136196014Y-74713115D01*
X136196014Y-74713115D02*
X136101733Y-74753522D01*
X136101733Y-74753522D02*
X136041123Y-74760256D01*
X136041123Y-74760256D02*
X135953577Y-74740053D01*
X135953577Y-74740053D02*
X135845827Y-74632303D01*
X135845827Y-74632303D02*
X135825624Y-74544757D01*
X135825624Y-74544757D02*
X135832359Y-74484147D01*
X135832359Y-74484147D02*
X135872765Y-74389867D01*
X135872765Y-74389867D02*
X136041123Y-74221508D01*
X136041123Y-74221508D02*
X136135404Y-74181102D01*
X136135404Y-74181102D02*
X136196014Y-74174367D01*
X136196014Y-74174367D02*
X136283560Y-74194570D01*
X136283560Y-74194570D02*
X136391310Y-74302320D01*
X136391310Y-74302320D02*
X136411513Y-74389867D01*
X136411513Y-74389867D02*
X136404778Y-74450476D01*
X136404778Y-74450476D02*
X136364372Y-74544757D01*
X157609524Y-103406680D02*
X157495238Y-103454299D01*
X157495238Y-103454299D02*
X157304762Y-103454299D01*
X157304762Y-103454299D02*
X157228571Y-103406680D01*
X157228571Y-103406680D02*
X157190476Y-103359060D01*
X157190476Y-103359060D02*
X157152381Y-103263822D01*
X157152381Y-103263822D02*
X157152381Y-103168584D01*
X157152381Y-103168584D02*
X157190476Y-103073346D01*
X157190476Y-103073346D02*
X157228571Y-103025727D01*
X157228571Y-103025727D02*
X157304762Y-102978108D01*
X157304762Y-102978108D02*
X157457143Y-102930489D01*
X157457143Y-102930489D02*
X157533333Y-102882870D01*
X157533333Y-102882870D02*
X157571428Y-102835251D01*
X157571428Y-102835251D02*
X157609524Y-102740013D01*
X157609524Y-102740013D02*
X157609524Y-102644775D01*
X157609524Y-102644775D02*
X157571428Y-102549537D01*
X157571428Y-102549537D02*
X157533333Y-102501918D01*
X157533333Y-102501918D02*
X157457143Y-102454299D01*
X157457143Y-102454299D02*
X157266666Y-102454299D01*
X157266666Y-102454299D02*
X157152381Y-102501918D01*
X156885714Y-102454299D02*
X156695238Y-103454299D01*
X156695238Y-103454299D02*
X156542857Y-102740013D01*
X156542857Y-102740013D02*
X156390476Y-103454299D01*
X156390476Y-103454299D02*
X156200000Y-102454299D01*
X155438094Y-103359060D02*
X155476190Y-103406680D01*
X155476190Y-103406680D02*
X155590475Y-103454299D01*
X155590475Y-103454299D02*
X155666666Y-103454299D01*
X155666666Y-103454299D02*
X155780952Y-103406680D01*
X155780952Y-103406680D02*
X155857142Y-103311441D01*
X155857142Y-103311441D02*
X155895237Y-103216203D01*
X155895237Y-103216203D02*
X155933333Y-103025727D01*
X155933333Y-103025727D02*
X155933333Y-102882870D01*
X155933333Y-102882870D02*
X155895237Y-102692394D01*
X155895237Y-102692394D02*
X155857142Y-102597156D01*
X155857142Y-102597156D02*
X155780952Y-102501918D01*
X155780952Y-102501918D02*
X155666666Y-102454299D01*
X155666666Y-102454299D02*
X155590475Y-102454299D01*
X155590475Y-102454299D02*
X155476190Y-102501918D01*
X155476190Y-102501918D02*
X155438094Y-102549537D01*
X154714285Y-103454299D02*
X155095237Y-103454299D01*
X155095237Y-103454299D02*
X155095237Y-102454299D01*
X154447618Y-103454299D02*
X154447618Y-102454299D01*
X153990475Y-103454299D02*
X154333333Y-102882870D01*
X153990475Y-102454299D02*
X154447618Y-103025727D01*
X138263957Y-60352219D02*
X137913770Y-60002033D01*
X137913770Y-60002033D02*
X137832958Y-60459968D01*
X137832958Y-60459968D02*
X137752146Y-60379156D01*
X137752146Y-60379156D02*
X137664599Y-60358953D01*
X137664599Y-60358953D02*
X137603990Y-60365688D01*
X137603990Y-60365688D02*
X137509709Y-60406094D01*
X137509709Y-60406094D02*
X137341351Y-60574452D01*
X137341351Y-60574452D02*
X137300944Y-60668733D01*
X137300944Y-60668733D02*
X137294210Y-60729343D01*
X137294210Y-60729343D02*
X137314413Y-60816889D01*
X137314413Y-60816889D02*
X137476038Y-60978513D01*
X137476038Y-60978513D02*
X137563584Y-60998717D01*
X137563584Y-60998717D02*
X137624193Y-60991982D01*
X137752146Y-59840408D02*
X136856477Y-60358953D01*
X136856477Y-60358953D02*
X137375022Y-59463284D01*
X137240335Y-59328598D02*
X136890149Y-58978411D01*
X136890149Y-58978411D02*
X136809337Y-59436347D01*
X136809337Y-59436347D02*
X136728525Y-59355535D01*
X136728525Y-59355535D02*
X136640978Y-59335332D01*
X136640978Y-59335332D02*
X136580369Y-59342066D01*
X136580369Y-59342066D02*
X136486088Y-59382472D01*
X136486088Y-59382472D02*
X136317729Y-59550831D01*
X136317729Y-59550831D02*
X136277323Y-59645112D01*
X136277323Y-59645112D02*
X136270589Y-59705721D01*
X136270589Y-59705721D02*
X136290792Y-59793268D01*
X136290792Y-59793268D02*
X136452416Y-59954892D01*
X136452416Y-59954892D02*
X136539963Y-59975095D01*
X136539963Y-59975095D02*
X136600572Y-59968361D01*
X136007949Y-59645112D02*
X135576951Y-59214114D01*
X135879996Y-58641694D02*
X135691434Y-58453132D01*
X135240233Y-58742709D02*
X135509607Y-59012083D01*
X135509607Y-59012083D02*
X136216714Y-58304976D01*
X136216714Y-58304976D02*
X135947340Y-58035602D01*
X134997796Y-58500272D02*
X135704903Y-57793165D01*
X135704903Y-57793165D02*
X134674547Y-58177023D01*
X134674547Y-58177023D02*
X135381654Y-57469916D01*
X138296241Y-62884503D02*
X137946055Y-62534317D01*
X137946055Y-62534317D02*
X137865242Y-62992253D01*
X137865242Y-62992253D02*
X137784430Y-62911441D01*
X137784430Y-62911441D02*
X137696884Y-62891238D01*
X137696884Y-62891238D02*
X137636275Y-62897972D01*
X137636275Y-62897972D02*
X137541994Y-62938378D01*
X137541994Y-62938378D02*
X137373635Y-63106737D01*
X137373635Y-63106737D02*
X137333229Y-63201018D01*
X137333229Y-63201018D02*
X137326494Y-63261627D01*
X137326494Y-63261627D02*
X137346697Y-63349173D01*
X137346697Y-63349173D02*
X137508322Y-63510798D01*
X137508322Y-63510798D02*
X137595868Y-63531001D01*
X137595868Y-63531001D02*
X137656478Y-63524266D01*
X137784430Y-62372692D02*
X136888761Y-62891237D01*
X136888761Y-62891237D02*
X137407306Y-61995569D01*
X137272620Y-61860882D02*
X136922433Y-61510696D01*
X136922433Y-61510696D02*
X136841621Y-61968632D01*
X136841621Y-61968632D02*
X136760809Y-61887819D01*
X136760809Y-61887819D02*
X136673262Y-61867616D01*
X136673262Y-61867616D02*
X136612653Y-61874351D01*
X136612653Y-61874351D02*
X136518372Y-61914757D01*
X136518372Y-61914757D02*
X136350014Y-62083116D01*
X136350014Y-62083116D02*
X136309608Y-62177396D01*
X136309608Y-62177396D02*
X136302873Y-62238006D01*
X136302873Y-62238006D02*
X136323076Y-62325552D01*
X136323076Y-62325552D02*
X136484701Y-62487177D01*
X136484701Y-62487177D02*
X136572247Y-62507380D01*
X136572247Y-62507380D02*
X136632856Y-62500645D01*
X163666257Y-77791863D02*
X163753804Y-77812066D01*
X163753804Y-77812066D02*
X163834616Y-77892878D01*
X163834616Y-77892878D02*
X163881757Y-78007362D01*
X163881757Y-78007362D02*
X163868288Y-78128581D01*
X163868288Y-78128581D02*
X163827882Y-78222862D01*
X163827882Y-78222862D02*
X163720132Y-78384486D01*
X163720132Y-78384486D02*
X163619117Y-78485501D01*
X163619117Y-78485501D02*
X163457492Y-78593251D01*
X163457492Y-78593251D02*
X163363212Y-78633657D01*
X163363212Y-78633657D02*
X163241993Y-78647126D01*
X163241993Y-78647126D02*
X163127509Y-78599985D01*
X163127509Y-78599985D02*
X163073635Y-78546110D01*
X163073635Y-78546110D02*
X163026494Y-78431626D01*
X163026494Y-78431626D02*
X163033228Y-78371017D01*
X163033228Y-78371017D02*
X163268931Y-78135315D01*
X163268931Y-78135315D02*
X163376680Y-78243065D01*
X162723448Y-78195924D02*
X163430555Y-77488817D01*
X163430555Y-77488817D02*
X163215056Y-77273318D01*
X163215056Y-77273318D02*
X163127509Y-77253115D01*
X163127509Y-77253115D02*
X163066900Y-77259849D01*
X163066900Y-77259849D02*
X162972619Y-77300256D01*
X162972619Y-77300256D02*
X162871604Y-77401271D01*
X162871604Y-77401271D02*
X162831198Y-77495552D01*
X162831198Y-77495552D02*
X162824464Y-77556161D01*
X162824464Y-77556161D02*
X162844667Y-77643707D01*
X162844667Y-77643707D02*
X163060166Y-77859207D01*
X162481012Y-77145366D02*
X162568558Y-77165569D01*
X162568558Y-77165569D02*
X162629167Y-77158834D01*
X162629167Y-77158834D02*
X162723448Y-77118428D01*
X162723448Y-77118428D02*
X162757120Y-77084756D01*
X162757120Y-77084756D02*
X162797526Y-76990475D01*
X162797526Y-76990475D02*
X162804261Y-76929866D01*
X162804261Y-76929866D02*
X162784057Y-76842320D01*
X162784057Y-76842320D02*
X162676308Y-76734570D01*
X162676308Y-76734570D02*
X162588761Y-76714367D01*
X162588761Y-76714367D02*
X162528152Y-76721101D01*
X162528152Y-76721101D02*
X162433871Y-76761508D01*
X162433871Y-76761508D02*
X162400199Y-76795179D01*
X162400199Y-76795179D02*
X162359793Y-76889460D01*
X162359793Y-76889460D02*
X162353059Y-76950069D01*
X162353059Y-76950069D02*
X162373262Y-77037616D01*
X162373262Y-77037616D02*
X162481012Y-77145366D01*
X162481012Y-77145366D02*
X162501215Y-77232912D01*
X162501215Y-77232912D02*
X162494480Y-77293521D01*
X162494480Y-77293521D02*
X162454074Y-77387802D01*
X162454074Y-77387802D02*
X162319387Y-77522489D01*
X162319387Y-77522489D02*
X162225106Y-77562895D01*
X162225106Y-77562895D02*
X162164497Y-77569630D01*
X162164497Y-77569630D02*
X162076951Y-77549427D01*
X162076951Y-77549427D02*
X161969201Y-77441677D01*
X161969201Y-77441677D02*
X161948998Y-77354130D01*
X161948998Y-77354130D02*
X161955732Y-77293521D01*
X161955732Y-77293521D02*
X161996138Y-77199240D01*
X161996138Y-77199240D02*
X162130825Y-77064553D01*
X162130825Y-77064553D02*
X162225106Y-77024147D01*
X162225106Y-77024147D02*
X162285716Y-77017413D01*
X162285716Y-77017413D02*
X162373262Y-77037616D01*
X138081632Y-100921238D02*
X138169178Y-100941441D01*
X138169178Y-100941441D02*
X138249991Y-101022253D01*
X138249991Y-101022253D02*
X138297131Y-101136737D01*
X138297131Y-101136737D02*
X138283662Y-101257955D01*
X138283662Y-101257955D02*
X138243256Y-101352236D01*
X138243256Y-101352236D02*
X138135507Y-101513860D01*
X138135507Y-101513860D02*
X138034491Y-101614876D01*
X138034491Y-101614876D02*
X137872867Y-101722625D01*
X137872867Y-101722625D02*
X137778586Y-101763031D01*
X137778586Y-101763031D02*
X137657368Y-101776500D01*
X137657368Y-101776500D02*
X137542884Y-101729360D01*
X137542884Y-101729360D02*
X137489009Y-101675485D01*
X137489009Y-101675485D02*
X137441869Y-101561001D01*
X137441869Y-101561001D02*
X137448603Y-101500392D01*
X137448603Y-101500392D02*
X137684305Y-101264689D01*
X137684305Y-101264689D02*
X137792055Y-101372439D01*
X137138823Y-101325299D02*
X137845930Y-100618192D01*
X137845930Y-100618192D02*
X137630430Y-100402693D01*
X137630430Y-100402693D02*
X137542884Y-100382490D01*
X137542884Y-100382490D02*
X137482275Y-100389224D01*
X137482275Y-100389224D02*
X137387994Y-100429630D01*
X137387994Y-100429630D02*
X137286978Y-100530645D01*
X137286978Y-100530645D02*
X137246572Y-100624926D01*
X137246572Y-100624926D02*
X137239838Y-100685535D01*
X137239838Y-100685535D02*
X137260041Y-100773082D01*
X137260041Y-100773082D02*
X137475540Y-100988581D01*
X136276826Y-100463302D02*
X136600075Y-100786551D01*
X136438450Y-100624926D02*
X137145557Y-99917819D01*
X137145557Y-99917819D02*
X137098417Y-100072709D01*
X137098417Y-100072709D02*
X137084948Y-100193928D01*
X137084948Y-100193928D02*
X137105151Y-100281474D01*
X136499059Y-99271322D02*
X136606809Y-99379071D01*
X136606809Y-99379071D02*
X136627012Y-99466618D01*
X136627012Y-99466618D02*
X136620278Y-99527227D01*
X136620278Y-99527227D02*
X136573137Y-99682117D01*
X136573137Y-99682117D02*
X136465388Y-99843741D01*
X136465388Y-99843741D02*
X136196014Y-100113115D01*
X136196014Y-100113115D02*
X136101733Y-100153522D01*
X136101733Y-100153522D02*
X136041123Y-100160256D01*
X136041123Y-100160256D02*
X135953577Y-100140053D01*
X135953577Y-100140053D02*
X135845827Y-100032303D01*
X135845827Y-100032303D02*
X135825624Y-99944757D01*
X135825624Y-99944757D02*
X135832359Y-99884147D01*
X135832359Y-99884147D02*
X135872765Y-99789867D01*
X135872765Y-99789867D02*
X136041123Y-99621508D01*
X136041123Y-99621508D02*
X136135404Y-99581102D01*
X136135404Y-99581102D02*
X136196014Y-99574367D01*
X136196014Y-99574367D02*
X136283560Y-99594570D01*
X136283560Y-99594570D02*
X136391310Y-99702320D01*
X136391310Y-99702320D02*
X136411513Y-99789867D01*
X136411513Y-99789867D02*
X136404778Y-99850476D01*
X136404778Y-99850476D02*
X136364372Y-99944757D01*
X138093195Y-82898800D02*
X138180741Y-82919003D01*
X138180741Y-82919003D02*
X138261553Y-82999816D01*
X138261553Y-82999816D02*
X138308694Y-83114300D01*
X138308694Y-83114300D02*
X138295225Y-83235518D01*
X138295225Y-83235518D02*
X138254819Y-83329799D01*
X138254819Y-83329799D02*
X138147069Y-83491423D01*
X138147069Y-83491423D02*
X138046054Y-83592438D01*
X138046054Y-83592438D02*
X137884430Y-83700188D01*
X137884430Y-83700188D02*
X137790149Y-83740594D01*
X137790149Y-83740594D02*
X137668931Y-83754063D01*
X137668931Y-83754063D02*
X137554447Y-83706922D01*
X137554447Y-83706922D02*
X137500572Y-83653048D01*
X137500572Y-83653048D02*
X137453431Y-83538564D01*
X137453431Y-83538564D02*
X137460166Y-83477955D01*
X137460166Y-83477955D02*
X137695868Y-83242252D01*
X137695868Y-83242252D02*
X137803618Y-83350002D01*
X137150386Y-83302861D02*
X137857492Y-82595755D01*
X137857492Y-82595755D02*
X136827137Y-82979613D01*
X136827137Y-82979613D02*
X137534243Y-82272506D01*
X136557763Y-82710239D02*
X137264870Y-82003132D01*
X137264870Y-82003132D02*
X137130183Y-81868445D01*
X137130183Y-81868445D02*
X137015699Y-81821305D01*
X137015699Y-81821305D02*
X136894480Y-81834773D01*
X136894480Y-81834773D02*
X136800199Y-81875179D01*
X136800199Y-81875179D02*
X136638575Y-81982929D01*
X136638575Y-81982929D02*
X136537560Y-82083944D01*
X136537560Y-82083944D02*
X136429810Y-82245569D01*
X136429810Y-82245569D02*
X136389404Y-82339849D01*
X136389404Y-82339849D02*
X136375935Y-82461068D01*
X136375935Y-82461068D02*
X136423076Y-82575552D01*
X136423076Y-82575552D02*
X136557763Y-82710239D01*
X163693195Y-70198800D02*
X163780741Y-70219003D01*
X163780741Y-70219003D02*
X163861553Y-70299816D01*
X163861553Y-70299816D02*
X163908694Y-70414300D01*
X163908694Y-70414300D02*
X163895225Y-70535518D01*
X163895225Y-70535518D02*
X163854819Y-70629799D01*
X163854819Y-70629799D02*
X163747069Y-70791423D01*
X163747069Y-70791423D02*
X163646054Y-70892438D01*
X163646054Y-70892438D02*
X163484430Y-71000188D01*
X163484430Y-71000188D02*
X163390149Y-71040594D01*
X163390149Y-71040594D02*
X163268931Y-71054063D01*
X163268931Y-71054063D02*
X163154447Y-71006922D01*
X163154447Y-71006922D02*
X163100572Y-70953048D01*
X163100572Y-70953048D02*
X163053431Y-70838564D01*
X163053431Y-70838564D02*
X163060166Y-70777955D01*
X163060166Y-70777955D02*
X163295868Y-70542252D01*
X163295868Y-70542252D02*
X163403618Y-70650002D01*
X162750386Y-70602861D02*
X163457492Y-69895755D01*
X163457492Y-69895755D02*
X162427137Y-70279613D01*
X162427137Y-70279613D02*
X163134243Y-69572506D01*
X162157763Y-70010239D02*
X162864870Y-69303132D01*
X162864870Y-69303132D02*
X162730183Y-69168445D01*
X162730183Y-69168445D02*
X162615699Y-69121305D01*
X162615699Y-69121305D02*
X162494480Y-69134773D01*
X162494480Y-69134773D02*
X162400199Y-69175179D01*
X162400199Y-69175179D02*
X162238575Y-69282929D01*
X162238575Y-69282929D02*
X162137560Y-69383944D01*
X162137560Y-69383944D02*
X162029810Y-69545569D01*
X162029810Y-69545569D02*
X161989404Y-69639849D01*
X161989404Y-69639849D02*
X161975935Y-69761068D01*
X161975935Y-69761068D02*
X162023076Y-69875552D01*
X162023076Y-69875552D02*
X162157763Y-70010239D01*
X138081632Y-67647238D02*
X138169178Y-67667441D01*
X138169178Y-67667441D02*
X138249991Y-67748253D01*
X138249991Y-67748253D02*
X138297131Y-67862737D01*
X138297131Y-67862737D02*
X138283662Y-67983955D01*
X138283662Y-67983955D02*
X138243256Y-68078236D01*
X138243256Y-68078236D02*
X138135507Y-68239860D01*
X138135507Y-68239860D02*
X138034491Y-68340876D01*
X138034491Y-68340876D02*
X137872867Y-68448625D01*
X137872867Y-68448625D02*
X137778586Y-68489031D01*
X137778586Y-68489031D02*
X137657368Y-68502500D01*
X137657368Y-68502500D02*
X137542884Y-68455360D01*
X137542884Y-68455360D02*
X137489009Y-68401485D01*
X137489009Y-68401485D02*
X137441869Y-68287001D01*
X137441869Y-68287001D02*
X137448603Y-68226392D01*
X137448603Y-68226392D02*
X137684305Y-67990689D01*
X137684305Y-67990689D02*
X137792055Y-68098439D01*
X137138823Y-68051299D02*
X137845930Y-67344192D01*
X137845930Y-67344192D02*
X137630430Y-67128693D01*
X137630430Y-67128693D02*
X137542884Y-67108490D01*
X137542884Y-67108490D02*
X137482275Y-67115224D01*
X137482275Y-67115224D02*
X137387994Y-67155630D01*
X137387994Y-67155630D02*
X137286978Y-67256645D01*
X137286978Y-67256645D02*
X137246572Y-67350926D01*
X137246572Y-67350926D02*
X137239838Y-67411535D01*
X137239838Y-67411535D02*
X137260041Y-67499082D01*
X137260041Y-67499082D02*
X137475540Y-67714581D01*
X137239838Y-66872787D02*
X137246572Y-66812178D01*
X137246572Y-66812178D02*
X137226369Y-66724632D01*
X137226369Y-66724632D02*
X137091682Y-66589945D01*
X137091682Y-66589945D02*
X137004136Y-66569742D01*
X137004136Y-66569742D02*
X136943527Y-66576476D01*
X136943527Y-66576476D02*
X136849246Y-66616882D01*
X136849246Y-66616882D02*
X136781902Y-66684226D01*
X136781902Y-66684226D02*
X136707824Y-66812178D01*
X136707824Y-66812178D02*
X136627012Y-67539488D01*
X136627012Y-67539488D02*
X136276826Y-67189302D01*
X136357638Y-66461992D02*
X136445184Y-66482195D01*
X136445184Y-66482195D02*
X136505794Y-66475460D01*
X136505794Y-66475460D02*
X136600075Y-66435054D01*
X136600075Y-66435054D02*
X136633746Y-66401383D01*
X136633746Y-66401383D02*
X136674152Y-66307102D01*
X136674152Y-66307102D02*
X136680887Y-66246493D01*
X136680887Y-66246493D02*
X136660684Y-66158946D01*
X136660684Y-66158946D02*
X136552934Y-66051196D01*
X136552934Y-66051196D02*
X136465388Y-66030993D01*
X136465388Y-66030993D02*
X136404778Y-66037728D01*
X136404778Y-66037728D02*
X136310497Y-66078134D01*
X136310497Y-66078134D02*
X136276826Y-66111806D01*
X136276826Y-66111806D02*
X136236420Y-66206086D01*
X136236420Y-66206086D02*
X136229685Y-66266696D01*
X136229685Y-66266696D02*
X136249888Y-66354242D01*
X136249888Y-66354242D02*
X136357638Y-66461992D01*
X136357638Y-66461992D02*
X136377841Y-66549538D01*
X136377841Y-66549538D02*
X136371107Y-66610147D01*
X136371107Y-66610147D02*
X136330701Y-66704428D01*
X136330701Y-66704428D02*
X136196014Y-66839115D01*
X136196014Y-66839115D02*
X136101733Y-66879522D01*
X136101733Y-66879522D02*
X136041123Y-66886256D01*
X136041123Y-66886256D02*
X135953577Y-66866053D01*
X135953577Y-66866053D02*
X135845827Y-66758303D01*
X135845827Y-66758303D02*
X135825624Y-66670757D01*
X135825624Y-66670757D02*
X135832359Y-66610147D01*
X135832359Y-66610147D02*
X135872765Y-66515867D01*
X135872765Y-66515867D02*
X136007452Y-66381180D01*
X136007452Y-66381180D02*
X136101733Y-66340773D01*
X136101733Y-66340773D02*
X136162342Y-66334039D01*
X136162342Y-66334039D02*
X136249888Y-66354242D01*
X163666257Y-80331863D02*
X163753804Y-80352066D01*
X163753804Y-80352066D02*
X163834616Y-80432878D01*
X163834616Y-80432878D02*
X163881757Y-80547362D01*
X163881757Y-80547362D02*
X163868288Y-80668581D01*
X163868288Y-80668581D02*
X163827882Y-80762862D01*
X163827882Y-80762862D02*
X163720132Y-80924486D01*
X163720132Y-80924486D02*
X163619117Y-81025501D01*
X163619117Y-81025501D02*
X163457492Y-81133251D01*
X163457492Y-81133251D02*
X163363212Y-81173657D01*
X163363212Y-81173657D02*
X163241993Y-81187126D01*
X163241993Y-81187126D02*
X163127509Y-81139985D01*
X163127509Y-81139985D02*
X163073635Y-81086110D01*
X163073635Y-81086110D02*
X163026494Y-80971626D01*
X163026494Y-80971626D02*
X163033228Y-80911017D01*
X163033228Y-80911017D02*
X163268931Y-80675315D01*
X163268931Y-80675315D02*
X163376680Y-80783065D01*
X162723448Y-80735924D02*
X163430555Y-80028817D01*
X163430555Y-80028817D02*
X163215056Y-79813318D01*
X163215056Y-79813318D02*
X163127509Y-79793115D01*
X163127509Y-79793115D02*
X163066900Y-79799849D01*
X163066900Y-79799849D02*
X162972619Y-79840256D01*
X162972619Y-79840256D02*
X162871604Y-79941271D01*
X162871604Y-79941271D02*
X162831198Y-80035552D01*
X162831198Y-80035552D02*
X162824464Y-80096161D01*
X162824464Y-80096161D02*
X162844667Y-80183707D01*
X162844667Y-80183707D02*
X163060166Y-80399207D01*
X162130825Y-80143301D02*
X162023076Y-80035552D01*
X162023076Y-80035552D02*
X162002873Y-79948005D01*
X162002873Y-79948005D02*
X162009607Y-79887396D01*
X162009607Y-79887396D02*
X162056748Y-79732506D01*
X162056748Y-79732506D02*
X162164497Y-79570882D01*
X162164497Y-79570882D02*
X162433871Y-79301508D01*
X162433871Y-79301508D02*
X162528152Y-79261101D01*
X162528152Y-79261101D02*
X162588761Y-79254367D01*
X162588761Y-79254367D02*
X162676308Y-79274570D01*
X162676308Y-79274570D02*
X162784057Y-79382320D01*
X162784057Y-79382320D02*
X162804261Y-79469866D01*
X162804261Y-79469866D02*
X162797526Y-79530475D01*
X162797526Y-79530475D02*
X162757120Y-79624756D01*
X162757120Y-79624756D02*
X162588761Y-79793115D01*
X162588761Y-79793115D02*
X162494480Y-79833521D01*
X162494480Y-79833521D02*
X162433871Y-79840256D01*
X162433871Y-79840256D02*
X162346325Y-79820053D01*
X162346325Y-79820053D02*
X162238575Y-79712303D01*
X162238575Y-79712303D02*
X162218372Y-79624756D01*
X162218372Y-79624756D02*
X162225106Y-79564147D01*
X162225106Y-79564147D02*
X162265512Y-79469866D01*
X146195238Y-103556680D02*
X146080952Y-103604299D01*
X146080952Y-103604299D02*
X145890476Y-103604299D01*
X145890476Y-103604299D02*
X145814285Y-103556680D01*
X145814285Y-103556680D02*
X145776190Y-103509060D01*
X145776190Y-103509060D02*
X145738095Y-103413822D01*
X145738095Y-103413822D02*
X145738095Y-103318584D01*
X145738095Y-103318584D02*
X145776190Y-103223346D01*
X145776190Y-103223346D02*
X145814285Y-103175727D01*
X145814285Y-103175727D02*
X145890476Y-103128108D01*
X145890476Y-103128108D02*
X146042857Y-103080489D01*
X146042857Y-103080489D02*
X146119047Y-103032870D01*
X146119047Y-103032870D02*
X146157142Y-102985251D01*
X146157142Y-102985251D02*
X146195238Y-102890013D01*
X146195238Y-102890013D02*
X146195238Y-102794775D01*
X146195238Y-102794775D02*
X146157142Y-102699537D01*
X146157142Y-102699537D02*
X146119047Y-102651918D01*
X146119047Y-102651918D02*
X146042857Y-102604299D01*
X146042857Y-102604299D02*
X145852380Y-102604299D01*
X145852380Y-102604299D02*
X145738095Y-102651918D01*
X145471428Y-102604299D02*
X145280952Y-103604299D01*
X145280952Y-103604299D02*
X145128571Y-102890013D01*
X145128571Y-102890013D02*
X144976190Y-103604299D01*
X144976190Y-103604299D02*
X144785714Y-102604299D01*
X144480951Y-103604299D02*
X144480951Y-102604299D01*
X144480951Y-102604299D02*
X144290475Y-102604299D01*
X144290475Y-102604299D02*
X144176189Y-102651918D01*
X144176189Y-102651918D02*
X144099999Y-102747156D01*
X144099999Y-102747156D02*
X144061904Y-102842394D01*
X144061904Y-102842394D02*
X144023808Y-103032870D01*
X144023808Y-103032870D02*
X144023808Y-103175727D01*
X144023808Y-103175727D02*
X144061904Y-103366203D01*
X144061904Y-103366203D02*
X144099999Y-103461441D01*
X144099999Y-103461441D02*
X144176189Y-103556680D01*
X144176189Y-103556680D02*
X144290475Y-103604299D01*
X144290475Y-103604299D02*
X144480951Y-103604299D01*
X143680951Y-103604299D02*
X143680951Y-102604299D01*
X143147618Y-102604299D02*
X142995237Y-102604299D01*
X142995237Y-102604299D02*
X142919047Y-102651918D01*
X142919047Y-102651918D02*
X142842856Y-102747156D01*
X142842856Y-102747156D02*
X142804761Y-102937632D01*
X142804761Y-102937632D02*
X142804761Y-103270965D01*
X142804761Y-103270965D02*
X142842856Y-103461441D01*
X142842856Y-103461441D02*
X142919047Y-103556680D01*
X142919047Y-103556680D02*
X142995237Y-103604299D01*
X142995237Y-103604299D02*
X143147618Y-103604299D01*
X143147618Y-103604299D02*
X143223809Y-103556680D01*
X143223809Y-103556680D02*
X143299999Y-103461441D01*
X143299999Y-103461441D02*
X143338095Y-103270965D01*
X143338095Y-103270965D02*
X143338095Y-102937632D01*
X143338095Y-102937632D02*
X143299999Y-102747156D01*
X143299999Y-102747156D02*
X143223809Y-102651918D01*
X143223809Y-102651918D02*
X143147618Y-102604299D01*
X163666257Y-67631863D02*
X163753804Y-67652066D01*
X163753804Y-67652066D02*
X163834616Y-67732878D01*
X163834616Y-67732878D02*
X163881757Y-67847362D01*
X163881757Y-67847362D02*
X163868288Y-67968581D01*
X163868288Y-67968581D02*
X163827882Y-68062862D01*
X163827882Y-68062862D02*
X163720132Y-68224486D01*
X163720132Y-68224486D02*
X163619117Y-68325501D01*
X163619117Y-68325501D02*
X163457492Y-68433251D01*
X163457492Y-68433251D02*
X163363212Y-68473657D01*
X163363212Y-68473657D02*
X163241993Y-68487126D01*
X163241993Y-68487126D02*
X163127509Y-68439985D01*
X163127509Y-68439985D02*
X163073635Y-68386110D01*
X163073635Y-68386110D02*
X163026494Y-68271626D01*
X163026494Y-68271626D02*
X163033228Y-68211017D01*
X163033228Y-68211017D02*
X163268931Y-67975315D01*
X163268931Y-67975315D02*
X163376680Y-68083065D01*
X162723448Y-68035924D02*
X163430555Y-67328817D01*
X163430555Y-67328817D02*
X163215056Y-67113318D01*
X163215056Y-67113318D02*
X163127509Y-67093115D01*
X163127509Y-67093115D02*
X163066900Y-67099849D01*
X163066900Y-67099849D02*
X162972619Y-67140256D01*
X162972619Y-67140256D02*
X162871604Y-67241271D01*
X162871604Y-67241271D02*
X162831198Y-67335552D01*
X162831198Y-67335552D02*
X162824464Y-67396161D01*
X162824464Y-67396161D02*
X162844667Y-67483707D01*
X162844667Y-67483707D02*
X163060166Y-67699207D01*
X162595496Y-66493758D02*
X162864870Y-66763132D01*
X162864870Y-66763132D02*
X162555090Y-67126787D01*
X162555090Y-67126787D02*
X162561824Y-67066178D01*
X162561824Y-67066178D02*
X162541621Y-66978631D01*
X162541621Y-66978631D02*
X162406934Y-66843944D01*
X162406934Y-66843944D02*
X162319387Y-66823741D01*
X162319387Y-66823741D02*
X162258778Y-66830475D01*
X162258778Y-66830475D02*
X162164497Y-66870882D01*
X162164497Y-66870882D02*
X161996138Y-67039240D01*
X161996138Y-67039240D02*
X161955732Y-67133521D01*
X161955732Y-67133521D02*
X161948998Y-67194130D01*
X161948998Y-67194130D02*
X161969201Y-67281677D01*
X161969201Y-67281677D02*
X162103888Y-67416364D01*
X162103888Y-67416364D02*
X162191435Y-67436567D01*
X162191435Y-67436567D02*
X162252044Y-67429833D01*
X163666257Y-52391863D02*
X163753804Y-52412066D01*
X163753804Y-52412066D02*
X163834616Y-52492878D01*
X163834616Y-52492878D02*
X163881757Y-52607362D01*
X163881757Y-52607362D02*
X163868288Y-52728581D01*
X163868288Y-52728581D02*
X163827882Y-52822862D01*
X163827882Y-52822862D02*
X163720132Y-52984486D01*
X163720132Y-52984486D02*
X163619117Y-53085501D01*
X163619117Y-53085501D02*
X163457492Y-53193251D01*
X163457492Y-53193251D02*
X163363212Y-53233657D01*
X163363212Y-53233657D02*
X163241993Y-53247126D01*
X163241993Y-53247126D02*
X163127509Y-53199985D01*
X163127509Y-53199985D02*
X163073635Y-53146110D01*
X163073635Y-53146110D02*
X163026494Y-53031626D01*
X163026494Y-53031626D02*
X163033228Y-52971017D01*
X163033228Y-52971017D02*
X163268931Y-52735315D01*
X163268931Y-52735315D02*
X163376680Y-52843065D01*
X162723448Y-52795924D02*
X163430555Y-52088817D01*
X163430555Y-52088817D02*
X163215056Y-51873318D01*
X163215056Y-51873318D02*
X163127509Y-51853115D01*
X163127509Y-51853115D02*
X163066900Y-51859849D01*
X163066900Y-51859849D02*
X162972619Y-51900256D01*
X162972619Y-51900256D02*
X162871604Y-52001271D01*
X162871604Y-52001271D02*
X162831198Y-52095552D01*
X162831198Y-52095552D02*
X162824464Y-52156161D01*
X162824464Y-52156161D02*
X162844667Y-52243707D01*
X162844667Y-52243707D02*
X163060166Y-52459207D01*
X162757120Y-51415382D02*
X162703245Y-51361508D01*
X162703245Y-51361508D02*
X162615699Y-51341305D01*
X162615699Y-51341305D02*
X162555090Y-51348039D01*
X162555090Y-51348039D02*
X162460809Y-51388445D01*
X162460809Y-51388445D02*
X162299184Y-51496195D01*
X162299184Y-51496195D02*
X162130825Y-51664553D01*
X162130825Y-51664553D02*
X162023076Y-51826178D01*
X162023076Y-51826178D02*
X161982670Y-51920459D01*
X161982670Y-51920459D02*
X161975935Y-51981068D01*
X161975935Y-51981068D02*
X161996138Y-52068614D01*
X161996138Y-52068614D02*
X162050013Y-52122489D01*
X162050013Y-52122489D02*
X162137560Y-52142692D01*
X162137560Y-52142692D02*
X162198169Y-52135958D01*
X162198169Y-52135958D02*
X162292450Y-52095552D01*
X162292450Y-52095552D02*
X162454074Y-51987802D01*
X162454074Y-51987802D02*
X162622433Y-51819443D01*
X162622433Y-51819443D02*
X162730183Y-51657819D01*
X162730183Y-51657819D02*
X162770589Y-51563538D01*
X162770589Y-51563538D02*
X162777323Y-51502929D01*
X162777323Y-51502929D02*
X162757120Y-51415382D01*
X163666257Y-62551863D02*
X163753804Y-62572066D01*
X163753804Y-62572066D02*
X163834616Y-62652878D01*
X163834616Y-62652878D02*
X163881757Y-62767362D01*
X163881757Y-62767362D02*
X163868288Y-62888581D01*
X163868288Y-62888581D02*
X163827882Y-62982862D01*
X163827882Y-62982862D02*
X163720132Y-63144486D01*
X163720132Y-63144486D02*
X163619117Y-63245501D01*
X163619117Y-63245501D02*
X163457492Y-63353251D01*
X163457492Y-63353251D02*
X163363212Y-63393657D01*
X163363212Y-63393657D02*
X163241993Y-63407126D01*
X163241993Y-63407126D02*
X163127509Y-63359985D01*
X163127509Y-63359985D02*
X163073635Y-63306110D01*
X163073635Y-63306110D02*
X163026494Y-63191626D01*
X163026494Y-63191626D02*
X163033228Y-63131017D01*
X163033228Y-63131017D02*
X163268931Y-62895315D01*
X163268931Y-62895315D02*
X163376680Y-63003065D01*
X162723448Y-62955924D02*
X163430555Y-62248817D01*
X163430555Y-62248817D02*
X163215056Y-62033318D01*
X163215056Y-62033318D02*
X163127509Y-62013115D01*
X163127509Y-62013115D02*
X163066900Y-62019849D01*
X163066900Y-62019849D02*
X162972619Y-62060256D01*
X162972619Y-62060256D02*
X162871604Y-62161271D01*
X162871604Y-62161271D02*
X162831198Y-62255552D01*
X162831198Y-62255552D02*
X162824464Y-62316161D01*
X162824464Y-62316161D02*
X162844667Y-62403707D01*
X162844667Y-62403707D02*
X163060166Y-62619207D01*
X162918744Y-61737007D02*
X162568558Y-61386821D01*
X162568558Y-61386821D02*
X162487746Y-61844756D01*
X162487746Y-61844756D02*
X162406934Y-61763944D01*
X162406934Y-61763944D02*
X162319387Y-61743741D01*
X162319387Y-61743741D02*
X162258778Y-61750475D01*
X162258778Y-61750475D02*
X162164497Y-61790882D01*
X162164497Y-61790882D02*
X161996138Y-61959240D01*
X161996138Y-61959240D02*
X161955732Y-62053521D01*
X161955732Y-62053521D02*
X161948998Y-62114130D01*
X161948998Y-62114130D02*
X161969201Y-62201677D01*
X161969201Y-62201677D02*
X162130825Y-62363301D01*
X162130825Y-62363301D02*
X162218372Y-62383504D01*
X162218372Y-62383504D02*
X162278981Y-62376770D01*
X163693195Y-95598800D02*
X163780741Y-95619003D01*
X163780741Y-95619003D02*
X163861553Y-95699816D01*
X163861553Y-95699816D02*
X163908694Y-95814300D01*
X163908694Y-95814300D02*
X163895225Y-95935518D01*
X163895225Y-95935518D02*
X163854819Y-96029799D01*
X163854819Y-96029799D02*
X163747069Y-96191423D01*
X163747069Y-96191423D02*
X163646054Y-96292438D01*
X163646054Y-96292438D02*
X163484430Y-96400188D01*
X163484430Y-96400188D02*
X163390149Y-96440594D01*
X163390149Y-96440594D02*
X163268931Y-96454063D01*
X163268931Y-96454063D02*
X163154447Y-96406922D01*
X163154447Y-96406922D02*
X163100572Y-96353048D01*
X163100572Y-96353048D02*
X163053431Y-96238564D01*
X163053431Y-96238564D02*
X163060166Y-96177955D01*
X163060166Y-96177955D02*
X163295868Y-95942252D01*
X163295868Y-95942252D02*
X163403618Y-96050002D01*
X162750386Y-96002861D02*
X163457492Y-95295755D01*
X163457492Y-95295755D02*
X162427137Y-95679613D01*
X162427137Y-95679613D02*
X163134243Y-94972506D01*
X162157763Y-95410239D02*
X162864870Y-94703132D01*
X162864870Y-94703132D02*
X162730183Y-94568445D01*
X162730183Y-94568445D02*
X162615699Y-94521305D01*
X162615699Y-94521305D02*
X162494480Y-94534773D01*
X162494480Y-94534773D02*
X162400199Y-94575179D01*
X162400199Y-94575179D02*
X162238575Y-94682929D01*
X162238575Y-94682929D02*
X162137560Y-94783944D01*
X162137560Y-94783944D02*
X162029810Y-94945569D01*
X162029810Y-94945569D02*
X161989404Y-95039849D01*
X161989404Y-95039849D02*
X161975935Y-95161068D01*
X161975935Y-95161068D02*
X162023076Y-95275552D01*
X162023076Y-95275552D02*
X162157763Y-95410239D01*
X163693195Y-57498800D02*
X163780741Y-57519003D01*
X163780741Y-57519003D02*
X163861553Y-57599816D01*
X163861553Y-57599816D02*
X163908694Y-57714300D01*
X163908694Y-57714300D02*
X163895225Y-57835518D01*
X163895225Y-57835518D02*
X163854819Y-57929799D01*
X163854819Y-57929799D02*
X163747069Y-58091423D01*
X163747069Y-58091423D02*
X163646054Y-58192438D01*
X163646054Y-58192438D02*
X163484430Y-58300188D01*
X163484430Y-58300188D02*
X163390149Y-58340594D01*
X163390149Y-58340594D02*
X163268931Y-58354063D01*
X163268931Y-58354063D02*
X163154447Y-58306922D01*
X163154447Y-58306922D02*
X163100572Y-58253048D01*
X163100572Y-58253048D02*
X163053431Y-58138564D01*
X163053431Y-58138564D02*
X163060166Y-58077955D01*
X163060166Y-58077955D02*
X163295868Y-57842252D01*
X163295868Y-57842252D02*
X163403618Y-57950002D01*
X162750386Y-57902861D02*
X163457492Y-57195755D01*
X163457492Y-57195755D02*
X162427137Y-57579613D01*
X162427137Y-57579613D02*
X163134243Y-56872506D01*
X162157763Y-57310239D02*
X162864870Y-56603132D01*
X162864870Y-56603132D02*
X162730183Y-56468445D01*
X162730183Y-56468445D02*
X162615699Y-56421305D01*
X162615699Y-56421305D02*
X162494480Y-56434773D01*
X162494480Y-56434773D02*
X162400199Y-56475179D01*
X162400199Y-56475179D02*
X162238575Y-56582929D01*
X162238575Y-56582929D02*
X162137560Y-56683944D01*
X162137560Y-56683944D02*
X162029810Y-56845569D01*
X162029810Y-56845569D02*
X161989404Y-56939849D01*
X161989404Y-56939849D02*
X161975935Y-57061068D01*
X161975935Y-57061068D02*
X162023076Y-57175552D01*
X162023076Y-57175552D02*
X162157763Y-57310239D01*
X138081632Y-88221238D02*
X138169178Y-88241441D01*
X138169178Y-88241441D02*
X138249991Y-88322253D01*
X138249991Y-88322253D02*
X138297131Y-88436737D01*
X138297131Y-88436737D02*
X138283662Y-88557955D01*
X138283662Y-88557955D02*
X138243256Y-88652236D01*
X138243256Y-88652236D02*
X138135507Y-88813860D01*
X138135507Y-88813860D02*
X138034491Y-88914876D01*
X138034491Y-88914876D02*
X137872867Y-89022625D01*
X137872867Y-89022625D02*
X137778586Y-89063031D01*
X137778586Y-89063031D02*
X137657368Y-89076500D01*
X137657368Y-89076500D02*
X137542884Y-89029360D01*
X137542884Y-89029360D02*
X137489009Y-88975485D01*
X137489009Y-88975485D02*
X137441869Y-88861001D01*
X137441869Y-88861001D02*
X137448603Y-88800392D01*
X137448603Y-88800392D02*
X137684305Y-88564689D01*
X137684305Y-88564689D02*
X137792055Y-88672439D01*
X137138823Y-88625299D02*
X137845930Y-87918192D01*
X137845930Y-87918192D02*
X137630430Y-87702693D01*
X137630430Y-87702693D02*
X137542884Y-87682490D01*
X137542884Y-87682490D02*
X137482275Y-87689224D01*
X137482275Y-87689224D02*
X137387994Y-87729630D01*
X137387994Y-87729630D02*
X137286978Y-87830645D01*
X137286978Y-87830645D02*
X137246572Y-87924926D01*
X137246572Y-87924926D02*
X137239838Y-87985535D01*
X137239838Y-87985535D02*
X137260041Y-88073082D01*
X137260041Y-88073082D02*
X137475540Y-88288581D01*
X137239838Y-87446787D02*
X137246572Y-87386178D01*
X137246572Y-87386178D02*
X137226369Y-87298632D01*
X137226369Y-87298632D02*
X137091682Y-87163945D01*
X137091682Y-87163945D02*
X137004136Y-87143742D01*
X137004136Y-87143742D02*
X136943527Y-87150476D01*
X136943527Y-87150476D02*
X136849246Y-87190882D01*
X136849246Y-87190882D02*
X136781902Y-87258226D01*
X136781902Y-87258226D02*
X136707824Y-87386178D01*
X136707824Y-87386178D02*
X136627012Y-88113488D01*
X136627012Y-88113488D02*
X136276826Y-87763302D01*
X136633746Y-86706009D02*
X136579872Y-86652134D01*
X136579872Y-86652134D02*
X136492325Y-86631931D01*
X136492325Y-86631931D02*
X136431716Y-86638665D01*
X136431716Y-86638665D02*
X136337435Y-86679071D01*
X136337435Y-86679071D02*
X136175810Y-86786821D01*
X136175810Y-86786821D02*
X136007452Y-86955180D01*
X136007452Y-86955180D02*
X135899702Y-87116804D01*
X135899702Y-87116804D02*
X135859296Y-87211085D01*
X135859296Y-87211085D02*
X135852562Y-87271694D01*
X135852562Y-87271694D02*
X135872765Y-87359241D01*
X135872765Y-87359241D02*
X135926640Y-87413115D01*
X135926640Y-87413115D02*
X136014186Y-87433318D01*
X136014186Y-87433318D02*
X136074795Y-87426584D01*
X136074795Y-87426584D02*
X136169076Y-87386178D01*
X136169076Y-87386178D02*
X136330701Y-87278428D01*
X136330701Y-87278428D02*
X136499059Y-87110070D01*
X136499059Y-87110070D02*
X136606809Y-86948445D01*
X136606809Y-86948445D02*
X136647215Y-86854164D01*
X136647215Y-86854164D02*
X136653949Y-86793555D01*
X136653949Y-86793555D02*
X136633746Y-86706009D01*
X138081632Y-90761238D02*
X138169178Y-90781441D01*
X138169178Y-90781441D02*
X138249991Y-90862253D01*
X138249991Y-90862253D02*
X138297131Y-90976737D01*
X138297131Y-90976737D02*
X138283662Y-91097955D01*
X138283662Y-91097955D02*
X138243256Y-91192236D01*
X138243256Y-91192236D02*
X138135507Y-91353860D01*
X138135507Y-91353860D02*
X138034491Y-91454876D01*
X138034491Y-91454876D02*
X137872867Y-91562625D01*
X137872867Y-91562625D02*
X137778586Y-91603031D01*
X137778586Y-91603031D02*
X137657368Y-91616500D01*
X137657368Y-91616500D02*
X137542884Y-91569360D01*
X137542884Y-91569360D02*
X137489009Y-91515485D01*
X137489009Y-91515485D02*
X137441869Y-91401001D01*
X137441869Y-91401001D02*
X137448603Y-91340392D01*
X137448603Y-91340392D02*
X137684305Y-91104689D01*
X137684305Y-91104689D02*
X137792055Y-91212439D01*
X137138823Y-91165299D02*
X137845930Y-90458192D01*
X137845930Y-90458192D02*
X137630430Y-90242693D01*
X137630430Y-90242693D02*
X137542884Y-90222490D01*
X137542884Y-90222490D02*
X137482275Y-90229224D01*
X137482275Y-90229224D02*
X137387994Y-90269630D01*
X137387994Y-90269630D02*
X137286978Y-90370645D01*
X137286978Y-90370645D02*
X137246572Y-90464926D01*
X137246572Y-90464926D02*
X137239838Y-90525535D01*
X137239838Y-90525535D02*
X137260041Y-90613082D01*
X137260041Y-90613082D02*
X137475540Y-90828581D01*
X136276826Y-90303302D02*
X136600075Y-90626551D01*
X136438450Y-90464926D02*
X137145557Y-89757819D01*
X137145557Y-89757819D02*
X137098417Y-89912709D01*
X137098417Y-89912709D02*
X137084948Y-90033928D01*
X137084948Y-90033928D02*
X137105151Y-90121474D01*
X136007452Y-90033928D02*
X135899702Y-89926178D01*
X135899702Y-89926178D02*
X135879499Y-89838631D01*
X135879499Y-89838631D02*
X135886233Y-89778022D01*
X135886233Y-89778022D02*
X135933374Y-89623132D01*
X135933374Y-89623132D02*
X136041123Y-89461508D01*
X136041123Y-89461508D02*
X136310497Y-89192134D01*
X136310497Y-89192134D02*
X136404778Y-89151728D01*
X136404778Y-89151728D02*
X136465388Y-89144993D01*
X136465388Y-89144993D02*
X136552934Y-89165196D01*
X136552934Y-89165196D02*
X136660684Y-89272946D01*
X136660684Y-89272946D02*
X136680887Y-89360493D01*
X136680887Y-89360493D02*
X136674152Y-89421102D01*
X136674152Y-89421102D02*
X136633746Y-89515383D01*
X136633746Y-89515383D02*
X136465388Y-89683741D01*
X136465388Y-89683741D02*
X136371107Y-89724147D01*
X136371107Y-89724147D02*
X136310497Y-89730882D01*
X136310497Y-89730882D02*
X136222951Y-89710679D01*
X136222951Y-89710679D02*
X136115201Y-89602929D01*
X136115201Y-89602929D02*
X136094998Y-89515383D01*
X136094998Y-89515383D02*
X136101733Y-89454773D01*
X136101733Y-89454773D02*
X136142139Y-89360493D01*
X163766257Y-60011863D02*
X163853804Y-60032066D01*
X163853804Y-60032066D02*
X163934616Y-60112878D01*
X163934616Y-60112878D02*
X163981757Y-60227362D01*
X163981757Y-60227362D02*
X163968288Y-60348581D01*
X163968288Y-60348581D02*
X163927882Y-60442862D01*
X163927882Y-60442862D02*
X163820132Y-60604486D01*
X163820132Y-60604486D02*
X163719117Y-60705501D01*
X163719117Y-60705501D02*
X163557492Y-60813251D01*
X163557492Y-60813251D02*
X163463212Y-60853657D01*
X163463212Y-60853657D02*
X163341993Y-60867126D01*
X163341993Y-60867126D02*
X163227509Y-60819985D01*
X163227509Y-60819985D02*
X163173635Y-60766110D01*
X163173635Y-60766110D02*
X163126494Y-60651626D01*
X163126494Y-60651626D02*
X163133228Y-60591017D01*
X163133228Y-60591017D02*
X163368931Y-60355315D01*
X163368931Y-60355315D02*
X163476680Y-60463065D01*
X162823448Y-60415924D02*
X163530555Y-59708817D01*
X163530555Y-59708817D02*
X163315056Y-59493318D01*
X163315056Y-59493318D02*
X163227509Y-59473115D01*
X163227509Y-59473115D02*
X163166900Y-59479849D01*
X163166900Y-59479849D02*
X163072619Y-59520256D01*
X163072619Y-59520256D02*
X162971604Y-59621271D01*
X162971604Y-59621271D02*
X162931198Y-59715552D01*
X162931198Y-59715552D02*
X162924464Y-59776161D01*
X162924464Y-59776161D02*
X162944667Y-59863707D01*
X162944667Y-59863707D02*
X163160166Y-60079207D01*
X162924464Y-59237413D02*
X162931198Y-59176804D01*
X162931198Y-59176804D02*
X162910995Y-59089257D01*
X162910995Y-59089257D02*
X162776308Y-58954570D01*
X162776308Y-58954570D02*
X162688761Y-58934367D01*
X162688761Y-58934367D02*
X162628152Y-58941101D01*
X162628152Y-58941101D02*
X162533871Y-58981508D01*
X162533871Y-58981508D02*
X162466528Y-59048851D01*
X162466528Y-59048851D02*
X162392450Y-59176804D01*
X162392450Y-59176804D02*
X162311638Y-59904114D01*
X162311638Y-59904114D02*
X161961451Y-59553927D01*
X138081632Y-93301238D02*
X138169178Y-93321441D01*
X138169178Y-93321441D02*
X138249991Y-93402253D01*
X138249991Y-93402253D02*
X138297131Y-93516737D01*
X138297131Y-93516737D02*
X138283662Y-93637955D01*
X138283662Y-93637955D02*
X138243256Y-93732236D01*
X138243256Y-93732236D02*
X138135507Y-93893860D01*
X138135507Y-93893860D02*
X138034491Y-93994876D01*
X138034491Y-93994876D02*
X137872867Y-94102625D01*
X137872867Y-94102625D02*
X137778586Y-94143031D01*
X137778586Y-94143031D02*
X137657368Y-94156500D01*
X137657368Y-94156500D02*
X137542884Y-94109360D01*
X137542884Y-94109360D02*
X137489009Y-94055485D01*
X137489009Y-94055485D02*
X137441869Y-93941001D01*
X137441869Y-93941001D02*
X137448603Y-93880392D01*
X137448603Y-93880392D02*
X137684305Y-93644689D01*
X137684305Y-93644689D02*
X137792055Y-93752439D01*
X137138823Y-93705299D02*
X137845930Y-92998192D01*
X137845930Y-92998192D02*
X137630430Y-92782693D01*
X137630430Y-92782693D02*
X137542884Y-92762490D01*
X137542884Y-92762490D02*
X137482275Y-92769224D01*
X137482275Y-92769224D02*
X137387994Y-92809630D01*
X137387994Y-92809630D02*
X137286978Y-92910645D01*
X137286978Y-92910645D02*
X137246572Y-93004926D01*
X137246572Y-93004926D02*
X137239838Y-93065535D01*
X137239838Y-93065535D02*
X137260041Y-93153082D01*
X137260041Y-93153082D02*
X137475540Y-93368581D01*
X136276826Y-92843302D02*
X136600075Y-93166551D01*
X136438450Y-93004926D02*
X137145557Y-92297819D01*
X137145557Y-92297819D02*
X137098417Y-92452709D01*
X137098417Y-92452709D02*
X137084948Y-92573928D01*
X137084948Y-92573928D02*
X137105151Y-92661474D01*
X136357638Y-92115992D02*
X136445184Y-92136195D01*
X136445184Y-92136195D02*
X136505794Y-92129460D01*
X136505794Y-92129460D02*
X136600075Y-92089054D01*
X136600075Y-92089054D02*
X136633746Y-92055383D01*
X136633746Y-92055383D02*
X136674152Y-91961102D01*
X136674152Y-91961102D02*
X136680887Y-91900493D01*
X136680887Y-91900493D02*
X136660684Y-91812946D01*
X136660684Y-91812946D02*
X136552934Y-91705196D01*
X136552934Y-91705196D02*
X136465388Y-91684993D01*
X136465388Y-91684993D02*
X136404778Y-91691728D01*
X136404778Y-91691728D02*
X136310497Y-91732134D01*
X136310497Y-91732134D02*
X136276826Y-91765806D01*
X136276826Y-91765806D02*
X136236420Y-91860086D01*
X136236420Y-91860086D02*
X136229685Y-91920696D01*
X136229685Y-91920696D02*
X136249888Y-92008242D01*
X136249888Y-92008242D02*
X136357638Y-92115992D01*
X136357638Y-92115992D02*
X136377841Y-92203538D01*
X136377841Y-92203538D02*
X136371107Y-92264147D01*
X136371107Y-92264147D02*
X136330701Y-92358428D01*
X136330701Y-92358428D02*
X136196014Y-92493115D01*
X136196014Y-92493115D02*
X136101733Y-92533522D01*
X136101733Y-92533522D02*
X136041123Y-92540256D01*
X136041123Y-92540256D02*
X135953577Y-92520053D01*
X135953577Y-92520053D02*
X135845827Y-92412303D01*
X135845827Y-92412303D02*
X135825624Y-92324757D01*
X135825624Y-92324757D02*
X135832359Y-92264147D01*
X135832359Y-92264147D02*
X135872765Y-92169867D01*
X135872765Y-92169867D02*
X136007452Y-92035180D01*
X136007452Y-92035180D02*
X136101733Y-91994773D01*
X136101733Y-91994773D02*
X136162342Y-91988039D01*
X136162342Y-91988039D02*
X136249888Y-92008242D01*
X163666257Y-72711863D02*
X163753804Y-72732066D01*
X163753804Y-72732066D02*
X163834616Y-72812878D01*
X163834616Y-72812878D02*
X163881757Y-72927362D01*
X163881757Y-72927362D02*
X163868288Y-73048581D01*
X163868288Y-73048581D02*
X163827882Y-73142862D01*
X163827882Y-73142862D02*
X163720132Y-73304486D01*
X163720132Y-73304486D02*
X163619117Y-73405501D01*
X163619117Y-73405501D02*
X163457492Y-73513251D01*
X163457492Y-73513251D02*
X163363212Y-73553657D01*
X163363212Y-73553657D02*
X163241993Y-73567126D01*
X163241993Y-73567126D02*
X163127509Y-73519985D01*
X163127509Y-73519985D02*
X163073635Y-73466110D01*
X163073635Y-73466110D02*
X163026494Y-73351626D01*
X163026494Y-73351626D02*
X163033228Y-73291017D01*
X163033228Y-73291017D02*
X163268931Y-73055315D01*
X163268931Y-73055315D02*
X163376680Y-73163065D01*
X162723448Y-73115924D02*
X163430555Y-72408817D01*
X163430555Y-72408817D02*
X163215056Y-72193318D01*
X163215056Y-72193318D02*
X163127509Y-72173115D01*
X163127509Y-72173115D02*
X163066900Y-72179849D01*
X163066900Y-72179849D02*
X162972619Y-72220256D01*
X162972619Y-72220256D02*
X162871604Y-72321271D01*
X162871604Y-72321271D02*
X162831198Y-72415552D01*
X162831198Y-72415552D02*
X162824464Y-72476161D01*
X162824464Y-72476161D02*
X162844667Y-72563707D01*
X162844667Y-72563707D02*
X163060166Y-72779207D01*
X162622433Y-71600695D02*
X162730183Y-71708445D01*
X162730183Y-71708445D02*
X162750386Y-71795992D01*
X162750386Y-71795992D02*
X162743651Y-71856601D01*
X162743651Y-71856601D02*
X162696511Y-72011491D01*
X162696511Y-72011491D02*
X162588761Y-72173115D01*
X162588761Y-72173115D02*
X162319387Y-72442489D01*
X162319387Y-72442489D02*
X162225106Y-72482895D01*
X162225106Y-72482895D02*
X162164497Y-72489630D01*
X162164497Y-72489630D02*
X162076951Y-72469427D01*
X162076951Y-72469427D02*
X161969201Y-72361677D01*
X161969201Y-72361677D02*
X161948998Y-72274130D01*
X161948998Y-72274130D02*
X161955732Y-72213521D01*
X161955732Y-72213521D02*
X161996138Y-72119240D01*
X161996138Y-72119240D02*
X162164497Y-71950882D01*
X162164497Y-71950882D02*
X162258778Y-71910475D01*
X162258778Y-71910475D02*
X162319387Y-71903741D01*
X162319387Y-71903741D02*
X162406934Y-71923944D01*
X162406934Y-71923944D02*
X162514683Y-72031694D01*
X162514683Y-72031694D02*
X162534886Y-72119240D01*
X162534886Y-72119240D02*
X162528152Y-72179849D01*
X162528152Y-72179849D02*
X162487746Y-72274130D01*
X138081632Y-85691238D02*
X138169178Y-85711441D01*
X138169178Y-85711441D02*
X138249991Y-85792253D01*
X138249991Y-85792253D02*
X138297131Y-85906737D01*
X138297131Y-85906737D02*
X138283662Y-86027955D01*
X138283662Y-86027955D02*
X138243256Y-86122236D01*
X138243256Y-86122236D02*
X138135507Y-86283860D01*
X138135507Y-86283860D02*
X138034491Y-86384876D01*
X138034491Y-86384876D02*
X137872867Y-86492625D01*
X137872867Y-86492625D02*
X137778586Y-86533031D01*
X137778586Y-86533031D02*
X137657368Y-86546500D01*
X137657368Y-86546500D02*
X137542884Y-86499360D01*
X137542884Y-86499360D02*
X137489009Y-86445485D01*
X137489009Y-86445485D02*
X137441869Y-86331001D01*
X137441869Y-86331001D02*
X137448603Y-86270392D01*
X137448603Y-86270392D02*
X137684305Y-86034689D01*
X137684305Y-86034689D02*
X137792055Y-86142439D01*
X137138823Y-86095299D02*
X137845930Y-85388192D01*
X137845930Y-85388192D02*
X137630430Y-85172693D01*
X137630430Y-85172693D02*
X137542884Y-85152490D01*
X137542884Y-85152490D02*
X137482275Y-85159224D01*
X137482275Y-85159224D02*
X137387994Y-85199630D01*
X137387994Y-85199630D02*
X137286978Y-85300645D01*
X137286978Y-85300645D02*
X137246572Y-85394926D01*
X137246572Y-85394926D02*
X137239838Y-85455535D01*
X137239838Y-85455535D02*
X137260041Y-85543082D01*
X137260041Y-85543082D02*
X137475540Y-85758581D01*
X137239838Y-84916787D02*
X137246572Y-84856178D01*
X137246572Y-84856178D02*
X137226369Y-84768632D01*
X137226369Y-84768632D02*
X137091682Y-84633945D01*
X137091682Y-84633945D02*
X137004136Y-84613742D01*
X137004136Y-84613742D02*
X136943527Y-84620476D01*
X136943527Y-84620476D02*
X136849246Y-84660882D01*
X136849246Y-84660882D02*
X136781902Y-84728226D01*
X136781902Y-84728226D02*
X136707824Y-84856178D01*
X136707824Y-84856178D02*
X136627012Y-85583488D01*
X136627012Y-85583488D02*
X136276826Y-85233302D01*
X135738078Y-84694554D02*
X136061327Y-85017802D01*
X135899702Y-84856178D02*
X136606809Y-84149071D01*
X136606809Y-84149071D02*
X136559668Y-84303961D01*
X136559668Y-84303961D02*
X136546200Y-84425180D01*
X136546200Y-84425180D02*
X136566403Y-84512726D01*
X138081632Y-80601238D02*
X138169178Y-80621441D01*
X138169178Y-80621441D02*
X138249991Y-80702253D01*
X138249991Y-80702253D02*
X138297131Y-80816737D01*
X138297131Y-80816737D02*
X138283662Y-80937955D01*
X138283662Y-80937955D02*
X138243256Y-81032236D01*
X138243256Y-81032236D02*
X138135507Y-81193860D01*
X138135507Y-81193860D02*
X138034491Y-81294876D01*
X138034491Y-81294876D02*
X137872867Y-81402625D01*
X137872867Y-81402625D02*
X137778586Y-81443031D01*
X137778586Y-81443031D02*
X137657368Y-81456500D01*
X137657368Y-81456500D02*
X137542884Y-81409360D01*
X137542884Y-81409360D02*
X137489009Y-81355485D01*
X137489009Y-81355485D02*
X137441869Y-81241001D01*
X137441869Y-81241001D02*
X137448603Y-81180392D01*
X137448603Y-81180392D02*
X137684305Y-80944689D01*
X137684305Y-80944689D02*
X137792055Y-81052439D01*
X137138823Y-81005299D02*
X137845930Y-80298192D01*
X137845930Y-80298192D02*
X137630430Y-80082693D01*
X137630430Y-80082693D02*
X137542884Y-80062490D01*
X137542884Y-80062490D02*
X137482275Y-80069224D01*
X137482275Y-80069224D02*
X137387994Y-80109630D01*
X137387994Y-80109630D02*
X137286978Y-80210645D01*
X137286978Y-80210645D02*
X137246572Y-80304926D01*
X137246572Y-80304926D02*
X137239838Y-80365535D01*
X137239838Y-80365535D02*
X137260041Y-80453082D01*
X137260041Y-80453082D02*
X137475540Y-80668581D01*
X137239838Y-79826787D02*
X137246572Y-79766178D01*
X137246572Y-79766178D02*
X137226369Y-79678632D01*
X137226369Y-79678632D02*
X137091682Y-79543945D01*
X137091682Y-79543945D02*
X137004136Y-79523742D01*
X137004136Y-79523742D02*
X136943527Y-79530476D01*
X136943527Y-79530476D02*
X136849246Y-79570882D01*
X136849246Y-79570882D02*
X136781902Y-79638226D01*
X136781902Y-79638226D02*
X136707824Y-79766178D01*
X136707824Y-79766178D02*
X136627012Y-80493488D01*
X136627012Y-80493488D02*
X136276826Y-80143302D01*
X136701090Y-79288039D02*
X136707824Y-79227430D01*
X136707824Y-79227430D02*
X136687621Y-79139883D01*
X136687621Y-79139883D02*
X136552934Y-79005196D01*
X136552934Y-79005196D02*
X136465388Y-78984993D01*
X136465388Y-78984993D02*
X136404778Y-78991728D01*
X136404778Y-78991728D02*
X136310497Y-79032134D01*
X136310497Y-79032134D02*
X136243154Y-79099477D01*
X136243154Y-79099477D02*
X136169076Y-79227430D01*
X136169076Y-79227430D02*
X136088264Y-79954740D01*
X136088264Y-79954740D02*
X135738078Y-79604554D01*
X163693195Y-82898800D02*
X163780741Y-82919003D01*
X163780741Y-82919003D02*
X163861553Y-82999816D01*
X163861553Y-82999816D02*
X163908694Y-83114300D01*
X163908694Y-83114300D02*
X163895225Y-83235518D01*
X163895225Y-83235518D02*
X163854819Y-83329799D01*
X163854819Y-83329799D02*
X163747069Y-83491423D01*
X163747069Y-83491423D02*
X163646054Y-83592438D01*
X163646054Y-83592438D02*
X163484430Y-83700188D01*
X163484430Y-83700188D02*
X163390149Y-83740594D01*
X163390149Y-83740594D02*
X163268931Y-83754063D01*
X163268931Y-83754063D02*
X163154447Y-83706922D01*
X163154447Y-83706922D02*
X163100572Y-83653048D01*
X163100572Y-83653048D02*
X163053431Y-83538564D01*
X163053431Y-83538564D02*
X163060166Y-83477955D01*
X163060166Y-83477955D02*
X163295868Y-83242252D01*
X163295868Y-83242252D02*
X163403618Y-83350002D01*
X162750386Y-83302861D02*
X163457492Y-82595755D01*
X163457492Y-82595755D02*
X162427137Y-82979613D01*
X162427137Y-82979613D02*
X163134243Y-82272506D01*
X162157763Y-82710239D02*
X162864870Y-82003132D01*
X162864870Y-82003132D02*
X162730183Y-81868445D01*
X162730183Y-81868445D02*
X162615699Y-81821305D01*
X162615699Y-81821305D02*
X162494480Y-81834773D01*
X162494480Y-81834773D02*
X162400199Y-81875179D01*
X162400199Y-81875179D02*
X162238575Y-81982929D01*
X162238575Y-81982929D02*
X162137560Y-82083944D01*
X162137560Y-82083944D02*
X162029810Y-82245569D01*
X162029810Y-82245569D02*
X161989404Y-82339849D01*
X161989404Y-82339849D02*
X161975935Y-82461068D01*
X161975935Y-82461068D02*
X162023076Y-82575552D01*
X162023076Y-82575552D02*
X162157763Y-82710239D01*
X164235632Y-98381238D02*
X164323178Y-98401441D01*
X164323178Y-98401441D02*
X164403991Y-98482253D01*
X164403991Y-98482253D02*
X164451131Y-98596737D01*
X164451131Y-98596737D02*
X164437662Y-98717955D01*
X164437662Y-98717955D02*
X164397256Y-98812236D01*
X164397256Y-98812236D02*
X164289507Y-98973860D01*
X164289507Y-98973860D02*
X164188491Y-99074876D01*
X164188491Y-99074876D02*
X164026867Y-99182625D01*
X164026867Y-99182625D02*
X163932586Y-99223031D01*
X163932586Y-99223031D02*
X163811368Y-99236500D01*
X163811368Y-99236500D02*
X163696884Y-99189360D01*
X163696884Y-99189360D02*
X163643009Y-99135485D01*
X163643009Y-99135485D02*
X163595869Y-99021001D01*
X163595869Y-99021001D02*
X163602603Y-98960392D01*
X163602603Y-98960392D02*
X163838305Y-98724689D01*
X163838305Y-98724689D02*
X163946055Y-98832439D01*
X163292823Y-98785299D02*
X163999930Y-98078192D01*
X163999930Y-98078192D02*
X163784430Y-97862693D01*
X163784430Y-97862693D02*
X163696884Y-97842490D01*
X163696884Y-97842490D02*
X163636275Y-97849224D01*
X163636275Y-97849224D02*
X163541994Y-97889630D01*
X163541994Y-97889630D02*
X163440978Y-97990645D01*
X163440978Y-97990645D02*
X163400572Y-98084926D01*
X163400572Y-98084926D02*
X163393838Y-98145535D01*
X163393838Y-98145535D02*
X163414041Y-98233082D01*
X163414041Y-98233082D02*
X163629540Y-98448581D01*
X162430826Y-97923302D02*
X162754075Y-98246551D01*
X162592450Y-98084926D02*
X163299557Y-97377819D01*
X163299557Y-97377819D02*
X163252417Y-97532709D01*
X163252417Y-97532709D02*
X163238948Y-97653928D01*
X163238948Y-97653928D02*
X163259151Y-97741474D01*
X162417357Y-96967024D02*
X161945953Y-97438428D01*
X162821418Y-96832337D02*
X162451029Y-97472100D01*
X162451029Y-97472100D02*
X162100843Y-97121914D01*
X138265615Y-55463877D02*
X137369946Y-55982422D01*
X137369946Y-55982422D02*
X137888491Y-55086753D01*
X137053432Y-55598564D02*
X136938948Y-55551424D01*
X136938948Y-55551424D02*
X136804261Y-55416737D01*
X136804261Y-55416737D02*
X136784058Y-55329190D01*
X136784058Y-55329190D02*
X136790792Y-55268581D01*
X136790792Y-55268581D02*
X136831198Y-55174300D01*
X136831198Y-55174300D02*
X136898542Y-55106957D01*
X136898542Y-55106957D02*
X136992823Y-55066551D01*
X136992823Y-55066551D02*
X137053432Y-55059816D01*
X137053432Y-55059816D02*
X137140978Y-55080019D01*
X137140978Y-55080019D02*
X137282400Y-55154097D01*
X137282400Y-55154097D02*
X137369946Y-55174300D01*
X137369946Y-55174300D02*
X137430556Y-55167566D01*
X137430556Y-55167566D02*
X137524836Y-55127160D01*
X137524836Y-55127160D02*
X137592180Y-55059816D01*
X137592180Y-55059816D02*
X137632586Y-54965535D01*
X137632586Y-54965535D02*
X137639320Y-54904926D01*
X137639320Y-54904926D02*
X137619117Y-54817380D01*
X137619117Y-54817380D02*
X137484430Y-54682693D01*
X137484430Y-54682693D02*
X137369946Y-54635552D01*
X136683042Y-54622083D02*
X136346325Y-54958801D01*
X137241994Y-54440256D02*
X136683042Y-54622083D01*
X136683042Y-54622083D02*
X136864870Y-54063132D01*
X136029811Y-54574943D02*
X135915327Y-54527803D01*
X135915327Y-54527803D02*
X135780640Y-54393116D01*
X135780640Y-54393116D02*
X135760437Y-54305569D01*
X135760437Y-54305569D02*
X135767171Y-54244960D01*
X135767171Y-54244960D02*
X135807577Y-54150679D01*
X135807577Y-54150679D02*
X135874921Y-54083335D01*
X135874921Y-54083335D02*
X135969202Y-54042929D01*
X135969202Y-54042929D02*
X136029811Y-54036195D01*
X136029811Y-54036195D02*
X136117357Y-54056398D01*
X136117357Y-54056398D02*
X136258779Y-54130476D01*
X136258779Y-54130476D02*
X136346325Y-54150679D01*
X136346325Y-54150679D02*
X136406934Y-54143945D01*
X136406934Y-54143945D02*
X136501215Y-54103539D01*
X136501215Y-54103539D02*
X136568559Y-54036195D01*
X136568559Y-54036195D02*
X136608965Y-53941914D01*
X136608965Y-53941914D02*
X136615699Y-53881305D01*
X136615699Y-53881305D02*
X136595496Y-53793758D01*
X136595496Y-53793758D02*
X136460809Y-53659071D01*
X136460809Y-53659071D02*
X136346325Y-53611931D01*
X164335632Y-90761238D02*
X164423178Y-90781441D01*
X164423178Y-90781441D02*
X164503991Y-90862253D01*
X164503991Y-90862253D02*
X164551131Y-90976737D01*
X164551131Y-90976737D02*
X164537662Y-91097955D01*
X164537662Y-91097955D02*
X164497256Y-91192236D01*
X164497256Y-91192236D02*
X164389507Y-91353860D01*
X164389507Y-91353860D02*
X164288491Y-91454876D01*
X164288491Y-91454876D02*
X164126867Y-91562625D01*
X164126867Y-91562625D02*
X164032586Y-91603031D01*
X164032586Y-91603031D02*
X163911368Y-91616500D01*
X163911368Y-91616500D02*
X163796884Y-91569360D01*
X163796884Y-91569360D02*
X163743009Y-91515485D01*
X163743009Y-91515485D02*
X163695869Y-91401001D01*
X163695869Y-91401001D02*
X163702603Y-91340392D01*
X163702603Y-91340392D02*
X163938305Y-91104689D01*
X163938305Y-91104689D02*
X164046055Y-91212439D01*
X163392823Y-91165299D02*
X164099930Y-90458192D01*
X164099930Y-90458192D02*
X163884430Y-90242693D01*
X163884430Y-90242693D02*
X163796884Y-90222490D01*
X163796884Y-90222490D02*
X163736275Y-90229224D01*
X163736275Y-90229224D02*
X163641994Y-90269630D01*
X163641994Y-90269630D02*
X163540978Y-90370645D01*
X163540978Y-90370645D02*
X163500572Y-90464926D01*
X163500572Y-90464926D02*
X163493838Y-90525535D01*
X163493838Y-90525535D02*
X163514041Y-90613082D01*
X163514041Y-90613082D02*
X163729540Y-90828581D01*
X162530826Y-90303302D02*
X162854075Y-90626551D01*
X162692450Y-90464926D02*
X163399557Y-89757819D01*
X163399557Y-89757819D02*
X163352417Y-89912709D01*
X163352417Y-89912709D02*
X163338948Y-90033928D01*
X163338948Y-90033928D02*
X163359151Y-90121474D01*
X162955090Y-89448039D02*
X162961824Y-89387430D01*
X162961824Y-89387430D02*
X162941621Y-89299883D01*
X162941621Y-89299883D02*
X162806934Y-89165196D01*
X162806934Y-89165196D02*
X162719388Y-89144993D01*
X162719388Y-89144993D02*
X162658778Y-89151728D01*
X162658778Y-89151728D02*
X162564497Y-89192134D01*
X162564497Y-89192134D02*
X162497154Y-89259477D01*
X162497154Y-89259477D02*
X162423076Y-89387430D01*
X162423076Y-89387430D02*
X162342264Y-90114740D01*
X162342264Y-90114740D02*
X161992078Y-89764554D01*
X163766257Y-54921863D02*
X163853804Y-54942066D01*
X163853804Y-54942066D02*
X163934616Y-55022878D01*
X163934616Y-55022878D02*
X163981757Y-55137362D01*
X163981757Y-55137362D02*
X163968288Y-55258581D01*
X163968288Y-55258581D02*
X163927882Y-55352862D01*
X163927882Y-55352862D02*
X163820132Y-55514486D01*
X163820132Y-55514486D02*
X163719117Y-55615501D01*
X163719117Y-55615501D02*
X163557492Y-55723251D01*
X163557492Y-55723251D02*
X163463212Y-55763657D01*
X163463212Y-55763657D02*
X163341993Y-55777126D01*
X163341993Y-55777126D02*
X163227509Y-55729985D01*
X163227509Y-55729985D02*
X163173635Y-55676110D01*
X163173635Y-55676110D02*
X163126494Y-55561626D01*
X163126494Y-55561626D02*
X163133228Y-55501017D01*
X163133228Y-55501017D02*
X163368931Y-55265315D01*
X163368931Y-55265315D02*
X163476680Y-55373065D01*
X162823448Y-55325924D02*
X163530555Y-54618817D01*
X163530555Y-54618817D02*
X163315056Y-54403318D01*
X163315056Y-54403318D02*
X163227509Y-54383115D01*
X163227509Y-54383115D02*
X163166900Y-54389849D01*
X163166900Y-54389849D02*
X163072619Y-54430256D01*
X163072619Y-54430256D02*
X162971604Y-54531271D01*
X162971604Y-54531271D02*
X162931198Y-54625552D01*
X162931198Y-54625552D02*
X162924464Y-54686161D01*
X162924464Y-54686161D02*
X162944667Y-54773707D01*
X162944667Y-54773707D02*
X163160166Y-54989207D01*
X161961451Y-54463927D02*
X162284700Y-54787176D01*
X162123076Y-54625552D02*
X162830183Y-53918445D01*
X162830183Y-53918445D02*
X162783042Y-54073335D01*
X162783042Y-54073335D02*
X162769573Y-54194553D01*
X162769573Y-54194553D02*
X162789777Y-54282100D01*
X164189632Y-85681238D02*
X164277178Y-85701441D01*
X164277178Y-85701441D02*
X164357991Y-85782253D01*
X164357991Y-85782253D02*
X164405131Y-85896737D01*
X164405131Y-85896737D02*
X164391662Y-86017955D01*
X164391662Y-86017955D02*
X164351256Y-86112236D01*
X164351256Y-86112236D02*
X164243507Y-86273860D01*
X164243507Y-86273860D02*
X164142491Y-86374876D01*
X164142491Y-86374876D02*
X163980867Y-86482625D01*
X163980867Y-86482625D02*
X163886586Y-86523031D01*
X163886586Y-86523031D02*
X163765368Y-86536500D01*
X163765368Y-86536500D02*
X163650884Y-86489360D01*
X163650884Y-86489360D02*
X163597009Y-86435485D01*
X163597009Y-86435485D02*
X163549869Y-86321001D01*
X163549869Y-86321001D02*
X163556603Y-86260392D01*
X163556603Y-86260392D02*
X163792305Y-86024689D01*
X163792305Y-86024689D02*
X163900055Y-86132439D01*
X163246823Y-86085299D02*
X163953930Y-85378192D01*
X163953930Y-85378192D02*
X163738430Y-85162693D01*
X163738430Y-85162693D02*
X163650884Y-85142490D01*
X163650884Y-85142490D02*
X163590275Y-85149224D01*
X163590275Y-85149224D02*
X163495994Y-85189630D01*
X163495994Y-85189630D02*
X163394978Y-85290645D01*
X163394978Y-85290645D02*
X163354572Y-85384926D01*
X163354572Y-85384926D02*
X163347838Y-85445535D01*
X163347838Y-85445535D02*
X163368041Y-85533082D01*
X163368041Y-85533082D02*
X163583540Y-85748581D01*
X162384826Y-85223302D02*
X162708075Y-85546551D01*
X162546450Y-85384926D02*
X163253557Y-84677819D01*
X163253557Y-84677819D02*
X163206417Y-84832709D01*
X163206417Y-84832709D02*
X163192948Y-84953928D01*
X163192948Y-84953928D02*
X163213151Y-85041474D01*
X162741746Y-84166009D02*
X162687872Y-84112134D01*
X162687872Y-84112134D02*
X162600325Y-84091931D01*
X162600325Y-84091931D02*
X162539716Y-84098665D01*
X162539716Y-84098665D02*
X162445435Y-84139071D01*
X162445435Y-84139071D02*
X162283810Y-84246821D01*
X162283810Y-84246821D02*
X162115452Y-84415180D01*
X162115452Y-84415180D02*
X162007702Y-84576804D01*
X162007702Y-84576804D02*
X161967296Y-84671085D01*
X161967296Y-84671085D02*
X161960562Y-84731694D01*
X161960562Y-84731694D02*
X161980765Y-84819241D01*
X161980765Y-84819241D02*
X162034640Y-84873115D01*
X162034640Y-84873115D02*
X162122186Y-84893318D01*
X162122186Y-84893318D02*
X162182795Y-84886584D01*
X162182795Y-84886584D02*
X162277076Y-84846178D01*
X162277076Y-84846178D02*
X162438701Y-84738428D01*
X162438701Y-84738428D02*
X162607059Y-84570070D01*
X162607059Y-84570070D02*
X162714809Y-84408445D01*
X162714809Y-84408445D02*
X162755215Y-84314164D01*
X162755215Y-84314164D02*
X162761949Y-84253555D01*
X162761949Y-84253555D02*
X162741746Y-84166009D01*
X137206291Y-78478767D02*
X137731570Y-78330611D01*
X137529540Y-78802016D02*
X138236647Y-78094909D01*
X138236647Y-78094909D02*
X138021147Y-77879410D01*
X138021147Y-77879410D02*
X137933601Y-77859207D01*
X137933601Y-77859207D02*
X137872992Y-77865941D01*
X137872992Y-77865941D02*
X137778711Y-77906347D01*
X137778711Y-77906347D02*
X137677696Y-78007362D01*
X137677696Y-78007362D02*
X137637290Y-78101643D01*
X137637290Y-78101643D02*
X137630555Y-78162253D01*
X137630555Y-78162253D02*
X137650758Y-78249799D01*
X137650758Y-78249799D02*
X137866257Y-78465298D01*
X137670961Y-77529224D02*
X137098542Y-78101643D01*
X137098542Y-78101643D02*
X137004261Y-78142049D01*
X137004261Y-78142049D02*
X136943651Y-78148784D01*
X136943651Y-78148784D02*
X136856105Y-78128581D01*
X136856105Y-78128581D02*
X136748355Y-78020831D01*
X136748355Y-78020831D02*
X136728152Y-77933285D01*
X136728152Y-77933285D02*
X136734887Y-77872675D01*
X136734887Y-77872675D02*
X136775293Y-77778395D01*
X136775293Y-77778395D02*
X137347712Y-77205975D01*
X136371232Y-77643708D02*
X137078339Y-76936601D01*
X137078339Y-76936601D02*
X136047983Y-77320459D01*
X136047983Y-77320459D02*
X136755090Y-76613352D01*
X138081632Y-72991238D02*
X138169178Y-73011441D01*
X138169178Y-73011441D02*
X138249991Y-73092253D01*
X138249991Y-73092253D02*
X138297131Y-73206737D01*
X138297131Y-73206737D02*
X138283662Y-73327955D01*
X138283662Y-73327955D02*
X138243256Y-73422236D01*
X138243256Y-73422236D02*
X138135507Y-73583860D01*
X138135507Y-73583860D02*
X138034491Y-73684876D01*
X138034491Y-73684876D02*
X137872867Y-73792625D01*
X137872867Y-73792625D02*
X137778586Y-73833031D01*
X137778586Y-73833031D02*
X137657368Y-73846500D01*
X137657368Y-73846500D02*
X137542884Y-73799360D01*
X137542884Y-73799360D02*
X137489009Y-73745485D01*
X137489009Y-73745485D02*
X137441869Y-73631001D01*
X137441869Y-73631001D02*
X137448603Y-73570392D01*
X137448603Y-73570392D02*
X137684305Y-73334689D01*
X137684305Y-73334689D02*
X137792055Y-73442439D01*
X137138823Y-73395299D02*
X137845930Y-72688192D01*
X137845930Y-72688192D02*
X137630430Y-72472693D01*
X137630430Y-72472693D02*
X137542884Y-72452490D01*
X137542884Y-72452490D02*
X137482275Y-72459224D01*
X137482275Y-72459224D02*
X137387994Y-72499630D01*
X137387994Y-72499630D02*
X137286978Y-72600645D01*
X137286978Y-72600645D02*
X137246572Y-72694926D01*
X137246572Y-72694926D02*
X137239838Y-72755535D01*
X137239838Y-72755535D02*
X137260041Y-72843082D01*
X137260041Y-72843082D02*
X137475540Y-73058581D01*
X137239838Y-72216787D02*
X137246572Y-72156178D01*
X137246572Y-72156178D02*
X137226369Y-72068632D01*
X137226369Y-72068632D02*
X137091682Y-71933945D01*
X137091682Y-71933945D02*
X137004136Y-71913742D01*
X137004136Y-71913742D02*
X136943527Y-71920476D01*
X136943527Y-71920476D02*
X136849246Y-71960882D01*
X136849246Y-71960882D02*
X136781902Y-72028226D01*
X136781902Y-72028226D02*
X136707824Y-72156178D01*
X136707824Y-72156178D02*
X136627012Y-72883488D01*
X136627012Y-72883488D02*
X136276826Y-72533302D01*
X136795371Y-71637633D02*
X136418247Y-71260509D01*
X136418247Y-71260509D02*
X135953577Y-72210053D01*
X125761904Y-141499299D02*
X125761904Y-142308822D01*
X125761904Y-142308822D02*
X125714285Y-142404060D01*
X125714285Y-142404060D02*
X125666666Y-142451680D01*
X125666666Y-142451680D02*
X125571428Y-142499299D01*
X125571428Y-142499299D02*
X125380952Y-142499299D01*
X125380952Y-142499299D02*
X125285714Y-142451680D01*
X125285714Y-142451680D02*
X125238095Y-142404060D01*
X125238095Y-142404060D02*
X125190476Y-142308822D01*
X125190476Y-142308822D02*
X125190476Y-141499299D01*
X124285714Y-141499299D02*
X124476190Y-141499299D01*
X124476190Y-141499299D02*
X124571428Y-141546918D01*
X124571428Y-141546918D02*
X124619047Y-141594537D01*
X124619047Y-141594537D02*
X124714285Y-141737394D01*
X124714285Y-141737394D02*
X124761904Y-141927870D01*
X124761904Y-141927870D02*
X124761904Y-142308822D01*
X124761904Y-142308822D02*
X124714285Y-142404060D01*
X124714285Y-142404060D02*
X124666666Y-142451680D01*
X124666666Y-142451680D02*
X124571428Y-142499299D01*
X124571428Y-142499299D02*
X124380952Y-142499299D01*
X124380952Y-142499299D02*
X124285714Y-142451680D01*
X124285714Y-142451680D02*
X124238095Y-142404060D01*
X124238095Y-142404060D02*
X124190476Y-142308822D01*
X124190476Y-142308822D02*
X124190476Y-142070727D01*
X124190476Y-142070727D02*
X124238095Y-141975489D01*
X124238095Y-141975489D02*
X124285714Y-141927870D01*
X124285714Y-141927870D02*
X124380952Y-141880251D01*
X124380952Y-141880251D02*
X124571428Y-141880251D01*
X124571428Y-141880251D02*
X124666666Y-141927870D01*
X124666666Y-141927870D02*
X124714285Y-141975489D01*
X124714285Y-141975489D02*
X124761904Y-142070727D01*
X162934299Y-166657142D02*
X162458108Y-166323809D01*
X162934299Y-166085714D02*
X161934299Y-166085714D01*
X161934299Y-166085714D02*
X161934299Y-166466666D01*
X161934299Y-166466666D02*
X161981918Y-166561904D01*
X161981918Y-166561904D02*
X162029537Y-166609523D01*
X162029537Y-166609523D02*
X162124775Y-166657142D01*
X162124775Y-166657142D02*
X162267632Y-166657142D01*
X162267632Y-166657142D02*
X162362870Y-166609523D01*
X162362870Y-166609523D02*
X162410489Y-166561904D01*
X162410489Y-166561904D02*
X162458108Y-166466666D01*
X162458108Y-166466666D02*
X162458108Y-166085714D01*
X162029537Y-167038095D02*
X161981918Y-167085714D01*
X161981918Y-167085714D02*
X161934299Y-167180952D01*
X161934299Y-167180952D02*
X161934299Y-167419047D01*
X161934299Y-167419047D02*
X161981918Y-167514285D01*
X161981918Y-167514285D02*
X162029537Y-167561904D01*
X162029537Y-167561904D02*
X162124775Y-167609523D01*
X162124775Y-167609523D02*
X162220013Y-167609523D01*
X162220013Y-167609523D02*
X162362870Y-167561904D01*
X162362870Y-167561904D02*
X162934299Y-166990476D01*
X162934299Y-166990476D02*
X162934299Y-167609523D01*
X162267632Y-168466666D02*
X162934299Y-168466666D01*
X161886680Y-168228571D02*
X162600965Y-167990476D01*
X162600965Y-167990476D02*
X162600965Y-168609523D01*
X189042857Y-131009060D02*
X189090476Y-131056680D01*
X189090476Y-131056680D02*
X189233333Y-131104299D01*
X189233333Y-131104299D02*
X189328571Y-131104299D01*
X189328571Y-131104299D02*
X189471428Y-131056680D01*
X189471428Y-131056680D02*
X189566666Y-130961441D01*
X189566666Y-130961441D02*
X189614285Y-130866203D01*
X189614285Y-130866203D02*
X189661904Y-130675727D01*
X189661904Y-130675727D02*
X189661904Y-130532870D01*
X189661904Y-130532870D02*
X189614285Y-130342394D01*
X189614285Y-130342394D02*
X189566666Y-130247156D01*
X189566666Y-130247156D02*
X189471428Y-130151918D01*
X189471428Y-130151918D02*
X189328571Y-130104299D01*
X189328571Y-130104299D02*
X189233333Y-130104299D01*
X189233333Y-130104299D02*
X189090476Y-130151918D01*
X189090476Y-130151918D02*
X189042857Y-130199537D01*
X188090476Y-131104299D02*
X188661904Y-131104299D01*
X188376190Y-131104299D02*
X188376190Y-130104299D01*
X188376190Y-130104299D02*
X188471428Y-130247156D01*
X188471428Y-130247156D02*
X188566666Y-130342394D01*
X188566666Y-130342394D02*
X188661904Y-130390013D01*
X187233333Y-130437632D02*
X187233333Y-131104299D01*
X187471428Y-130056680D02*
X187709523Y-130770965D01*
X187709523Y-130770965D02*
X187090476Y-130770965D01*
X162567857Y-147929299D02*
X162901190Y-147453108D01*
X163139285Y-147929299D02*
X163139285Y-146929299D01*
X163139285Y-146929299D02*
X162758333Y-146929299D01*
X162758333Y-146929299D02*
X162663095Y-146976918D01*
X162663095Y-146976918D02*
X162615476Y-147024537D01*
X162615476Y-147024537D02*
X162567857Y-147119775D01*
X162567857Y-147119775D02*
X162567857Y-147262632D01*
X162567857Y-147262632D02*
X162615476Y-147357870D01*
X162615476Y-147357870D02*
X162663095Y-147405489D01*
X162663095Y-147405489D02*
X162758333Y-147453108D01*
X162758333Y-147453108D02*
X163139285Y-147453108D01*
X161615476Y-147929299D02*
X162186904Y-147929299D01*
X161901190Y-147929299D02*
X161901190Y-146929299D01*
X161901190Y-146929299D02*
X161996428Y-147072156D01*
X161996428Y-147072156D02*
X162091666Y-147167394D01*
X162091666Y-147167394D02*
X162186904Y-147215013D01*
X160758333Y-147262632D02*
X160758333Y-147929299D01*
X160996428Y-146881680D02*
X161234523Y-147595965D01*
X161234523Y-147595965D02*
X160615476Y-147595965D01*
X140391666Y-145504299D02*
X140724999Y-145028108D01*
X140963094Y-145504299D02*
X140963094Y-144504299D01*
X140963094Y-144504299D02*
X140582142Y-144504299D01*
X140582142Y-144504299D02*
X140486904Y-144551918D01*
X140486904Y-144551918D02*
X140439285Y-144599537D01*
X140439285Y-144599537D02*
X140391666Y-144694775D01*
X140391666Y-144694775D02*
X140391666Y-144837632D01*
X140391666Y-144837632D02*
X140439285Y-144932870D01*
X140439285Y-144932870D02*
X140486904Y-144980489D01*
X140486904Y-144980489D02*
X140582142Y-145028108D01*
X140582142Y-145028108D02*
X140963094Y-145028108D01*
X139915475Y-145504299D02*
X139724999Y-145504299D01*
X139724999Y-145504299D02*
X139629761Y-145456680D01*
X139629761Y-145456680D02*
X139582142Y-145409060D01*
X139582142Y-145409060D02*
X139486904Y-145266203D01*
X139486904Y-145266203D02*
X139439285Y-145075727D01*
X139439285Y-145075727D02*
X139439285Y-144694775D01*
X139439285Y-144694775D02*
X139486904Y-144599537D01*
X139486904Y-144599537D02*
X139534523Y-144551918D01*
X139534523Y-144551918D02*
X139629761Y-144504299D01*
X139629761Y-144504299D02*
X139820237Y-144504299D01*
X139820237Y-144504299D02*
X139915475Y-144551918D01*
X139915475Y-144551918D02*
X139963094Y-144599537D01*
X139963094Y-144599537D02*
X140010713Y-144694775D01*
X140010713Y-144694775D02*
X140010713Y-144932870D01*
X140010713Y-144932870D02*
X139963094Y-145028108D01*
X139963094Y-145028108D02*
X139915475Y-145075727D01*
X139915475Y-145075727D02*
X139820237Y-145123346D01*
X139820237Y-145123346D02*
X139629761Y-145123346D01*
X139629761Y-145123346D02*
X139534523Y-145075727D01*
X139534523Y-145075727D02*
X139486904Y-145028108D01*
X139486904Y-145028108D02*
X139439285Y-144932870D01*
X143032738Y-150549537D02*
X143127976Y-150501918D01*
X143127976Y-150501918D02*
X143223214Y-150406680D01*
X143223214Y-150406680D02*
X143366071Y-150263822D01*
X143366071Y-150263822D02*
X143461309Y-150216203D01*
X143461309Y-150216203D02*
X143556547Y-150216203D01*
X143508928Y-150454299D02*
X143604166Y-150406680D01*
X143604166Y-150406680D02*
X143699404Y-150311441D01*
X143699404Y-150311441D02*
X143747023Y-150120965D01*
X143747023Y-150120965D02*
X143747023Y-149787632D01*
X143747023Y-149787632D02*
X143699404Y-149597156D01*
X143699404Y-149597156D02*
X143604166Y-149501918D01*
X143604166Y-149501918D02*
X143508928Y-149454299D01*
X143508928Y-149454299D02*
X143318452Y-149454299D01*
X143318452Y-149454299D02*
X143223214Y-149501918D01*
X143223214Y-149501918D02*
X143127976Y-149597156D01*
X143127976Y-149597156D02*
X143080357Y-149787632D01*
X143080357Y-149787632D02*
X143080357Y-150120965D01*
X143080357Y-150120965D02*
X143127976Y-150311441D01*
X143127976Y-150311441D02*
X143223214Y-150406680D01*
X143223214Y-150406680D02*
X143318452Y-150454299D01*
X143318452Y-150454299D02*
X143508928Y-150454299D01*
X142747023Y-149454299D02*
X142127976Y-149454299D01*
X142127976Y-149454299D02*
X142461309Y-149835251D01*
X142461309Y-149835251D02*
X142318452Y-149835251D01*
X142318452Y-149835251D02*
X142223214Y-149882870D01*
X142223214Y-149882870D02*
X142175595Y-149930489D01*
X142175595Y-149930489D02*
X142127976Y-150025727D01*
X142127976Y-150025727D02*
X142127976Y-150263822D01*
X142127976Y-150263822D02*
X142175595Y-150359060D01*
X142175595Y-150359060D02*
X142223214Y-150406680D01*
X142223214Y-150406680D02*
X142318452Y-150454299D01*
X142318452Y-150454299D02*
X142604166Y-150454299D01*
X142604166Y-150454299D02*
X142699404Y-150406680D01*
X142699404Y-150406680D02*
X142747023Y-150359060D01*
X138632738Y-155574537D02*
X138727976Y-155526918D01*
X138727976Y-155526918D02*
X138823214Y-155431680D01*
X138823214Y-155431680D02*
X138966071Y-155288822D01*
X138966071Y-155288822D02*
X139061309Y-155241203D01*
X139061309Y-155241203D02*
X139156547Y-155241203D01*
X139108928Y-155479299D02*
X139204166Y-155431680D01*
X139204166Y-155431680D02*
X139299404Y-155336441D01*
X139299404Y-155336441D02*
X139347023Y-155145965D01*
X139347023Y-155145965D02*
X139347023Y-154812632D01*
X139347023Y-154812632D02*
X139299404Y-154622156D01*
X139299404Y-154622156D02*
X139204166Y-154526918D01*
X139204166Y-154526918D02*
X139108928Y-154479299D01*
X139108928Y-154479299D02*
X138918452Y-154479299D01*
X138918452Y-154479299D02*
X138823214Y-154526918D01*
X138823214Y-154526918D02*
X138727976Y-154622156D01*
X138727976Y-154622156D02*
X138680357Y-154812632D01*
X138680357Y-154812632D02*
X138680357Y-155145965D01*
X138680357Y-155145965D02*
X138727976Y-155336441D01*
X138727976Y-155336441D02*
X138823214Y-155431680D01*
X138823214Y-155431680D02*
X138918452Y-155479299D01*
X138918452Y-155479299D02*
X139108928Y-155479299D01*
X138299404Y-154574537D02*
X138251785Y-154526918D01*
X138251785Y-154526918D02*
X138156547Y-154479299D01*
X138156547Y-154479299D02*
X137918452Y-154479299D01*
X137918452Y-154479299D02*
X137823214Y-154526918D01*
X137823214Y-154526918D02*
X137775595Y-154574537D01*
X137775595Y-154574537D02*
X137727976Y-154669775D01*
X137727976Y-154669775D02*
X137727976Y-154765013D01*
X137727976Y-154765013D02*
X137775595Y-154907870D01*
X137775595Y-154907870D02*
X138347023Y-155479299D01*
X138347023Y-155479299D02*
X137727976Y-155479299D01*
X165567857Y-144854299D02*
X165901190Y-144378108D01*
X166139285Y-144854299D02*
X166139285Y-143854299D01*
X166139285Y-143854299D02*
X165758333Y-143854299D01*
X165758333Y-143854299D02*
X165663095Y-143901918D01*
X165663095Y-143901918D02*
X165615476Y-143949537D01*
X165615476Y-143949537D02*
X165567857Y-144044775D01*
X165567857Y-144044775D02*
X165567857Y-144187632D01*
X165567857Y-144187632D02*
X165615476Y-144282870D01*
X165615476Y-144282870D02*
X165663095Y-144330489D01*
X165663095Y-144330489D02*
X165758333Y-144378108D01*
X165758333Y-144378108D02*
X166139285Y-144378108D01*
X165234523Y-143854299D02*
X164615476Y-143854299D01*
X164615476Y-143854299D02*
X164948809Y-144235251D01*
X164948809Y-144235251D02*
X164805952Y-144235251D01*
X164805952Y-144235251D02*
X164710714Y-144282870D01*
X164710714Y-144282870D02*
X164663095Y-144330489D01*
X164663095Y-144330489D02*
X164615476Y-144425727D01*
X164615476Y-144425727D02*
X164615476Y-144663822D01*
X164615476Y-144663822D02*
X164663095Y-144759060D01*
X164663095Y-144759060D02*
X164710714Y-144806680D01*
X164710714Y-144806680D02*
X164805952Y-144854299D01*
X164805952Y-144854299D02*
X165091666Y-144854299D01*
X165091666Y-144854299D02*
X165186904Y-144806680D01*
X165186904Y-144806680D02*
X165234523Y-144759060D01*
X164139285Y-144854299D02*
X163948809Y-144854299D01*
X163948809Y-144854299D02*
X163853571Y-144806680D01*
X163853571Y-144806680D02*
X163805952Y-144759060D01*
X163805952Y-144759060D02*
X163710714Y-144616203D01*
X163710714Y-144616203D02*
X163663095Y-144425727D01*
X163663095Y-144425727D02*
X163663095Y-144044775D01*
X163663095Y-144044775D02*
X163710714Y-143949537D01*
X163710714Y-143949537D02*
X163758333Y-143901918D01*
X163758333Y-143901918D02*
X163853571Y-143854299D01*
X163853571Y-143854299D02*
X164044047Y-143854299D01*
X164044047Y-143854299D02*
X164139285Y-143901918D01*
X164139285Y-143901918D02*
X164186904Y-143949537D01*
X164186904Y-143949537D02*
X164234523Y-144044775D01*
X164234523Y-144044775D02*
X164234523Y-144282870D01*
X164234523Y-144282870D02*
X164186904Y-144378108D01*
X164186904Y-144378108D02*
X164139285Y-144425727D01*
X164139285Y-144425727D02*
X164044047Y-144473346D01*
X164044047Y-144473346D02*
X163853571Y-144473346D01*
X163853571Y-144473346D02*
X163758333Y-144425727D01*
X163758333Y-144425727D02*
X163710714Y-144378108D01*
X163710714Y-144378108D02*
X163663095Y-144282870D01*
X162442857Y-141824299D02*
X162776190Y-141348108D01*
X163014285Y-141824299D02*
X163014285Y-140824299D01*
X163014285Y-140824299D02*
X162633333Y-140824299D01*
X162633333Y-140824299D02*
X162538095Y-140871918D01*
X162538095Y-140871918D02*
X162490476Y-140919537D01*
X162490476Y-140919537D02*
X162442857Y-141014775D01*
X162442857Y-141014775D02*
X162442857Y-141157632D01*
X162442857Y-141157632D02*
X162490476Y-141252870D01*
X162490476Y-141252870D02*
X162538095Y-141300489D01*
X162538095Y-141300489D02*
X162633333Y-141348108D01*
X162633333Y-141348108D02*
X163014285Y-141348108D01*
X161585714Y-141157632D02*
X161585714Y-141824299D01*
X161823809Y-140776680D02*
X162061904Y-141490965D01*
X162061904Y-141490965D02*
X161442857Y-141490965D01*
X160871428Y-140824299D02*
X160776190Y-140824299D01*
X160776190Y-140824299D02*
X160680952Y-140871918D01*
X160680952Y-140871918D02*
X160633333Y-140919537D01*
X160633333Y-140919537D02*
X160585714Y-141014775D01*
X160585714Y-141014775D02*
X160538095Y-141205251D01*
X160538095Y-141205251D02*
X160538095Y-141443346D01*
X160538095Y-141443346D02*
X160585714Y-141633822D01*
X160585714Y-141633822D02*
X160633333Y-141729060D01*
X160633333Y-141729060D02*
X160680952Y-141776680D01*
X160680952Y-141776680D02*
X160776190Y-141824299D01*
X160776190Y-141824299D02*
X160871428Y-141824299D01*
X160871428Y-141824299D02*
X160966666Y-141776680D01*
X160966666Y-141776680D02*
X161014285Y-141729060D01*
X161014285Y-141729060D02*
X161061904Y-141633822D01*
X161061904Y-141633822D02*
X161109523Y-141443346D01*
X161109523Y-141443346D02*
X161109523Y-141205251D01*
X161109523Y-141205251D02*
X161061904Y-141014775D01*
X161061904Y-141014775D02*
X161014285Y-140919537D01*
X161014285Y-140919537D02*
X160966666Y-140871918D01*
X160966666Y-140871918D02*
X160871428Y-140824299D01*
X158842857Y-141754299D02*
X159176190Y-141278108D01*
X159414285Y-141754299D02*
X159414285Y-140754299D01*
X159414285Y-140754299D02*
X159033333Y-140754299D01*
X159033333Y-140754299D02*
X158938095Y-140801918D01*
X158938095Y-140801918D02*
X158890476Y-140849537D01*
X158890476Y-140849537D02*
X158842857Y-140944775D01*
X158842857Y-140944775D02*
X158842857Y-141087632D01*
X158842857Y-141087632D02*
X158890476Y-141182870D01*
X158890476Y-141182870D02*
X158938095Y-141230489D01*
X158938095Y-141230489D02*
X159033333Y-141278108D01*
X159033333Y-141278108D02*
X159414285Y-141278108D01*
X158461904Y-140849537D02*
X158414285Y-140801918D01*
X158414285Y-140801918D02*
X158319047Y-140754299D01*
X158319047Y-140754299D02*
X158080952Y-140754299D01*
X158080952Y-140754299D02*
X157985714Y-140801918D01*
X157985714Y-140801918D02*
X157938095Y-140849537D01*
X157938095Y-140849537D02*
X157890476Y-140944775D01*
X157890476Y-140944775D02*
X157890476Y-141040013D01*
X157890476Y-141040013D02*
X157938095Y-141182870D01*
X157938095Y-141182870D02*
X158509523Y-141754299D01*
X158509523Y-141754299D02*
X157890476Y-141754299D01*
X157271428Y-140754299D02*
X157176190Y-140754299D01*
X157176190Y-140754299D02*
X157080952Y-140801918D01*
X157080952Y-140801918D02*
X157033333Y-140849537D01*
X157033333Y-140849537D02*
X156985714Y-140944775D01*
X156985714Y-140944775D02*
X156938095Y-141135251D01*
X156938095Y-141135251D02*
X156938095Y-141373346D01*
X156938095Y-141373346D02*
X156985714Y-141563822D01*
X156985714Y-141563822D02*
X157033333Y-141659060D01*
X157033333Y-141659060D02*
X157080952Y-141706680D01*
X157080952Y-141706680D02*
X157176190Y-141754299D01*
X157176190Y-141754299D02*
X157271428Y-141754299D01*
X157271428Y-141754299D02*
X157366666Y-141706680D01*
X157366666Y-141706680D02*
X157414285Y-141659060D01*
X157414285Y-141659060D02*
X157461904Y-141563822D01*
X157461904Y-141563822D02*
X157509523Y-141373346D01*
X157509523Y-141373346D02*
X157509523Y-141135251D01*
X157509523Y-141135251D02*
X157461904Y-140944775D01*
X157461904Y-140944775D02*
X157414285Y-140849537D01*
X157414285Y-140849537D02*
X157366666Y-140801918D01*
X157366666Y-140801918D02*
X157271428Y-140754299D01*
X157651560Y-129282142D02*
X157699180Y-129234523D01*
X157699180Y-129234523D02*
X157746799Y-129091666D01*
X157746799Y-129091666D02*
X157746799Y-128996428D01*
X157746799Y-128996428D02*
X157699180Y-128853571D01*
X157699180Y-128853571D02*
X157603941Y-128758333D01*
X157603941Y-128758333D02*
X157508703Y-128710714D01*
X157508703Y-128710714D02*
X157318227Y-128663095D01*
X157318227Y-128663095D02*
X157175370Y-128663095D01*
X157175370Y-128663095D02*
X156984894Y-128710714D01*
X156984894Y-128710714D02*
X156889656Y-128758333D01*
X156889656Y-128758333D02*
X156794418Y-128853571D01*
X156794418Y-128853571D02*
X156746799Y-128996428D01*
X156746799Y-128996428D02*
X156746799Y-129091666D01*
X156746799Y-129091666D02*
X156794418Y-129234523D01*
X156794418Y-129234523D02*
X156842037Y-129282142D01*
X157746799Y-130234523D02*
X157746799Y-129663095D01*
X157746799Y-129948809D02*
X156746799Y-129948809D01*
X156746799Y-129948809D02*
X156889656Y-129853571D01*
X156889656Y-129853571D02*
X156984894Y-129758333D01*
X156984894Y-129758333D02*
X157032513Y-129663095D01*
X157746799Y-130710714D02*
X157746799Y-130901190D01*
X157746799Y-130901190D02*
X157699180Y-130996428D01*
X157699180Y-130996428D02*
X157651560Y-131044047D01*
X157651560Y-131044047D02*
X157508703Y-131139285D01*
X157508703Y-131139285D02*
X157318227Y-131186904D01*
X157318227Y-131186904D02*
X156937275Y-131186904D01*
X156937275Y-131186904D02*
X156842037Y-131139285D01*
X156842037Y-131139285D02*
X156794418Y-131091666D01*
X156794418Y-131091666D02*
X156746799Y-130996428D01*
X156746799Y-130996428D02*
X156746799Y-130805952D01*
X156746799Y-130805952D02*
X156794418Y-130710714D01*
X156794418Y-130710714D02*
X156842037Y-130663095D01*
X156842037Y-130663095D02*
X156937275Y-130615476D01*
X156937275Y-130615476D02*
X157175370Y-130615476D01*
X157175370Y-130615476D02*
X157270608Y-130663095D01*
X157270608Y-130663095D02*
X157318227Y-130710714D01*
X157318227Y-130710714D02*
X157365846Y-130805952D01*
X157365846Y-130805952D02*
X157365846Y-130996428D01*
X157365846Y-130996428D02*
X157318227Y-131091666D01*
X157318227Y-131091666D02*
X157270608Y-131139285D01*
X157270608Y-131139285D02*
X157175370Y-131186904D01*
X145354299Y-132957142D02*
X144878108Y-132623809D01*
X145354299Y-132385714D02*
X144354299Y-132385714D01*
X144354299Y-132385714D02*
X144354299Y-132766666D01*
X144354299Y-132766666D02*
X144401918Y-132861904D01*
X144401918Y-132861904D02*
X144449537Y-132909523D01*
X144449537Y-132909523D02*
X144544775Y-132957142D01*
X144544775Y-132957142D02*
X144687632Y-132957142D01*
X144687632Y-132957142D02*
X144782870Y-132909523D01*
X144782870Y-132909523D02*
X144830489Y-132861904D01*
X144830489Y-132861904D02*
X144878108Y-132766666D01*
X144878108Y-132766666D02*
X144878108Y-132385714D01*
X144449537Y-133338095D02*
X144401918Y-133385714D01*
X144401918Y-133385714D02*
X144354299Y-133480952D01*
X144354299Y-133480952D02*
X144354299Y-133719047D01*
X144354299Y-133719047D02*
X144401918Y-133814285D01*
X144401918Y-133814285D02*
X144449537Y-133861904D01*
X144449537Y-133861904D02*
X144544775Y-133909523D01*
X144544775Y-133909523D02*
X144640013Y-133909523D01*
X144640013Y-133909523D02*
X144782870Y-133861904D01*
X144782870Y-133861904D02*
X145354299Y-133290476D01*
X145354299Y-133290476D02*
X145354299Y-133909523D01*
X144449537Y-134290476D02*
X144401918Y-134338095D01*
X144401918Y-134338095D02*
X144354299Y-134433333D01*
X144354299Y-134433333D02*
X144354299Y-134671428D01*
X144354299Y-134671428D02*
X144401918Y-134766666D01*
X144401918Y-134766666D02*
X144449537Y-134814285D01*
X144449537Y-134814285D02*
X144544775Y-134861904D01*
X144544775Y-134861904D02*
X144640013Y-134861904D01*
X144640013Y-134861904D02*
X144782870Y-134814285D01*
X144782870Y-134814285D02*
X145354299Y-134242857D01*
X145354299Y-134242857D02*
X145354299Y-134861904D01*
X141442857Y-141129299D02*
X141776190Y-140653108D01*
X142014285Y-141129299D02*
X142014285Y-140129299D01*
X142014285Y-140129299D02*
X141633333Y-140129299D01*
X141633333Y-140129299D02*
X141538095Y-140176918D01*
X141538095Y-140176918D02*
X141490476Y-140224537D01*
X141490476Y-140224537D02*
X141442857Y-140319775D01*
X141442857Y-140319775D02*
X141442857Y-140462632D01*
X141442857Y-140462632D02*
X141490476Y-140557870D01*
X141490476Y-140557870D02*
X141538095Y-140605489D01*
X141538095Y-140605489D02*
X141633333Y-140653108D01*
X141633333Y-140653108D02*
X142014285Y-140653108D01*
X140490476Y-141129299D02*
X141061904Y-141129299D01*
X140776190Y-141129299D02*
X140776190Y-140129299D01*
X140776190Y-140129299D02*
X140871428Y-140272156D01*
X140871428Y-140272156D02*
X140966666Y-140367394D01*
X140966666Y-140367394D02*
X141061904Y-140415013D01*
X139633333Y-140129299D02*
X139823809Y-140129299D01*
X139823809Y-140129299D02*
X139919047Y-140176918D01*
X139919047Y-140176918D02*
X139966666Y-140224537D01*
X139966666Y-140224537D02*
X140061904Y-140367394D01*
X140061904Y-140367394D02*
X140109523Y-140557870D01*
X140109523Y-140557870D02*
X140109523Y-140938822D01*
X140109523Y-140938822D02*
X140061904Y-141034060D01*
X140061904Y-141034060D02*
X140014285Y-141081680D01*
X140014285Y-141081680D02*
X139919047Y-141129299D01*
X139919047Y-141129299D02*
X139728571Y-141129299D01*
X139728571Y-141129299D02*
X139633333Y-141081680D01*
X139633333Y-141081680D02*
X139585714Y-141034060D01*
X139585714Y-141034060D02*
X139538095Y-140938822D01*
X139538095Y-140938822D02*
X139538095Y-140700727D01*
X139538095Y-140700727D02*
X139585714Y-140605489D01*
X139585714Y-140605489D02*
X139633333Y-140557870D01*
X139633333Y-140557870D02*
X139728571Y-140510251D01*
X139728571Y-140510251D02*
X139919047Y-140510251D01*
X139919047Y-140510251D02*
X140014285Y-140557870D01*
X140014285Y-140557870D02*
X140061904Y-140605489D01*
X140061904Y-140605489D02*
X140109523Y-140700727D01*
X137254299Y-143208333D02*
X136778108Y-142875000D01*
X137254299Y-142636905D02*
X136254299Y-142636905D01*
X136254299Y-142636905D02*
X136254299Y-143017857D01*
X136254299Y-143017857D02*
X136301918Y-143113095D01*
X136301918Y-143113095D02*
X136349537Y-143160714D01*
X136349537Y-143160714D02*
X136444775Y-143208333D01*
X136444775Y-143208333D02*
X136587632Y-143208333D01*
X136587632Y-143208333D02*
X136682870Y-143160714D01*
X136682870Y-143160714D02*
X136730489Y-143113095D01*
X136730489Y-143113095D02*
X136778108Y-143017857D01*
X136778108Y-143017857D02*
X136778108Y-142636905D01*
X136682870Y-143779762D02*
X136635251Y-143684524D01*
X136635251Y-143684524D02*
X136587632Y-143636905D01*
X136587632Y-143636905D02*
X136492394Y-143589286D01*
X136492394Y-143589286D02*
X136444775Y-143589286D01*
X136444775Y-143589286D02*
X136349537Y-143636905D01*
X136349537Y-143636905D02*
X136301918Y-143684524D01*
X136301918Y-143684524D02*
X136254299Y-143779762D01*
X136254299Y-143779762D02*
X136254299Y-143970238D01*
X136254299Y-143970238D02*
X136301918Y-144065476D01*
X136301918Y-144065476D02*
X136349537Y-144113095D01*
X136349537Y-144113095D02*
X136444775Y-144160714D01*
X136444775Y-144160714D02*
X136492394Y-144160714D01*
X136492394Y-144160714D02*
X136587632Y-144113095D01*
X136587632Y-144113095D02*
X136635251Y-144065476D01*
X136635251Y-144065476D02*
X136682870Y-143970238D01*
X136682870Y-143970238D02*
X136682870Y-143779762D01*
X136682870Y-143779762D02*
X136730489Y-143684524D01*
X136730489Y-143684524D02*
X136778108Y-143636905D01*
X136778108Y-143636905D02*
X136873346Y-143589286D01*
X136873346Y-143589286D02*
X137063822Y-143589286D01*
X137063822Y-143589286D02*
X137159060Y-143636905D01*
X137159060Y-143636905D02*
X137206680Y-143684524D01*
X137206680Y-143684524D02*
X137254299Y-143779762D01*
X137254299Y-143779762D02*
X137254299Y-143970238D01*
X137254299Y-143970238D02*
X137206680Y-144065476D01*
X137206680Y-144065476D02*
X137159060Y-144113095D01*
X137159060Y-144113095D02*
X137063822Y-144160714D01*
X137063822Y-144160714D02*
X136873346Y-144160714D01*
X136873346Y-144160714D02*
X136778108Y-144113095D01*
X136778108Y-144113095D02*
X136730489Y-144065476D01*
X136730489Y-144065476D02*
X136682870Y-143970238D01*
X135267857Y-143579299D02*
X135601190Y-143103108D01*
X135839285Y-143579299D02*
X135839285Y-142579299D01*
X135839285Y-142579299D02*
X135458333Y-142579299D01*
X135458333Y-142579299D02*
X135363095Y-142626918D01*
X135363095Y-142626918D02*
X135315476Y-142674537D01*
X135315476Y-142674537D02*
X135267857Y-142769775D01*
X135267857Y-142769775D02*
X135267857Y-142912632D01*
X135267857Y-142912632D02*
X135315476Y-143007870D01*
X135315476Y-143007870D02*
X135363095Y-143055489D01*
X135363095Y-143055489D02*
X135458333Y-143103108D01*
X135458333Y-143103108D02*
X135839285Y-143103108D01*
X134934523Y-142579299D02*
X134315476Y-142579299D01*
X134315476Y-142579299D02*
X134648809Y-142960251D01*
X134648809Y-142960251D02*
X134505952Y-142960251D01*
X134505952Y-142960251D02*
X134410714Y-143007870D01*
X134410714Y-143007870D02*
X134363095Y-143055489D01*
X134363095Y-143055489D02*
X134315476Y-143150727D01*
X134315476Y-143150727D02*
X134315476Y-143388822D01*
X134315476Y-143388822D02*
X134363095Y-143484060D01*
X134363095Y-143484060D02*
X134410714Y-143531680D01*
X134410714Y-143531680D02*
X134505952Y-143579299D01*
X134505952Y-143579299D02*
X134791666Y-143579299D01*
X134791666Y-143579299D02*
X134886904Y-143531680D01*
X134886904Y-143531680D02*
X134934523Y-143484060D01*
X133458333Y-142579299D02*
X133648809Y-142579299D01*
X133648809Y-142579299D02*
X133744047Y-142626918D01*
X133744047Y-142626918D02*
X133791666Y-142674537D01*
X133791666Y-142674537D02*
X133886904Y-142817394D01*
X133886904Y-142817394D02*
X133934523Y-143007870D01*
X133934523Y-143007870D02*
X133934523Y-143388822D01*
X133934523Y-143388822D02*
X133886904Y-143484060D01*
X133886904Y-143484060D02*
X133839285Y-143531680D01*
X133839285Y-143531680D02*
X133744047Y-143579299D01*
X133744047Y-143579299D02*
X133553571Y-143579299D01*
X133553571Y-143579299D02*
X133458333Y-143531680D01*
X133458333Y-143531680D02*
X133410714Y-143484060D01*
X133410714Y-143484060D02*
X133363095Y-143388822D01*
X133363095Y-143388822D02*
X133363095Y-143150727D01*
X133363095Y-143150727D02*
X133410714Y-143055489D01*
X133410714Y-143055489D02*
X133458333Y-143007870D01*
X133458333Y-143007870D02*
X133553571Y-142960251D01*
X133553571Y-142960251D02*
X133744047Y-142960251D01*
X133744047Y-142960251D02*
X133839285Y-143007870D01*
X133839285Y-143007870D02*
X133886904Y-143055489D01*
X133886904Y-143055489D02*
X133934523Y-143150727D01*
X134095238Y-157499537D02*
X134190476Y-157451918D01*
X134190476Y-157451918D02*
X134285714Y-157356680D01*
X134285714Y-157356680D02*
X134428571Y-157213822D01*
X134428571Y-157213822D02*
X134523809Y-157166203D01*
X134523809Y-157166203D02*
X134619047Y-157166203D01*
X134571428Y-157404299D02*
X134666666Y-157356680D01*
X134666666Y-157356680D02*
X134761904Y-157261441D01*
X134761904Y-157261441D02*
X134809523Y-157070965D01*
X134809523Y-157070965D02*
X134809523Y-156737632D01*
X134809523Y-156737632D02*
X134761904Y-156547156D01*
X134761904Y-156547156D02*
X134666666Y-156451918D01*
X134666666Y-156451918D02*
X134571428Y-156404299D01*
X134571428Y-156404299D02*
X134380952Y-156404299D01*
X134380952Y-156404299D02*
X134285714Y-156451918D01*
X134285714Y-156451918D02*
X134190476Y-156547156D01*
X134190476Y-156547156D02*
X134142857Y-156737632D01*
X134142857Y-156737632D02*
X134142857Y-157070965D01*
X134142857Y-157070965D02*
X134190476Y-157261441D01*
X134190476Y-157261441D02*
X134285714Y-157356680D01*
X134285714Y-157356680D02*
X134380952Y-157404299D01*
X134380952Y-157404299D02*
X134571428Y-157404299D01*
X133190476Y-157404299D02*
X133761904Y-157404299D01*
X133476190Y-157404299D02*
X133476190Y-156404299D01*
X133476190Y-156404299D02*
X133571428Y-156547156D01*
X133571428Y-156547156D02*
X133666666Y-156642394D01*
X133666666Y-156642394D02*
X133761904Y-156690013D01*
X145467857Y-147804299D02*
X145801190Y-147328108D01*
X146039285Y-147804299D02*
X146039285Y-146804299D01*
X146039285Y-146804299D02*
X145658333Y-146804299D01*
X145658333Y-146804299D02*
X145563095Y-146851918D01*
X145563095Y-146851918D02*
X145515476Y-146899537D01*
X145515476Y-146899537D02*
X145467857Y-146994775D01*
X145467857Y-146994775D02*
X145467857Y-147137632D01*
X145467857Y-147137632D02*
X145515476Y-147232870D01*
X145515476Y-147232870D02*
X145563095Y-147280489D01*
X145563095Y-147280489D02*
X145658333Y-147328108D01*
X145658333Y-147328108D02*
X146039285Y-147328108D01*
X144515476Y-147804299D02*
X145086904Y-147804299D01*
X144801190Y-147804299D02*
X144801190Y-146804299D01*
X144801190Y-146804299D02*
X144896428Y-146947156D01*
X144896428Y-146947156D02*
X144991666Y-147042394D01*
X144991666Y-147042394D02*
X145086904Y-147090013D01*
X143896428Y-146804299D02*
X143801190Y-146804299D01*
X143801190Y-146804299D02*
X143705952Y-146851918D01*
X143705952Y-146851918D02*
X143658333Y-146899537D01*
X143658333Y-146899537D02*
X143610714Y-146994775D01*
X143610714Y-146994775D02*
X143563095Y-147185251D01*
X143563095Y-147185251D02*
X143563095Y-147423346D01*
X143563095Y-147423346D02*
X143610714Y-147613822D01*
X143610714Y-147613822D02*
X143658333Y-147709060D01*
X143658333Y-147709060D02*
X143705952Y-147756680D01*
X143705952Y-147756680D02*
X143801190Y-147804299D01*
X143801190Y-147804299D02*
X143896428Y-147804299D01*
X143896428Y-147804299D02*
X143991666Y-147756680D01*
X143991666Y-147756680D02*
X144039285Y-147709060D01*
X144039285Y-147709060D02*
X144086904Y-147613822D01*
X144086904Y-147613822D02*
X144134523Y-147423346D01*
X144134523Y-147423346D02*
X144134523Y-147185251D01*
X144134523Y-147185251D02*
X144086904Y-146994775D01*
X144086904Y-146994775D02*
X144039285Y-146899537D01*
X144039285Y-146899537D02*
X143991666Y-146851918D01*
X143991666Y-146851918D02*
X143896428Y-146804299D01*
X158842857Y-146329299D02*
X159176190Y-145853108D01*
X159414285Y-146329299D02*
X159414285Y-145329299D01*
X159414285Y-145329299D02*
X159033333Y-145329299D01*
X159033333Y-145329299D02*
X158938095Y-145376918D01*
X158938095Y-145376918D02*
X158890476Y-145424537D01*
X158890476Y-145424537D02*
X158842857Y-145519775D01*
X158842857Y-145519775D02*
X158842857Y-145662632D01*
X158842857Y-145662632D02*
X158890476Y-145757870D01*
X158890476Y-145757870D02*
X158938095Y-145805489D01*
X158938095Y-145805489D02*
X159033333Y-145853108D01*
X159033333Y-145853108D02*
X159414285Y-145853108D01*
X157890476Y-146329299D02*
X158461904Y-146329299D01*
X158176190Y-146329299D02*
X158176190Y-145329299D01*
X158176190Y-145329299D02*
X158271428Y-145472156D01*
X158271428Y-145472156D02*
X158366666Y-145567394D01*
X158366666Y-145567394D02*
X158461904Y-145615013D01*
X157557142Y-145329299D02*
X156938095Y-145329299D01*
X156938095Y-145329299D02*
X157271428Y-145710251D01*
X157271428Y-145710251D02*
X157128571Y-145710251D01*
X157128571Y-145710251D02*
X157033333Y-145757870D01*
X157033333Y-145757870D02*
X156985714Y-145805489D01*
X156985714Y-145805489D02*
X156938095Y-145900727D01*
X156938095Y-145900727D02*
X156938095Y-146138822D01*
X156938095Y-146138822D02*
X156985714Y-146234060D01*
X156985714Y-146234060D02*
X157033333Y-146281680D01*
X157033333Y-146281680D02*
X157128571Y-146329299D01*
X157128571Y-146329299D02*
X157414285Y-146329299D01*
X157414285Y-146329299D02*
X157509523Y-146281680D01*
X157509523Y-146281680D02*
X157557142Y-146234060D01*
X186254299Y-140838095D02*
X187063822Y-140838095D01*
X187063822Y-140838095D02*
X187159060Y-140885714D01*
X187159060Y-140885714D02*
X187206680Y-140933333D01*
X187206680Y-140933333D02*
X187254299Y-141028571D01*
X187254299Y-141028571D02*
X187254299Y-141219047D01*
X187254299Y-141219047D02*
X187206680Y-141314285D01*
X187206680Y-141314285D02*
X187159060Y-141361904D01*
X187159060Y-141361904D02*
X187063822Y-141409523D01*
X187063822Y-141409523D02*
X186254299Y-141409523D01*
X186254299Y-141790476D02*
X186254299Y-142409523D01*
X186254299Y-142409523D02*
X186635251Y-142076190D01*
X186635251Y-142076190D02*
X186635251Y-142219047D01*
X186635251Y-142219047D02*
X186682870Y-142314285D01*
X186682870Y-142314285D02*
X186730489Y-142361904D01*
X186730489Y-142361904D02*
X186825727Y-142409523D01*
X186825727Y-142409523D02*
X187063822Y-142409523D01*
X187063822Y-142409523D02*
X187159060Y-142361904D01*
X187159060Y-142361904D02*
X187206680Y-142314285D01*
X187206680Y-142314285D02*
X187254299Y-142219047D01*
X187254299Y-142219047D02*
X187254299Y-141933333D01*
X187254299Y-141933333D02*
X187206680Y-141838095D01*
X187206680Y-141838095D02*
X187159060Y-141790476D01*
X148967857Y-147879299D02*
X149301190Y-147403108D01*
X149539285Y-147879299D02*
X149539285Y-146879299D01*
X149539285Y-146879299D02*
X149158333Y-146879299D01*
X149158333Y-146879299D02*
X149063095Y-146926918D01*
X149063095Y-146926918D02*
X149015476Y-146974537D01*
X149015476Y-146974537D02*
X148967857Y-147069775D01*
X148967857Y-147069775D02*
X148967857Y-147212632D01*
X148967857Y-147212632D02*
X149015476Y-147307870D01*
X149015476Y-147307870D02*
X149063095Y-147355489D01*
X149063095Y-147355489D02*
X149158333Y-147403108D01*
X149158333Y-147403108D02*
X149539285Y-147403108D01*
X148015476Y-147879299D02*
X148586904Y-147879299D01*
X148301190Y-147879299D02*
X148301190Y-146879299D01*
X148301190Y-146879299D02*
X148396428Y-147022156D01*
X148396428Y-147022156D02*
X148491666Y-147117394D01*
X148491666Y-147117394D02*
X148586904Y-147165013D01*
X147063095Y-147879299D02*
X147634523Y-147879299D01*
X147348809Y-147879299D02*
X147348809Y-146879299D01*
X147348809Y-146879299D02*
X147444047Y-147022156D01*
X147444047Y-147022156D02*
X147539285Y-147117394D01*
X147539285Y-147117394D02*
X147634523Y-147165013D01*
X120124299Y-156107142D02*
X119648108Y-155773809D01*
X120124299Y-155535714D02*
X119124299Y-155535714D01*
X119124299Y-155535714D02*
X119124299Y-155916666D01*
X119124299Y-155916666D02*
X119171918Y-156011904D01*
X119171918Y-156011904D02*
X119219537Y-156059523D01*
X119219537Y-156059523D02*
X119314775Y-156107142D01*
X119314775Y-156107142D02*
X119457632Y-156107142D01*
X119457632Y-156107142D02*
X119552870Y-156059523D01*
X119552870Y-156059523D02*
X119600489Y-156011904D01*
X119600489Y-156011904D02*
X119648108Y-155916666D01*
X119648108Y-155916666D02*
X119648108Y-155535714D01*
X119219537Y-156488095D02*
X119171918Y-156535714D01*
X119171918Y-156535714D02*
X119124299Y-156630952D01*
X119124299Y-156630952D02*
X119124299Y-156869047D01*
X119124299Y-156869047D02*
X119171918Y-156964285D01*
X119171918Y-156964285D02*
X119219537Y-157011904D01*
X119219537Y-157011904D02*
X119314775Y-157059523D01*
X119314775Y-157059523D02*
X119410013Y-157059523D01*
X119410013Y-157059523D02*
X119552870Y-157011904D01*
X119552870Y-157011904D02*
X120124299Y-156440476D01*
X120124299Y-156440476D02*
X120124299Y-157059523D01*
X119124299Y-157392857D02*
X119124299Y-158011904D01*
X119124299Y-158011904D02*
X119505251Y-157678571D01*
X119505251Y-157678571D02*
X119505251Y-157821428D01*
X119505251Y-157821428D02*
X119552870Y-157916666D01*
X119552870Y-157916666D02*
X119600489Y-157964285D01*
X119600489Y-157964285D02*
X119695727Y-158011904D01*
X119695727Y-158011904D02*
X119933822Y-158011904D01*
X119933822Y-158011904D02*
X120029060Y-157964285D01*
X120029060Y-157964285D02*
X120076680Y-157916666D01*
X120076680Y-157916666D02*
X120124299Y-157821428D01*
X120124299Y-157821428D02*
X120124299Y-157535714D01*
X120124299Y-157535714D02*
X120076680Y-157440476D01*
X120076680Y-157440476D02*
X120029060Y-157392857D01*
X131542857Y-140729299D02*
X131876190Y-140253108D01*
X132114285Y-140729299D02*
X132114285Y-139729299D01*
X132114285Y-139729299D02*
X131733333Y-139729299D01*
X131733333Y-139729299D02*
X131638095Y-139776918D01*
X131638095Y-139776918D02*
X131590476Y-139824537D01*
X131590476Y-139824537D02*
X131542857Y-139919775D01*
X131542857Y-139919775D02*
X131542857Y-140062632D01*
X131542857Y-140062632D02*
X131590476Y-140157870D01*
X131590476Y-140157870D02*
X131638095Y-140205489D01*
X131638095Y-140205489D02*
X131733333Y-140253108D01*
X131733333Y-140253108D02*
X132114285Y-140253108D01*
X130685714Y-140062632D02*
X130685714Y-140729299D01*
X130923809Y-139681680D02*
X131161904Y-140395965D01*
X131161904Y-140395965D02*
X130542857Y-140395965D01*
X130257142Y-139729299D02*
X129638095Y-139729299D01*
X129638095Y-139729299D02*
X129971428Y-140110251D01*
X129971428Y-140110251D02*
X129828571Y-140110251D01*
X129828571Y-140110251D02*
X129733333Y-140157870D01*
X129733333Y-140157870D02*
X129685714Y-140205489D01*
X129685714Y-140205489D02*
X129638095Y-140300727D01*
X129638095Y-140300727D02*
X129638095Y-140538822D01*
X129638095Y-140538822D02*
X129685714Y-140634060D01*
X129685714Y-140634060D02*
X129733333Y-140681680D01*
X129733333Y-140681680D02*
X129828571Y-140729299D01*
X129828571Y-140729299D02*
X130114285Y-140729299D01*
X130114285Y-140729299D02*
X130209523Y-140681680D01*
X130209523Y-140681680D02*
X130257142Y-140634060D01*
D11*
%TO.C,R29*%
X130245276Y-146522500D02*
X130754724Y-146522500D01*
X130245276Y-145477500D02*
X130754724Y-145477500D01*
%TO.C,C17*%
X187128733Y-124210000D02*
X187421267Y-124210000D01*
X187128733Y-123190000D02*
X187421267Y-123190000D01*
%TO.C,R32*%
X129745276Y-156022500D02*
X130254724Y-156022500D01*
X129745276Y-154977500D02*
X130254724Y-154977500D01*
%TO.C,R41*%
X148145276Y-143122500D02*
X148654724Y-143122500D01*
X148145276Y-142077500D02*
X148654724Y-142077500D01*
%TO.C,R30*%
X133832776Y-145022500D02*
X134342224Y-145022500D01*
X133832776Y-143977500D02*
X134342224Y-143977500D01*
%TO.C,R38*%
X148654724Y-143677500D02*
X148145276Y-143677500D01*
X148654724Y-144722500D02*
X148145276Y-144722500D01*
%TO.C,R21*%
X167797500Y-142829724D02*
X167797500Y-142320276D01*
X166752500Y-142829724D02*
X166752500Y-142320276D01*
%TO.C,R42*%
X145142224Y-142077500D02*
X144632776Y-142077500D01*
X145142224Y-143122500D02*
X144632776Y-143122500D01*
%TO.C,Q4*%
X148447500Y-151040000D02*
X146627500Y-151040000D01*
X148447500Y-151090000D02*
X148447500Y-151040000D01*
X148447500Y-152990000D02*
X148447500Y-152210000D01*
X148447500Y-154160000D02*
X148447500Y-154110000D01*
X146627500Y-151040000D02*
X146627500Y-152040000D01*
X146627500Y-153160000D02*
X146627500Y-154160000D01*
X146627500Y-154160000D02*
X148447500Y-154160000D01*
X149227500Y-152550000D02*
X148747500Y-152550000D01*
X148987500Y-152220000D01*
X149227500Y-152550000D01*
G36*
X149227500Y-152550000D02*
G01*
X148747500Y-152550000D01*
X148987500Y-152220000D01*
X149227500Y-152550000D01*
G37*
%TO.C,R28*%
X134329724Y-146902500D02*
X133820276Y-146902500D01*
X134329724Y-147947500D02*
X133820276Y-147947500D01*
%TO.C,U8*%
X186147500Y-126490000D02*
X184327500Y-126490000D01*
X186147500Y-126540000D02*
X186147500Y-126490000D01*
X186147500Y-129610000D02*
X186147500Y-129560000D01*
X184327500Y-126490000D02*
X184327500Y-126540000D01*
X184327500Y-129560000D02*
X184327500Y-129610000D01*
X184327500Y-129610000D02*
X186147500Y-129610000D01*
X186687500Y-126540000D02*
X186447500Y-126210000D01*
X186927500Y-126210000D01*
X186687500Y-126540000D01*
G36*
X186687500Y-126540000D02*
G01*
X186447500Y-126210000D01*
X186927500Y-126210000D01*
X186687500Y-126540000D01*
G37*
%TO.C,R25*%
X130842224Y-150477500D02*
X130332776Y-150477500D01*
X130842224Y-151522500D02*
X130332776Y-151522500D01*
%TO.C,Q5*%
X153310000Y-151040000D02*
X151490000Y-151040000D01*
X153310000Y-151090000D02*
X153310000Y-151040000D01*
X153310000Y-152990000D02*
X153310000Y-152210000D01*
X153310000Y-154160000D02*
X153310000Y-154110000D01*
X151490000Y-151040000D02*
X151490000Y-152040000D01*
X151490000Y-153160000D02*
X151490000Y-154160000D01*
X151490000Y-154160000D02*
X153310000Y-154160000D01*
X154090000Y-152550000D02*
X153610000Y-152550000D01*
X153850000Y-152220000D01*
X154090000Y-152550000D01*
G36*
X154090000Y-152550000D02*
G01*
X153610000Y-152550000D01*
X153850000Y-152220000D01*
X154090000Y-152550000D01*
G37*
%TO.C,R26*%
X134429724Y-150477500D02*
X133920276Y-150477500D01*
X134429724Y-151522500D02*
X133920276Y-151522500D01*
%TO.C,R15*%
X167797500Y-146254724D02*
X167797500Y-145745276D01*
X166752500Y-146254724D02*
X166752500Y-145745276D01*
%TO.C,R35*%
X154742224Y-142277500D02*
X154232776Y-142277500D01*
X154742224Y-143322500D02*
X154232776Y-143322500D01*
%TO.C,R27*%
X130829724Y-148402500D02*
X130320276Y-148402500D01*
X130829724Y-149447500D02*
X130320276Y-149447500D01*
%TO.C,R37*%
X144632776Y-144722500D02*
X145142224Y-144722500D01*
X144632776Y-143677500D02*
X145142224Y-143677500D01*
%TO.C,R19*%
X171572500Y-168054724D02*
X171572500Y-167545276D01*
X170527500Y-168054724D02*
X170527500Y-167545276D01*
%TO.C,C15*%
X181590000Y-126978733D02*
X181590000Y-127271267D01*
X182610000Y-126978733D02*
X182610000Y-127271267D01*
%TO.C,Q7*%
X162510000Y-151040000D02*
X160690000Y-151040000D01*
X162510000Y-151090000D02*
X162510000Y-151040000D01*
X162510000Y-152990000D02*
X162510000Y-152210000D01*
X162510000Y-154160000D02*
X162510000Y-154110000D01*
X160690000Y-151040000D02*
X160690000Y-152040000D01*
X160690000Y-153160000D02*
X160690000Y-154160000D01*
X160690000Y-154160000D02*
X162510000Y-154160000D01*
X163290000Y-152550000D02*
X162810000Y-152550000D01*
X163050000Y-152220000D01*
X163290000Y-152550000D01*
G36*
X163290000Y-152550000D02*
G01*
X162810000Y-152550000D01*
X163050000Y-152220000D01*
X163290000Y-152550000D01*
G37*
%TO.C,U7*%
X148127500Y-131210000D02*
X152747500Y-131210000D01*
X152747500Y-123140000D02*
X148127500Y-123140000D01*
X146577500Y-130755000D02*
X146247500Y-130995000D01*
X146247500Y-130515000D01*
X146577500Y-130755000D01*
G36*
X146577500Y-130755000D02*
G01*
X146247500Y-130995000D01*
X146247500Y-130515000D01*
X146577500Y-130755000D01*
G37*
%TO.C,Q8*%
X167110000Y-151040000D02*
X165290000Y-151040000D01*
X167110000Y-151090000D02*
X167110000Y-151040000D01*
X167110000Y-152990000D02*
X167110000Y-152210000D01*
X167110000Y-154160000D02*
X167110000Y-154110000D01*
X165290000Y-151040000D02*
X165290000Y-152040000D01*
X165290000Y-153160000D02*
X165290000Y-154160000D01*
X165290000Y-154160000D02*
X167110000Y-154160000D01*
X167890000Y-152550000D02*
X167410000Y-152550000D01*
X167650000Y-152220000D01*
X167890000Y-152550000D01*
G36*
X167890000Y-152550000D02*
G01*
X167410000Y-152550000D01*
X167650000Y-152220000D01*
X167890000Y-152550000D01*
G37*
%TO.C,C16*%
X187128733Y-125785000D02*
X187421267Y-125785000D01*
X187128733Y-124765000D02*
X187421267Y-124765000D01*
%TO.C,R12*%
X154232776Y-144922500D02*
X154742224Y-144922500D01*
X154232776Y-143877500D02*
X154742224Y-143877500D01*
%TO.C,Q6*%
X158047500Y-151040000D02*
X156227500Y-151040000D01*
X158047500Y-151090000D02*
X158047500Y-151040000D01*
X158047500Y-152990000D02*
X158047500Y-152210000D01*
X158047500Y-154160000D02*
X158047500Y-154110000D01*
X156227500Y-151040000D02*
X156227500Y-152040000D01*
X156227500Y-153160000D02*
X156227500Y-154160000D01*
X156227500Y-154160000D02*
X158047500Y-154160000D01*
X158827500Y-152550000D02*
X158347500Y-152550000D01*
X158587500Y-152220000D01*
X158827500Y-152550000D01*
G36*
X158827500Y-152550000D02*
G01*
X158347500Y-152550000D01*
X158587500Y-152220000D01*
X158827500Y-152550000D01*
G37*
%TO.C,R31*%
X130245276Y-144022500D02*
X130754724Y-144022500D01*
X130245276Y-142977500D02*
X130754724Y-142977500D01*
%TO.C,U10*%
X160610000Y-50970000D02*
X160610000Y-51270000D01*
X160610000Y-50970000D02*
X139610000Y-50970000D01*
X160610000Y-53370000D02*
X160610000Y-53770000D01*
X160610000Y-53637000D02*
X157603000Y-53637000D01*
X160610000Y-55970000D02*
X160610000Y-56370000D01*
X160610000Y-58470000D02*
X160610000Y-58870000D01*
X160610000Y-61070000D02*
X160610000Y-61470000D01*
X160610000Y-63570000D02*
X160610000Y-63970000D01*
X160610000Y-66070000D02*
X160610000Y-66470000D01*
X160610000Y-68670000D02*
X160610000Y-69070000D01*
X160610000Y-71170000D02*
X160610000Y-71570000D01*
X160610000Y-73770000D02*
X160610000Y-74170000D01*
X160610000Y-76270000D02*
X160610000Y-76670000D01*
X160610000Y-78770000D02*
X160610000Y-79170000D01*
X160610000Y-81370000D02*
X160610000Y-81770000D01*
X160610000Y-83870000D02*
X160610000Y-84270000D01*
X160610000Y-86470000D02*
X160610000Y-86870000D01*
X160610000Y-88970000D02*
X160610000Y-89370000D01*
X160610000Y-91570000D02*
X160610000Y-91970000D01*
X160610000Y-94070000D02*
X160610000Y-94470000D01*
X160610000Y-96570000D02*
X160610000Y-96970000D01*
X160610000Y-99170000D02*
X160610000Y-99570000D01*
X157603000Y-53637000D02*
X157603000Y-50970000D01*
X153810000Y-101970000D02*
X160610000Y-101970000D01*
X151610000Y-101970000D02*
X151210000Y-101970000D01*
X149010000Y-101970000D02*
X148610000Y-101970000D01*
X139610000Y-50970000D02*
X139610000Y-51270000D01*
X139610000Y-53370000D02*
X139610000Y-53770000D01*
X139610000Y-55970000D02*
X139610000Y-56370000D01*
X139610000Y-58470000D02*
X139610000Y-58870000D01*
X139610000Y-61070000D02*
X139610000Y-61470000D01*
X139610000Y-63570000D02*
X139610000Y-63970000D01*
X139610000Y-66070000D02*
X139610000Y-66470000D01*
X139610000Y-68670000D02*
X139610000Y-69070000D01*
X139610000Y-71170000D02*
X139610000Y-71570000D01*
X139610000Y-73770000D02*
X139610000Y-74170000D01*
X139610000Y-76270000D02*
X139610000Y-76670000D01*
X139610000Y-78770000D02*
X139610000Y-79170000D01*
X139610000Y-81370000D02*
X139610000Y-81770000D01*
X139610000Y-83870000D02*
X139610000Y-84270000D01*
X139610000Y-86470000D02*
X139610000Y-86870000D01*
X139610000Y-88970000D02*
X139610000Y-89370000D01*
X139610000Y-91570000D02*
X139610000Y-91970000D01*
X139610000Y-94070000D02*
X139610000Y-94470000D01*
X139610000Y-96570000D02*
X139610000Y-96970000D01*
X139610000Y-99170000D02*
X139610000Y-99570000D01*
X139610000Y-101970000D02*
X146410000Y-101970000D01*
%TO.C,U6*%
X125000000Y-142885000D02*
X126950000Y-142885000D01*
X125000000Y-142885000D02*
X123050000Y-142885000D01*
X125000000Y-153005000D02*
X126950000Y-153005000D01*
X125000000Y-153005000D02*
X123050000Y-153005000D01*
X127725000Y-142940000D02*
X127485000Y-142610000D01*
X127965000Y-142610000D01*
X127725000Y-142940000D01*
G36*
X127725000Y-142940000D02*
G01*
X127485000Y-142610000D01*
X127965000Y-142610000D01*
X127725000Y-142940000D01*
G37*
%TO.C,R24*%
X161572500Y-167554724D02*
X161572500Y-167045276D01*
X160527500Y-167554724D02*
X160527500Y-167045276D01*
%TO.C,C14*%
X185396267Y-130115000D02*
X185103733Y-130115000D01*
X185396267Y-131135000D02*
X185103733Y-131135000D01*
%TO.C,R14*%
X161545276Y-146522500D02*
X162054724Y-146522500D01*
X161545276Y-145477500D02*
X162054724Y-145477500D01*
%TO.C,R9*%
X141054724Y-143077500D02*
X140545276Y-143077500D01*
X141054724Y-144122500D02*
X140545276Y-144122500D01*
%TO.C,Q3*%
X143847500Y-151040000D02*
X142027500Y-151040000D01*
X143847500Y-151090000D02*
X143847500Y-151040000D01*
X143847500Y-152990000D02*
X143847500Y-152210000D01*
X143847500Y-154160000D02*
X143847500Y-154110000D01*
X142027500Y-151040000D02*
X142027500Y-152040000D01*
X142027500Y-153160000D02*
X142027500Y-154160000D01*
X142027500Y-154160000D02*
X143847500Y-154160000D01*
X144627500Y-152550000D02*
X144147500Y-152550000D01*
X144387500Y-152220000D01*
X144627500Y-152550000D01*
G36*
X144627500Y-152550000D02*
G01*
X144147500Y-152550000D01*
X144387500Y-152220000D01*
X144627500Y-152550000D01*
G37*
%TO.C,Q2*%
X139447500Y-151040000D02*
X137627500Y-151040000D01*
X139447500Y-151090000D02*
X139447500Y-151040000D01*
X139447500Y-152990000D02*
X139447500Y-152210000D01*
X139447500Y-154160000D02*
X139447500Y-154110000D01*
X137627500Y-151040000D02*
X137627500Y-152040000D01*
X137627500Y-153160000D02*
X137627500Y-154160000D01*
X137627500Y-154160000D02*
X139447500Y-154160000D01*
X140227500Y-152550000D02*
X139747500Y-152550000D01*
X139987500Y-152220000D01*
X140227500Y-152550000D01*
G36*
X140227500Y-152550000D02*
G01*
X139747500Y-152550000D01*
X139987500Y-152220000D01*
X140227500Y-152550000D01*
G37*
%TO.C,R39*%
X161545276Y-144922500D02*
X162054724Y-144922500D01*
X161545276Y-143877500D02*
X162054724Y-143877500D01*
%TO.C,R40*%
X162054724Y-142277500D02*
X161545276Y-142277500D01*
X162054724Y-143322500D02*
X161545276Y-143322500D01*
%TO.C,R20*%
X158454724Y-142277500D02*
X157945276Y-142277500D01*
X158454724Y-143322500D02*
X157945276Y-143322500D01*
%TO.C,C19*%
X156372500Y-130071267D02*
X156372500Y-129778733D01*
X155352500Y-130071267D02*
X155352500Y-129778733D01*
%TO.C,R22*%
X145385000Y-130754724D02*
X145385000Y-130245276D01*
X144340000Y-130754724D02*
X144340000Y-130245276D01*
%TO.C,R16*%
X141054724Y-141477500D02*
X140545276Y-141477500D01*
X141054724Y-142522500D02*
X140545276Y-142522500D01*
%TO.C,R8*%
X138722500Y-142854724D02*
X138722500Y-142345276D01*
X137677500Y-142854724D02*
X137677500Y-142345276D01*
%TO.C,R36*%
X135145276Y-142122500D02*
X135654724Y-142122500D01*
X135145276Y-141077500D02*
X135654724Y-141077500D01*
%TO.C,Q1*%
X134910000Y-152940000D02*
X133090000Y-152940000D01*
X134910000Y-152990000D02*
X134910000Y-152940000D01*
X134910000Y-154890000D02*
X134910000Y-154110000D01*
X134910000Y-156060000D02*
X134910000Y-156010000D01*
X133090000Y-152940000D02*
X133090000Y-153940000D01*
X133090000Y-155060000D02*
X133090000Y-156060000D01*
X133090000Y-156060000D02*
X134910000Y-156060000D01*
X135690000Y-154450000D02*
X135210000Y-154450000D01*
X135450000Y-154120000D01*
X135690000Y-154450000D01*
G36*
X135690000Y-154450000D02*
G01*
X135210000Y-154450000D01*
X135450000Y-154120000D01*
X135690000Y-154450000D01*
G37*
%TO.C,R10*%
X144632776Y-146322500D02*
X145142224Y-146322500D01*
X144632776Y-145277500D02*
X145142224Y-145277500D01*
%TO.C,R13*%
X157945276Y-144922500D02*
X158454724Y-144922500D01*
X157945276Y-143877500D02*
X158454724Y-143877500D01*
D12*
%TO.C,U3*%
X175450000Y-150725000D02*
X198150000Y-150725000D01*
X199450000Y-146225000D02*
X198150000Y-146225000D01*
X198150000Y-146225000D02*
X198150000Y-150725000D01*
X199450000Y-137225000D02*
X199450000Y-146225000D01*
X199450000Y-137225000D02*
X198150000Y-137225000D01*
X198150000Y-132725000D02*
X198150000Y-137225000D01*
X175450000Y-132725000D02*
X175450000Y-150725000D01*
X175450000Y-132725000D02*
X198150000Y-132725000D01*
D11*
%TO.C,R11*%
X148654724Y-145277500D02*
X148145276Y-145277500D01*
X148654724Y-146322500D02*
X148145276Y-146322500D01*
%TO.C,R23*%
X120577500Y-156495276D02*
X120577500Y-157004724D01*
X121622500Y-156495276D02*
X121622500Y-157004724D01*
%TO.C,R43*%
X131545276Y-142122500D02*
X132054724Y-142122500D01*
X131545276Y-141077500D02*
X132054724Y-141077500D01*
%TD*%
D13*
X100000000Y-50000000D02*
X200000000Y-50000000D01*
X200000000Y-175000000D01*
X100000000Y-175000000D01*
X100000000Y-50000000D01*
M02*
