%TF.GenerationSoftware,KiCad,Pcbnew,9.0.6*%
%TF.CreationDate,2025-11-11T13:10:49-05:00*%
%TF.ProjectId,Solder-Oven-PCB-V1,536f6c64-6572-42d4-9f76-656e2d504342,rev?*%
%TF.SameCoordinates,Original*%
%TF.FileFunction,Paste,Top*%
%TF.FilePolarity,Positive*%
%FSLAX46Y46*%
G04 Gerber Fmt 4.6, Leading zero omitted, Abs format (unit mm)*
G04 Created by KiCad (PCBNEW 9.0.6) date 2025-11-11 13:10:49*
%MOMM*%
%LPD*%
G01*
G04 APERTURE LIST*
G04 Aperture macros list*
%AMRoundRect*
0 Rectangle with rounded corners*
0 $1 Rounding radius*
0 $2 $3 $4 $5 $6 $7 $8 $9 X,Y pos of 4 corners*
0 Add a 4 corners polygon primitive as box body*
4,1,4,$2,$3,$4,$5,$6,$7,$8,$9,$2,$3,0*
0 Add four circle primitives for the rounded corners*
1,1,$1+$1,$2,$3*
1,1,$1+$1,$4,$5*
1,1,$1+$1,$6,$7*
1,1,$1+$1,$8,$9*
0 Add four rect primitives between the rounded corners*
20,1,$1+$1,$2,$3,$4,$5,0*
20,1,$1+$1,$4,$5,$6,$7,0*
20,1,$1+$1,$6,$7,$8,$9,0*
20,1,$1+$1,$8,$9,$2,$3,0*%
G04 Aperture macros list end*
%ADD10RoundRect,0.237500X0.250000X0.237500X-0.250000X0.237500X-0.250000X-0.237500X0.250000X-0.237500X0*%
%ADD11RoundRect,0.237500X-0.237500X0.250000X-0.237500X-0.250000X0.237500X-0.250000X0.237500X0.250000X0*%
%ADD12RoundRect,0.237500X0.237500X-0.300000X0.237500X0.300000X-0.237500X0.300000X-0.237500X-0.300000X0*%
%ADD13RoundRect,0.237500X0.237500X-0.250000X0.237500X0.250000X-0.237500X0.250000X-0.237500X-0.250000X0*%
%ADD14RoundRect,0.237500X0.300000X0.237500X-0.300000X0.237500X-0.300000X-0.237500X0.300000X-0.237500X0*%
%ADD15RoundRect,0.250001X0.624999X-0.462499X0.624999X0.462499X-0.624999X0.462499X-0.624999X-0.462499X0*%
%ADD16RoundRect,0.150000X-0.512500X-0.150000X0.512500X-0.150000X0.512500X0.150000X-0.512500X0.150000X0*%
%ADD17RoundRect,0.250000X0.400000X1.450000X-0.400000X1.450000X-0.400000X-1.450000X0.400000X-1.450000X0*%
%ADD18RoundRect,0.150000X-0.825000X-0.150000X0.825000X-0.150000X0.825000X0.150000X-0.825000X0.150000X0*%
%ADD19RoundRect,0.237500X-0.250000X-0.237500X0.250000X-0.237500X0.250000X0.237500X-0.250000X0.237500X0*%
%ADD20RoundRect,0.250000X1.500000X0.650000X-1.500000X0.650000X-1.500000X-0.650000X1.500000X-0.650000X0*%
%ADD21RoundRect,0.237500X-0.237500X0.300000X-0.237500X-0.300000X0.237500X-0.300000X0.237500X0.300000X0*%
%ADD22RoundRect,0.350000X0.800000X-0.350000X0.800000X0.350000X-0.800000X0.350000X-0.800000X-0.350000X0*%
%ADD23RoundRect,0.237500X-0.300000X-0.237500X0.300000X-0.237500X0.300000X0.237500X-0.300000X0.237500X0*%
G04 APERTURE END LIST*
D10*
%TO.C,R34*%
X180712500Y-122800000D03*
X178887500Y-122800000D03*
%TD*%
D11*
%TO.C,R33*%
X113600000Y-75775000D03*
X113600000Y-77600000D03*
%TD*%
D12*
%TO.C,C5*%
X119500000Y-96862500D03*
X119500000Y-95137500D03*
%TD*%
D13*
%TO.C,R18*%
X114000000Y-67412500D03*
X114000000Y-65587500D03*
%TD*%
D14*
%TO.C,C8*%
X124725000Y-96500000D03*
X123000000Y-96500000D03*
%TD*%
D15*
%TO.C,D6*%
X155170000Y-148487500D03*
X155170000Y-145512500D03*
%TD*%
D16*
%TO.C,Q11*%
X182725000Y-121050000D03*
X182725000Y-122950000D03*
X185000000Y-122000000D03*
%TD*%
D15*
%TO.C,D8*%
X161950000Y-148487500D03*
X161950000Y-145512500D03*
%TD*%
%TO.C,D7*%
X158560000Y-148487500D03*
X158560000Y-145512500D03*
%TD*%
D12*
%TO.C,C4*%
X119475000Y-108632500D03*
X119475000Y-106907500D03*
%TD*%
D17*
%TO.C,F1*%
X186883000Y-72644000D03*
X182433000Y-72644000D03*
%TD*%
D12*
%TO.C,C3*%
X119475000Y-100770000D03*
X119475000Y-99045000D03*
%TD*%
D18*
%TO.C,U1*%
X123025000Y-101730000D03*
X123025000Y-103000000D03*
X123025000Y-104270000D03*
X123025000Y-105540000D03*
X127975000Y-105540000D03*
X127975000Y-104270000D03*
X127975000Y-103000000D03*
X127975000Y-101730000D03*
%TD*%
D12*
%TO.C,C1*%
X119475000Y-104632500D03*
X119475000Y-102907500D03*
%TD*%
D13*
%TO.C,R1*%
X113912500Y-100325000D03*
X113912500Y-98500000D03*
%TD*%
D14*
%TO.C,C12*%
X182012500Y-60712500D03*
X180287500Y-60712500D03*
%TD*%
D19*
%TO.C,R6*%
X114087500Y-91500000D03*
X115912500Y-91500000D03*
%TD*%
%TO.C,R3*%
X114087500Y-104635000D03*
X115912500Y-104635000D03*
%TD*%
D12*
%TO.C,C6*%
X119500000Y-92862500D03*
X119500000Y-91137500D03*
%TD*%
D20*
%TO.C,D10*%
X120500000Y-58000000D03*
X115500000Y-58000000D03*
%TD*%
D21*
%TO.C,C11*%
X186300000Y-61725000D03*
X186300000Y-63450000D03*
%TD*%
D19*
%TO.C,R7*%
X113675000Y-83500000D03*
X115500000Y-83500000D03*
%TD*%
D16*
%TO.C,Q9*%
X113662500Y-71650000D03*
X113662500Y-73550000D03*
X115937500Y-72600000D03*
%TD*%
D20*
%TO.C,D9*%
X196556000Y-129540000D03*
X191556000Y-129540000D03*
%TD*%
D15*
%TO.C,D5*%
X151780000Y-148487500D03*
X151780000Y-145512500D03*
%TD*%
D13*
%TO.C,R4*%
X114000000Y-89412500D03*
X114000000Y-87587500D03*
%TD*%
D19*
%TO.C,R2*%
X114087500Y-102635000D03*
X115912500Y-102635000D03*
%TD*%
D14*
%TO.C,C13*%
X182012500Y-59137500D03*
X180287500Y-59137500D03*
%TD*%
D13*
%TO.C,R17*%
X115500000Y-67412500D03*
X115500000Y-65587500D03*
%TD*%
D18*
%TO.C,U2*%
X123050000Y-90460000D03*
X123050000Y-91730000D03*
X123050000Y-93000000D03*
X123050000Y-94270000D03*
X128000000Y-94270000D03*
X128000000Y-93000000D03*
X128000000Y-91730000D03*
X128000000Y-90460000D03*
%TD*%
D14*
%TO.C,C2*%
X124700000Y-108000000D03*
X122975000Y-108000000D03*
%TD*%
D15*
%TO.C,D1*%
X138220000Y-148487500D03*
X138220000Y-145512500D03*
%TD*%
D22*
%TO.C,L1*%
X189300000Y-63412500D03*
X189300000Y-59862500D03*
%TD*%
D15*
%TO.C,D2*%
X141610000Y-148487500D03*
X141610000Y-145512500D03*
%TD*%
D12*
%TO.C,C7*%
X119500000Y-88862500D03*
X119500000Y-87137500D03*
%TD*%
D23*
%TO.C,C10*%
X182362500Y-66212500D03*
X184087500Y-66212500D03*
%TD*%
D16*
%TO.C,U9*%
X182016500Y-62580500D03*
X182016500Y-63530500D03*
X182016500Y-64480500D03*
X184291500Y-64480500D03*
X184291500Y-63530500D03*
X184291500Y-62580500D03*
%TD*%
D23*
%TO.C,C18*%
X182387500Y-69300000D03*
X184112500Y-69300000D03*
%TD*%
D19*
%TO.C,R5*%
X114087500Y-93500000D03*
X115912500Y-93500000D03*
%TD*%
D15*
%TO.C,D3*%
X145000000Y-148487500D03*
X145000000Y-145512500D03*
%TD*%
%TO.C,D4*%
X148390000Y-148487500D03*
X148390000Y-145512500D03*
%TD*%
M02*
