%TF.GenerationSoftware,KiCad,Pcbnew,9.0.6*%
%TF.CreationDate,2025-11-11T13:10:49-05:00*%
%TF.ProjectId,Solder-Oven-PCB-V1,536f6c64-6572-42d4-9f76-656e2d504342,rev?*%
%TF.SameCoordinates,Original*%
%TF.FileFunction,Paste,Bot*%
%TF.FilePolarity,Positive*%
%FSLAX46Y46*%
G04 Gerber Fmt 4.6, Leading zero omitted, Abs format (unit mm)*
G04 Created by KiCad (PCBNEW 9.0.6) date 2025-11-11 13:10:49*
%MOMM*%
%LPD*%
G01*
G04 APERTURE LIST*
G04 Aperture macros list*
%AMRoundRect*
0 Rectangle with rounded corners*
0 $1 Rounding radius*
0 $2 $3 $4 $5 $6 $7 $8 $9 X,Y pos of 4 corners*
0 Add a 4 corners polygon primitive as box body*
4,1,4,$2,$3,$4,$5,$6,$7,$8,$9,$2,$3,0*
0 Add four circle primitives for the rounded corners*
1,1,$1+$1,$2,$3*
1,1,$1+$1,$4,$5*
1,1,$1+$1,$6,$7*
1,1,$1+$1,$8,$9*
0 Add four rect primitives between the rounded corners*
20,1,$1+$1,$2,$3,$4,$5,0*
20,1,$1+$1,$4,$5,$6,$7,0*
20,1,$1+$1,$6,$7,$8,$9,0*
20,1,$1+$1,$8,$9,$2,$3,0*%
G04 Aperture macros list end*
%ADD10RoundRect,0.237500X-0.250000X-0.237500X0.250000X-0.237500X0.250000X0.237500X-0.250000X0.237500X0*%
%ADD11RoundRect,0.237500X-0.300000X-0.237500X0.300000X-0.237500X0.300000X0.237500X-0.300000X0.237500X0*%
%ADD12RoundRect,0.150000X0.512500X0.150000X-0.512500X0.150000X-0.512500X-0.150000X0.512500X-0.150000X0*%
%ADD13RoundRect,0.237500X0.250000X0.237500X-0.250000X0.237500X-0.250000X-0.237500X0.250000X-0.237500X0*%
%ADD14RoundRect,0.237500X0.237500X-0.250000X0.237500X0.250000X-0.237500X0.250000X-0.237500X-0.250000X0*%
%ADD15RoundRect,0.350000X0.800000X-0.350000X0.800000X0.350000X-0.800000X0.350000X-0.800000X-0.350000X0*%
%ADD16RoundRect,0.237500X-0.237500X0.300000X-0.237500X-0.300000X0.237500X-0.300000X0.237500X0.300000X0*%
%ADD17RoundRect,0.100000X-0.637500X-0.100000X0.637500X-0.100000X0.637500X0.100000X-0.637500X0.100000X0*%
%ADD18RoundRect,0.150000X0.850000X0.150000X-0.850000X0.150000X-0.850000X-0.150000X0.850000X-0.150000X0*%
%ADD19RoundRect,0.237500X0.300000X0.237500X-0.300000X0.237500X-0.300000X-0.237500X0.300000X-0.237500X0*%
%ADD20RoundRect,0.237500X0.237500X-0.300000X0.237500X0.300000X-0.237500X0.300000X-0.237500X-0.300000X0*%
%ADD21RoundRect,0.237500X-0.237500X0.250000X-0.237500X-0.250000X0.237500X-0.250000X0.237500X0.250000X0*%
G04 APERTURE END LIST*
D10*
%TO.C,R29*%
X129587500Y-146000000D03*
X131412500Y-146000000D03*
%TD*%
D11*
%TO.C,C17*%
X186412500Y-123700000D03*
X188137500Y-123700000D03*
%TD*%
D10*
%TO.C,R32*%
X129087500Y-155500000D03*
X130912500Y-155500000D03*
%TD*%
%TO.C,R30*%
X133175000Y-144500000D03*
X135000000Y-144500000D03*
%TD*%
%TO.C,R21*%
X161087500Y-142000000D03*
X162912500Y-142000000D03*
%TD*%
D12*
%TO.C,Q4*%
X148675000Y-151650000D03*
X148675000Y-153550000D03*
X146400000Y-152600000D03*
%TD*%
D13*
%TO.C,R28*%
X134912500Y-147000000D03*
X133087500Y-147000000D03*
%TD*%
D12*
%TO.C,U8*%
X186375000Y-127100000D03*
X186375000Y-128050000D03*
X186375000Y-129000000D03*
X184100000Y-129000000D03*
X184100000Y-128050000D03*
X184100000Y-127100000D03*
%TD*%
D13*
%TO.C,R25*%
X131500000Y-151000000D03*
X129675000Y-151000000D03*
%TD*%
D12*
%TO.C,Q5*%
X153537500Y-151650000D03*
X153537500Y-153550000D03*
X151262500Y-152600000D03*
%TD*%
D13*
%TO.C,R26*%
X134912500Y-149500000D03*
X133087500Y-149500000D03*
%TD*%
%TO.C,R15*%
X162912500Y-143500000D03*
X161087500Y-143500000D03*
%TD*%
%TO.C,R27*%
X131500000Y-148500000D03*
X129675000Y-148500000D03*
%TD*%
D14*
%TO.C,R19*%
X171050000Y-168712500D03*
X171050000Y-166887500D03*
%TD*%
D15*
%TO.C,L2*%
X179000000Y-128025000D03*
X179000000Y-124475000D03*
%TD*%
D16*
%TO.C,C15*%
X182100000Y-126262500D03*
X182100000Y-127987500D03*
%TD*%
D12*
%TO.C,Q7*%
X162737500Y-151650000D03*
X162737500Y-153550000D03*
X160462500Y-152600000D03*
%TD*%
D17*
%TO.C,U7*%
X147575000Y-130750000D03*
X147575000Y-130100000D03*
X147575000Y-129450000D03*
X147575000Y-128800000D03*
X147575000Y-128150000D03*
X147575000Y-127500000D03*
X147575000Y-126850000D03*
X147575000Y-126200000D03*
X147575000Y-125550000D03*
X147575000Y-124900000D03*
X147575000Y-124250000D03*
X147575000Y-123600000D03*
X153300000Y-123600000D03*
X153300000Y-124250000D03*
X153300000Y-124900000D03*
X153300000Y-125550000D03*
X153300000Y-126200000D03*
X153300000Y-126850000D03*
X153300000Y-127500000D03*
X153300000Y-128150000D03*
X153300000Y-128800000D03*
X153300000Y-129450000D03*
X153300000Y-130100000D03*
X153300000Y-130750000D03*
%TD*%
D12*
%TO.C,Q8*%
X167337500Y-151650000D03*
X167337500Y-153550000D03*
X165062500Y-152600000D03*
%TD*%
D11*
%TO.C,C16*%
X186412500Y-125275000D03*
X188137500Y-125275000D03*
%TD*%
D14*
%TO.C,R12*%
X150500000Y-143412500D03*
X150500000Y-141587500D03*
%TD*%
D12*
%TO.C,Q6*%
X158275000Y-151650000D03*
X158275000Y-153550000D03*
X156000000Y-152600000D03*
%TD*%
D10*
%TO.C,R31*%
X129587500Y-143500000D03*
X131412500Y-143500000D03*
%TD*%
D18*
%TO.C,U6*%
X127500000Y-143500000D03*
X127500000Y-144770000D03*
X127500000Y-146040000D03*
X127500000Y-147310000D03*
X127500000Y-148580000D03*
X127500000Y-149850000D03*
X127500000Y-151120000D03*
X127500000Y-152390000D03*
X122500000Y-152390000D03*
X122500000Y-151120000D03*
X122500000Y-149850000D03*
X122500000Y-148580000D03*
X122500000Y-147310000D03*
X122500000Y-146040000D03*
X122500000Y-144770000D03*
X122500000Y-143500000D03*
%TD*%
D14*
%TO.C,R24*%
X161050000Y-168212500D03*
X161050000Y-166387500D03*
%TD*%
D19*
%TO.C,C14*%
X186112500Y-130625000D03*
X184387500Y-130625000D03*
%TD*%
D14*
%TO.C,R14*%
X158500000Y-143500000D03*
X158500000Y-141675000D03*
%TD*%
D13*
%TO.C,R9*%
X142412500Y-143500000D03*
X140587500Y-143500000D03*
%TD*%
D12*
%TO.C,Q3*%
X144075000Y-151650000D03*
X144075000Y-153550000D03*
X141800000Y-152600000D03*
%TD*%
%TO.C,Q2*%
X139675000Y-151650000D03*
X139675000Y-153550000D03*
X137400000Y-152600000D03*
%TD*%
D10*
%TO.C,R20*%
X154087500Y-142000000D03*
X155912500Y-142000000D03*
%TD*%
D20*
%TO.C,C19*%
X155862500Y-130787500D03*
X155862500Y-129062500D03*
%TD*%
D14*
%TO.C,R22*%
X144862500Y-131412500D03*
X144862500Y-129587500D03*
%TD*%
D13*
%TO.C,R16*%
X142412500Y-142000000D03*
X140587500Y-142000000D03*
%TD*%
D14*
%TO.C,R8*%
X138000000Y-143412500D03*
X138000000Y-141587500D03*
%TD*%
D12*
%TO.C,Q1*%
X135137500Y-153550000D03*
X135137500Y-155450000D03*
X132862500Y-154500000D03*
%TD*%
D14*
%TO.C,R10*%
X145000000Y-143412500D03*
X145000000Y-141587500D03*
%TD*%
D13*
%TO.C,R13*%
X155912500Y-143500000D03*
X154087500Y-143500000D03*
%TD*%
D14*
%TO.C,R11*%
X148500000Y-143412500D03*
X148500000Y-141587500D03*
%TD*%
D21*
%TO.C,R23*%
X121100000Y-155837500D03*
X121100000Y-157662500D03*
%TD*%
M02*
